<svg id="Layer_1" data-name="Layer 1" xmlns="http://www.w3.org/2000/svg" viewBox="0 0 713.81 970.25"><defs><style>.cls-1,.cls-5{fill:#fff;}.cls-1,.cls-7{stroke:#193f4c;stroke-width:5.88px;}.cls-1,.cls-3,.cls-5,.cls-6,.cls-7,.cls-8{stroke-linecap:round;}.cls-1,.cls-3,.cls-5,.cls-6,.cls-7{stroke-linejoin:round;}.cls-2{fill:#e1b1d1;}.cls-2,.cls-3,.cls-5,.cls-6,.cls-8{stroke:#1b3f4b;}.cls-2,.cls-8{stroke-miterlimit:10;}.cls-2,.cls-3,.cls-5{stroke-width:5.39px;}.cls-3,.cls-6{fill:#f5a94d;}.cls-4{fill:#1b3f4b;}.cls-6{stroke-width:4.96px;}.cls-7,.cls-8{fill:none;}.cls-8{stroke-width:5px;}</style></defs><path class="cls-1" d="M241,406s22.14-7.41,26.09-8.62,13.87-9.62,13.87-9.62,9.75,3.11,6.7,12.09c0,0-6.75,7.13-9.16,8.47s-11.27,6-11.27,6"/><path class="cls-2" d="M538.07,610.42s.18-26.7-21.33-21.91l42-62.46-72.09-30.92-2-36.85,107.72,61.66Z"/><path class="cls-1" d="M545.7,608.36c-6.65-7.44,2.08-26.08-17.79-30.18l-17.6,16.66h0A9.87,9.87,0,0,0,498,598.67c-8.42,14.14-26.58,42.48-36.14,62.08-3.41,7,1.77,13.3,5,15.87l18.61,14.57L489,696c3.27,3.11,8.53,3.92,12.8,2.87l7.28-2.06h0a9.89,9.89,0,0,0,9,4.55l13.76-.18h0a10.4,10.4,0,0,0,10.08,2l10.49-1.69a11.17,11.17,0,0,0,7.63-10.9l-.07-29.87s-.75-10.14-14.72-13.45l4.33-29.56S550,613.13,545.7,608.36Z"/><line class="cls-1" x1="542.93" y1="678.91" x2="545.33" y2="647.35"/><path class="cls-1" d="M514.82,665.24c.48,1.45,17.1,36,17.1,36"/><path class="cls-1" d="M494.34,667.46c.48,1.46,15.27,29.88,15.27,29.88"/><path class="cls-1" d="M545.7,608.36c-6.65-7.44,2.08-26.08-17.79-30.18l-17.6,16.66h0A9.87,9.87,0,0,0,498,598.67c-8.42,14.14-26.58,42.48-36.14,62.08-3.41,7,1.77,13.3,5,15.87l18.61,14.57L489,696c3.27,3.11,8.53,3.92,12.8,2.87l7.28-2.06h0a9.89,9.89,0,0,0,9,4.55l13.76-.18h0a10.4,10.4,0,0,0,10.08,2l10.49-1.69a11.17,11.17,0,0,0,7.63-10.9l-.07-29.87s-.75-10.14-14.72-13.45l4.33-29.56S550,613.13,545.7,608.36Z"/><line class="cls-1" x1="542.93" y1="678.91" x2="545.33" y2="647.35"/><path class="cls-1" d="M514.82,665.24c.48,1.45,17.1,36,17.1,36"/><path class="cls-1" d="M494.34,667.46c.48,1.46,15.27,29.88,15.27,29.88"/><path class="cls-1" d="M475.89,667.52c.48,1.45,15.27,29.88,15.27,29.88"/><path class="cls-2" d="M411.57,695.21,391.74,821.72a8.1,8.1,0,0,1-2.93,3.24l-.12.08c-6.79,4-14.84-3.07-12.07-10.47l.26-100.47-61.51-12.59,38.22,84c-12.43,8.69-17,4.35-17,4.35l-59.76-106.3"/><path class="cls-1" d="M179.42,505.47l24.8-2.14,30.25,21.89s11.51-2.86,6.17-12.35c0,0-5.22-10.92-26-24.66l-9.41-5.73"/><polygon class="cls-3" points="224.4 580.21 218.62 622.57 211.78 672.64 463.08 706.96 470.65 651.48 472.18 640.26 488.25 522.6 497.41 455.49 246.12 421.18 236.97 488.19 224.4 580.21"/><path class="cls-4" d="M364.71,366.86a6.29,6.29,0,0,0,.38-12.58,76.74,76.74,0,0,1-47.52-19.74,6.29,6.29,0,1,0-8.49,9.28,89.51,89.51,0,0,0,55.43,23Z"/><path class="cls-4" d="M473.35,400.08a6.29,6.29,0,0,1-11.56,5,76.77,76.77,0,0,0-35.77-37,6.29,6.29,0,1,1,5.52-11.3,89.47,89.47,0,0,1,41.73,43.15A1.42,1.42,0,0,1,473.35,400.08Z"/><path class="cls-3" d="M293.2,522.6l16.38-115.43a24.4,24.4,0,0,1,27.48-20.88h0c13.36,1.82,23.7,14.21,21.88,27.56L342.49,527l-73.22-3.27"/><path class="cls-3" d="M431,539l15.45-113.17a24.4,24.4,0,0,0-20.87-27.48h0c-13.36-1.82-26,5.1-27.84,18.46l-16,117.85"/><path class="cls-2" d="M118.27,598.64c20.55-6.32,106.19-33.28,106.19-33.28l6.32-36.19-85.25,38.35,5.87-54.91-23.6-13.29Z"/><polyline class="cls-5" points="293.2 522.6 309.58 407.17 356.57 430.32 342.49 526.95 269.27 523.68"/><polyline class="cls-5" points="381.02 529.85 397.76 416.84 444.06 441.55 429.89 539.17"/><path class="cls-4" d="M329,464.38a6.69,6.69,0,0,1,7.09-10.5l2.26-16.55A9.76,9.76,0,0,0,319,434.69L311.43,490a9.76,9.76,0,1,0,19.34,2.64l3.5-25.59A6.68,6.68,0,0,1,329,464.38Z"/><path class="cls-4" d="M417.51,476.47A6.69,6.69,0,0,1,424.6,466l2.26-16.55a9.76,9.76,0,0,0-19.35-2.64L400,502a9.76,9.76,0,1,0,19.34,2.65l3.49-25.59A6.66,6.66,0,0,1,417.51,476.47Z"/><ellipse class="cls-5" cx="368.86" cy="611.89" rx="12.82" ry="14.43" transform="translate(-271.3 929.18) rotate(-85.28)"/><line class="cls-5" x1="449.88" y1="546.2" x2="402.93" y2="537.49"/><path class="cls-1" d="M271.07,436.85s12.94,2.44,13.74-7.92a18.35,18.35,0,0,0,7.59-4.31,4.52,4.52,0,0,0-2.33-7.56l-9.3-1.18L229,406.16l-24.25,15.38"/><path class="cls-1" d="M284.81,428.93s-.41-1.81-3.46-2.64l-14.17-3.5L243,413.35,229,406.16"/><path class="cls-1" d="M205.24,482.48l3.86-17.72,23.2-23.83s38.2,12.08,38.92-5.66c-1.38-3.09-3.25-2.72-3.25-2.72L254,429.27l-31.22-15.55s-7.45-3.29-19.56,5.34l-31.54,22.33a118.49,118.49,0,0,0-40.14,49.31l-3.77,8.62s22.72,15.89,23.6,13.29,6.34-12.15,6.34-12.15c8.19,5.2,12,5.84,21.68,5"/><path class="cls-1" d="M195.86,459.29c4.64-4.76,25.06-21.54,25.06-21.54l11.38,3.18"/><path class="cls-3" d="M357.92,546.27c5.33,4.82,12.56,7.33,19.68,7.71,10.32.56,24.6-4.31,25.33-16.49s-10.69-21.85-23.11-21.09c0,0-7.95-1.08-16.79,4.4"/><path class="cls-6" d="M386.56,804c0,10.48-14.68,12.65-33.89,12.65S317,814.49,317,804s17.35-26.35,36.56-26.35S386.56,793.54,386.56,804Z"/><path class="cls-6" d="M403,818.34c0,10.48-14.68,12.65-33.88,12.65s-35.68-2.17-35.68-12.65S350.83,792,370,792,403,807.86,403,818.34Z"/><path class="cls-7" d="M401.42,614.58a32.66,32.66,0,0,1-35.25,29.87"/><line class="cls-8" x1="230.55" y1="202.79" x2="254.03" y2="238.65"/><line class="cls-8" x1="124.53" y1="366.06" x2="166.48" y2="374.81"/><line class="cls-8" x1="624.71" y1="458.76" x2="582.75" y2="450.01"/><line class="cls-8" x1="584.23" y1="268.35" x2="548.38" y2="291.82"/><line class="cls-8" x1="420.97" y1="162.32" x2="412.21" y2="204.27"/></svg>