<?xml version="1.0" encoding="utf-8"?>
<!-- Generator: Adobe Illustrator 24.1.0, SVG Export Plug-In . SVG Version: 6.00 Build 0)  -->
<svg version="1.1" id="Layer_1" xmlns="http://www.w3.org/2000/svg" xmlns:xlink="http://www.w3.org/1999/xlink" x="0px" y="0px"
	 viewBox="0 0 170.67 39.19" style="enable-background:new 0 0 170.67 39.19;" xml:space="preserve">
<g>
	<path d="M22.42,21.74c4.96-0.08,9.52-0.58,13.03-1.42L24.37,1.39c-1.09-1.86-2.87-1.86-3.95,0L9.33,20.36
		C12.99,21.29,17.71,21.82,22.42,21.74z M2.45,15.93c0.02-2.49,6.38-4.62,12.57-5.31l0.87-1.49C7.2,10.15,0,12.89,0,16.14
		c0,2.36,3.13,4.57,8.27,6.01l1.05-1.8C5.22,19.31,2.44,17.75,2.45,15.93z M44.81,16.08c0-3.41-6.54-6.17-15.91-6.97l0.89,1.51
		c7.83,0.75,12.57,2.54,12.57,5.3c0,1.88-2.69,3.39-6.9,4.39l1.04,1.77C41.58,20.63,44.81,18.42,44.81,16.08z M8.27,22.16L5.03,27.7
		c-1.09,1.86-0.2,3.38,1.97,3.38h30.8c2.17,0,3.05-1.52,1.97-3.38l-3.28-5.61c-3.83,1.1-8.7,1.78-14.06,1.78
		C16.91,23.87,12.05,23.22,8.27,22.16z"/>
	<g>
		<g>
			<path d="M61.08,31.39c-4.01,0-6.67-0.94-9.19-3.24l-0.36-0.32l2.55-2.33l0.3,0.27c1.98,1.81,3.82,2.48,6.78,2.48
				c3.56,0,5.69-1.48,5.69-3.95c0-0.8-0.19-1.91-1.07-2.62c-0.75-0.59-1.31-0.78-3.18-1.04l-3.03-0.43
				c-2.13-0.31-3.8-0.95-4.99-1.89c-1.42-1.15-2.14-2.76-2.14-4.77c0-4.33,3.44-7.13,8.75-7.13c3.36,0,5.68,0.78,8.01,2.7l0.39,0.32
				l-2.44,2.23l-0.29-0.25c-1.65-1.37-3.32-1.93-5.77-1.93c-3.1,0-5.03,1.52-5.03,3.95c0,1.07,0.33,1.85,1,2.38
				c0.69,0.55,1.96,1.01,3.29,1.21l2.84,0.4c2.41,0.33,3.75,0.81,4.95,1.76c1.54,1.19,2.35,2.93,2.35,5.04
				C70.5,28.57,66.8,31.39,61.08,31.39z"/>
		</g>
		<g>
			<path d="M80.41,31.17c-3.06,0-5.04-2.06-5.04-5.25V15.34h-2.26v-2.89h2.26V6.84h3.51v5.62h3.83v2.89h-3.83v10.5
				c0,1.49,0.64,2.19,2,2.19h1.83v3.14h-2.3V31.17z"/>
		</g>
		<g>
			<path d="M92.78,31.39c-2.6,0-4.16-0.51-5.39-1.77c-0.93-0.94-1.47-2.38-1.47-3.95c0-3.52,2.48-5.62,6.64-5.62h4.96v-1.27
				c0-2.48-1.2-3.5-4.15-3.5c-2.13,0-3.18,0.47-4.16,1.86l-0.29,0.41l-2.45-2.25l0.25-0.32c1.82-2.36,3.91-2.83,6.69-2.83
				c6.3,0,7.62,3.49,7.62,6.42v12.62h-3.51V30C96.24,31.01,94.89,31.39,92.78,31.39z M92.92,22.89c-1.53,0-3.57,0.28-3.57,2.73
				c0,1.3,0.44,2.62,3.68,2.62c1.42,0,2.67-0.08,3.71-1.08c0.52-0.49,0.78-1.4,0.78-2.78v-1.49C97.52,22.89,92.92,22.89,92.92,22.89
				z"/>
		</g>
		<g>
			<path d="M111.74,31.17c-3.06,0-5.04-2.06-5.04-5.25V15.34h-2.26v-2.89h2.26V6.84h3.51v5.62h3.83v2.89h-3.83v10.5
				c0,1.47,0.66,2.19,2,2.19h1.83v3.14h-2.3V31.17z"/>
		</g>
		<g>
			<path d="M117.88,39.19V12.35h3.5v1.41c1.51-1.42,3.16-1.63,4.63-1.63c1.87,0,3.62,0.63,4.69,1.7c2.08,2.08,2.32,5.52,2.32,7.93
				s-0.24,5.85-2.32,7.93c-1.06,1.06-2.82,1.7-4.69,1.7c-1.45,0-3.1-0.21-4.63-1.64v9.44C121.38,39.19,117.88,39.19,117.88,39.19z
				 M125.47,15.34c-2.9,0-4.08,1.86-4.08,6.42s1.18,6.42,4.08,6.42c2.87,0,4.04-1.86,4.04-6.42S128.34,15.34,125.47,15.34z"/>
		</g>
		<g>
			<path d="M144.75,31.39c-5.34,0-8.28-3.42-8.28-9.63c0-6.03,2.92-9.63,7.81-9.63c4.82,0,7.81,3.5,7.81,9.12v1.64h-12.1
				c0.13,3.44,1.84,5.32,4.84,5.32c1.86,0,2.96-0.48,4.39-1.91l0.29-0.29l2.45,2.15l-0.33,0.33
				C149.83,30.28,148.06,31.39,144.75,31.39z M148.55,20.04c-0.07-1.1-0.16-1.57-0.49-2.38c-0.63-1.49-2.08-2.42-3.79-2.42
				c-1.71,0-3.16,0.93-3.79,2.43c-0.33,0.81-0.42,1.29-0.49,2.38L148.55,20.04L148.55,20.04z"/>
		</g>
		<g>
			<path d="M162.54,31.39c-1.87,0-3.62-0.63-4.69-1.7c-2.08-2.08-2.32-5.52-2.32-7.93s0.24-5.86,2.32-7.93
				c1.06-1.06,2.81-1.7,4.69-1.7c1.46,0,3.12,0.21,4.63,1.61V4.32h3.51v26.84h-3.47v-1.44C165.68,31.17,164.01,31.39,162.54,31.39z
				 M163.12,15.34c-2.9,0-4.08,1.86-4.08,6.42s1.18,6.42,4.08,6.42c2.87,0,4.05-1.86,4.05-6.42
				C167.16,17.2,165.99,15.34,163.12,15.34z"/>
		</g>
	</g>
</g>
</svg>
