<svg id="Layer_1" data-name="Layer 1" xmlns="http://www.w3.org/2000/svg" viewBox="0 0 1002 273"><defs><style>.cls-1{fill:#2ec6db;}.cls-2{fill:#f0f7fc;}.cls-2,.cls-8{opacity:0.7;}.cls-3{fill:#1194a5;opacity:0.8;}.cls-4{fill:#e2d7b6;}.cls-5{fill:#d4c5a2;}.cls-6,.cls-8{fill:#f6f1ed;}.cls-7{fill:#87cdd6;}.cls-9{fill:#4c7576;}.cls-10,.cls-14{fill:#fff;}.cls-11{fill:#f4a051;}.cls-12{fill:#1d1d1b;}.cls-13{fill:none;stroke:#fff;stroke-linecap:round;stroke-linejoin:round;opacity:0.5;}.cls-13,.cls-14{stroke-width:0.13px;}.cls-14{stroke:#1d1d1b;stroke-miterlimit:10;}.cls-15{fill:#b0b0b0;}.cls-16{fill:#d8d8d8;}.cls-17{fill:#29993a;}.cls-18{fill:#f5a84c;}.cls-19{fill:#1b3f4b;}.cls-20{fill:#3a5c6a;}.cls-21{fill:#447584;}</style></defs><path class="cls-1" d="M-.28.58V273.35h1003V.58Z"/><path class="cls-2" d="M430.86,183.58c0-13.53-13.88-29.49-27.31-29.49a24.06,24.06,0,0,0-13.64,4.21,29.79,29.79,0,0,0-29.62-27.85,29.4,29.4,0,0,0-18.76,6.74,46.87,46.87,0,0,0-91,16.25,49.05,49.05,0,0,0,.47,6.67,27,27,0,0,0-7.36-1c-15.21,0-27.54,8.43-27.54,23.75"/><rect class="cls-3" x="-0.36" y="183.19" width="1003.13" height="90.17"/><path class="cls-4" d="M1002.76,218.44c-105.22,8.45-159.54,14.07-264.06,29.12-112.16,16.14-184.23,18.59-214.31,25.79h478.37Z"/><path class="cls-5" d="M929,254.19c0-.28-1.09-.32-1.09-.32a35,35,0,0,0-8,.22,65.43,65.43,0,0,0,7.76.58,33.59,33.59,0,0,0-4.86,3c-1.17,1.1,5.17-2.21,5.17-2.21s-1.36,4.22-1.44,5S929.19,255.24,929,254.19Z"/><path class="cls-5" d="M953.76,251.18c-.06-.28-1.09-.31-1.09-.31a34.44,34.44,0,0,0-8,.21,65.43,65.43,0,0,0,7.76.58,33.59,33.59,0,0,0-4.86,3c-1.17,1.1,5.17-2.21,5.17-2.21s-1.36,4.23-1.44,5S954,252.23,953.76,251.18Z"/><path class="cls-5" d="M916.59,246.74c.17.23-.52,1-.52,1a35,35,0,0,1-5.68,5.63,66.27,66.27,0,0,1,4.94-6,34.23,34.23,0,0,1-5.54,1.43c-1.6.09,5.17-2.21,5.17-2.21s-4-1.94-4.63-2.43S916,245.87,916.59,246.74Z"/><path class="cls-5" d="M941.88,240.38c.16.23-.53,1-.53,1a34.68,34.68,0,0,1-5.67,5.64,63,63,0,0,1,4.94-6,33.44,33.44,0,0,1-5.54,1.42c-1.61.09,5.17-2.2,5.17-2.2s-4-1.94-4.63-2.43S941.26,239.51,941.88,240.38Z"/><path class="cls-5" d="M963.27,238.34c.16.24-.53,1-.53,1a34.65,34.65,0,0,1-5.68,5.63,66.45,66.45,0,0,1,5-6,33.19,33.19,0,0,1-5.54,1.43c-1.61.09,5.17-2.21,5.17-2.21s-4-1.93-4.63-2.43S962.65,237.47,963.27,238.34Z"/><path class="cls-6" d="M550.89,273.35c5.39-1,10.92-4,16.4-4.34,10.79-.72,21.61-1.08,32.42-1.41,12.34-.39,24.68-.74,37-1.56,37.79-2.52,75.12-9.44,112.5-15.53,101-16.44,151.77-18.35,253.55-28.71V198.27s-9.71,8.42-36.07,9.62c-31.41,1.44-53.65,11.15-85,13.93-22.18,2-44.62,1.19-66.56,4.92-23.57,4-46.07,13.17-69.74,16.53-28.86,4.1-58.5-.54-87.23,4.37-13.8,2.36-27.19,6.89-41.09,8.49-11,1.27-22,.69-33,1.09a185.64,185.64,0,0,0-31,3.74s-17.1,2.5-28.71,12.39Z"/><path class="cls-7" d="M828,232.31c.18,1.49-5.91,3.46-13.59,4.39s-14.07.48-14.25-1,8.19-5.56,15.88-6.49S827.79,230.83,828,232.31Z"/><path class="cls-7" d="M837.29,227.85c.08.67-1.59,1.42-3.26,1.62s-2.7-.22-2.78-.89,1.21-1.37,2.87-1.57S837.21,227.18,837.29,227.85Z"/><path class="cls-7" d="M641.48,256.93c.08.66-1.6,1.42-3.27,1.62s-2.69-.22-2.77-.89,1.2-1.37,2.87-1.58S641.4,256.26,641.48,256.93Z"/><path class="cls-6" d="M744.63,239.14c.08.67-1.6,1.43-3.26,1.63s-2.7-.22-2.78-.89,1.2-1.37,2.87-1.58S744.55,238.48,744.63,239.14Z"/><path class="cls-6" d="M620.73,242.53c.1.93-3.26,2.06-6.56,2.43s-5.29-.18-5.4-1.11,2.49-2,5.79-2.34S620.63,241.6,620.73,242.53Z"/><path class="cls-6" d="M941.57,205.2c.12,1.08-4.53,2.47-9.08,3s-7.27-.08-7.39-1.15,3.47-2.36,8-2.86S941.45,204.13,941.57,205.2Z"/><path class="cls-7" d="M996.42,212.8c.12,1.11-4.55,2.54-9.12,3s-7.3-.09-7.43-1.2,3.48-2.42,8-2.93S996.29,211.69,996.42,212.8Z"/><path class="cls-7" d="M581.56,262c.13,1.1-4.54,2.54-9.11,3.05s-7.31-.09-7.43-1.2,3.48-2.42,8.05-2.93S581.44,260.84,581.56,262Z"/><path class="cls-7" d="M912.74,221.55c.08.67-1,1.35-2.66,1.55s-4-.07-4-.74,1.21-1.37,2.88-1.57S912.66,220.88,912.74,221.55Z"/><path class="cls-7" d="M959,216.23c.17,1.4-3.55,3-8.3,3.58s-8.75-.09-8.92-1.49.23-3.2,5-3.78S958.85,214.83,959,216.23Z"/><path class="cls-7" d="M646.76,257.52c-.21-1.68,7.07-4,16.25-5.13s16.81-.73,17,1-.72,3.89-9.9,5S647,259.2,646.76,257.52Z"/><path class="cls-8" d="M241.17,231.18c.05,1.45-2.46,2.69-7.52,2.83s-10.77-.86-10.81-2.31,5.59-3.14,10.65-3.28S241.13,229.74,241.17,231.18Z"/><path class="cls-8" d="M168,224.38c0,1.44-2.46,2.69-7.52,2.83s-10.77-.87-10.82-2.31,5.6-3.14,10.66-3.29S167.94,222.93,168,224.38Z"/><path class="cls-9" d="M527.08,29.21c-3.49,3.36-1,11.54,5.45,18.25s15.35,7.34,18.83,4Z"/><path class="cls-10" d="M552,33.74a3.46,3.46,0,0,0-.76-4l-.23-.19h0a4.59,4.59,0,0,0-6.43.94l-2.31,3.14A21.09,21.09,0,1,0,571,63.68c.28-.38.54-.76.79-1.15a40.67,40.67,0,0,1-12.28-4c-3.61-1.89-3.12-2.52-5.23-6.06L550.8,37.39Z"/><path class="cls-9" d="M575.16,51.93c-.42,4.82-8.31,8.07-17.61,7.26S542.18,51.9,542.6,47.07Z"/><path class="cls-11" d="M542.71,35a4,4,0,0,0,.56-.85,3.31,3.31,0,0,0,.29-.89l-8.14-1.45C535.37,32.7,538.4,34,542.71,35Z"/><path class="cls-11" d="M544.43,32.6c-.19-.14-.37-.29-.57-.43-5.28-3.94-10.08-6.41-10.74-5.53l10.38,7.74A3,3,0,0,0,544.43,32.6Z"/><circle class="cls-12" cx="546.92" cy="33.54" r="1.04"/><circle class="cls-10" cx="547.24" cy="33.49" r="0.36"/><line class="cls-13" x1="549.26" y1="51.93" x2="553.18" y2="58.57"/><line class="cls-13" x1="553.93" y1="52.92" x2="557.6" y2="59.29"/><line class="cls-13" x1="557.91" y1="53.05" x2="561.57" y2="59.42"/><line class="cls-13" x1="562.57" y1="53.34" x2="565.63" y2="58.73"/><path class="cls-11" d="M526.43,55.44a.68.68,0,0,0,.19,1l.41.27a2.37,2.37,0,0,1-.67,4.25h0a.7.7,0,0,0-.53.74.67.67,0,0,0,.86.58l.63-.18a1.78,1.78,0,0,1,2,2.61h0l-.76,1.3a.68.68,0,0,0,1.18.69l3.67-6.32,2.74-.77a.68.68,0,0,0,.49-.7.54.54,0,0,0,0-.21.7.7,0,0,0-.85-.39l-2.71.76-5.68-3.77A.68.68,0,0,0,526.43,55.44Z"/><path class="cls-11" d="M535.3,72.57a.67.67,0,0,0,.88.4l.46-.17a2.37,2.37,0,0,1,3.06,3h0a.71.71,0,0,0,.29.87.69.69,0,0,0,1-.36l.22-.62a1.78,1.78,0,0,1,3.29-.12h0l.61,1.38a.68.68,0,1,0,1.25-.55l-3-6.68,1-2.66a.68.68,0,0,0-.27-.81.67.67,0,0,0-.21-.09.72.72,0,0,0-.81.47l-1,2.64L535.7,71.7A.67.67,0,0,0,535.3,72.57Z"/><line class="cls-14" x1="549.28" y1="30.9" x2="549.7" y2="32.43"/><path class="cls-15" d="M519,273.35h48.84a40.56,40.56,0,0,0-68.83-22A40.45,40.45,0,0,1,519,273.35Z"/><path class="cls-16" d="M499.05,251.37a40.4,40.4,0,0,0-18-4.21c-15.61,0-31.45,12-57.55,26.19H487.8A40.09,40.09,0,0,1,499.05,251.37Z"/><path class="cls-16" d="M519,273.35a40.45,40.45,0,0,0-20-22,40.09,40.09,0,0,0-11.25,22Z"/><path class="cls-17" d="M911.18,76.93a2.32,2.32,0,0,1,4.63-.28l.28,4.87c3.09-1.26,6.48-2.63,10.14-4.1l-.56-9.54a2.32,2.32,0,0,1,4.63-.28l.47,8c3.31-1.32,6.83-2.71,10.51-4.15l-.76-12.93a2.31,2.31,0,1,1,4.62-.27l.68,11.43q5.31-2.07,11-4.26L956,50.2a2.32,2.32,0,0,1,4.63-.27l.82,13.8c3.75-1.37,7.55-2.58,11.38-3.66l-.95-16.18a2.31,2.31,0,1,1,4.62-.27l.9,15.23c4.33-1.09,8.65-2,12.9-2.8l-.84-14.34a2.31,2.31,0,1,1,4.62-.27l.82,13.81c3.81-.63,7.54-1.14,11.13-1.56l-.68-11.53a2.31,2.31,0,1,1,4.62-.28l.67,11.31c4.95-.5,9.56-.82,13.68-1l-.48-8.19a2.32,2.32,0,1,1,4.63-.27l.48,8.27c9.28-.31,15.15,0,15.15,0s-21.81-37.68-67.24-33.08-81.5,71.32-81.5,71.32,5.9-2.55,16.23-6.79Z"/><path class="cls-17" d="M895.41,78.37a1.79,1.79,0,0,1,2.23-2.8l3.14,2.5c1-2.44,2.07-5,3.27-7.69L898,65.54a1.79,1.79,0,0,1,2.22-2.8l5.42,4.31c1.06-2.2,2.18-4.42,3.38-6.63.19-.36.41-.75.62-1.14l-9.24-7.35a1.78,1.78,0,1,1,2.22-2.79l8.76,7c1.24-2.24,2.67-4.82,4.25-7.64l-11.32-9a1.78,1.78,0,0,1,2.22-2.79l10.86,8.64c1.42-2.53,2.92-5.21,4.47-8l-11.69-9.3a1.78,1.78,0,1,1,2.22-2.79l11.24,8.94c1.61-2.86,3.26-5.77,4.9-8.69L917.7,16.93a1.79,1.79,0,1,1,2.23-2.79l10.34,8.22,4.35-7.69L925,7a1.78,1.78,0,1,1,2.22-2.79l9.17,7.29,5.27-9.3-6.11-4.87a1.79,1.79,0,0,1-.29-2.51,1.8,1.8,0,0,1,2.51-.28l5.68,4.52,7-12.27S917.67-16,899.68,20s-8.28,67.43-8.28,67.43l3.36,7.86s1.61-5.71,4.66-13.73Z"/><path class="cls-17" d="M829.07,84.56a2.23,2.23,0,0,1,4-1.91L839.92,97q5.87-.72,11.47-1.07l-5.48-11.53a2.22,2.22,0,1,1,4-1.91l6.27,13.17c3.92-.16,7.7-.21,11.32-.18l-4.8-10.09a2.22,2.22,0,1,1,4-1.91l5.76,12.1c4,.12,7.82.35,11.31.64l-4.72-9.93a2.22,2.22,0,0,1,4-1.91L889,96.71a164.84,164.84,0,0,1,19.3,3,74.44,74.44,0,0,0-18.48-22.13C877.88,68.36,838,45.07,801.45,63.29s-37.56,65.56-37.56,65.56a127.13,127.13,0,0,1,11-7.79l-3-6.3a2.23,2.23,0,1,1,4-1.91l2.78,5.85c3.18-1.91,6.79-4,10.79-6l-4.59-9.65a2.22,2.22,0,1,1,4-1.91l4.57,9.59c3.53-1.69,7.31-3.35,11.3-4.91l-5.59-11.74a2.23,2.23,0,1,1,4-1.92l5.75,12.1c3.81-1.36,7.78-2.6,11.91-3.69l-6.53-13.71a2.22,2.22,0,0,1,4-1.91l6.93,14.54c3-.68,6.11-1.29,9.26-1.76l.73-.1Z"/><path class="cls-17" d="M867.47,28.92C846.05,6,828.69,4.48,820.66,3.24A32.54,32.54,0,0,0,806,4.46s3.66,3.68,9.52,9.46l2-2.45a2.3,2.3,0,0,1,2.87-.56,1.65,1.65,0,0,1,.35,2.52l-2.57,3.13,7.12,7,4.85-5.92a2.31,2.31,0,0,1,2.87-.55,1.65,1.65,0,0,1,.35,2.52l-5.39,6.56c2.38,2.33,4.88,4.75,7.45,7.25l6.74-8.22a2.31,2.31,0,0,1,2.87-.55,1.64,1.64,0,0,1,.35,2.52L838.08,36c2,1.89,3.95,3.81,6,5.74l2.05,1.94,6.9-8.41a2.29,2.29,0,0,1,2.87-.56,1.65,1.65,0,0,1,.34,2.53l-7.37,9c2.15,2,4.41,4,6.74,6.12l7.15-8.71a2.28,2.28,0,0,1,2.86-.56,1.64,1.64,0,0,1,.35,2.52l-7.57,9.23c2.24,2,4.51,4,6.78,5.94L870,54.91a2.31,2.31,0,0,1,2.87-.55,1.65,1.65,0,0,1,.35,2.52L868,63.22c2.24,1.93,4.47,3.83,6.64,5.68l1.93-2.36a2.3,2.3,0,0,1,2.87-.56,1.64,1.64,0,0,1,.35,2.52l-2.3,2.81c2.2,1.86,4.32,3.64,6.33,5.31a2.17,2.17,0,0,1,1.91.09,1.59,1.59,0,0,1,.62,2c7.81,6.5,13.26,10.9,13.26,10.9S888.9,51.81,867.47,28.92Z"/><path class="cls-10" d="M872.5,273.35l13.17-55.7c3.38-12.93,13.11-18.53,22.55-16.68h0c9.44,1.84,16.22,10.67,14.32,23.89l-7,48.49"/><path class="cls-18" d="M911.7,230.45a14.69,14.69,0,0,0-18.87-3.2,14.89,14.89,0,0,0-2.71,2.1c4.35,4.25,10.28,10.48,10.28,10.48l13.78-5.09A14.83,14.83,0,0,0,911.7,230.45Z"/><circle class="cls-19" cx="896.72" cy="217.75" r="1.77"/><circle class="cls-19" cx="911.65" cy="220.89" r="1.77"/><path class="cls-17" d="M889.76,78.93A2.32,2.32,0,1,1,893,82.25l-3.49,3.4q4.46,2.26,9.73,5L906.09,84a2.31,2.31,0,1,1,3.23,3.31l-5.74,5.6c3.17,1.64,6.52,3.39,10,5.23l9.27-9a2.32,2.32,0,1,1,3.24,3.31l-8.2,8,10.46,5.57,10.92-10.65a2.32,2.32,0,0,1,3.23,3.32l-9.89,9.65c3.49,1.94,6.9,4,10.22,6.21l11.6-11.32a2.32,2.32,0,1,1,3.24,3.32l-10.93,10.65c3.67,2.56,7.19,5.22,10.57,7.92l10.28-10a2.32,2.32,0,1,1,3.24,3.32L960.94,128c3,2.47,5.8,5,8.47,7.39l8.27-8.07a2.32,2.32,0,0,1,3.23,3.32l-8.1,7.91c3.61,3.41,6.87,6.68,9.73,9.67l5.87-5.73a2.32,2.32,0,1,1,3.24,3.32l-5.93,5.78c6.31,6.81,9.95,11.43,9.95,11.43s14.2-41.17-19-72.48S869.38,75.62,869.38,75.62s5.78,2.79,15.75,7.82Z"/><path class="cls-20" d="M1009.16,280.1s-17.5-65.58-44.08-116.29S910,85.25,899.71,76.87s-7.49,1.62-7.49,1.62,24.53,37,45.4,91.88a594.24,594.24,0,0,1,28.73,102.85"/><polyline class="cls-21" points="930.15 124.22 937.13 127.16 936.4 122.38"/><polyline class="cls-21" points="930.89 134.87 937.87 137.81 937.13 133.03"/><polyline class="cls-21" points="941.91 142.22 948.88 145.15 948.15 140.38"/><polyline class="cls-21" points="942.64 152.87 949.62 155.81 948.88 151.03"/><polyline class="cls-21" points="951.09 160.95 958.07 163.89 957.33 159.11"/><polyline class="cls-21" points="951.82 171.6 958.8 174.54 958.07 169.76"/><polyline class="cls-21" points="959.37 183.38 966.35 186.32 965.61 181.54"/></svg>