<?xml version="1.0" encoding="utf-8"?>
<!-- Generator: Adobe Illustrator 24.1.2, SVG Export Plug-In . SVG Version: 6.00 Build 0)  -->
<svg version="1.1" id="Tastaturbo_turid_" xmlns="http://www.w3.org/2000/svg" xmlns:xlink="http://www.w3.org/1999/xlink" x="0px"
	 y="0px" viewBox="0 0 272.12 100.82" style="enable-background:new 0 0 272.12 100.82;" xml:space="preserve">
<style type="text/css">
	.st0{fill:#3A5C6A;}
	.st1{fill:#183F4C;}
	.st2{fill:#063A52;}
	.st3{fill:#FFFFFF;}
	.st4{fill:#E1B0D1;stroke:#1B3F4B;stroke-width:1.05;stroke-miterlimit:10;}
	.st5{fill:none;stroke:#000000;stroke-width:1.05;stroke-linecap:round;stroke-linejoin:round;}
	.st6{fill:#F5A84C;stroke:#1B3F4B;stroke-width:1.05;stroke-linecap:round;stroke-linejoin:round;}
	.st7{fill:none;stroke:#1B3F4B;stroke-width:1.05;stroke-linecap:round;stroke-linejoin:round;}
	.st8{fill:#FFFFFF;stroke:#1B3F4B;stroke-width:1.05;stroke-linecap:round;stroke-linejoin:round;}
	.st9{fill:#1B3F4B;}
</style>
<path class="st0" d="M201.88,98.18l0.33,0.34c2.51,2.51,6.57,2.51,9.08,0c0,0,0,0,0,0l0,0c2.51-2.51,6.57-2.51,9.08,0c0,0,0,0,0,0
	l0,0c2.51,2.51,6.57,2.51,9.08,0c0,0,0,0,0,0l0.41-0.41c2.51-2.51,6.57-2.51,9.08,0c0,0,0,0,0,0l0.47,0.47l32.71-40.4h-165
	l-1.45,9.93l-82.24,0.15l-5.21,32.56h171.97l2.56-2.59c2.49-2.53,6.56-2.57,9.09-0.09C201.85,98.16,201.86,98.17,201.88,98.18z"/>
<path class="st1" d="M62.55,4.11c0.75-0.24,1.55,0.17,1.79,0.91c0.12,0.36,0.08,0.75-0.09,1.09c-0.08,0.21-0.25,0.38-0.47,0.45
	c-3.78,1.42-6.91,4.17-8.81,7.73c-0.1,0.21-0.29,0.36-0.51,0.41c-0.75,0.23-1.54-0.2-1.77-0.95c-0.11-0.35-0.07-0.73,0.09-1.05
	c2.17-3.9,5.63-6.93,9.78-8.58L62.55,4.11z"/>
<polygon class="st2" points="114.01,74.7 49.06,74.7 53.5,45.53 114.01,45.53 "/>
<polygon class="st3" points="200.01,45.53 190.69,45.53 182.65,33.31 172.5,33.31 164.46,21.09 86.81,21.09 86.81,33.31 
	80.02,33.31 80.02,45.53 73.53,45.53 73.53,57.75 208.45,57.75 "/>
<path class="st2" d="M179.12,49.32h18.54c0.4,0,0.72,0.32,0.72,0.72v2.98c0,0.4-0.32,0.72-0.72,0.72h-18.54
	c-0.4,0-0.72-0.32-0.72-0.72v-2.98C178.4,49.64,178.72,49.32,179.12,49.32z"/>
<path class="st2" d="M159.14,37.11h18.54c0.4,0,0.72,0.32,0.72,0.72v2.98c0,0.4-0.32,0.72-0.72,0.72h-18.54
	c-0.4,0-0.72-0.32-0.72-0.72v-2.98C158.42,37.43,158.74,37.11,159.14,37.11z"/>
<path class="st2" d="M130.83,37.11h18.54c0.4,0,0.72,0.32,0.72,0.72v2.98c0,0.4-0.32,0.72-0.72,0.72h-18.54
	c-0.4,0-0.72-0.32-0.72-0.72v-2.98C130.11,37.43,130.43,37.11,130.83,37.11z"/>
<path class="st2" d="M143.54,26.32h18.54c0.4,0,0.72,0.32,0.72,0.72v2.98c0,0.4-0.32,0.72-0.72,0.72h-18.54
	c-0.4,0-0.72-0.32-0.72-0.72v-2.98C142.82,26.64,143.14,26.32,143.54,26.32z"/>
<path class="st2" d="M115.24,26.32h18.54c0.4,0,0.72,0.32,0.72,0.72v2.98c0,0.4-0.32,0.72-0.72,0.72h-18.54
	c-0.4,0-0.72-0.32-0.72-0.72v-2.98C114.52,26.64,114.84,26.32,115.24,26.32z"/>
<path class="st2" d="M151.16,49.32h18.54c0.4,0,0.72,0.32,0.72,0.72v2.98c0,0.4-0.32,0.72-0.72,0.72h-18.54
	c-0.4,0-0.72-0.32-0.72-0.72v-2.98C150.44,49.64,150.76,49.32,151.16,49.32z"/>
<path class="st2" d="M123.21,49.32h18.54c0.4,0,0.72,0.32,0.72,0.72v2.98c0,0.4-0.32,0.72-0.72,0.72h-18.54
	c-0.4,0-0.72-0.32-0.72-0.72v-2.98C122.49,49.64,122.81,49.32,123.21,49.32z"/>
<path class="st3" d="M142.96,77.26c0,1.49-1.21,2.7-2.7,2.7c-1.49,0-2.7-1.21-2.7-2.7c0-1.49,1.21-2.7,2.7-2.7l0,0
	C141.75,74.56,142.96,75.77,142.96,77.26z"/>
<circle class="st3" cx="155.61" cy="77.26" r="2.7"/>
<circle class="st3" cx="170.95" cy="77.26" r="2.7"/>
<circle class="st3" cx="186.3" cy="77.26" r="2.7"/>
<path class="st3" d="M204.34,77.26c0,1.49-1.21,2.7-2.7,2.7c-1.49,0-2.7-1.21-2.7-2.7c0-1.49,1.21-2.7,2.7-2.7l0,0
	C203.13,74.56,204.34,75.77,204.34,77.26z"/>
<path class="st4" d="M59.95,50.29c-1,0.24-14.89,4.41-28,9.66L24.4,37.7l6.26-2.14l4.2,15.24l17.43-6.62L59.95,50.29z"/>
<path class="st5" d="M97.13,33.97c0,0,5.46-7.57,10.67-0.39c0,0,5,6.51,0,15.26c0,0-3.58,5.46-5.71,7.19"/>
<path class="st6" d="M107.78,33.58c-2.71-3.73-5.52-3.47-7.56-2.37L95.5,13.33L46.7,26.39l6,22.7c-1.5,0.2-2.85,1.02-3.71,2.26
	c0,0-7.23,9.53,8.16,14.6l2.6,9.84l48.81-13.09l-2.87-10.9c1.17-1.6,2.11-3,2.11-3C112.78,40.09,107.78,33.58,107.78,33.58z"/>
<path class="st7" d="M97.13,33.97c0,0,5.46-7.57,10.67-0.39c0,0,5,6.51,0,15.26c0,0-3.58,5.46-5.71,7.19"/>
<path class="st8" d="M70.37,46.87L70.37,46.87c-2.59,0.71-5.27-0.82-5.98-3.42c-0.01-0.02-0.01-0.05-0.02-0.07L57.9,18.7
	c-0.69-2.6,0.84-5.28,3.44-6l0,0c2.6-0.71,5.27,0.82,5.98,3.42c0.01,0.03,0.01,0.05,0.02,0.08l6.44,24.67
	C74.49,43.47,72.96,46.15,70.37,46.87z"/>
<path class="st9" d="M68.03,32.7c-0.64-0.38-0.86-1.2-0.49-1.85c0.21-0.36,0.58-0.6,1-0.65l-0.86-3.25
	c-0.28-1.04-1.34-1.65-2.38-1.38s-1.65,1.34-1.37,2.38l2.85,10.88c0.2,1.06,1.23,1.75,2.28,1.54c1.06-0.2,1.75-1.23,1.54-2.28
	c-0.02-0.09-0.04-0.18-0.07-0.26l-1.33-5C68.82,32.98,68.38,32.93,68.03,32.7z"/>
<path class="st6" d="M63.99,23c2.02-0.54,4.17,0.12,5.54,1.7l-2.24-8.49c-0.66-2.61-3.31-4.18-5.92-3.52
	c-0.03,0.01-0.05,0.01-0.08,0.02l0,0c-2.6,0.72-4.13,3.4-3.44,6l2.18,8.24C60.53,25.01,62.05,23.5,63.99,23z"/>
<path class="st8" d="M86.47,42.57L86.47,42.57c-2.6,0.71-5.27-0.82-5.98-3.42c-0.01-0.03-0.01-0.05-0.02-0.08l-6.52-24.7
	c-0.71-2.61,0.83-5.29,3.44-6c0,0,0,0,0,0l0,0c2.59-0.71,5.27,0.82,5.98,3.42c0.01,0.02,0.01,0.05,0.02,0.07l6.52,24.7
	C90.6,39.17,89.07,41.85,86.47,42.57z"/>
<path class="st9" d="M84.02,28c-0.64-0.37-0.86-1.2-0.49-1.84c0.21-0.37,0.58-0.61,1-0.66l-0.86-3.25
	c-0.28-1.04-1.34-1.65-2.38-1.38s-1.65,1.34-1.38,2.38l2.86,10.86c0.2,1.06,1.23,1.75,2.28,1.54c1.06-0.2,1.75-1.23,1.54-2.28
	c-0.02-0.09-0.04-0.18-0.07-0.26l-1.33-5C84.82,28.27,84.37,28.23,84.02,28z"/>
<path class="st6" d="M79.78,17.7c2.01-0.55,4.16,0.1,5.54,1.66l-2-7.47C82.65,9.28,80,7.71,77.39,8.38
	c-0.02,0.01-0.05,0.01-0.07,0.02l0,0c-2.61,0.71-4.15,3.39-3.44,6c0,0,0,0,0,0l1.9,7.22C76.3,19.69,77.83,18.19,79.78,17.7z"/>
<path class="st6" d="M79.2,47.29c1.37,0.45,2.86,0.43,4.21-0.08c1.94-0.7,4.18-2.71,3.38-5c-0.88-2.15-3.34-3.19-5.49-2.31
	c-0.13,0.05-0.26,0.11-0.38,0.18c-1.12,0.39-2.08,1.13-2.74,2.11"/>
<path class="st8" d="M57.05,55.16c5.1,2.81,11.04,3.67,16.73,2.44c7.09-1.42,15.73-6.13,24.5-18.13c0,0,4.34-6.39,6.81-2
	c0,0,4.76,7.16-7.41,17.1c0,0-17.75,17.1-40.21,6.54c0,0-6.92-3.37-3.81-6.82C53.67,54.32,54.78,53.7,57.05,55.16z"/>
<path class="st5" d="M58.17,51.8c0,0-4.84-5.82-9.16-0.45c0,0-7.89,10.39,10.34,15.25"/>
<line class="st7" x1="83.07" y1="54.15" x2="84.79" y2="62.04"/>
<line class="st7" x1="91.72" y1="47.48" x2="93.63" y2="57.72"/>
<line class="st7" x1="98.79" y1="38.9" x2="101.09" y2="51.43"/>
<line class="st7" x1="75.57" y1="64.37" x2="73.79" y2="57.6"/>
<line class="st7" x1="66.42" y1="63.98" x2="64.28" y2="57.8"/>
<path class="st7" d="M58.17,51.8c0,0-4.84-5.82-9.16-0.45c0,0-7.89,10.39,10.34,15.25"/>
<path class="st5" d="M97.13,33.97c0,0,5.46-7.57,10.67-0.39c0,0,5,6.51,0,15.26c0,0-3.58,5.46-5.71,7.19"/>
<path class="st6" d="M107.78,33.58c-2.71-3.73-5.52-3.47-7.56-2.37L95.5,13.33L46.7,26.39l6,22.7c-1.5,0.2-2.85,1.02-3.71,2.26
	c0,0-7.23,9.53,8.16,14.6l2.6,9.84l48.81-13.09l-2.87-10.9c1.17-1.6,2.11-3,2.11-3C112.78,40.09,107.78,33.58,107.78,33.58z"/>
<path class="st7" d="M97.13,33.97c0,0,5.46-7.57,10.67-0.39c0,0,5,6.51,0,15.26c0,0-3.58,5.46-5.71,7.19"/>
<path class="st8" d="M70.37,46.87L70.37,46.87c-2.59,0.71-5.27-0.82-5.98-3.42c-0.01-0.02-0.01-0.05-0.02-0.07L57.9,18.7
	c-0.69-2.6,0.84-5.28,3.44-6l0,0c2.6-0.71,5.27,0.82,5.98,3.42c0.01,0.03,0.01,0.05,0.02,0.08l6.44,24.67
	C74.49,43.47,72.96,46.15,70.37,46.87z"/>
<path class="st9" d="M68.46,36.49c-0.64-0.37-0.86-1.2-0.49-1.84c0.21-0.37,0.58-0.61,1-0.66l-0.88-3.29
	c-0.28-1.04-1.34-1.65-2.38-1.38s-1.65,1.34-1.38,2.38l2.86,10.85c0.2,1.06,1.23,1.75,2.28,1.54c1.06-0.2,1.75-1.23,1.54-2.28
	c-0.02-0.09-0.04-0.18-0.07-0.26l-1.33-5C69.25,36.72,68.81,36.7,68.46,36.49z"/>
<path class="st8" d="M86.47,42.57L86.47,42.57c-2.6,0.71-5.27-0.82-5.98-3.42c-0.01-0.03-0.01-0.05-0.02-0.08l-6.52-24.7
	c-0.71-2.61,0.83-5.29,3.44-6c0,0,0,0,0,0l0,0c2.59-0.71,5.27,0.82,5.98,3.42c0.01,0.02,0.01,0.05,0.02,0.07l6.52,24.7
	C90.6,39.17,89.07,41.85,86.47,42.57z"/>
<path class="st9" d="M84.45,31.78c-0.64-0.38-0.86-1.2-0.49-1.85c0.21-0.36,0.58-0.61,1-0.65l-0.86-3.26
	c-0.28-1.04-1.34-1.65-2.38-1.38s-1.65,1.34-1.38,2.38l2.86,10.86c0.2,1.06,1.23,1.75,2.28,1.54c1.06-0.2,1.75-1.23,1.54-2.28
	c-0.02-0.09-0.04-0.18-0.07-0.26l-1.33-5C85.25,32.03,84.81,32,84.45,31.78z"/>
<path class="st6" d="M79.2,47.29c1.37,0.45,2.86,0.43,4.21-0.08c1.94-0.7,4.18-2.71,3.38-5c-0.88-2.15-3.34-3.19-5.49-2.31
	c-0.13,0.05-0.26,0.11-0.38,0.18c-1.12,0.39-2.08,1.13-2.74,2.11"/>
<path class="st8" d="M57.05,55.16c5.1,2.81,11.04,3.67,16.73,2.44c7.09-1.42,15.73-6.13,24.5-18.13c0,0,4.34-6.39,6.81-2
	c0,0,4.76,7.16-7.41,17.1c0,0-17.75,17.1-40.21,6.54c0,0-6.92-3.37-3.81-6.82C53.67,54.32,54.78,53.7,57.05,55.16z"/>
<path class="st5" d="M58.17,51.8c0,0-4.84-5.82-9.16-0.45c0,0-7.89,10.39,10.34,15.25"/>
<line class="st7" x1="83.07" y1="54.15" x2="84.79" y2="62.04"/>
<line class="st7" x1="91.72" y1="47.48" x2="93.63" y2="57.72"/>
<line class="st7" x1="98.79" y1="38.9" x2="101.09" y2="51.43"/>
<line class="st7" x1="75.57" y1="64.37" x2="73.79" y2="57.6"/>
<line class="st7" x1="66.42" y1="63.98" x2="64.28" y2="57.8"/>
<path class="st7" d="M58.17,51.8c0,0-4.84-5.82-9.16-0.45c0,0-7.89,10.39,10.34,15.25"/>
<path class="st8" d="M0.53,13.26c0.04-0.97,0.72-1.79,1.67-2c0.71-0.15,1.45-0.02,2.05,0.38c1.45,0.95,2.77,2.09,3.91,3.4L9.3,5.28
	c0.12-0.6,0.48-1.13,1-1.47c2.31-1.21,3.5,1.41,3.5,1.41l0.69-2.94c0.08-0.35,0.26-0.67,0.53-0.91c0.85-0.9,2.28-0.95,3.18-0.09
	c0.07,0.07,0.14,0.14,0.2,0.21c0.68-0.63,1.58-0.96,2.51-0.91c2.73,0.47,2,4.8,2,4.8l-1.13,5.6l5.39,5.92
	c0.72-0.37,1.53-0.53,2.34-0.46c0,0,0.66-3.35,0.82-4c0.87-6.78,3.9-7.64,3.9-7.64c2.54-0.69,2.56,1.27,2.56,1.27L31.9,29.95
	c-0.37,1.39-1.39,2.51-2.74,3l0.8,4.4c-1.28,1.36-3.18,1.94-5,1.5l-2.46-3.3c-0.69,0.07-1.36-0.18-1.84-0.68L2.08,15.39
	C1.78,15.04,0.47,13.7,0.53,13.26z"/>
<path class="st8" d="M29.54,16.44c0,0-3.26-0.52-5.22,3.66c-1.14,2.94-1.51,6.13-1.07,9.25"/>
<path class="st8" d="M27.13,16.91l-5.35-5.93l1.12-5.65c0,0,0.73-4.33-2-4.8c-0.93-0.05-1.83,0.28-2.51,0.91
	c-0.79-0.96-2.2-1.11-3.17-0.32c-0.08,0.06-0.15,0.13-0.21,0.2c-0.27,0.24-0.45,0.56-0.53,0.91l-0.7,2.94c0,0-1.19-2.62-3.5-1.41
	c-0.52,0.34-0.88,0.87-1,1.47l-1.14,9.76"/>
<path class="st8" d="M18.42,1.44c0,0,1.24,0.94,0.28,4l-1.19,6.15l4.51,5.95"/>
<polyline class="st8" points="13.82,5.17 12.98,13.27 17.49,19.23 "/>
<line class="st7" x1="14.29" y1="21.36" x2="8.16" y2="14.99"/>
<path class="st8" d="M0.53,13.26c0.04-0.97,0.72-1.79,1.67-2c0.71-0.15,1.45-0.02,2.05,0.38c1.45,0.95,2.77,2.09,3.91,3.4L9.3,5.28
	c0.12-0.6,0.48-1.13,1-1.47c2.31-1.21,3.5,1.41,3.5,1.41l0.69-2.94c0.08-0.35,0.26-0.67,0.53-0.91c0.85-0.9,2.28-0.95,3.18-0.09
	c0.07,0.07,0.14,0.14,0.2,0.21c0.68-0.63,1.58-0.96,2.51-0.91c2.73,0.47,2,4.8,2,4.8l-1.13,5.6l5.39,5.92
	c0.72-0.37,1.53-0.53,2.34-0.46c0,0,0.66-3.35,0.82-4c0.87-6.78,3.9-7.64,3.9-7.64c2.54-0.69,2.56,1.27,2.56,1.27L31.9,29.95
	c-0.37,1.39-1.39,2.51-2.74,3l0.8,4.4c-1.28,1.36-3.18,1.94-5,1.5l-2.46-3.3c-0.69,0.07-1.36-0.18-1.84-0.68L2.08,15.39
	C1.78,15.04,0.47,13.7,0.53,13.26z"/>
<path class="st8" d="M29.54,16.44c0,0-3.26-0.52-5.22,3.66c-1.14,2.94-1.51,6.13-1.07,9.25"/>
<path class="st8" d="M27.13,16.91l-5.35-5.93l1.12-5.65c0,0,0.73-4.33-2-4.8c-0.93-0.05-1.83,0.28-2.51,0.91
	c-0.79-0.96-2.2-1.11-3.17-0.32c-0.08,0.06-0.15,0.13-0.21,0.2c-0.27,0.24-0.45,0.56-0.53,0.91l-0.7,2.94c0,0-1.19-2.62-3.5-1.41
	c-0.52,0.34-0.88,0.87-1,1.47l-1.14,9.76"/>
<path class="st8" d="M18.42,1.44c0,0,1.24,0.94,0.28,4l-1.19,6.15l4.51,5.95"/>
<polyline class="st8" points="13.82,5.17 12.98,13.27 17.49,19.23 "/>
<line class="st7" x1="14.29" y1="21.36" x2="8.16" y2="14.99"/>
<polygon class="st2" points="135.5,6.48 125,6.48 127.74,13.09 141.33,13.09 "/>
<polygon class="st2" points="148.86,21.65 144.09,16.23 129.04,16.23 131.29,21.65 "/>
<polygon class="st3" points="141.33,13.09 127.74,13.09 129.04,16.23 144.09,16.23 "/>
</svg>
