<?xml version="1.0" encoding="utf-8"?>
<!-- Generator: Adobe Illustrator 24.1.2, SVG Export Plug-In . SVG Version: 6.00 Build 0)  -->
<svg version="1.1" id="Tastaturbo_turid_" xmlns="http://www.w3.org/2000/svg" xmlns:xlink="http://www.w3.org/1999/xlink" x="0px"
	 y="0px" viewBox="0 0 172.46 114.57" style="enable-background:new 0 0 172.46 114.57;" xml:space="preserve">
<style type="text/css">
	.st0{fill:#F5A84C;stroke:#1B3F4B;stroke-width:1.1;stroke-linecap:round;stroke-linejoin:round;}
	.st1{fill:none;stroke:#1B3F4B;stroke-width:1.1;stroke-linecap:round;stroke-linejoin:round;}
	.st2{fill:#E1B0D1;stroke:#1B3F4B;stroke-width:1.1;stroke-miterlimit:10;}
	.st3{fill:#F5A84C;stroke:#1B3F4B;stroke-width:1.24;stroke-linecap:round;stroke-linejoin:round;}
	.st4{fill:none;stroke:#1B3F4B;stroke-width:1.24;stroke-linecap:round;stroke-linejoin:round;}
	.st5{fill:#E1B0D1;stroke:#1B3F4B;stroke-width:1.24;stroke-miterlimit:10;}
	.st6{fill:#E1B0D1;stroke:#1B3F4B;stroke-width:1.27;stroke-miterlimit:10;}
	.st7{fill:#FFFFFF;stroke:#1B3F4B;stroke-width:1.2;stroke-linecap:round;stroke-linejoin:round;}
	.st8{fill:none;stroke:#1B3F4B;stroke-width:1.2;stroke-linecap:round;stroke-linejoin:round;}
	.st9{fill:#E1B0D1;stroke:#1B3F4B;stroke-width:1.2;stroke-linecap:round;stroke-linejoin:round;}
	.st10{fill:#F7A841;stroke:#183F4C;stroke-width:1.1;stroke-linecap:round;stroke-linejoin:round;}
	.st11{fill:#FFFFFF;stroke:#183F4C;stroke-width:1.1;stroke-linecap:round;stroke-linejoin:round;}
	.st12{fill:#183F4C;}
</style>
<path class="st0" d="M132.01,82.14c0,0-1,1.5,0.64,4.21l5.12,6.95c0,0,12.84-6.28,20.76-18l-2.09-2.79c0,0-3.95-0.49-11.33,5.84
	l-2.1,1l-7.54-0.43C135.47,78.92,137.89,82.51,132.01,82.14z"/>
<line class="st1" x1="143.01" y1="79.36" x2="142.53" y2="82.82"/>
<line class="st1" x1="146.68" y1="76.92" x2="147.94" y2="78.77"/>
<path class="st2" d="M102.04,60.79l18.73,4l15.86,15.6c0,0-0.58,1.82-4.62,1.79l-14.25-11.13l-20.23,0.7L102.04,60.79z"/>
<path class="st0" d="M132.01,82.14c0,0-1,1.5,0.64,4.21l5.12,6.95c0,0,12.84-6.28,20.76-18l-2.09-2.79c0,0-3.95-0.49-11.33,5.84
	l-2.1,1l-7.54-0.43C135.47,78.92,137.89,82.51,132.01,82.14z"/>
<line class="st1" x1="143.01" y1="79.36" x2="142.53" y2="82.82"/>
<line class="st1" x1="146.68" y1="76.92" x2="147.94" y2="78.77"/>
<path class="st3" d="M42.42,85.29c0,0-1.21-1.87-4.88-2.13l-9.84,0.17c1.3,10.87,4.97,21.32,10.73,30.62l4-0.11
	c0,0,2.25-3.29-1.47-14.12l-0.24-2.6l3.74-6.59C44.46,90.53,39.47,90.42,42.42,85.29z"/>
<line class="st4" x1="40.69" y1="97.12" x2="37.1" y2="94.46"/>
<line class="st4" x1="41.77" y1="102.06" x2="39.19" y2="102.01"/>
<path class="st5" d="M79.92,68.38L64.74,87.29L42.37,90.7c0,0-1.73-1.7,0-5.38l18.22-4.44l13.09-20.23L79.92,68.38z"/>
<path class="st3" d="M42.42,85.29c0,0-1.21-1.87-4.88-2.13l-9.84,0.17c1.3,10.87,4.97,21.32,10.73,30.62l4-0.11
	c0,0,2.25-3.29-1.47-14.12l-0.24-2.6l3.74-6.59C44.46,90.53,39.47,90.42,42.42,85.29z"/>
<line class="st4" x1="40.69" y1="97.12" x2="37.1" y2="94.46"/>
<line class="st4" x1="41.77" y1="102.06" x2="39.19" y2="102.01"/>
<polygon class="st6" points="126.12,47.92 103.03,38.39 109.18,31.84 126.12,42.05 144.36,36.2 145.69,40.9 "/>
<path class="st7" d="M13.59,43.36l-3.72,2.11l-5.41,5.07c-0.62,0.45-0.77,1.31-0.32,1.94c0.18,0.25,0.43,0.43,0.72,0.52
	c0.59-0.2,5.47-2.78,6.44-3.3l-5.05,5.51l0,0c0.7,1.02,2.09,1.29,3.11,0.59c0.01,0,0.01-0.01,0.02-0.01l6.21-4.32l5.21-2l1.18,6.1
	c1.53,4.65,4.23,3.12,4.23,3.12l-0.74-5.54c-0.16-1.3,0.2-2.61,1-3.64c1.52-2.11,1.74-4.89,0.57-7.22l1.65,0.09l1.59-3.5l-5.47-3.36
	l-2.58,1.51c-3.39-1-11.31,2-11.86,2.07s-7.93-1.58-7.93-1.58c-1.79,0.13-2,0.84-1.76,1.43c0.18,0.46,0.54,0.82,1,1l2.34,0.93
	l4.24,1.11l-6.39,3.67c0,0-1.75,1.4-0.27,2.25c0.55,0.3,1.19,0.33,1.77,0.1l1.11-0.43l5.36-2.21"/>
<polyline class="st8" points="16.73,46.19 12.31,48.66 9.79,51.18 "/>
<path class="st9" d="M24.82,35.57c2.37-1,19.46-13.94,19.46-13.94s5.82,2.33,20.1,10.89l-0.76,9.22l-20-12l-14.25,8.59L24.82,35.57z
	"/>
<line class="st8" x1="10.56" y1="40.98" x2="8.29" y2="42.09"/>
<line class="st8" x1="22.24" y1="37.08" x2="25.27" y2="39.71"/>
<path class="st7" d="M13.59,43.36l-3.72,2.11l-5.41,5.07c-0.62,0.45-0.77,1.31-0.32,1.94c0.18,0.25,0.43,0.43,0.72,0.52
	c0.59-0.2,5.47-2.78,6.44-3.3l-5.05,5.51l0,0c0.7,1.02,2.09,1.29,3.11,0.59c0.01,0,0.01-0.01,0.02-0.01l6.21-4.32l5.21-2l1.18,6.1
	c1.53,4.65,4.23,3.12,4.23,3.12l-0.74-5.54c-0.16-1.3,0.2-2.61,1-3.64c1.52-2.11,1.74-4.89,0.57-7.22l1.65,0.09l1.59-3.5l-5.47-3.36
	l-2.58,1.51c-3.39-1-11.31,2-11.86,2.07s-7.93-1.58-7.93-1.58c-1.79,0.13-2,0.84-1.76,1.43c0.18,0.46,0.54,0.82,1,1l2.34,0.93
	l4.24,1.11l-6.39,3.67c0,0-1.75,1.4-0.27,2.25c0.55,0.3,1.19,0.33,1.77,0.1l1.11-0.43l5.36-2.21"/>
<polyline class="st8" points="16.73,46.19 12.31,48.66 9.79,51.18 "/>
<path class="st9" d="M24.82,35.57c2.37-1,19.46-13.94,19.46-13.94s5.82,2.33,20.1,10.89l-0.76,9.22l-20-12l-14.25,8.59L24.82,35.57z
	"/>
<line class="st8" x1="10.56" y1="40.98" x2="8.29" y2="42.09"/>
<line class="st8" x1="22.24" y1="37.08" x2="25.27" y2="39.71"/>
<polygon class="st10" points="112.15,47.31 113.91,21.32 59.46,17.63 57.95,39.95 56.87,55.91 56.51,61.26 55.77,72.11 110.22,75.8 
	111.45,57.65 "/>
<path class="st11" d="M87.28,9.37L87.28,9.37c2.89,0.2,5.08,2.7,4.88,5.59l-1.85,27.25c-0.2,2.89-2.7,5.08-5.59,4.88l0,0
	c-2.89-0.2-5.08-2.7-4.88-5.59l1.85-27.25C81.89,11.36,84.39,9.18,87.28,9.37z"/>
<path class="st12" d="M87.22,31.96c-0.52-0.6-0.46-1.51,0.13-2.03c0.34-0.3,0.8-0.42,1.24-0.33l0.24-3.58
	c0.08-1.16-0.79-2.16-1.95-2.24c-1.16-0.08-2.16,0.79-2.24,1.95l-0.81,12c-0.06,1.16,0.84,2.14,1.99,2.2
	c1.13,0.06,2.1-0.79,2.2-1.92l0.38-5.54C87.95,32.49,87.52,32.3,87.22,31.96z"/>
<path class="st11" d="M103.67,10.49L103.67,10.49c2.89,0.2,5.08,2.7,4.88,5.59l-1.85,27.25c-0.2,2.89-2.7,5.08-5.59,4.88l0,0
	c-2.89-0.2-5.08-2.7-4.88-5.59l1.85-27.25C98.27,12.48,100.78,10.29,103.67,10.49z"/>
<path class="st12" d="M103.64,32.62c-0.52-0.6-0.46-1.51,0.13-2.03c0.34-0.3,0.8-0.42,1.24-0.33l0.24-3.58
	c0.08-1.16-0.79-2.16-1.95-2.24c-1.16-0.08-2.16,0.79-2.24,1.95l0,0l-0.81,12c-0.06,1.16,0.84,2.14,1.99,2.2
	c1.13,0.06,2.1-0.79,2.2-1.92l0.37-5.54C104.36,33.16,103.93,32.97,103.64,32.62z"/>
<path class="st10" d="M92.05,50.47c1.25,0.93,2.78,1.41,4.34,1.36c2.22,0,5.21-1.28,5.19-3.91c-0.17-2.51-2.33-4.41-4.84-4.24
	c-0.14,0.01-0.29,0.03-0.43,0.05c-1.28,0.01-2.52,0.43-3.54,1.19"/>
<path class="st12" d="M87.22,31.96c-0.52-0.6-0.46-1.51,0.13-2.03c0.34-0.3,0.8-0.42,1.24-0.33l0.24-3.58
	c0.08-1.16-0.79-2.16-1.95-2.24c-1.16-0.08-2.16,0.79-2.24,1.95l-0.81,12c-0.06,1.16,0.84,2.14,1.99,2.2
	c1.13,0.06,2.1-0.79,2.2-1.92l0.38-5.54C87.95,32.49,87.52,32.3,87.22,31.96z"/>
<path class="st12" d="M95.99,60.58l0.24-3.59c0.1-1.16-0.76-2.17-1.92-2.27c-1.16-0.1-2.17,0.76-2.27,1.92c0,0.02,0,0.05,0,0.07
	l-0.69,8c-0.08,1.16,0.79,2.16,1.95,2.24c1.16,0.08,2.16-0.79,2.24-1.95l0.26-1.59L95.99,60.58z"/>
<path class="st12" d="M103.64,32.62c-0.52-0.6-0.46-1.51,0.13-2.03c0.34-0.3,0.8-0.42,1.24-0.33l0.24-3.58
	c0.08-1.16-0.79-2.16-1.95-2.24c-1.16-0.08-2.16,0.79-2.24,1.95l0,0l-0.81,12c-0.06,1.16,0.84,2.14,1.99,2.2
	c1.13,0.06,2.1-0.79,2.2-1.92l0.37-5.54C104.36,33.16,103.93,32.97,103.64,32.62z"/>
<path class="st12" d="M93.67,5.7c0.47,0.57,0.38,1.42-0.19,1.89c-0.28,0.23-0.63,0.33-0.99,0.29c-0.21,0-0.41-0.1-0.55-0.26
	c-2.53-2.84-6.01-4.65-9.79-5.1c-0.21-0.02-0.4-0.13-0.52-0.31c-0.49-0.55-0.43-1.39,0.12-1.88c0.28-0.25,0.66-0.37,1.03-0.32
	c4.17,0.59,8,2.6,10.86,5.69H93.67z"/>
<path class="st12" d="M106.68,1.58c0.72-0.12,1.41,0.37,1.53,1.09c0.06,0.35-0.03,0.72-0.24,1.01c-0.1,0.19-0.29,0.32-0.5,0.35
	c-3.72,0.78-7.03,2.89-9.31,5.93c-0.12,0.18-0.32,0.29-0.53,0.3c-0.72,0.15-1.42-0.32-1.57-1.04c-0.08-0.37,0.01-0.76,0.24-1.06
	c2.59-3.32,6.24-5.64,10.34-6.58H106.68z"/>
<path class="st7" d="M144.37,43.23l-1.89-5.76c-0.19-0.59,0.03-1.24,0.54-1.6l2.56-1.76c0,0,1.06-5.43,5.58-7.7l0.91-0.78l2.48-4.39
	l1.38,0.23c0,0,1.24,4.63-1.72,7.3c0.95,0,15.54-1.36,15.54-1.36s1.23-0.19,1.42,1.39l-0.27,0.92l-10.45,3.14l10.92,2.84
	c0,0,1.42,1.75-0.58,2.44l-5.74-1l-4.75,0.23l9,7.36l-0.83,1.35c-1.24-0.03-2.46-0.38-3.53-1c0,0-6.83-3.76-6.31-3.59
	s3.88,7.13,3.88,7.13l-1.36,0.83c0,0-0.67,0.46-2.81-2.33l-3.43-5.52l-7.25-0.21l0,0c-0.1,0.74-0.66,1.33-1.39,1.47L144.37,43.23z"
	/>
<line class="st8" x1="151.61" y1="29.43" x2="154.21" y2="28.77"/>
<line class="st8" x1="159.08" y1="33.33" x2="160.45" y2="32.86"/>
<path class="st7" d="M144.37,43.23l-1.89-5.76c-0.19-0.59,0.03-1.24,0.54-1.6l2.56-1.76c0,0,1.06-5.43,5.58-7.7l0.91-0.78l2.48-4.39
	l1.38,0.23c0,0,1.24,4.63-1.72,7.3c0.95,0,15.54-1.36,15.54-1.36s1.23-0.19,1.42,1.39l-0.27,0.92l-10.45,3.14l10.92,2.84
	c0,0,1.42,1.75-0.58,2.44l-5.74-1l-4.75,0.23l9,7.36l-0.83,1.35c-1.24-0.03-2.46-0.38-3.53-1c0,0-6.83-3.76-6.31-3.59
	s3.88,7.13,3.88,7.13l-1.36,0.83c0,0-0.67,0.46-2.81-2.33l-3.43-5.52l-7.25-0.21l0,0c-0.1,0.74-0.66,1.33-1.39,1.47L144.37,43.23z"
	/>
<line class="st8" x1="151.61" y1="29.43" x2="154.21" y2="28.77"/>
<line class="st8" x1="159.08" y1="33.33" x2="160.45" y2="32.86"/>
</svg>
