<svg id="Layer_1" data-name="Layer 1" xmlns="http://www.w3.org/2000/svg" viewBox="0 0 1002 273"><defs><style>.cls-1{fill:#29b8d4;}.cls-2{fill:#51c2df;}.cls-3{fill:#7acde9;}.cls-4{fill:#ffd80e;}.cls-5,.cls-7{fill:#fff;}.cls-6{fill:#aedfec;}.cls-7{opacity:0.19;}.cls-8{fill:#5dae5a;}.cls-9{fill:#33913e;}</style></defs><path class="cls-1" d="M0,0V273H1001.79V0Z"/><path class="cls-2" d="M1001.79,148.93S829.61,170,686.41,170c-138.57,0-273.11-36.53-389-36.53C113.46,133.46,0,150,0,150V56S171.08,79.45,314.28,79.45c138.56,0,286.71-35.07,402.55-35.07,184,0,285,26.24,285,26.24Z"/><path class="cls-3" d="M297.45,133.76c115.85,0,250.39,36.53,389,36.53,143.2,0,315.38-21.06,315.38-21.06V272H0V150.29S113.46,133.76,297.45,133.76Z"/><circle class="cls-4" cx="330.83" cy="103.99" r="10.34" transform="translate(146.44 397.69) rotate(-75.33)"/><path class="cls-5" d="M572.48,212.22a9.19,9.19,0,0,0-15.39-9.94,8.19,8.19,0,0,0-5.06-1.73,8.56,8.56,0,0,0-2.22.3,11.77,11.77,0,0,0-22.53,2.79,5.37,5.37,0,0,0-.7,0,6.74,6.74,0,0,0-6.74,6.74,6.89,6.89,0,0,0,.27,1.88Z"/><path class="cls-5" d="M526.4,183.38a7.06,7.06,0,0,0-11.82-7.64,6.33,6.33,0,0,0-3.89-1.33,6,6,0,0,0-1.7.24,9,9,0,0,0-17.3,2.13l-.54,0a5.17,5.17,0,0,0-5.18,5.17,5.35,5.35,0,0,0,.21,1.45Z"/><path class="cls-5" d="M398.18,110.05a7.3,7.3,0,0,0-7.38-7.22,7.5,7.5,0,0,0-4.14,1.24,8.93,8.93,0,0,0-9-8.2,9.07,9.07,0,0,0-5.69,2,14.24,14.24,0,0,0-13.38-9.13,13.91,13.91,0,0,0-14.1,15.88,8.63,8.63,0,0,0-2.23-.3,8.18,8.18,0,1,0,0,16.35,8.53,8.53,0,0,0,2.16-.28,7,7,0,0,0-.07.92,7.21,7.21,0,0,0,14.05,2.07,11.51,11.51,0,0,0,18.77.22,7.73,7.73,0,0,0,6.63,3.71,7.62,7.62,0,0,0,7.71-7.53,7.48,7.48,0,0,0-.44-2.51A7.29,7.29,0,0,0,398.18,110.05Z"/><path class="cls-6" d="M723.52,0c0,13.54,13.91,33.51,27.36,33.51a24.14,24.14,0,0,0,13.66-4.22,29.83,29.83,0,0,0,29.67,27.86A29.51,29.51,0,0,0,813,50.41a47,47,0,0,0,90.67-22.92,27.62,27.62,0,0,0,7.37,1A27.68,27.68,0,0,0,938.65.76"/><path class="cls-7" d="M318.79,116.72a17.26,17.26,0,0,1,24.6-24.21c6.68,6.8,7,16.21.16,22.9S325.47,123.51,318.79,116.72Z"/><path class="cls-8" d="M-.8,216.9s124.16-19.52,157.23-18.69,206.06,29.49,295.33,28.66,133.36-9.14,170.11-7.89,125.54,14.54,188.62,11.22S1002.79,209,1002.79,209v33.27H-.8Z"/><rect class="cls-9" x="-0.8" y="240.98" width="1003.59" height="32.77"/></svg>