<svg xmlns="http://www.w3.org/2000/svg" viewBox="0 0 1002 273"><defs><style>.cls-1{isolation:isolate;}.cls-2{fill:#39dedb;}.cls-3,.cls-5{fill:#298e71;}.cls-4{fill:#29993a;}.cls-5{opacity:0.57;mix-blend-mode:multiply;}.cls-6{fill:#3a5c6a;}.cls-7{fill:#f2c341;}.cls-8{fill:#f9e8bd;}</style></defs><g class="cls-1"><g id="Layer_1" data-name="Layer 1"><path class="cls-2" d="M.48.23V273.14h1002V.23Z"/><polygon class="cls-3" points="1002.47 262.42 862.07 273.13 1002.47 273.13 1002.47 262.42"/><path class="cls-3" d="M1002.47,110.53c-66.51-6.32-133.2-3.33-204.41,10.11-102.4,19.32-204.22,58.55-306.5,48.59-53.1-5.16-101.8-23.59-156.32-20.46-52.7,3-98.59,25.4-145.31,42.68-58.66,21.69-123.52,36-189.45,42.47v39.21H862.07l140.4-10.71Z"/><path class="cls-4" d="M209.1,65.53c-.31,0-.62,0-.94,0A20.37,20.37,0,0,0,209,61c.75-13.51-11.51-25-27.38-25.62-12.86-.51-24.15,6.24-28.37,16a17.77,17.77,0,0,0-10.49-3.81c-9-.37-16.72,5.58-17.15,13.28a12.12,12.12,0,0,0,1.56,6.63c-.52,0-1-.11-1.58-.13-15.37-.62-28.43,9.49-29.16,22.57s11.15,24.2,26.53,24.82a32.35,32.35,0,0,0,4.74-.18c6.87,13.59,22.38,23.39,40.91,24.13,15.1.61,28.86-4.93,38-14,.84,0,1.69.11,2.55.11,19.24,0,34.83-13.27,34.83-29.64S228.34,65.53,209.1,65.53Z"/><path class="cls-4" d="M41-3.07c-.52-.05-1,.86-1.57.84C24.09-2.85,11,7.26,10.3,20.34s11.15,24.2,26.53,24.82A33.82,33.82,0,0,0,41.57,45C48.45,58.57,64,68.37,82.48,69.12c15.1.61,28.86-4.93,38-14,.84.06,1.69.11,2.55.11,19.24,0,34.83-13.26,34.83-29.63S142.23-3.07,123-3.07c-.31,0-.62-.95-.94-.94"/><ellipse class="cls-5" cx="899.27" cy="249.91" rx="59.32" ry="11.67"/><path class="cls-4" d="M60.64-.25C64.77,22.67,69,45.07,106.5,58.94a61,61,0,0,0,65.42,32.9A60.6,60.6,0,0,0,202.06,77a62.79,62.79,0,0,0,45.22,19.16c.38,0,.75,0,1.13,0a60.94,60.94,0,0,0,95.42,17.77,63,63,0,0,0,85.59,4.52c29.53-24,28.05-21.57,52.71-19.74,32.34,2.4,98.82,20.06,141.16-22a18.5,18.5,0,0,0-.72,2.89c-2.12,13.36,8.91,26,24.63,28.26,12.75,1.83,24.66-3.74,29.86-13a17.68,17.68,0,0,0,10,4.86c9,1.29,17.21-3.84,18.42-11.46a12.11,12.11,0,0,0-.5-5.75l1.44-.69A30.68,30.68,0,0,0,727,77.57a62.71,62.71,0,0,0,39.12,13.64,63,63,0,0,0,62.11-52.35,53.75,53.75,0,0,0,24.58-4.46A61,61,0,0,0,925.51,26c8.61-8.16,14.3-15.58,17.06-26.28Z"/><path class="cls-6" d="M509.58,79.82c11.74-4.1,25.91-11.73,40-25.83l-2.33-2.32c-18.78,18.78-37.77,25.91-51.81,28.39,7.64-17.83,16.24-25.9,16.37-26h0l-1.1-1.2-1.12-1.22c-.4.37-9.83,9.14-17.95,29a77.13,77.13,0,0,1-9.46.63l-6.44-27c27.72-2.13,29.3-25.12,29.32-25.37l-3.28-.17c-.05.87-1.52,20.65-26.81,22.31L468,21.8l-24.95,5.41,6.55,40.63c-13.9-.69-24.14-8.48-30.44-23.2a75.94,75.94,0,0,1-5.54-23.85l-3.28.12c0,.5,2.25,49,39.8,50.25l4.2,26c-24.86-2.39-43.86-13.75-56.57-33.88A91,91,0,0,1,385,28.67l-3.26.35a92.34,92.34,0,0,0,11.61,33.29c-24.73-1.84-43-25.95-43.17-26.21l-2.64,2a83.59,83.59,0,0,0,13.76,13.8c11,8.83,22.82,13.6,34.12,13.84,9.56,14.83,27.4,31.93,59.48,34.82l20,124.08h41.51L483,84.61a81,81,0,0,0,14-1.4,88.12,88.12,0,0,0,9.2-2.27,29.33,29.33,0,0,0,21.78,9.38c6.16,0,13.58-1.74,22.23-6.67l-1.63-2.85C526.5,93.35,513.76,84,509.58,79.82Z"/><path class="cls-6" d="M744.91,73.7c9.69-1,21.89-4.11,35.24-12.24l-1.34-2.2C761,70.08,745.27,72,734.13,71.27c9.12-12.15,17.16-16.71,17.26-16.77h0l-.61-1.12-.62-1.13c-.38.2-9.17,5.14-19,18.77a59.29,59.29,0,0,1-6.31-1V48.17c20.73,2.89,26-13.85,26.08-14l-2.46-.74c-.2.65-4.83,15-23.62,12.17V22.77l-23.07-2-2.07,32.09c-9.38-3.44-15.12-11.05-17.06-22.69a59.55,59.55,0,0,1,.2-19.18l-2.52-.51c-.08.37-7,36.09,19.21,45.06l-1.33,20.59c-17.65-6.55-29.52-18.52-35.3-35.71a71.32,71.32,0,0,1-3.32-28.73L657,11.37a72.4,72.4,0,0,0,2.68,27.49c-18.48-6-27.91-27.71-28-27.94l-2.37,1A65.47,65.47,0,0,0,637.22,25c6.77,8.76,14.85,14.57,23.41,16.84a58.38,58.38,0,0,0,15.64,24.1,42.26,42.26,0,0,1-18.19.86c-19.36-2.93-35.38-16.28-45.41-27l-1.88,1.76c16.11,17.16,31.07,24.12,42,26.78,1.8.44,3.49.76,5.06,1,12.18,1.8,19.83-1.18,20.15-1.3l-.35-.87A64.76,64.76,0,0,0,698,78.83L690.58,194h34.25V72.66A63.34,63.34,0,0,0,734.67,74a68.54,68.54,0,0,0,7.43,0A22.94,22.94,0,0,0,756.94,85.1c4.69,1.14,10.66,1.19,18.15-1l-.7-2.48C755.27,87.15,747.3,77.65,744.91,73.7Z"/><path class="cls-6" d="M275.23,85.91c9.11-12.16,17.15-16.72,17.26-16.77l-1.24-2.26c-.38.21-9.17,5.15-19,18.77a58.79,58.79,0,0,1-7.69-1.36l.4-21.65C286.47,66.2,291.94,49,292,48.78L289.53,48c-.2.66-5,15.46-24.55,12L265.25,45l-22.42-9.56-2.52,31.93c-9.11-3.53-14.69-11.09-16.61-22.54a59.55,59.55,0,0,1,.2-19.18l-2.52-.51c-.08.37-6.93,35.63,18.72,44.88l-1.61,20.47C221.27,83.87,209.66,72,204,55.07a71.53,71.53,0,0,1-3.32-28.73L198.09,26a72.4,72.4,0,0,0,2.68,27.49c-18.48-6-27.91-27.71-28-27.94l-2.36,1a65,65,0,0,0,7.91,13.05c6.77,8.76,14.85,14.57,23.41,16.85a58.54,58.54,0,0,0,15.65,24.1,42.38,42.38,0,0,1-18.2.85c-19.36-2.93-35.38-16.28-45.41-27l-1.87,1.76C168,73.37,183,80.33,193.91,83c1.8.44,3.49.76,5.06,1,12.19,1.79,19.83-1.19,20.15-1.31l-.34-.87a64,64,0,0,0,19.5,11.35l2.5,106.12L274,186.68,264.49,87a62.92,62.92,0,0,0,11.28,1.61c10.47.56,26.86-1.16,45.47-12.49l-1.33-2.2C302.13,84.71,286.37,86.61,275.23,85.91Z"/><polygon class="cls-6" points="291.87 68.01 292.49 69.14 292.49 69.14 291.87 68.01"/><path class="cls-7" d="M965.25,181.72a5,5,0,0,0-3.78-1.75H832.89a5,5,0,0,0-4.89,5.76,70.11,70.11,0,0,0,138.37,0A5,5,0,0,0,965.25,181.72Z"/><ellipse class="cls-8" cx="881.49" cy="194.95" rx="11.9" ry="2.45"/><ellipse class="cls-8" cx="907.4" cy="194.95" rx="11.9" ry="2.45"/><ellipse class="cls-8" cx="933.3" cy="194.95" rx="11.9" ry="2.45"/><ellipse class="cls-8" cx="870.29" cy="202.65" rx="11.9" ry="2.45"/><ellipse class="cls-8" cx="896.2" cy="202.65" rx="11.9" ry="2.45"/><ellipse class="cls-8" cx="922.1" cy="202.65" rx="11.9" ry="2.45"/><ellipse class="cls-8" cx="881.49" cy="210.35" rx="11.9" ry="2.45"/><ellipse class="cls-8" cx="907.4" cy="210.35" rx="11.9" ry="2.45"/><ellipse class="cls-8" cx="933.3" cy="210.35" rx="11.9" ry="2.45"/><ellipse class="cls-8" cx="896.2" cy="218.05" rx="11.9" ry="2.45"/><ellipse class="cls-8" cx="922.1" cy="218.05" rx="11.9" ry="2.45"/><ellipse class="cls-8" cx="907.4" cy="226.11" rx="11.9" ry="2.45"/></g></g></svg>