<?xml version="1.0" encoding="utf-8"?>
<!-- Generator: Adobe Illustrator 24.1.2, SVG Export Plug-In . SVG Version: 6.00 Build 0)  -->
<svg version="1.1" id="Tastaturbo_turid_" xmlns="http://www.w3.org/2000/svg" xmlns:xlink="http://www.w3.org/1999/xlink" x="0px"
	 y="0px" viewBox="0 0 155.47 109.59" style="enable-background:new 0 0 155.47 109.59;" xml:space="preserve">
<style type="text/css">
	.st0{fill:#F5A84C;stroke:#1B3F4B;stroke-width:1.2;stroke-linecap:round;stroke-linejoin:round;}
	.st1{fill:#E1B0D1;stroke:#1B3F4B;stroke-width:1.2;stroke-linecap:round;stroke-linejoin:round;}
	.st2{fill:#FFFFFF;stroke:#1B3F4B;stroke-width:1.2;stroke-linecap:round;stroke-linejoin:round;}
	.st3{fill:none;stroke:#1B3F4B;stroke-width:1.2;stroke-linecap:round;stroke-linejoin:round;}
	.st4{fill:#1B3F4B;}
</style>
<path class="st0" d="M65.17,95.92l-5.8,6.11c-0.53,0.7-0.39,1.69,0.31,2.21c0.12,0.09,0.25,0.16,0.39,0.22
	c3.8,1.42,13.18,3.67,26.5-1.55l-1-2.75c0,0-2.68-1.61-10.14-1.55l-3.68-0.92"/>
<path class="st1" d="M100.7,76.34l-38.18,2.7c1.07,0.66,5,6.27,8.45,11.31l-5.76,5.57c0,0,0.49,3.18,4.65,1.71l4.09-3
	c1.02,1.48,1.86,3.08,2.52,4.75l6.65-0.16l-4-8C79.85,91.03,100.7,76.34,100.7,76.34z M74.81,82.94l8-2.19l-1.71,1.71l-4.4,3.92
	L74.81,82.94z"/>
<path class="st2" d="M124.49,23.54l0.5,6c0.05,0.63,0.5,1.15,1.12,1.27l3,0.63c0,0,3.1,4.59,8.14,4.92l1.14,0.37l4,3.08l1.18-0.74
	c0,0-0.65-4.76-4.42-6.07c0.87-0.39,14.85-4.78,14.85-4.78s1.21-0.3,0.77-1.83l-0.6-0.74l-10.84,1.17l8.92-6.84
	c0,0,0.63-2.16-1.48-2l-4.92,3.11l-4.46,1.64l5.45-10.29l-1.29-0.92c-1.13,0.52-2.11,1.31-2.85,2.3c0,0-4.83,6.12-4.41,5.76
	s0.8-8.08,0.8-8.08l-1.58-0.23c0,0-0.79-0.17-1.68,3.23l-1,6.43l-6.6,3l0,0c-0.38-0.64-1.12-0.97-1.85-0.82L124.49,23.54z"/>
<line class="st3" x1="136.52" y1="33.44" x2="139.17" y2="33.04"/>
<line class="st3" x1="141.89" y1="26.95" x2="143.33" y2="26.86"/>
<line class="st3" x1="128.2" y1="23.96" x2="128.49" y2="26.73"/>
<line class="st3" x1="128.61" y1="28.39" x2="128.69" y2="29.62"/>
<path class="st1" d="M98.88,23.82c0,0-0.05,9.27,0.8,8.78s9.66-7.49,9.66-7.49l15.53,2.71l-0.38-4.23l-14.45-4.46L98.88,23.82z"/>
<path class="st2" d="M124.49,23.54l0.5,6c0.05,0.63,0.5,1.15,1.12,1.27l3,0.63c0,0,3.1,4.59,8.14,4.92l1.14,0.37l4,3.08l1.18-0.74
	c0,0-0.65-4.76-4.42-6.07c0.87-0.39,14.85-4.78,14.85-4.78s1.21-0.3,0.77-1.83l-0.6-0.74l-10.84,1.17l8.92-6.84
	c0,0,0.63-2.16-1.48-2l-4.92,3.11l-4.46,1.64l5.45-10.29l-1.29-0.92c-1.13,0.52-2.11,1.31-2.85,2.3c0,0-4.83,6.12-4.41,5.76
	s0.8-8.08,0.8-8.08l-1.58-0.23c0,0-0.79-0.17-1.68,3.23l-1,6.43l-6.6,3l0,0c-0.38-0.64-1.12-0.97-1.85-0.82L124.49,23.54z"/>
<line class="st3" x1="136.52" y1="33.44" x2="139.17" y2="33.04"/>
<line class="st3" x1="141.89" y1="26.95" x2="143.33" y2="26.86"/>
<line class="st3" x1="128.2" y1="23.96" x2="128.49" y2="26.73"/>
<line class="st3" x1="128.61" y1="28.39" x2="128.69" y2="29.62"/>
<path class="st1" d="M98.88,23.82c0,0-0.05,9.27,0.8,8.78s9.66-7.49,9.66-7.49l15.53,2.71l-0.38-4.23l-14.45-4.46L98.88,23.82z"/>
<path class="st0" d="M76.24,97.82l-2.22,8.36c0,0,18.37,7.24,24.94-1.52l-1-2.76c0,0-2.68-1.61-10.14-1.55l-3.68-0.92l-3.09-3.25
	L76.24,97.82z"/>
<line class="st3" x1="87.13" y1="102.83" x2="89.12" y2="100.51"/>
<line class="st3" x1="82.67" y1="101.45" x2="84.19" y2="99.4"/>
<path class="st2" d="M14.43,53.82l-3.08,3l-4,6.26c0,0-1.19,1.86,1,2.27c0.52-0.33,4.61-4,5.42-4.8l-3.51,6.6l0,0
	c0.93,0.81,2.35,0.72,3.16-0.21c0,0,0.01-0.01,0.01-0.01l4.94-5.73l4.55-3.19l2.67,5.61c2.64,4.12,4.87,2,4.87,2l-2.1-5.17
	c-0.5-1.17-0.5-2.48,0-3.65c1.01-2.45,0.55-5.27-1.2-7.27l1.62-0.32l0.67-3.78l-6.14-1.89l-2.11,2.1c-3.55-0.15-10.47,4.72-11,5
	S2.14,51.1,2.14,51.1c-1.71,0.57-1.7,1.29-1.36,1.82c0.28,0.42,0.74,0.7,1.25,0.76L4.53,54h4.39L3.7,59.04c0,0-1.34,1.79,0.31,2.24
	c0.6,0.15,1.23,0.03,1.73-0.34l1-0.7l4.61-3.42"/>
<polyline class="st3" points="18.18,55.75 14.51,59.24 12.7,62.31 "/>
<path class="st1" d="M23.36,43.45C25.4,41.82,38.7,25.09,38.7,25.09s6.22,0.81,22.18,5.53l1.56,9.12l-22.39-6.61L28.49,44.98
	L23.36,43.45z"/>
<line class="st3" x1="10.91" y1="52.24" x2="8.99" y2="53.89"/>
<line class="st3" x1="21.25" y1="45.55" x2="24.84" y2="47.34"/>
<path class="st0" d="M112.01,44.34c-2.14-4.55-5.23-4.87-7.67-4.12L103,20.11l-55.51,3.71l1.7,25.54l0.18,2.69
	c-2.56,2.85-3.16,6.96-1.52,10.43c0.58,1.18,1.4,2.23,2.41,3.08l0.19,2.75l0.73,11.06l55.52-3.71l-0.82-12.25
	c1.61-1.46,2.92-2.76,2.92-2.76C116.07,52.35,112.01,44.34,112.01,44.34z"/>
<path class="st2" d="M66.43,17.07c-2.17,0.14-4.1,1.42-5.06,3.37l1.68,25.25c0.19,2.95,2.73,5.19,5.68,5c0,0,0.01,0,0.01,0l0,0
	c2.95-0.19,5.19-2.74,5-5.7c0,0,0,0,0,0l-1.66-25C70.9,18.03,68.71,16.9,66.43,17.07z"/>
<path class="st2" d="M84.7,14.7c-2.17,0.14-4.1,1.42-5.07,3.37l-0.09-1.37l0,0l1.85,27.77c0.2,2.95,2.75,5.18,5.7,4.99
	c2.95-0.2,5.18-2.75,4.98-5.7l-1.73-26.11C89.17,15.68,86.99,14.54,84.7,14.7z"/>
<path class="st0" d="M66.19,12.22L66.19,12.22c-2.95,0.19-5.19,2.74-5,5.7c0,0,0,0,0,0l0.17,2.52c1.51-3.02,5.17-4.25,8.19-2.74
	c1.04,0.52,1.91,1.32,2.51,2.31l-0.19-2.8c-0.19-2.94-2.72-5.18-5.67-4.99C66.2,12.22,66.19,12.22,66.19,12.22z"/>
<path class="st0" d="M84.5,11c-2.95,0.2-5.19,2.75-5,5.7l0.17,2.52c1.51-3.02,5.17-4.25,8.19-2.74c1.04,0.52,1.91,1.32,2.51,2.31
	l-0.19-2.8C89.99,13.04,87.45,10.81,84.5,11z"/>
<path class="st4" d="M58.5,10.25c-0.21,0.73,0.21,1.5,0.94,1.71c0.64,0.18,1.32-0.11,1.62-0.71c1.53-3.56,4.25-6.49,7.69-8.27
	c0.7-0.31,1.01-1.12,0.71-1.82c-0.31-0.7-1.12-1.01-1.82-0.71c-0.05,0.02-0.1,0.05-0.15,0.08c-4.02,2.08-7.2,5.48-9,9.64L58.5,10.25
	z"/>
<path class="st4" d="M78.07,7.05c-0.46,0.6-0.35,1.47,0.25,1.94c0.6,0.46,1.47,0.35,1.94-0.26l0,0c2.41-3.04,5.8-5.16,9.59-6
	c0.74-0.15,1.22-0.87,1.07-1.61c0-0.01,0-0.01,0-0.02c-0.16-0.75-0.89-1.22-1.64-1.07c-4.42,0.97-8.37,3.45-11.18,7L78.07,7.05z"/>
<path class="st4" d="M69.02,32.53c-0.61-0.54-0.67-1.47-0.13-2.07c0.3-0.34,0.75-0.53,1.2-0.5l-0.25-3.66
	c-0.09-1.18-1.12-2.06-2.3-1.97c-1.16,0.09-2.04,1.09-1.97,2.26l0.81,12.23c0.07,1.18,1.08,2.08,2.26,2.01s2.08-1.08,2.01-2.26
	c0-0.01,0-0.03,0-0.04l-0.37-5.71C69.84,32.92,69.37,32.82,69.02,32.53z"/>
<path class="st4" d="M87.31,30.82c-0.61-0.54-0.67-1.47-0.13-2.07c0.3-0.34,0.74-0.52,1.19-0.5l-0.25-3.65
	c-0.05-1.18-1.05-2.09-2.24-2.04c-1.18,0.05-2.09,1.05-2.04,2.24c0,0.03,0,0.06,0.01,0.08l0.85,12.24c0.08,1.18,1.1,2.08,2.29,2
	c1.18-0.08,2.08-1.1,1.99-2.29l-0.38-5.65C88.14,31.28,87.65,31.14,87.31,30.82z"/>
<path class="st0" d="M78.2,52.98c1.39,0.78,3,1.06,4.57,0.8c2.24-0.34,5.09-2,4.71-4.66c-0.5-2.51-2.94-4.13-5.45-3.63
	c-0.15,0.03-0.3,0.07-0.44,0.11c-1.29,0.18-2.49,0.77-3.42,1.69"/>
<path class="st2" d="M60.24,55.33c6.62,2.61,13.64,4.08,20.75,4.37c5.07,0.12,11.34-2.37,17.78-9.23c0,0,4.91-5.7,6.64-0.45
	c0,0-0.41,10.85-10.81,14.55c-4.59,1.62-9.65,1.3-14-0.88c-4.45-2.2-11.73-4.17-17.82-1.17c-3.79,1.86-4.93,1.93-7.79,0.51
	c0,0-2.85-1.42-1.81-6.54C53.19,56.49,54.26,51.82,60.24,55.33z"/>
<line class="st3" x1="80.99" y1="59.7" x2="81.76" y2="64.24"/>
<line class="st3" x1="91.62" y1="56.92" x2="93.31" y2="65.08"/>
<line class="st3" x1="100.12" y1="49.92" x2="102.91" y2="57.32"/>
<line class="st3" x1="69.82" y1="61.13" x2="69.91" y2="58.66"/>
<line class="st3" x1="59.41" y1="63.66" x2="60.24" y2="55.33"/>
<path class="st3" d="M56.45,68.44c0.79,0.21,1.59,0.39,2.4,0.55"/>
<path class="st3" d="M54.8,49.52c-6.38,0.3-9.56,7.52-6.95,12.94c0.7,1.45,1.77,2.69,3.09,3.6"/>
<path class="st3" d="M65.6,52.9c-2-1.11-4.1-2.03-6.27-2.73"/>
<line class="st3" x1="56.94" y1="16.72" x2="58.64" y2="42.25"/>
<path class="st0" d="M93.47,16.26c0.38,5.65,0.75,11.16,1.13,17"/>
<path class="st0" d="M94.86,37.16c0.38,5.65-0.15-2.4,0.23,3.43"/>
<path class="st3" d="M64.91,67.74c4.23-1.99,9.23-1.38,12.85,1.57"/>
<path class="st2" d="M14.43,53.82l-3.08,3l-4,6.26c0,0-1.19,1.86,1,2.27c0.52-0.33,4.61-4,5.42-4.8l-3.51,6.6l0,0
	c0.93,0.81,2.35,0.72,3.16-0.21c0,0,0.01-0.01,0.01-0.01l4.94-5.73l4.55-3.19l2.67,5.61c2.64,4.12,4.87,2,4.87,2l-2.1-5.17
	c-0.5-1.17-0.5-2.48,0-3.65c1.01-2.45,0.55-5.27-1.2-7.27l1.62-0.32l0.67-3.78l-6.14-1.89l-2.11,2.1c-3.55-0.15-10.47,4.72-11,5
	S2.14,51.1,2.14,51.1c-1.71,0.57-1.7,1.29-1.36,1.82c0.28,0.42,0.74,0.7,1.25,0.76L4.53,54h4.39L3.7,59.04c0,0-1.34,1.79,0.31,2.24
	c0.6,0.15,1.23,0.03,1.73-0.34l1-0.7l4.61-3.42"/>
<polyline class="st3" points="18.18,55.75 14.51,59.24 12.7,62.31 "/>
<path class="st1" d="M23.36,43.45C25.4,41.82,38.7,25.09,38.7,25.09s6.22,0.81,22.18,5.53l1.56,9.12l-22.39-6.61L28.49,44.98
	L23.36,43.45z"/>
<line class="st3" x1="10.91" y1="52.24" x2="8.99" y2="53.89"/>
<line class="st3" x1="21.25" y1="45.55" x2="24.84" y2="47.34"/>
<path class="st0" d="M112.01,44.34c-2.14-4.55-5.23-4.87-7.67-4.12L103,20.11l-55.51,3.71l1.7,25.54l0.18,2.69
	c-2.56,2.85-3.16,6.96-1.52,10.43c0.58,1.18,1.4,2.23,2.41,3.08l0.19,2.75l0.73,11.06l55.52-3.71l-0.82-12.25
	c1.61-1.46,2.92-2.76,2.92-2.76C116.07,52.35,112.01,44.34,112.01,44.34z"/>
<path class="st2" d="M66.43,17.07c-2.17,0.14-4.1,1.42-5.06,3.37l1.68,25.25c0.19,2.95,2.73,5.19,5.68,5c0,0,0.01,0,0.01,0l0,0
	c2.95-0.19,5.19-2.74,5-5.7c0,0,0,0,0,0l-1.66-25C70.9,18.03,68.71,16.9,66.43,17.07z"/>
<path class="st2" d="M84.7,14.7c-2.17,0.14-4.1,1.42-5.07,3.37l-0.09-1.37l0,0l1.85,27.77c0.2,2.95,2.75,5.18,5.7,4.99
	c2.95-0.2,5.18-2.75,4.98-5.7l-1.73-26.11C89.17,15.68,86.99,14.54,84.7,14.7z"/>
<path class="st0" d="M66.19,12.22L66.19,12.22c-2.95,0.19-5.19,2.74-5,5.7c0,0,0,0,0,0l0.17,2.52c1.51-3.02,5.17-4.25,8.19-2.74
	c1.04,0.52,1.91,1.32,2.51,2.31l-0.19-2.8c-0.19-2.94-2.72-5.18-5.67-4.99C66.2,12.22,66.19,12.22,66.19,12.22z"/>
<path class="st0" d="M84.5,11c-2.95,0.2-5.19,2.75-5,5.7l0.17,2.52c1.51-3.02,5.17-4.25,8.19-2.74c1.04,0.52,1.91,1.32,2.51,2.31
	l-0.19-2.8C89.99,13.04,87.45,10.81,84.5,11z"/>
<path class="st4" d="M58.5,10.25c-0.21,0.73,0.21,1.5,0.94,1.71c0.64,0.18,1.32-0.11,1.62-0.71c1.53-3.56,4.25-6.49,7.69-8.27
	c0.7-0.31,1.01-1.12,0.71-1.82c-0.31-0.7-1.12-1.01-1.82-0.71c-0.05,0.02-0.1,0.05-0.15,0.08c-4.02,2.08-7.2,5.48-9,9.64L58.5,10.25
	z"/>
<path class="st4" d="M78.07,7.05c-0.46,0.6-0.35,1.47,0.25,1.94c0.6,0.46,1.47,0.35,1.94-0.26l0,0c2.41-3.04,5.8-5.16,9.59-6
	c0.74-0.15,1.22-0.87,1.07-1.61c0-0.01,0-0.01,0-0.02c-0.16-0.75-0.89-1.22-1.64-1.07c-4.42,0.97-8.37,3.45-11.18,7L78.07,7.05z"/>
<path class="st4" d="M71.02,39.53c-0.61-0.54-0.67-1.47-0.13-2.07c0.3-0.34,0.75-0.53,1.2-0.5l-0.25-3.66
	c-0.09-1.18-1.12-2.06-2.3-1.97c-1.16,0.09-2.04,1.09-1.97,2.26l0.81,12.23c0.09,1.18,1.12,2.06,2.3,1.97
	c1.16-0.09,2.04-1.09,1.97-2.26l-0.37-5.71C71.84,39.92,71.37,39.82,71.02,39.53z"/>
<path class="st4" d="M87.31,37.82c-0.61-0.54-0.67-1.47-0.13-2.07c0.3-0.34,0.74-0.52,1.19-0.5l-0.25-3.65
	c-0.05-1.18-1.05-2.09-2.24-2.04c-1.18,0.05-2.09,1.05-2.04,2.24c0,0.03,0,0.06,0.01,0.08l0.85,12.24c0.08,1.18,1.1,2.08,2.28,2
	c1.18-0.08,2.08-1.1,2-2.29l-0.38-5.65C88.14,38.28,87.65,38.14,87.31,37.82z"/>
<path class="st0" d="M78.2,52.98c1.39,0.78,3,1.06,4.57,0.8c2.24-0.34,5.09-2,4.71-4.66c-0.5-2.51-2.94-4.13-5.45-3.63
	c-0.15,0.03-0.3,0.07-0.44,0.11c-1.29,0.18-2.49,0.77-3.42,1.69"/>
<path class="st2" d="M60.24,55.33c6.62,2.61,13.64,4.08,20.75,4.37c5.07,0.12,11.34-2.37,17.78-9.23c0,0,4.91-5.7,6.64-0.45
	c0,0-0.41,10.85-10.81,14.55c-4.59,1.62-9.65,1.3-14-0.88c-4.45-2.2-11.73-4.17-17.82-1.17c-3.79,1.86-4.93,1.93-7.79,0.51
	c0,0-2.85-1.42-1.81-6.54C53.19,56.49,54.26,51.82,60.24,55.33z"/>
<line class="st3" x1="80.99" y1="59.7" x2="81.76" y2="64.24"/>
<line class="st3" x1="91.62" y1="56.92" x2="93.31" y2="65.08"/>
<line class="st3" x1="100.12" y1="49.92" x2="102.91" y2="57.32"/>
<line class="st3" x1="69.82" y1="61.13" x2="69.91" y2="58.66"/>
<line class="st3" x1="59.41" y1="63.66" x2="60.24" y2="55.33"/>
<path class="st3" d="M54.8,49.52c-6.38,0.3-9.56,7.52-6.95,12.94c0.7,1.45,1.77,2.69,3.09,3.6"/>
<path class="st3" d="M65.6,52.9c-2-1.11-4.1-2.03-6.27-2.73"/>
<line class="st3" x1="56.94" y1="16.72" x2="58.64" y2="42.25"/>
<path class="st0" d="M93.47,16.26c0.38,5.65,0.75,11.16,1.13,17"/>
<path class="st3" d="M64.91,67.74c4.23-1.99,9.23-1.38,12.85,1.57"/>
<line class="st3" x1="70.93" y1="90.35" x2="73.91" y2="94.65"/>
<line class="st3" x1="76.67" y1="86.38" x2="83.08" y2="99.24"/>
</svg>
