<?xml version="1.0" encoding="utf-8"?>
<!-- Generator: Adobe Illustrator 24.1.2, SVG Export Plug-In . SVG Version: 6.00 Build 0)  -->
<svg version="1.1" id="Tastaturbo_turid_" xmlns="http://www.w3.org/2000/svg" xmlns:xlink="http://www.w3.org/1999/xlink" x="0px"
	 y="0px" viewBox="0 0 164.04 204.54" style="enable-background:new 0 0 164.04 204.54;" xml:space="preserve">
<style type="text/css">
	.st0{fill:none;}
	.st1{fill:#F2A059;}
	.st2{fill:#FFFFFF;}
	.st3{fill:none;stroke:#1B3F4B;stroke-width:1.14;stroke-linecap:round;stroke-linejoin:round;}
	.st4{fill:#F5A84C;stroke:#1B3F4B;stroke-width:1.14;stroke-linecap:round;stroke-linejoin:round;}
	.st5{fill:#E1B0D1;stroke:#1B3F4B;stroke-width:1.14;stroke-miterlimit:10;}
	.st6{fill:#FFFFFF;stroke:#1B3F4B;stroke-width:1.14;stroke-linecap:round;stroke-linejoin:round;}
	.st7{fill:none;stroke:#000000;stroke-width:1.14;stroke-linecap:round;stroke-linejoin:round;}
	.st8{fill:#1B3F4B;}
</style>
<path class="st0" d="M36.39,12c0-0.03,0-0.07,0-0.1l-0.12,0.06l0,0L36.39,12z"/>
<path class="st0" d="M36.38,12.01L36.38,12.01z"/>
<path class="st0" d="M36.31,11.96l-0.09,0.05h0.14L36.31,11.96z"/>
<path class="st0" d="M37.26,12.61c0.79-0.23,1.59-0.46,2.38-0.67c-1.49,0-2.61,0-3.25,0.06l0,0C36.55,12.12,36.85,12.32,37.26,12.61
	z"/>
<path class="st0" d="M35.98,13.01l0.6-0.2l0.68-0.2c-0.41-0.29-0.71-0.49-0.88-0.6C36.3,12.24,36.16,12.53,35.98,13.01z"/>
<path class="st0" d="M36.38,12.01h-0.16c-0.66,0.35-1.94,1-3.58,2.13c1.1-0.4,2.21-0.78,3.34-1.13
	C36.16,12.53,36.3,12.24,36.38,12.01z"/>
<path class="st1" d="M60.24,3.61c13.09,0.19,50.55,5.3,57.93,56.35c0.5-4.67,4.22-9,9.64-10.68c6.79-2.05,13.85,1,15.74,6.82
	c0.13,0.32,0.47,0.51,0.81,0.44h0.13c0.29-0.08,0.51-0.32,0.57-0.62c0.8-6.22,0.28-12.54-1.52-18.55
	C134.78,8.47,97.92-6.21,60.24,3.61z"/>
<path class="st1" d="M52.05,6.13C15.87,19.06-6.22,51.33,2.46,79.92c1.82,6,4.89,11.55,9,16.29c0.21,0.22,0.53,0.29,0.82,0.2h0.12
	c0.32-0.13,0.5-0.47,0.43-0.81c-1.64-5.88,2.54-12.34,9.33-14.38c4.24-1.42,8.91-0.67,12.48,2.02
	C10.36,38.41,39.87,13.88,52.05,6.13z"/>
<path class="st2" d="M118.17,59.96c-7.38-51-44.84-56.16-57.93-56.35c-0.93,0.24-1.86,0.5-2.79,0.77c5,3.52,24.26,19.77,34.31,67.3
	c0.04-0.12,0.04-0.24,0-0.36c-1.39-5.84,2.75-12,9.43-14c6.92-2.09,14,1.06,15.81,7c0.2,0.39,0.67,0.55,1.06,0.35
	c0.3-0.15,0.47-0.47,0.43-0.8L118.17,59.96z"/>
<path class="st1" d="M57.45,4.38l-0.79,0.23l-0.7,0.22c-2.23,5.7-9.26,29.92,8.76,75.12c0.16,0.07,0.35,0.09,0.52,0.05h0.06
	c0.33-0.08,0.57-0.38,0.58-0.72c-0.22-5.27,3.85-10.38,9.68-12.14s12.06,0.24,14.8,4.75c0.2,0.28,0.56,0.4,0.88,0.28h0.06
	c0.21-0.07,0.38-0.24,0.46-0.45C81.71,24.15,62.46,7.9,57.45,4.38z"/>
<path class="st2" d="M37.99,88.18c0.14,0.37,0.55,0.56,0.93,0.42c0,0,0,0,0,0c0.39-0.09,0.64-0.48,0.55-0.87
	c-1.8-5.95,2.37-12.49,9.31-14.59c6.68-2,13.55,0.82,15.63,6.46c0.06,0.16,0.18,0.29,0.34,0.35c-18-45.2-11-69.42-8.76-75.12
	c-1.32,0.41-2.62,0.84-3.91,1.3c-12.21,7.75-41.72,32.28-17.44,77.11L37.99,88.18z"/>
<line class="st3" x1="65.3" y1="79.98" x2="77.42" y2="142.38"/>
<line class="st3" x1="38.92" y1="88.6" x2="73.17" y2="143.74"/>
<line class="st3" x1="91.24" y1="72.15" x2="112.7" y2="136.61"/>
<line class="st3" x1="118.16" y1="65.5" x2="118.37" y2="136.3"/>
<path class="st3" d="M52.05,6.13C15.87,19.06-6.22,51.33,2.46,79.92c1.82,6,4.89,11.55,9,16.28c0.21,0.23,0.53,0.31,0.82,0.21h0.12
	c0.32-0.13,0.5-0.47,0.43-0.81c-1.64-5.88,2.54-12.34,9.33-14.38c4.24-1.42,8.91-0.67,12.48,2.02l3.35,4.91
	c0.14,0.37,0.55,0.56,0.93,0.42c0,0,0,0,0,0c0.39-0.09,0.64-0.48,0.55-0.87c-1.8-5.92,2.37-12.46,9.31-14.56
	c6.68-2,13.55,0.82,15.63,6.46c0.06,0.16,0.18,0.29,0.34,0.35c0.16,0.07,0.35,0.09,0.52,0.05h0.06c0.33-0.08,0.57-0.38,0.58-0.72
	c-0.22-5.27,3.85-10.38,9.68-12.14s12.06,0.24,14.8,4.75c0.2,0.28,0.56,0.4,0.88,0.28h0.06c0.22-0.08,0.38-0.24,0.46-0.46
	c0.04-0.11,0.04-0.24,0-0.35c-1.39-5.84,2.75-12,9.43-14c6.92-2.09,14,1.06,15.81,7c0.2,0.39,0.67,0.55,1.06,0.35
	c0.3-0.15,0.47-0.47,0.43-0.8L118.16,60c0.5-4.67,4.22-9,9.64-10.68c6.79-2.05,13.85,1,15.74,6.82c0.13,0.32,0.47,0.51,0.81,0.44
	h0.13c0.29-0.08,0.51-0.32,0.57-0.62c0.8-6.22,0.28-12.54-1.52-18.55C134.78,8.47,97.92-6.22,60.24,3.61L52.05,6.13z"/>
<path class="st4" d="M58.49,197.07l-6.19,6.9c0,0-9.12-3.35-13.29-23.25l3-0.76c0,0,3,1.46,7.35,8.18l3,2.76l6.35,2.34L58.49,197.07
	z"/>
<line class="st3" x1="47.57" y1="190.27" x2="48.49" y2="187.13"/>
<line class="st3" x1="51.43" y1="193.46" x2="52.38" y2="190.9"/>
<path class="st5" d="M82.93,181H67.39l-10.52,12.51c-4,2.36-0.5,3.1,1.27,3.61l11.64-11.17l13.38,2.14"/>
<path class="st4" d="M58.49,197.07l-6.19,6.9c0,0-9.12-3.35-13.29-23.25l3-0.76c0,0,3,1.46,7.35,8.18l3,2.76l4.72,0.86L58.49,197.07
	z"/>
<line class="st3" x1="47.57" y1="190.27" x2="48.49" y2="187.13"/>
<line class="st3" x1="51.43" y1="193.46" x2="52.38" y2="190.9"/>
<path class="st5" d="M86.01,160.68l-2.59-6.8l-17.48,0.81c-8.88-4.48-12.6-14-12.83-14.61l-3.54,1.34
	c0.06,0.16,5.71,12.53,14.85,18.1L86.01,160.68z"/>
<path class="st6" d="M56,147.54c0,0,0.41-13.4-6.75-13.71c-2.11,0.21-3.79,1.89-4,4l-3.27-0.19c-1.09-0.06-2.07,0.65-2.35,1.7
	l-0.54,2c-0.17,0.63,0.13,1.3,0.72,1.59l0,0l-0.63,3.08c-0.11,0.52,0.1,1.05,0.53,1.36l0,0l0.07,2.31c0,0.55,0.45,1,1,1l0,0
	l0.87,1.81c0.31,0.66,1.04,1.02,1.75,0.87l5.95-1.12l3.77,0.2c1.1,0.05,2.03-0.81,2.08-1.91L56,147.54z"/>
<path class="st6" d="M49.96,139.07c0,0-5.85,5.55,1.61,9.88"/>
<line class="st3" x1="45.22" y1="137.86" x2="44.82" y2="140.99"/>
<path class="st6" d="M43.1,140.18l3.73,1.71c0,0,2.22,1.52,0.2,3.23c0,0-0.7-0.1-2.92-0.61c-0.6-0.3-4.33-1.51-4.33-1.51"/>
<path class="st6" d="M47.84,145.82c0,0,0.81,1.31-1.31,1.72c-0.61,0.2-6.85-0.1-6.85-0.1"/>
<path class="st6" d="M40.78,150.76l5.94-0.6c0.87-0.52,1.21-1.6,0.81-2.52"/>
<path class="st6" d="M47.33,152.48c0.53-0.61,0.46-1.53-0.16-2.06c-0.13-0.11-0.28-0.2-0.44-0.26"/>
<path class="st6" d="M56,147.54c0,0,0.41-13.4-6.75-13.71c-2.11,0.21-3.79,1.89-4,4l-3.27-0.19c-1.09-0.06-2.07,0.65-2.35,1.7
	l-0.54,2c-0.17,0.63,0.13,1.3,0.72,1.59l0,0l-0.63,3.08c-0.11,0.52,0.1,1.05,0.53,1.36l0,0l0.07,2.31c0,0.55,0.45,1,1,1l0,0
	l0.87,1.81c0.31,0.66,1.04,1.02,1.75,0.87l5.95-1.12l3.77,0.2c1.1,0.05,2.03-0.81,2.08-1.91L56,147.54z"/>
<path class="st6" d="M49.96,139.07c0,0-5.85,5.55,1.61,9.88"/>
<line class="st3" x1="45.22" y1="137.86" x2="44.82" y2="140.99"/>
<path class="st6" d="M43.1,140.18l3.73,1.71c0,0,2.22,1.52,0.2,3.23c0,0-0.7-0.1-2.92-0.61c-0.6-0.3-4.33-1.51-4.33-1.51"/>
<path class="st6" d="M47.84,145.82c0,0,0.81,1.31-1.31,1.72c-0.61,0.2-6.85-0.1-6.85-0.1"/>
<path class="st6" d="M40.78,150.76l5.94-0.6c0.87-0.52,1.21-1.6,0.81-2.52"/>
<path class="st6" d="M47.33,152.48c0.53-0.61,0.46-1.53-0.16-2.06c-0.13-0.11-0.28-0.2-0.44-0.26"/>
<line class="st3" x1="10.05" y1="94" x2="47.28" y2="141.74"/>
<path class="st5" d="M117.72,153.24l-1.52-7.11l15.08-8.89c5-8.6,2.94-18.62,2.8-19.25l3.7-0.81c0,0.17,2,13.62-2.59,23.27
	L117.72,153.24z"/>
<path class="st4" d="M149.78,179.24l8.08,4.56c0,0,7.56-6.1,5.13-26.29l-3.12,0.25c0,0-2.38,2.35-4.33,10.1l-1.95,3.58l-5.25,4.26
	L149.78,179.24z"/>
<line class="st3" x1="157.91" y1="169.29" x2="156.04" y2="166.61"/>
<line class="st3" x1="155.28" y1="173.55" x2="153.56" y2="171.43"/>
<path class="st6" d="M135.72,125.82c0,0-7.64-11-1.81-15.16c1.9-1,4.24-0.5,5.57,1.18l2.64-1.95c0.87-0.65,2.08-0.59,2.89,0.14
	l1.57,1.42c0.49,0.44,0.6,1.16,0.27,1.73l0,0l2.21,2.23c0.37,0.38,0.48,0.94,0.29,1.43l0,0l1.2,2c0.3,0.46,0.18,1.08-0.28,1.39
	c-0.01,0.01-0.03,0.02-0.04,0.02l0,0l0.26,2c0.09,0.72-0.32,1.42-1,1.69l-5.62,2.26l-3,2.21c-0.9,0.64-2.15,0.44-2.79-0.46
	L135.72,125.82z"/>
<path class="st6" d="M136.17,115.43c0,0,7.92,1.46,4,9.16"/>
<line class="st3" x1="139.48" y1="111.84" x2="141.53" y2="114.23"/>
<path class="st6" d="M142.52,112.63l-2.19,3.46c0,0-1,2.48,1.59,2.82c0,0,0.54-0.47,2.12-2.1c0.34-0.59,2.81-3.63,2.81-3.63"/>
<path class="st6" d="M141.63,119.94c0,0,0,1.54,2,0.72c0.62-0.16,5.69-3.82,5.69-3.82"/>
<path class="st6" d="M150.23,120.24l-5.31,2.74c0,0-1.9,0-2-1.68"/>
<path class="st6" d="M145.68,125.24c-0.77-0.23-1.22-1.04-0.99-1.81c0.05-0.16,0.13-0.32,0.23-0.46"/>
<path class="st6" d="M135.72,125.82c0,0-7.64-11-1.81-15.16c1.9-1,4.24-0.5,5.57,1.18l2.64-1.95c0.87-0.65,2.08-0.59,2.89,0.14
	l1.57,1.42c0.49,0.44,0.6,1.16,0.27,1.73l0,0l2.21,2.23c0.37,0.38,0.48,0.94,0.29,1.43l0,0l1.2,2c0.3,0.46,0.18,1.08-0.28,1.39
	c-0.01,0.01-0.03,0.02-0.04,0.02l0,0l0.26,2c0.09,0.72-0.32,1.42-1,1.69l-5.62,2.26l-3,2.21c-0.9,0.64-2.15,0.44-2.79-0.46
	L135.72,125.82z"/>
<path class="st6" d="M136.17,115.43c0,0,7.92,1.46,4,9.16"/>
<line class="st3" x1="139.48" y1="111.84" x2="141.53" y2="114.23"/>
<path class="st6" d="M142.52,112.63l-2.19,3.46c0,0-1,2.48,1.59,2.82c0,0,0.54-0.47,2.12-2.1c0.34-0.59,2.81-3.63,2.81-3.63"/>
<path class="st6" d="M141.63,119.94c0,0,0,1.54,2,0.72c0.62-0.16,5.69-3.82,5.69-3.82"/>
<path class="st6" d="M150.23,120.24l-5.31,2.74c0,0-1.9,0-2-1.68"/>
<path class="st6" d="M145.68,125.24c-0.77-0.23-1.22-1.04-0.99-1.81c0.05-0.16,0.13-0.32,0.23-0.46"/>
<path class="st5" d="M121.45,171.84l14.71-5l14,8.48c4.55,1,1.46,2.78,0,3.82l-14.62-6.84l-12,6.31"/>
<path class="st4" d="M149.78,179.24l8.08,4.56c0,0,7.56-6.1,5.13-26.29l-3.12,0.25c0,0-2.38,2.35-4.33,10.1l-1.95,3.58l-4.2,2.33
	L149.78,179.24z"/>
<line class="st3" x1="157.91" y1="169.29" x2="156.04" y2="166.61"/>
<line class="st3" x1="155.28" y1="173.55" x2="153.56" y2="171.43"/>
<path class="st7" d="M118.01,154.87c0,0,5.61-6.29,9.67,0.57c0,0,4,6.25-1.33,13.63c0,0-3.71,4.57-5.79,5.93"/>
<path class="st4" d="M127.68,155.44c-2.11-3.56-4.67-3.57-6.61-2.76l-2.7-16.38l-45.2,7.44l3.42,20.79
	c-1.37,0.04-2.66,0.66-3.55,1.7c0,0-7.36,7.88,6.09,13.74l1.48,9l45.17-7.43l-1.64-10c1.2-1.33,2.17-2.49,2.17-2.49
	C131.65,161.69,127.68,155.44,127.68,155.44z"/>
<path class="st3" d="M118.01,154.87c0,0,5.61-6.29,9.67,0.57c0,0,4,6.25-1.33,13.63c0,0-3.71,4.57-5.79,5.93"/>
<path class="st6" d="M87.58,132.76L87.58,132.76c2.4-0.4,4.67,1.23,5.07,3.63l3.72,22.62c0.4,2.4-1.23,4.67-3.63,5.07l0,0
	c-2.4,0.4-4.67-1.23-5.07-3.63l-3.72-22.62C83.55,135.42,85.17,133.15,87.58,132.76z"/>
<path class="st8" d="M91.85,151.24c-0.54-0.39-0.66-1.15-0.27-1.69c0.22-0.3,0.57-0.49,0.94-0.5l-0.49-3
	c-0.16-0.96-1.07-1.61-2.03-1.45c-0.96,0.16-1.61,1.07-1.45,2.03l1.63,9.94c0.16,0.96,1.06,1.61,2.03,1.46
	c0.96-0.16,1.61-1.06,1.46-2.03l-0.76-4.61C92.54,151.51,92.15,151.46,91.85,151.24z"/>
<path class="st4" d="M89.06,142.24c1.87-0.31,3.75,0.47,4.86,2l-1.28-7.78c-0.4-2.4-2.67-4.03-5.07-3.63l0,0
	c-2.4,0.39-4.02,2.66-3.63,5.05c0,0,0,0,0,0.01l1.24,7.55C85.8,143.76,87.28,142.54,89.06,142.24z"/>
<path class="st6" d="M102.49,130.3L102.49,130.3c2.4-0.4,4.67,1.23,5.07,3.63l3.72,22.62c0.4,2.4-1.23,4.67-3.63,5.07l0,0
	c-2.4,0.4-4.67-1.23-5.07-3.63l-3.72-22.62C98.46,132.96,100.08,130.69,102.49,130.3z"/>
<path class="st8" d="M106.7,148.4c-0.54-0.38-0.67-1.13-0.29-1.67c0,0,0,0,0.01-0.01c0.23-0.32,0.6-0.51,1-0.51l-0.49-3
	c-0.16-0.96-1.06-1.61-2.03-1.46c-0.96,0.16-1.61,1.06-1.45,2.03l0,0l1.63,9.94c0.16,0.96,1.06,1.61,2.03,1.46
	c0.96-0.16,1.61-1.06,1.45-2.03l-0.75-4.6C107.43,148.69,107.02,148.63,106.7,148.4z"/>
<path class="st4" d="M103.78,138.81c1.87-0.31,3.75,0.47,4.86,2l-1.13-6.84c-0.39-2.4-2.66-4.03-5.06-3.64c0,0,0,0-0.01,0l0,0
	c-2.4,0.4-4.03,2.67-3.63,5.07l1.09,6.61C100.52,140.33,102,139.11,103.78,138.81z"/>
<path class="st4" d="M100.66,165.24c1.2,0.52,2.54,0.63,3.8,0.29c1.82-0.45,4-2,3.5-4.2c-0.62-2.02-2.76-3.15-4.77-2.53
	c-0.11,0.04-0.23,0.08-0.34,0.12c-1.04,0.25-1.97,0.83-2.66,1.65"/>
<path class="st6" d="M79.97,170.32c4.37,2.96,9.66,4.25,14.9,3.63c6.53-0.66,14.74-4.12,23.71-14.07c0,0,4.49-5.34,6.32-1.17
	c0,0,3.67,6.8-8.19,14.62c0,0-17.52,13.74-36.88,2.37c0,0-6-3.61-2.84-6.42C76.99,169.24,78.06,168.84,79.97,170.32z"/>
<path class="st7" d="M81.28,167.42c0,0-3.86-5.62-8.24-1.19c0,0-8,8.59,8,14.51"/>
<line class="st3" x1="103.55" y1="171.67" x2="104.41" y2="178.87"/>
<line class="st3" x1="111.94" y1="166.46" x2="112.77" y2="175.77"/>
<line class="st3" x1="119.08" y1="159.41" x2="120.06" y2="170.8"/>
<line class="st3" x1="95.88" y1="180.15" x2="94.87" y2="173.95"/>
<line class="st3" x1="87.65" y1="179.01" x2="86.27" y2="173.3"/>
<path class="st3" d="M81.28,167.42c0,0-3.86-5.62-8.24-1.19c0,0-8,8.59,8,14.51"/>
<path class="st6" d="M87.58,132.76L87.58,132.76c2.4-0.4,4.67,1.23,5.07,3.63l3.72,22.62c0.4,2.4-1.23,4.67-3.63,5.07l0,0
	c-2.4,0.4-4.67-1.23-5.07-3.63l-3.72-22.62C83.55,135.42,85.17,133.15,87.58,132.76z"/>
<path class="st8" d="M91.85,151.24c-0.54-0.39-0.66-1.15-0.27-1.69c0.22-0.3,0.57-0.49,0.94-0.5l-0.49-3
	c-0.16-0.96-1.07-1.61-2.03-1.45c-0.96,0.16-1.61,1.07-1.45,2.03l1.63,9.94c0.16,0.96,1.06,1.61,2.03,1.46
	c0.96-0.16,1.61-1.06,1.46-2.03l-0.76-4.61C92.54,151.51,92.15,151.46,91.85,151.24z"/>
<path class="st4" d="M89.06,142.24c1.87-0.31,3.75,0.47,4.86,2l-1.28-7.78c-0.4-2.4-2.67-4.03-5.07-3.63l0,0
	c-2.4,0.39-4.02,2.66-3.63,5.05c0,0,0,0,0,0.01l1.24,7.55C85.8,143.76,87.28,142.54,89.06,142.24z"/>
<path class="st6" d="M102.49,130.3L102.49,130.3c2.4-0.4,4.67,1.23,5.07,3.63l3.72,22.62c0.4,2.4-1.23,4.67-3.63,5.07l0,0
	c-2.4,0.4-4.67-1.23-5.07-3.63l-3.72-22.62C98.46,132.96,100.08,130.69,102.49,130.3z"/>
<path class="st8" d="M106.7,148.4c-0.54-0.38-0.67-1.13-0.29-1.67c0,0,0,0,0.01-0.01c0.23-0.32,0.6-0.51,1-0.51l-0.49-3
	c-0.16-0.96-1.06-1.61-2.03-1.46c-0.96,0.16-1.61,1.06-1.45,2.03l0,0l1.63,9.94c0.16,0.96,1.06,1.61,2.03,1.46
	c0.96-0.16,1.61-1.06,1.45-2.03l-0.75-4.6C107.43,148.69,107.02,148.63,106.7,148.4z"/>
<path class="st4" d="M103.78,138.81c1.87-0.31,3.75,0.47,4.86,2l-1.13-6.84c-0.39-2.4-2.66-4.03-5.06-3.64c0,0,0,0-0.01,0l0,0
	c-2.4,0.4-4.03,2.67-3.63,5.07l1.09,6.61C100.52,140.33,102,139.11,103.78,138.81z"/>
<path class="st4" d="M100.66,165.24c1.2,0.52,2.54,0.63,3.8,0.29c1.82-0.45,4-2,3.5-4.2c-0.62-2.02-2.76-3.15-4.77-2.53
	c-0.11,0.04-0.23,0.08-0.34,0.12c-1.04,0.25-1.97,0.83-2.66,1.65"/>
<line class="st3" x1="145.06" y1="55.89" x2="139.88" y2="116.21"/>
</svg>
