<svg id="Layer_1" data-name="Layer 1" xmlns="http://www.w3.org/2000/svg" viewBox="0 0 1002 273"><defs><style>.cls-1,.cls-3{fill:#43c5e6;}.cls-2{fill:#169cac;}.cls-3{opacity:0.5;}.cls-4{fill:#118397;}.cls-5{fill:#1faedc;}.cls-11,.cls-6{fill:#fff;}.cls-6{opacity:0.7;}.cls-7{fill:#aedfec;}.cls-8{fill:#137594;}.cls-9{fill:#71d1e5;}.cls-10{fill:#b1e7f4;}</style></defs><path class="cls-1" d="M-.27.28v273h1002V.28"/><polyline class="cls-2" points="105.67 64.69 122.12 15.67 141.43 73.2"/><polygon class="cls-3" points="122.12 36.67 125.53 105.74 118.71 105.74 122.12 36.67"/><polyline class="cls-2" points="141.43 73.2 132.5 74.73 142.09 75.14 147.25 90.52 137.06 92.42 148.1 93.05 152.36 105.74 91.89 105.74 98.06 87.36 109.07 86.5 98.74 85.33 105.1 66.37 114 65.42 105.67 64.69"/><polygon class="cls-4" points="160.28 15.67 179.6 73.2 170.66 74.73 180.25 75.14 185.41 90.52 175.22 92.42 186.26 93.05 190.52 105.74 130.05 105.74 136.22 87.36 147.23 86.5 136.9 85.33 143.27 66.37 152.16 65.42 143.83 64.69 160.28 15.67"/><polygon class="cls-3" points="160.28 36.67 163.69 105.74 156.88 105.74 160.28 36.67"/><path class="cls-5" d="M548.28,122.08l-5-2.32c-5.65-2.64-11.34-5.36-17.44-6.68-16.43-3.56-33.06,9-47,16.24a595.58,595.58,0,0,0-65.6,39.44c-4.85,3.36-13.67,9.06-14.59,15.59-.64,4.54,1.72,4.42,6.05,6a94.43,94.43,0,0,0,12.48,3.43c17.52,3.6,35.57,2.77,53.33,2.24,70.4-2.08,140.9,1.09,211.28-1.76,10.8-.43,9.41-7.55,3.39-14-7.37-7.94-18.06-11.9-28.07-15.26-13-4.37-26-8.87-38.85-13.69Q582.73,138,548.28,122.08Z"/><path class="cls-5" d="M312.75,87.89l-5-2.32c-5.66-2.64-11.35-5.36-17.44-6.68-16.44-3.56-33.07,9-47,16.24a595.45,595.45,0,0,0-65.59,39.44c-4.86,3.36-13.68,9.06-14.6,15.59-.63,4.54,1.72,4.42,6.06,6a92.82,92.82,0,0,0,12.47,3.44c17.52,3.6,35.58,2.77,53.33,2.24,70.41-2.08,140.9,1.09,211.28-1.76,10.8-.43,76.91,3.88,70.89-2.59-7.37-7.94-50.09-8.28-60.11-11.65-13-4.37-61.45-23.91-74.31-28.74Q347.22,103.77,312.75,87.89Z"/><polygon class="cls-2" points="206.69 27.96 226.01 85.48 217.07 87.02 226.66 87.42 231.82 102.81 221.63 104.71 232.67 105.34 236.93 118.03 176.46 118.03 182.63 99.64 193.64 98.78 183.31 97.62 189.68 78.66 198.57 77.7 190.24 76.97 206.69 27.96"/><polygon class="cls-3" points="206.69 48.95 210.1 118.03 203.28 118.03 206.69 48.95"/><path class="cls-6" d="M714.46,81.19s2-5.46-3.4-7.83a14.69,14.69,0,0,0-10.78,0s1.7-7.43-2.83-9-10.5,1.1-10.5,1.1-1.7-11.55-10.21-11.5-11.91,11.5-11.91,11.5-8.22-5-13-1.1-1.42,8.06-1.42,8.06-4.53-2.17-10.49,1,0,7.83,0,7.83Z"/><path class="cls-7" d="M473.34,45.58s2-5.44-3.39-7.79a14.57,14.57,0,0,0-10.71,0s1.69-7.39-2.82-9S446,29.89,446,29.89s-1.69-11.48-10.15-11.43S424,29.89,424,29.89s-8.18-5-13-1.09-1.41,8-1.41,8-4.51-2.16-10.44,1,0,7.79,0,7.79Z"/><polygon class="cls-8" points="715.86 155.97 717.62 137.16 724.2 150.8 733.72 127.75 741.77 144.49 748.67 123.78 753.97 143.12 757.11 132.08 762.29 141.36 774.48 114.55 781.5 134.93 786.63 115.83 792.76 131.08 799.28 107.87 808.2 127.05 811.81 114.03 817.08 126.1 825.94 99.16 835.82 121.09 840.91 109.97 844.13 119.89 855.32 92 860.53 106.03 865.82 92.94 873.46 108.54 878.36 87.08 887.28 109.34 895.7 92.2 901.85 110.8 910.42 90.16 916.67 108.33 923.23 92.67 934 105.62 937.92 95.94 941.24 105.58 947.18 86.31 952.45 97.82 962.81 81.44 968.78 101.58 976.59 88.66 983.33 102.62 989.17 89.51 994.24 97.11 1002.3 83.62 1005.31 122.5 857.05 131.91 754.46 154.28 727.51 158.56 715.86 155.97"/><path class="cls-9" d="M1000.81,106.58S861.42,95,415.25,242.35c0,0-344.81,12.74-416.44,6.76l156.28,3.58,845.72.46Z"/><path class="cls-10" d="M-.28,69.05s72.13-5.48,260.81,42.48C383,142.65,535.89,189.75,795.82,241c8.35,1.64,32.74,5.86,47.17,6.16,35.06.74,107.64,8,158.73-11.5v37.62H-.28Z"/><ellipse class="cls-11" cx="665.69" cy="87.16" rx="3.03" ry="3.12"/><ellipse class="cls-11" cx="245.34" cy="227.69" rx="1.66" ry="1.71"/><ellipse class="cls-11" cx="175.6" cy="106.49" rx="1.91" ry="1.97"/><ellipse class="cls-11" cx="228.89" cy="57.96" rx="2.29" ry="2.36"/><ellipse class="cls-11" cx="301.48" cy="124.98" rx="2.34" ry="2.42"/><ellipse class="cls-11" cx="345.48" cy="115.33" rx="1.9" ry="1.96"/><ellipse class="cls-11" cx="396.21" cy="131.55" rx="1.09" ry="1.13"/><ellipse class="cls-11" cx="430.71" cy="182.44" rx="1.25" ry="1.29"/><ellipse class="cls-11" cx="185.4" cy="226.82" rx="1.74" ry="1.79"/><ellipse class="cls-11" cx="265.55" cy="244.35" rx="1.66" ry="1.71"/><ellipse class="cls-11" cx="199.42" cy="217.04" rx="1.83" ry="1.89"/><ellipse class="cls-11" cx="91.11" cy="232.47" rx="2.1" ry="2.17"/><ellipse class="cls-11" cx="143.38" cy="212.05" rx="1.9" ry="1.96"/><ellipse class="cls-11" cx="57.13" cy="201.41" rx="2.92" ry="3.01"/><ellipse class="cls-11" cx="152.2" cy="192.05" rx="2.19" ry="2.25"/><ellipse class="cls-11" cx="87.27" cy="247.54" rx="1.93" ry="1.99"/><ellipse class="cls-11" cx="86.17" cy="145.2" rx="2.71" ry="2.8"/><ellipse class="cls-11" cx="152.97" cy="180.66" rx="2.28" ry="2.35"/><ellipse class="cls-11" cx="43.79" cy="147.69" rx="3" ry="3.1"/><ellipse class="cls-11" cx="119" cy="116.51" rx="2.32" ry="2.4"/><ellipse class="cls-11" cx="114.76" cy="164.72" rx="2.57" ry="2.65"/><ellipse class="cls-11" cx="95.53" cy="106.39" rx="2.46" ry="2.54"/><ellipse class="cls-11" cx="182.36" cy="101.09" rx="1.9" ry="1.96"/><ellipse class="cls-11" cx="172.39" cy="141.74" rx="2.14" ry="2.21"/><ellipse class="cls-11" cx="145.13" cy="74.46" rx="2.07" ry="2.13"/><ellipse class="cls-11" cx="256.75" cy="136.22" rx="2.45" ry="2.53"/><ellipse class="cls-11" cx="241.76" cy="117.51" rx="2.35" ry="2.43"/><ellipse class="cls-11" cx="360.11" cy="80.9" rx="2.24" ry="2.31"/><ellipse class="cls-11" cx="385.74" cy="157.77" rx="1" ry="1.03"/><ellipse class="cls-11" cx="345.58" cy="141.53" rx="1.6" ry="1.65"/><ellipse class="cls-11" cx="424.59" cy="87.55" rx="1.85" ry="1.91"/><ellipse class="cls-11" cx="404.12" cy="151.95" rx="0.94" ry="0.97"/><ellipse class="cls-11" cx="364.57" cy="109.16" rx="1.68" ry="1.73"/><ellipse class="cls-11" cx="469.41" cy="115.73" rx="1.91" ry="1.97"/><ellipse class="cls-11" cx="446.2" cy="185.3" rx="1.6" ry="1.65"/><ellipse class="cls-11" cx="406.52" cy="173.06" rx="0.96" ry="0.99"/><ellipse class="cls-11" cx="481.71" cy="222.64" rx="2.74" ry="2.82"/><ellipse class="cls-11" cx="440.93" cy="208.98" rx="1.81" ry="1.87"/><ellipse class="cls-11" cx="347.68" cy="234.29" rx="1.66" ry="1.71"/><ellipse class="cls-11" cx="220.56" cy="232.05" rx="1.85" ry="1.91"/><ellipse class="cls-11" cx="367.55" cy="260.06" rx="1.52" ry="1.57"/><ellipse class="cls-11" cx="345.29" cy="260.85" rx="1.49" ry="1.54"/><ellipse class="cls-11" cx="294.35" cy="241.23" rx="1.59" ry="1.64"/><ellipse class="cls-11" cx="404.06" cy="215.22" rx="1.19" ry="1.23"/><ellipse class="cls-11" cx="167.22" cy="254.65" rx="1.41" ry="1.46"/><ellipse class="cls-11" cx="229.02" cy="164.37" rx="2.01" ry="2.08"/><ellipse class="cls-11" cx="160" cy="220.61" rx="1.73" ry="1.79"/><ellipse class="cls-11" cx="307.88" cy="195.25" rx="2.44" ry="2.52"/><ellipse class="cls-11" cx="210.74" cy="180.85" rx="1.79" ry="1.85"/><ellipse class="cls-11" cx="221.54" cy="64.18" rx="2.22" ry="2.29"/><ellipse class="cls-11" cx="252.6" cy="118.31" rx="2.43" ry="2.51"/><ellipse class="cls-11" cx="204.45" cy="128.93" rx="1.97" ry="2.03"/><ellipse class="cls-11" cx="239.48" cy="48.09" rx="2.35" ry="2.42"/><ellipse class="cls-11" cx="219.16" cy="127.74" rx="2.02" ry="2.08"/><ellipse class="cls-11" cx="133.05" cy="36.91" rx="2.35" ry="2.42"/><ellipse class="cls-11" cx="145.72" cy="56.57" rx="2.14" ry="2.21"/><ellipse class="cls-11" cx="93.09" cy="57.9" rx="2.46" ry="2.54"/><ellipse class="cls-11" cx="74.79" cy="15.85" rx="2.82" ry="2.91"/><ellipse class="cls-11" cx="75.27" cy="59.19" rx="2.6" ry="2.68"/><ellipse class="cls-11" cx="24.76" cy="37.72" rx="3.01" ry="3.11"/><ellipse class="cls-11" cx="280.22" cy="103.93" rx="2.36" ry="2.43"/><ellipse class="cls-11" cx="419.84" cy="49.71" rx="2.55" ry="2.63"/><ellipse class="cls-11" cx="465.93" cy="53.14" rx="2.7" ry="2.79"/><ellipse class="cls-11" cx="486.62" cy="66.57" rx="2.7" ry="2.79"/><ellipse class="cls-11" cx="470.38" cy="95.78" rx="2.11" ry="2.18"/><ellipse class="cls-11" cx="453.88" cy="148.99" rx="1.53" ry="1.58"/><ellipse class="cls-11" cx="478.06" cy="180.58" rx="2.23" ry="2.3"/><ellipse class="cls-11" cx="490.97" cy="197.31" rx="2.69" ry="2.77"/><ellipse class="cls-11" cx="401.76" cy="255.72" rx="1.79" ry="1.85"/><ellipse class="cls-11" cx="277.32" cy="241.66" rx="1.56" ry="1.61"/><ellipse class="cls-11" cx="270.08" cy="219.91" rx="1.9" ry="1.96"/><ellipse class="cls-11" cx="330.13" cy="199.54" rx="2.34" ry="2.42"/><ellipse class="cls-11" cx="292.87" cy="105.08" rx="2.37" ry="2.44"/><ellipse class="cls-11" cx="269.49" cy="35.18" rx="2.42" ry="2.49"/><ellipse class="cls-11" cx="210.62" cy="32.99" rx="2.4" ry="2.47"/><ellipse class="cls-11" cx="183.58" cy="82.21" rx="1.95" ry="2.01"/><ellipse class="cls-11" cx="136.64" cy="157.7" rx="2.4" ry="2.47"/><ellipse class="cls-11" cx="82.17" cy="203.55" rx="2.65" ry="2.73"/><ellipse class="cls-11" cx="521.14" cy="245.92" rx="3.03" ry="3.12"/><ellipse class="cls-11" cx="509.42" cy="199.38" rx="2.96" ry="3.05"/><ellipse class="cls-11" cx="463.09" cy="142" rx="1.7" ry="1.76"/><ellipse class="cls-11" cx="375.67" cy="118.92" rx="1.41" ry="1.45"/><ellipse class="cls-11" cx="285.4" cy="163.78" rx="2.37" ry="2.44"/><ellipse class="cls-11" cx="237.78" cy="133.61" rx="2.26" ry="2.33"/><ellipse class="cls-11" cx="231.03" cy="198.84" rx="1.73" ry="1.79"/><ellipse class="cls-11" cx="291.91" cy="249.07" rx="1.56" ry="1.61"/><ellipse class="cls-11" cx="335.37" cy="245.71" rx="1.48" ry="1.53"/><ellipse class="cls-11" cx="371.07" cy="218.7" rx="1.5" ry="1.55"/><ellipse class="cls-11" cx="292.77" cy="215.06" rx="2.25" ry="2.32"/><ellipse class="cls-11" cx="235.08" cy="148.21" rx="2.16" ry="2.23"/><ellipse class="cls-11" cx="168.79" cy="212.03" rx="1.81" ry="1.87"/><ellipse class="cls-11" cx="859.49" cy="56.86" rx="1.88" ry="1.94"/><ellipse class="cls-11" cx="722.5" cy="110.96" rx="1.83" ry="1.89"/><ellipse class="cls-11" cx="613.28" cy="67.11" rx="0.85" ry="0.87"/><ellipse class="cls-11" cx="729.97" cy="114.12" rx="1.84" ry="1.89"/><ellipse class="cls-11" cx="599.65" cy="88.72" rx="0.68" ry="0.7"/><ellipse class="cls-11" cx="642.91" cy="76.62" rx="1.03" ry="1.06"/><ellipse class="cls-11" cx="568.27" cy="73.87" rx="0.96" ry="0.99"/><ellipse class="cls-11" cx="965.95" cy="72.25" rx="3.03" ry="3.12"/><ellipse class="cls-11" cx="901.13" cy="114.99" rx="2.23" ry="2.3"/><ellipse class="cls-11" cx="909.58" cy="98.51" rx="2.48" ry="2.56"/><ellipse class="cls-11" cx="927.58" cy="184.59" rx="1.96" ry="2.02"/><ellipse class="cls-11" cx="845.73" cy="185.4" rx="2.18" ry="2.25"/><ellipse class="cls-11" cx="917.28" cy="126.29" rx="2.27" ry="2.34"/><ellipse class="cls-11" cx="927.32" cy="200.98" rx="2.07" ry="2.14"/><ellipse class="cls-11" cx="819.35" cy="163.55" rx="2.05" ry="2.12"/><ellipse class="cls-11" cx="877.8" cy="186.19" rx="2.03" ry="2.09"/><ellipse class="cls-11" cx="817.92" cy="258.2" rx="3.03" ry="3.12"/><ellipse class="cls-11" cx="768.18" cy="151.75" rx="2.09" ry="2.16"/><ellipse class="cls-11" cx="795.46" cy="241.09" rx="3.03" ry="3.12"/><ellipse class="cls-11" cx="589.13" cy="173.94" rx="1.49" ry="1.54"/><ellipse class="cls-11" cx="697.5" cy="177.9" rx="2.41" ry="2.48"/><ellipse class="cls-11" cx="561.38" cy="162.78" rx="1.54" ry="1.59"/><ellipse class="cls-11" cx="622.18" cy="243.05" rx="2.99" ry="3.09"/><ellipse class="cls-11" cx="532.89" cy="216.82" rx="2.91" ry="3.01"/><ellipse class="cls-11" cx="612.61" cy="176.48" rx="1.52" ry="1.57"/><ellipse class="cls-11" cx="541.73" cy="206.08" rx="2.7" ry="2.78"/><ellipse class="cls-11" cx="608.59" cy="241.3" rx="2.96" ry="3.05"/><ellipse class="cls-11" cx="520" cy="221.53" rx="3.01" ry="3.1"/><ellipse class="cls-11" cx="639.98" cy="94.03" rx="0.88" ry="0.91"/><ellipse class="cls-11" cx="652.04" cy="184.92" rx="2.01" ry="2.07"/><ellipse class="cls-11" cx="556.21" cy="109.83" rx="1.03" ry="1.06"/><ellipse class="cls-11" cx="704.23" cy="109.82" rx="1.77" ry="1.82"/><ellipse class="cls-11" cx="638.69" cy="175.43" rx="1.65" ry="1.7"/><ellipse class="cls-11" cx="570.7" cy="62.7" rx="1.05" ry="1.08"/><ellipse class="cls-11" cx="679.18" cy="166.84" rx="1.97" ry="2.03"/><ellipse class="cls-11" cx="555.6" cy="141.47" rx="1.29" ry="1.33"/><ellipse class="cls-11" cx="736.72" cy="92.01" rx="1.78" ry="1.83"/><ellipse class="cls-11" cx="664.39" cy="149.25" rx="1.47" ry="1.52"/><ellipse class="cls-11" cx="836.21" cy="72.25" rx="1.69" ry="1.74"/><ellipse class="cls-11" cx="777.32" cy="97.47" rx="1.63" ry="1.68"/><ellipse class="cls-11" cx="821.13" cy="60.41" rx="1.57" ry="1.62"/><ellipse class="cls-11" cx="734.08" cy="58.54" rx="1.8" ry="1.85"/><ellipse class="cls-11" cx="510.49" cy="64.53" rx="2.36" ry="2.43"/><ellipse class="cls-11" cx="509" cy="132.73" rx="2.37" ry="2.45"/><ellipse class="cls-11" cx="518.6" cy="171.92" rx="2.53" ry="2.61"/><ellipse class="cls-11" cx="573.37" cy="231.87" rx="2.88" ry="2.97"/><ellipse class="cls-11" cx="667.21" cy="247.45" rx="3.03" ry="3.12"/><ellipse class="cls-11" cx="779.06" cy="248.3" rx="3.03" ry="3.12"/><ellipse class="cls-11" cx="864.89" cy="247.59" rx="2.77" ry="2.86"/><ellipse class="cls-11" cx="923.39" cy="247.29" rx="2.58" ry="2.66"/><ellipse class="cls-11" cx="965.24" cy="246.47" rx="2.7" ry="2.79"/><ellipse class="cls-11" cx="982.94" cy="196.05" rx="2.49" ry="2.57"/><ellipse class="cls-11" cx="985.61" cy="144.33" rx="2.63" ry="2.71"/><ellipse class="cls-11" cx="985.2" cy="107.13" rx="2.9" ry="2.99"/><ellipse class="cls-11" cx="986.54" cy="60.43" rx="3.03" ry="3.12"/><ellipse class="cls-11" cx="634.63" cy="101.62" rx="0.8" ry="0.83"/><ellipse class="cls-11" cx="312.22" cy="93.11" rx="2.47" ry="2.47"/><ellipse class="cls-11" cx="133.93" cy="85.25" rx="2.29" ry="2.11"/></svg>