<?xml version="1.0" encoding="utf-8"?>
<!-- Generator: Adobe Illustrator 24.1.2, SVG Export Plug-In . SVG Version: 6.00 Build 0)  -->
<svg version="1.1" id="Tastaturbo_turid_" xmlns="http://www.w3.org/2000/svg" xmlns:xlink="http://www.w3.org/1999/xlink" x="0px"
	 y="0px" viewBox="0 0 156.32 133.87" style="enable-background:new 0 0 156.32 133.87;" xml:space="preserve">
<style type="text/css">
	.st0{fill:#183F4C;stroke:#183F4C;stroke-width:1.1;stroke-miterlimit:10;}
	.st1{fill:#FFFFFF;}
	.st2{fill:#F7A841;stroke:#183F4C;stroke-width:1.1;stroke-linecap:round;stroke-linejoin:round;}
	.st3{fill:#FFFFFF;stroke:#183F4C;stroke-width:1.1;stroke-linecap:round;stroke-linejoin:round;}
	.st4{fill:none;stroke:#183F4C;stroke-width:1.1;stroke-linecap:round;stroke-linejoin:round;}
	.st5{fill:#183F4C;}
	.st6{fill:#EEEDEC;stroke:#183F4C;stroke-width:1.1;stroke-linecap:round;stroke-linejoin:round;}
	.st7{fill:#E8D310;stroke:#183F4C;stroke-width:1.1;stroke-linecap:round;stroke-linejoin:round;}
</style>
<circle class="st0" cx="115.67" cy="118.15" r="15.17"/>
<circle class="st1" cx="115.67" cy="118.15" r="5.34"/>
<circle class="st0" cx="36.9" cy="118.15" r="15.17"/>
<path class="st2" d="M48.9,84.61c1,0,36.72-7.71,36-7.61l0.87,3.46L60.55,91.02c-4.11,1.47-8.71,0.28-11.59-3
	c-0.85-0.99-0.85-2.45,0-3.44L48.9,84.61z"/>
<path class="st2" d="M96.27,47.33c-0.76-1.54-2.18-2.64-3.85-3l-4.78-25.61L34,28.72l4.1,22c-1.81,2.38-2.6,5.39-2.18,8.35
	c0.55,3,1.93,6,5.12,7.37l1,5.28l2,10.69l53.64-10l-3.34-17.89C96.68,52.94,97.5,49.87,96.27,47.33z"/>
<path class="st2" d="M88.55,44.83c2.73-1.52,6.18-0.54,7.7,2.19c1.52,2.73,0.54,6.18-2.19,7.7c-0.17,0.09-0.34,0.18-0.51,0.25"/>
<path class="st2" d="M42.08,48.08c-4.24,0.79-7,6.77-6.16,11c0.65,3.47,2.42,7,6.87,7.94c-0.03-0.04-0.06-0.08-0.08-0.13"/>
<path class="st3" d="M87.48,51.94c-3.94,3.49-8.64,6.01-13.73,7.34c-6,1.52-13,0.37-24.18-5.56c0,0-6.41-2.31-8,2.46
	c0,0-1.88,6.79,10.59,10.49c0,0,18.78,6.64,36.5-13c0,0,3.5-1.06,2.62-4.32C89.91,50.06,88.64,50.93,87.48,51.94z"/>
<line class="st4" x1="65.34" y1="60" x2="66.88" y2="66.65"/>
<line class="st4" x1="56.1" y1="57.11" x2="58.72" y2="67.45"/>
<line class="st4" x1="47.88" y1="53.43" x2="50.94" y2="66.16"/>
<line class="st4" x1="74.58" y1="64.35" x2="73.75" y2="59.23"/>
<line class="st4" x1="81.75" y1="60.13" x2="80.97" y2="56.72"/>
<path class="st2" d="M52.6,70.64c7.07,1.99,14.65,1.03,21-2.68"/>
<path class="st3" d="M58.89,13.8L58.89,13.8c2.85-0.53,5.59,1.35,6.12,4.2l5.01,26.85c0.53,2.85-1.35,5.59-4.2,6.12l0,0
	c-2.85,0.53-5.59-1.35-6.12-4.2l-5.01-26.85C54.16,17.08,56.03,14.34,58.89,13.8z"/>
<path class="st5" d="M64.45,35.7c-0.66-0.45-0.83-1.34-0.38-2c0.25-0.38,0.67-0.61,1.12-0.63l-0.64-3.53
	c-0.21-1.14-1.31-1.89-2.45-1.68c-1.14,0.21-1.89,1.31-1.68,2.45l2.2,11.8c0.21,1.14,1.31,1.89,2.45,1.68
	c1.14-0.21,1.89-1.31,1.68-2.45l-1-5.46C65.31,36.03,64.83,35.96,64.45,35.7z"/>
<path class="st2" d="M59.41,17.03c2.21-0.41,4.47,0.46,5.84,2.25l-0.57-3c-0.53-2.85-3.27-4.73-6.12-4.2l0,0
	c-2.85,0.54-4.73,3.28-4.2,6.13l0.51,2.74C55.57,18.93,57.3,17.43,59.41,17.03z"/>
<path class="st3" d="M75.03,10.79L75.03,10.79c2.85-0.53,5.59,1.35,6.12,4.2l5.01,26.85c0.53,2.85-1.35,5.59-4.2,6.12l0,0
	c-2.85,0.53-5.59-1.35-6.12-4.2l-5.01-26.85C70.3,14.07,72.18,11.33,75.03,10.79z"/>
<path class="st5" d="M80.55,32.28c-0.66-0.45-0.83-1.34-0.38-2c0.25-0.37,0.66-0.6,1.11-0.62l-0.73-3.58
	c-0.14-1.15-1.19-1.97-2.34-1.83c-1.15,0.14-1.97,1.19-1.83,2.34c0.01,0.09,0.03,0.18,0.05,0.26l2.2,11.8
	c0.21,1.14,1.31,1.89,2.45,1.68c1.14-0.21,1.89-1.31,1.68-2.45l-1-5.46C81.35,32.55,80.91,32.5,80.55,32.28z"/>
<path class="st2" d="M75.85,15.57c2.21-0.41,4.45,0.45,5.83,2.22l-0.52-2.8c-0.54-2.85-3.28-4.73-6.13-4.2l0,0
	c-2.85,0.54-4.73,3.28-4.2,6.13l0.48,2.52C72.03,17.44,73.75,15.96,75.85,15.57z"/>
<path class="st2" d="M73.75,52.41c1.44,0.6,3.04,0.68,4.54,0.25c2.14-0.59,4.73-2.55,4.05-5.09c-0.78-2.38-3.35-3.68-5.73-2.9
	c-0.14,0.05-0.28,0.1-0.41,0.16c-1.23,0.32-2.33,1.02-3.14,2"/>
<line class="st4" x1="47.88" y1="53.43" x2="50.94" y2="66.16"/>
<line class="st4" x1="74.58" y1="64.35" x2="73.75" y2="59.23"/>
<path class="st5" d="M64.45,35.7c-0.66-0.45-0.83-1.34-0.38-2c0.25-0.38,0.67-0.61,1.12-0.63l-0.64-3.53
	c-0.21-1.14-1.31-1.89-2.45-1.68c-1.14,0.21-1.89,1.31-1.68,2.45l2.2,11.8c0.21,1.14,1.31,1.89,2.45,1.68
	c1.14-0.21,1.89-1.31,1.68-2.45l-1-5.46C65.31,36.03,64.83,35.96,64.45,35.7z"/>
<path class="st5" d="M80.55,32.28c-0.66-0.45-0.83-1.34-0.38-2c0.25-0.37,0.66-0.6,1.11-0.62l-0.73-3.58
	c-0.14-1.15-1.19-1.97-2.34-1.83c-1.15,0.14-1.97,1.19-1.83,2.34c0.01,0.09,0.03,0.18,0.05,0.26l2.2,11.8
	c0.21,1.14,1.31,1.89,2.45,1.68c1.14-0.21,1.89-1.31,1.68-2.45l-1-5.46C81.35,32.55,80.91,32.5,80.55,32.28z"/>
<path class="st5" d="M63.48,6.45c0.59,0.44,0.72,1.28,0.28,1.87c-0.21,0.28-0.52,0.47-0.87,0.53c-0.21,0.05-0.43,0-0.61-0.12
	c-3.16-2.09-6.97-2.96-10.73-2.45c-0.21,0.03-0.43-0.02-0.59-0.16c-0.61-0.41-0.77-1.24-0.36-1.85c0.21-0.31,0.55-0.52,0.92-0.57
	c4.18-0.48,8.4,0.5,11.94,2.77L63.48,6.45z"/>
<path class="st5" d="M78.39,4.14c0.54,0.5,0.58,1.34,0.08,1.88c-0.24,0.27-0.58,0.42-0.94,0.43c-0.21,0.03-0.43-0.03-0.59-0.18
	c-2.9-2.45-6.59-3.77-10.39-3.7c-0.22,0.01-0.42-0.07-0.57-0.23c-0.55-0.49-0.6-1.34-0.11-1.89c0.24-0.27,0.59-0.43,0.95-0.45
	c4.2,0,8.28,1.45,11.54,4.11L78.39,4.14z"/>
<path class="st0" d="M60.55,87.78L25.86,75.59c-1.56-0.63-2.31-2.41-1.68-3.97c0.02-0.06,0.05-0.12,0.08-0.18l0,0
	c0.6-1.7,2.41-2.64,4.15-2.16l34.74,12.21c1.56,0.64,2.3,2.42,1.67,3.98c-0.02,0.06-0.05,0.12-0.08,0.17l0,0
	C64.13,87.35,62.29,88.29,60.55,87.78z"/>
<path class="st0" d="M60.55,87.78l-36.9-5.18c-1.59-0.27-2.66-1.78-2.39-3.37c0.02-0.12,0.05-0.23,0.08-0.34l0,0
	c0.36-1.77,1.99-2.99,3.79-2.84l37,5.18c1.59,0.27,2.66,1.78,2.39,3.37c-0.02,0.11-0.04,0.22-0.08,0.33l0,0
	C64.07,86.74,62.39,87.98,60.55,87.78z"/>
<path class="st0" d="M60.55,87.78l-38,2c-1.56,0.08-2.89-1.13-2.96-2.69c-0.01-0.15,0-0.29,0.01-0.44l0,0
	c0.1-1.82,1.51-3.28,3.32-3.46l38-2c1.55-0.11,2.89,1.06,3,2.61c0.01,0.16,0.01,0.32-0.01,0.48l0,0
	C63.83,86.13,62.39,87.63,60.55,87.78z"/>
<path class="st6" d="M121.45,81.08l-9.31-0.07l-6.2-18.12l-3.11,1.44l1,19l-64.06,4.95c-1.91,0.12-3.7,0.27-5.38,0.43
	c-8.76,0.81-16.92,4.82-22.91,11.27c0.15,0.01,0.29,0.04,0.43,0.08c1.62,0.47,2.49,2.7,1.93,5s-2.33,3.74-3.95,3.27
	c-1.27-0.37-2.08-1.81-2.1-3.51C5.8,107.96,4.31,111.4,3.38,115l-0.72,2.72l15.78,1.09l3.41,0.13c1.67-8.57,7.8-14.58,15.44-14.52
	c7.9,0.07,14.51,6.64,14,15.63l49.28-0.19c1.58-8.69,8-15.26,15.71-15.2s13.88,6.55,13.85,15.1h1.74l20.45-2.33l0.78-16.11
	C152.55,77.88,121.45,81.08,121.45,81.08z"/>
<path class="st2" d="M9.89,108.35c1.62,0.47,3.39-1,3.95-3.27s-0.31-4.51-1.93-5c-0.14-0.04-0.28-0.07-0.43-0.08
	c-1.37,1.49-2.61,3.11-3.69,4.82C7.81,106.54,8.62,107.98,9.89,108.35z"/>
<path class="st6" d="M18.55,120.28l-14.61-0.11c-2.1,0-3.61-2-3.36-4.42l0,0c0.24-2.42,2.15-4.38,4.25-4.36l14.61,0.11
	c2.1,0,3.6,2,3.36,4.42l0,0C22.55,118.36,20.69,120.28,18.55,120.28z"/>
<path class="st6" d="M151.55,121.33l-18.27-0.05c-2.1,0-3.61-2-3.36-4.42l0,0c0.24-2.42,2.15-4.38,4.25-4.36l18.22,0.09
	c2.1,0,3.61,2,3.36,4.42l0,0C155.55,119.39,153.6,121.35,151.55,121.33z"/>
<ellipse class="st2" cx="145.68" cy="102.02" rx="4.79" ry="7.59"/>
<circle class="st6" cx="65.15" cy="85.73" r="3.91"/>
<path class="st7" d="M61.42,112.78c-1.56,1.5-1.64,3.98-0.18,5.58c1.52,1.6,4.05,1.67,5.65,0.15c0.02-0.01,0.03-0.03,0.05-0.04
	l2.61-2.63l8.09,8.13c0.26,0.28,0.7,0.29,0.98,0.02c0.01-0.01,0.02-0.02,0.02-0.02l1.22-1.21c0.28-0.25,0.29-0.68,0.04-0.96
	c-0.01-0.01-0.03-0.03-0.04-0.04l-1.94-2c-0.28-0.25-0.29-0.68-0.04-0.96c0.01-0.01,0.03-0.03,0.04-0.04l0.91-0.91
	c0.28-0.27,0.28-0.71,0.01-0.99c0,0-0.01-0.01-0.01-0.01l-1-1c-0.28-0.26-0.29-0.7-0.02-0.98c0.01-0.01,0.02-0.02,0.02-0.02
	l2.92-2.91c0.26-0.28,0.7-0.29,0.98-0.02c0.01,0.01,0.02,0.02,0.02,0.02l1,1c0.26,0.28,0.7,0.29,0.98,0.02
	c0.01-0.01,0.02-0.02,0.02-0.02l0.91-0.91c0.26-0.28,0.7-0.29,0.98-0.02c0.01,0.01,0.02,0.02,0.02,0.02l1.89,2.1
	c0.25,0.28,0.68,0.29,0.96,0.04c0.01-0.01,0.03-0.03,0.04-0.04l1.22-1.21c0.28-0.27,0.28-0.71,0.01-0.99c0,0-0.01-0.01-0.01-0.01
	l-8.1-8.13l13-12.95l7.45-7.41l5-5.09c1.05-1.08,2.39-1.83,3.86-2.15l0,0l4,1.35c5.91,2.52,12.25,1.85,16.4-2.29
	c5.89-5.86,4.84-16.13-2.38-23.38c-7.22-7.25-17.49-8.35-23.37-2.49c-3.65,3.62-4.63,8.94-3.14,14.18l0,0l1.39,5.44l0,0
	c-0.41,1.04-1,1.99-1.76,2.81L61.42,112.78z M111.85,68.9c-5-5-6-12-2.4-15.6s10.62-2.51,15.58,2.48c4.96,4.99,6,12,2.4,15.59
	C123.83,74.96,116.82,73.89,111.85,68.9z"/>
<line class="st4" x1="95.47" y1="90.34" x2="92.33" y2="88.51"/>
<path class="st3" d="M93.09,93.84h2.34c0.67,0.31,1.45,0.27,2.09-0.11l0.46-0.29c0.76-0.45,1.31-1.2,1.5-2.06l-1.67-5.66l1.67,5.66
	l2.31-1.54l1.62-1.26c0.62-0.48,0.99-1.21,1-2l-1.23-4.1l1.23,4.1c0.01-0.18,0.01-0.35,0-0.53l1-3.86v-0.33
	c-0.15-1.14-0.98-2.07-2.09-2.36l-13.77-3.54c-0.51-0.13-1.05,0-1.44,0.35l-0.87,0.79l-1.22-0.28c-0.63-0.13-1.24,0.27-1.38,0.89
	c-0.01,0.06-0.02,0.12-0.02,0.18l-0.48,2.3c-0.28,1.33,0.2,2.7,1.24,3.57l1,0.8l0.75,0.49c-1.67-1.67-0.41-4.89-0.41-4.89
	s-1.26,3.22,0.41,4.89l8.36,5.29"/>
<path class="st3" d="M100.32,83.85l1.67,5.66L100.32,83.85z"/>
<line class="st4" x1="81.66" y1="103.81" x2="69.58" y2="115.84"/>
<path class="st2" d="M85.86,95.09l1.69-1.68"/>
<path class="st2" d="M105.33,75.9l1.68-1.68"/>
<path class="st2" d="M64.92,116.04c5.57-5.69,11.56-11,16.93-16.94"/>
<circle class="st1" cx="36.9" cy="118.15" r="5.34"/>
</svg>
