<svg id="Layer_1" data-name="Layer 1" xmlns="http://www.w3.org/2000/svg" viewBox="0 0 1002 273"><defs><style>.cls-1{fill:#43c5e6;}.cls-2{fill:#29993a;}.cls-3{fill:#aedfec;}.cls-4{fill:#62b75e;}.cls-5{fill:#5dae5a;}.cls-6{fill:#56b944;}.cls-7{fill:#28ac21;}.cls-8{fill:#1c536a;}.cls-9{fill:#118397;}.cls-10,.cls-11,.cls-12,.cls-20{fill:none;}.cls-10,.cls-11,.cls-12{stroke:#fdba00;stroke-width:1.5px;}.cls-10,.cls-11,.cls-12,.cls-18,.cls-20,.cls-22,.cls-23{stroke-linecap:round;stroke-linejoin:round;}.cls-11{stroke-dasharray:8.84 8.84 8.84 8.84;}.cls-12{stroke-dasharray:8.84 8.84 8.84 8.84 8.84 8.84;}.cls-13{fill:#e0db2b;}.cls-14{fill:#00384b;}.cls-15{fill:#51c2df;}.cls-16,.cls-23{fill:#f7a841;}.cls-17{fill:#183f4c;}.cls-18,.cls-21,.cls-22{fill:#fff;}.cls-18,.cls-19,.cls-20,.cls-22,.cls-23{stroke:#183f4c;}.cls-18{stroke-width:0.83px;}.cls-19{fill:#e2aed1;stroke-miterlimit:10;}.cls-19,.cls-20,.cls-22,.cls-23{stroke-width:0.76px;}</style></defs><path class="cls-1" d="M0,0V272.91H1002V0Z"/><path class="cls-2" d="M1002,58.24c-1.63-4.51-10.4-7.51-16.66-7A16.29,16.29,0,0,0,979.2,53c-2.23-9.27-12.9-15.63-25.28-14.55-13.54,1.18-24,10.8-23.35,21.5a15.35,15.35,0,0,0,.22,1.79c-2.38-3.21-7-5.15-12.11-4.71a15.19,15.19,0,0,0-10.07,4.82,7.75,7.75,0,0,0-3.71-.55A7.6,7.6,0,0,0,900,63.58a14,14,0,0,0-11.44-3.89,15.83,15.83,0,0,0-8.17,3.06c-3.24-5-10.15-8.17-17.94-7.49-7.59.66-13.92,4.75-16.65,10.1a15.37,15.37,0,0,0-7.77-1.27,15.9,15.9,0,0,0-7.61,2.66c-3.33-4.85-10.11-7.83-17.72-7.17-10.38.91-18.41,8.22-18.07,16.4l-9.93.86c-1.63-4.5-7.07-7.5-13.33-7a15.17,15.17,0,0,0-10.07,4.82,7.73,7.73,0,0,0-3.71-.55,7.62,7.62,0,0,0-4.88,2.24A13.92,13.92,0,0,0,741.3,72.5a15.74,15.74,0,0,0-8.18,3.06c-3.24-5-10.15-8.17-17.93-7.49-.67.05-1.33.15-2,.26s-1.09,0-1.64.08A21.92,21.92,0,0,0,697.39,75c-3.32-6-11.24-9.84-20.21-9.06-11.5,1-20.37,9.15-19.86,18.23a6.77,6.77,0,0,0-.78,0,7.78,7.78,0,0,0-4.35,1.75c-2.4-3.15-7-5.06-12-4.61a15.82,15.82,0,0,0-8.17,3c-3.25-5-10.16-8.16-17.94-7.49a22.74,22.74,0,0,0-12,4.57,20.72,20.72,0,0,0-15.14-4.33c-8.58.75-15.55,5.88-17.52,12.25a14.33,14.33,0,0,0-10.62-3.09,16.21,16.21,0,0,0-6.51,2,15.66,15.66,0,0,0-6.68-.83,15.19,15.19,0,0,0-10.07,4.82,7.73,7.73,0,0,0-3.71-.55,7.65,7.65,0,0,0-4.88,2.24L169.32,99.69,181,134.14h820.64Z"/><path class="cls-3" d="M229.92,91.86c0-13.53-13.89-29.5-27.32-29.5A24.06,24.06,0,0,0,189,66.58a29.79,29.79,0,0,0-29.62-27.85,29.45,29.45,0,0,0-18.77,6.74,46.93,46.93,0,0,0-90.5,22.91,27.54,27.54,0,0,0-7.36-1c-15.21,0-27.54,8.43-27.54,23.75"/><rect class="cls-4" x="0.22" y="90.59" width="1000.88" height="182.41"/><path class="cls-5" d="M818.77,35c0-.13,0-.25,0-.38a19.58,19.58,0,0,0-39-2.76,22.38,22.38,0,0,0,3.66,43.48A27.13,27.13,0,1,0,818.77,35Z"/><path class="cls-2" d="M788.17,39.36a19.59,19.59,0,0,1,27.75-15,19.58,19.58,0,0,0-36.11,7.45A22.38,22.38,0,0,0,776.3,73a22.39,22.39,0,0,1,11.87-33.65Z"/><ellipse class="cls-6" cx="353.14" cy="65.25" rx="7.43" ry="19.32"/><path class="cls-7" d="M360.57,65.25c0-10.67-3.33-19.32-7.43-19.32V84.57C357.24,84.57,360.57,75.92,360.57,65.25Z"/><ellipse class="cls-6" cx="322.32" cy="66.35" rx="20.49" ry="20.46" transform="matrix(0.15, -0.99, 0.99, 0.15, 208.99, 375.3)"/><path class="cls-7" d="M325.56,46.12a20.49,20.49,0,0,1-16,33.26,21.68,21.68,0,0,1-3.24-.25,20.47,20.47,0,1,0,19.23-33Z"/><path class="cls-8" d="M352.9,98.51a1.18,1.18,0,0,1-.91-1.17V58.84a1.17,1.17,0,0,1,.91-1.17,1.14,1.14,0,0,1,1.38,1.12V97.38A1.15,1.15,0,0,1,352.9,98.51Z"/><path class="cls-8" d="M329.85,71.25a1,1,0,0,0-1.56-.59l-5.71,3.8V62.57a1.06,1.06,0,0,0-.84-1.06,1,1,0,0,0-1.21,1v4.55l-4.18-2.57a1,1,0,1,0-1.09,1.74l5.27,3.24v6.89h0V97.45a1.06,1.06,0,0,0,.83,1.06,1,1,0,0,0,1.22-1V76.93l6.82-4.55A1,1,0,0,0,329.85,71.25Z"/><path class="cls-8" d="M797.59,113.61a2,2,0,0,1-1.72-2V44.66a2,2,0,0,1,1.72-2,2,2,0,0,1,2.21,1.95v67.08A2,2,0,0,1,797.59,113.61Z"/><path class="cls-8" d="M797.83,73.12A2,2,0,0,1,796,72a2,2,0,0,1,.77-2.48l13.93-9.28a2,2,0,0,1,2.85.77,2,2,0,0,1-.73,2.55l-13.94,9.28A2,2,0,0,1,797.83,73.12Z"/><path class="cls-8" d="M797.83,58.78a1.91,1.91,0,0,1-1-.29l-11-6.74a2,2,0,0,1-.82-2.52,2,2,0,0,1,2.81-.87l11,6.74a2,2,0,0,1,.85,2.48A2,2,0,0,1,797.83,58.78Z"/><path class="cls-9" d="M133.09,252.36H-.14V229.69H133.09c7.38,0,12.76-3.2,14.64-6.17l26-37.82C180.2,175.39,193.14,169,207.45,169h97.49c7.94,0,14-3.73,15.21-7.34l1.31-3.79c4.66-13.54,19.37-22.64,36.61-22.64H543.33c18.61,0,34.39,10.9,37.51,25.91.8,3.8,7.15,7.86,15.36,7.86H731.46a21.07,21.07,0,0,0,11.78-3.33l92.37-64.12a38.63,38.63,0,0,1,6.9-3.8l2.15-.93,114.49.36-.09,22.67-109.5-.33q-.55.31-1,.66l-92.37,64.13a43.59,43.59,0,0,1-24.68,7.37H596.2c-18.62,0-34.39-10.9-37.52-25.91-.79-3.8-7.15-7.86-15.35-7.86H358.07c-7.93,0-14,3.73-15.21,7.34l-1.3,3.8c-4.66,13.53-19.38,22.63-36.62,22.63H207.45c-7.38,0-12.76,3.2-14.64,6.17l-25.95,37.81C160.34,246,147.4,252.36,133.09,252.36Z"/><line class="cls-10" x1="881.35" y1="108.49" x2="876.97" y2="108.45"/><path class="cls-11" d="M868.13,108.36,847,108.15a27.5,27.5,0,0,0-4.9,2.7l-3.43,2.38"/><path class="cls-12" d="M835,115.75,749.69,175a32.26,32.26,0,0,1-18.23,5.35H596.2c-13.19,0-24.41-7.17-26.44-16.88h0c-2-9.72-13.24-16.89-26.43-16.89H358.07c-12.21,0-22.87,6.17-25.91,15l-1.31,3.79c-3,8.82-13.69,15-25.91,15H207.45c-10.36,0-19.79,4.46-24.2,11.45l-26,37.81c-4.41,7-13.84,11.44-24.2,11.44H13.66"/><line class="cls-10" x1="9.24" y1="241.02" x2="4.85" y2="241.02"/><rect class="cls-13" x="901.88" y="65.85" width="55.67" height="32.37"/><polygon class="cls-14" points="906.11 52.39 953.33 52.39 962.08 71.75 897.36 71.75 906.11 52.39"/><rect class="cls-14" x="934.22" y="80.76" width="10.96" height="16.99"/><rect class="cls-8" x="897.36" y="71.75" width="64.72" height="2.11"/><rect class="cls-14" x="912.91" y="80.16" width="11.09" height="11.1"/><rect class="cls-15" x="914.75" y="82" width="7.41" height="7.42"/><path class="cls-16" d="M920.13,38.24l-.41-3.9a31.9,31.9,0,0,0-4.43,5.27,12.78,12.78,0,0,0-2.08-3.07,18.58,18.58,0,0,0-.1,9.76,10.38,10.38,0,0,0,6.42,7l1.56-1a5.41,5.41,0,0,1-1.43-4,8.84,8.84,0,0,1,1.1-3.44,27,27,0,0,1,8.38-9.71C926,34.25,922.79,36.29,920.13,38.24Z"/><path class="cls-17" d="M920.47,38.24l-.4-3.9a.35.35,0,0,0-.59-.24A33.26,33.26,0,0,0,915,39.44h.6a13.73,13.73,0,0,0-2.14-3.14.34.34,0,0,0-.57.15c-1,4.37-1.19,9.26,1.4,13.13a10.16,10.16,0,0,0,4.18,3.67c.54.24.95.51,1.46.2s.9-.6,1.35-.89a.36.36,0,0,0,.07-.55c-2.67-3-.67-6.71,1.19-9.55a26.79,26.79,0,0,1,6.79-7.05.35.35,0,0,0-.08-.63c-3.46-.84-6.61,1.21-9.29,3.16-.35.26,0,.85.35.59,2.51-1.82,5.5-3.87,8.75-3.09l-.08-.63a27.68,27.68,0,0,0-7.53,8.09c-1.83,3-3.25,6.6-.59,9.6l.07-.54-1,.67c-.12.08-.37.33-.51.34s-.76-.39-1-.49a9.7,9.7,0,0,1-3.86-3.71c-2.2-3.66-2-8.12-1-12.13l-.57.15a13.44,13.44,0,0,1,2,3,.35.35,0,0,0,.6,0,32.44,32.44,0,0,1,4.38-5.2l-.59-.24.4,3.9C919.83,38.67,920.52,38.68,920.47,38.24Z"/><path class="cls-18" d="M917.82,51.63l1,.13a1.13,1.13,0,0,0,1.18-.63l.42-.87a1.15,1.15,0,0,1,2.16.29l.17,1a1.14,1.14,0,0,0,1,.93l1,.13a1.15,1.15,0,0,1,.38,2.15l-.85.45a1.13,1.13,0,0,0-.58,1.21l.17,1a1.15,1.15,0,0,1-1.92,1l-.7-.67a1.15,1.15,0,0,0-1.33-.18L919,58a1.15,1.15,0,0,1-1.57-1.51l.42-.87a1.13,1.13,0,0,0-.24-1.32l-.7-.67A1.15,1.15,0,0,1,917.82,51.63Z"/><path class="cls-19" d="M923.05,58.06l-21.83,4.5a4.42,4.42,0,0,0-3.55,5.13L902,88.52a4.39,4.39,0,0,0,5.28,3.3l3.59-.74a9.07,9.07,0,0,0,15.24-3.15l3-.61a4.42,4.42,0,0,0,3.55-5.13l-4.3-20.83A4.4,4.4,0,0,0,923.05,58.06Z"/><path class="cls-17" d="M910.62,80.75,911.81,86a5.82,5.82,0,1,0,11.39-2.35l-.94-5.57a17,17,0,0,1-5.94,2.42A17.35,17.35,0,0,1,910.62,80.75Z"/><path class="cls-20" d="M904.79,81.24a7.66,7.66,0,0,0,3.14-3.69"/><path class="cls-20" d="M927.46,76.56a7.74,7.74,0,0,1-4.35-2.14"/><path class="cls-20" d="M926.44,83a9.12,9.12,0,1,1-17.86,3.68"/><path class="cls-21" d="M913.46,86.3a8.51,8.51,0,0,0,4.23,0,9.64,9.64,0,0,0,4.23-1.85l-.29-6.25a12.44,12.44,0,0,1-5.31,2.29,11.07,11.07,0,0,1-5,.08Z"/><line class="cls-20" x1="916.57" y1="80.46" x2="917.85" y2="86.67"/><path class="cls-20" d="M922.8,60a3.19,3.19,0,0,1-2,2.58"/><path class="cls-20" d="M923.62,62.47a3.47,3.47,0,0,1-2.69,2.07"/><path class="cls-20" d="M902.93,64.05a3.22,3.22,0,0,0,2.86,1.58"/><path class="cls-20" d="M903.06,66.72a3.47,3.47,0,0,0,3.29.83"/><path class="cls-22" d="M911,60.48l2,9.7a3,3,0,0,1-2.37,3.43h0a3,3,0,0,1-3.53-2.21l-2-9.71Z"/><path class="cls-17" d="M909.85,65.23a.76.76,0,0,1-.23-1.09.88.88,0,0,1,.63-.36l-.39-1.92a1.18,1.18,0,0,0-1.42-.88,1.16,1.16,0,0,0-.94,1.36l1.32,6.43a1.19,1.19,0,0,0,1.42.89,1.18,1.18,0,0,0,.94-1.37l-.61-3A.83.83,0,0,1,909.85,65.23Z"/><path class="cls-22" d="M919.74,58.66l2,9.71a2.94,2.94,0,0,1-2.37,3.42h0a2.94,2.94,0,0,1-3.53-2.2l-2-9.71Z"/><path class="cls-17" d="M918.63,63.42a.77.77,0,0,1-.22-1.09A.83.83,0,0,1,919,62l-.4-1.93a1.2,1.2,0,0,0-2.35.49L917.61,67a1.21,1.21,0,0,0,2.36-.49l-.61-3A.86.86,0,0,1,918.63,63.42Z"/><path class="cls-23" d="M888.07,87.17s.54-3,2.84-1.34l-3-9.47,11.79,2.07-1.05-5.1L882.29,71.5Z"/><polygon class="cls-23" points="929.49 66.25 941.19 62.83 937.91 54.6 941.03 54.11 946.59 64.56 930.47 70.98 929.49 66.25"/><path class="cls-20" d="M917.24,74.36c.2-.31.35-.31.28-.65a1.9,1.9,0,0,0-2.38-1.15c-1.13.24-1.91,1.13-1.73,2,.08.4.29.37.67.58"/><path class="cls-22" d="M886.48,86.71c1.16-.55,1.07-3.19,3.63-2.67l1.24,2.86h0A1.26,1.26,0,0,1,892.61,88c.28,2.09,1,6.36,1.13,9.16a1.73,1.73,0,0,1-1.39,1.63l-2.94.78-.67.39a1.84,1.84,0,0,1-1.66-.31l-.75-.61h0a1.29,1.29,0,0,1-1.3.08l-1.62-.72h0a1.31,1.31,0,0,1-1.29-.26L881,97.39a1.46,1.46,0,0,1-.35-1.68l1.52-3.53a2.15,2.15,0,0,1,2.42-.84l1-3.72A1.81,1.81,0,0,1,886.48,86.71Z"/><line class="cls-22" x1="883.24" y1="95.19" x2="884.55" y2="91.34"/><path class="cls-22" d="M887.25,95c-.13.14-3.84,3.38-3.84,3.38"/><path class="cls-22" d="M889.56,96.29c-.13.15-3.32,2.76-3.32,2.76"/><path class="cls-22" d="M891.91,97.63c-.13.15-2.5,1.92-2.5,1.92"/><path class="cls-22" d="M942.42,36.07a1.1,1.1,0,0,0-1.33-.28,1.46,1.46,0,0,0-.71.82,10.52,10.52,0,0,0-.46,2.65l-3.64-3.55a1.17,1.17,0,0,0-.89-.25c-1.32.26-.95,1.71-.95,1.71l-1.23-1a1,1,0,0,0-.52-.19,1.17,1.17,0,0,0-1.32,1.15,1.75,1.75,0,0,0-1.3.45c-.94,1.09.76,2.59.76,2.59l2.3,1.9-.23,4.14a2.24,2.24,0,0,0-1.09.58s-1.36-1.13-1.63-1.33c-2.56-2.44-4.06-1.8-4.06-1.8-1.25.56-.62,1.35-.62,1.35l9.77,8a2.28,2.28,0,0,0,2.09.31l1.11,2a2.69,2.69,0,0,0,2.51-1l-.09-2.13a1.17,1.17,0,0,0,.52-.87l1.09-13.92C942.52,37.18,942.61,36.24,942.42,36.07Z"/><path class="cls-22" d="M931.81,46.83s1.14-1.27,3.29-.24A9.59,9.59,0,0,1,938.56,50"/><path class="cls-22" d="M932.93,46.23l.2-4.12-2.3-1.9s-1.7-1.5-.76-2.59a1.75,1.75,0,0,1,1.3-.45A1.17,1.17,0,0,1,932.69,36a1,1,0,0,1,.52.19l1.23,1s-.37-1.45.95-1.71a1.17,1.17,0,0,1,.89.25l3.64,3.55"/><path class="cls-22" d="M931.37,37.17s-.19.78,1.21,1.71L935.07,41l.14,3.86"/><polyline class="cls-22" points="934.44 37.17 937.43 40.15 937.56 44.01"/><line class="cls-22" x1="939.54" y1="43.82" x2="939.92" y2="39.26"/><ellipse class="cls-17" cx="903.04" cy="76.12" rx="0.63" ry="0.6" transform="translate(3.26 184.13) rotate(-11.66)"/><ellipse class="cls-17" cx="905.93" cy="75.89" rx="0.63" ry="0.6" transform="matrix(0.98, -0.2, 0.2, 0.98, 3.36, 184.71)"/><ellipse class="cls-17" cx="904.05" cy="78.61" rx="0.63" ry="0.6" transform="matrix(0.98, -0.2, 0.2, 0.98, 2.78, 184.38)"/><ellipse class="cls-17" cx="926.93" cy="71.19" rx="0.63" ry="0.6" transform="translate(4.75 188.86) rotate(-11.66)"/><ellipse class="cls-17" cx="924.18" cy="72.12" rx="0.63" ry="0.6" transform="translate(4.5 188.32) rotate(-11.66)"/><ellipse class="cls-17" cx="926.99" cy="73.87" rx="0.63" ry="0.6" transform="translate(4.21 188.92) rotate(-11.66)"/><path class="cls-20" d="M906.91,79.3c5.65,2.76,13.3,1.3,17.77-3.09"/><path class="cls-19" d="M923.05,58.06l-21.83,4.5a4.42,4.42,0,0,0-3.55,5.13L902,88.52a4.39,4.39,0,0,0,5.28,3.3l3.59-.74a9.07,9.07,0,0,0,15.24-3.15l3-.61a4.42,4.42,0,0,0,3.55-5.13l-4.3-20.83A4.4,4.4,0,0,0,923.05,58.06Z"/><path class="cls-17" d="M910.62,80.75,911.81,86a5.82,5.82,0,1,0,11.39-2.35l-.94-5.57a17,17,0,0,1-5.94,2.42A17.35,17.35,0,0,1,910.62,80.75Z"/><path class="cls-20" d="M904.79,81.24a7.66,7.66,0,0,0,3.14-3.69"/><path class="cls-20" d="M927.46,76.56a7.74,7.74,0,0,1-4.35-2.14"/><path class="cls-20" d="M926.44,83a9.12,9.12,0,1,1-17.86,3.68"/><path class="cls-21" d="M913.46,86.3a8.51,8.51,0,0,0,4.23,0,9.64,9.64,0,0,0,4.23-1.85l-.29-6.25a12.44,12.44,0,0,1-5.31,2.29,11.07,11.07,0,0,1-5,.08Z"/><line class="cls-20" x1="916.57" y1="80.46" x2="917.85" y2="86.67"/><path class="cls-20" d="M922.8,60a3.19,3.19,0,0,1-2,2.58"/><path class="cls-20" d="M923.62,62.47a3.47,3.47,0,0,1-2.69,2.07"/><path class="cls-20" d="M902.93,64.05a3.22,3.22,0,0,0,2.86,1.58"/><path class="cls-20" d="M903.06,66.72a3.47,3.47,0,0,0,3.29.83"/><path class="cls-23" d="M888.07,87.17s.54-3,2.84-1.34l-3-9.47,11.79,2.07-1.05-5.1L882.29,71.5Z"/><polygon class="cls-23" points="929.49 66.25 941.19 62.83 937.91 54.6 941.03 54.11 946.59 64.56 930.47 70.98 929.49 66.25"/><path class="cls-20" d="M917.24,74.36c.2-.31.35-.31.28-.65a1.9,1.9,0,0,0-2.38-1.15c-1.13.24-1.91,1.13-1.73,2,.08.4.29.37.67.58"/><path class="cls-22" d="M886.48,86.71c1.16-.55,1.07-3.19,3.63-2.67l1.24,2.86h0A1.26,1.26,0,0,1,892.61,88c.28,2.09,1,6.36,1.13,9.16a1.73,1.73,0,0,1-1.39,1.63l-2.94.78-.67.39a1.84,1.84,0,0,1-1.66-.31l-.75-.61h0a1.29,1.29,0,0,1-1.3.08l-1.62-.72h0a1.31,1.31,0,0,1-1.29-.26L881,97.39a1.46,1.46,0,0,1-.35-1.68l1.52-3.53a2.15,2.15,0,0,1,2.42-.84l1-3.72A1.81,1.81,0,0,1,886.48,86.71Z"/><line class="cls-22" x1="883.24" y1="95.19" x2="884.55" y2="91.34"/><path class="cls-22" d="M887.25,95c-.13.14-3.84,3.38-3.84,3.38"/><path class="cls-22" d="M889.56,96.29c-.13.15-3.32,2.76-3.32,2.76"/><path class="cls-22" d="M891.91,97.63c-.13.15-2.5,1.92-2.5,1.92"/><path class="cls-22" d="M942.42,36.07a1.1,1.1,0,0,0-1.33-.28,1.46,1.46,0,0,0-.71.82,10.52,10.52,0,0,0-.46,2.65l-3.64-3.55a1.17,1.17,0,0,0-.89-.25c-1.32.26-.95,1.71-.95,1.71l-1.23-1a1,1,0,0,0-.52-.19,1.17,1.17,0,0,0-1.32,1.15,1.75,1.75,0,0,0-1.3.45c-.94,1.09.76,2.59.76,2.59l2.3,1.9-.23,4.14a2.24,2.24,0,0,0-1.09.58s-1.36-1.13-1.63-1.33c-2.56-2.44-4.06-1.8-4.06-1.8-1.25.56-.62,1.35-.62,1.35l9.77,8a2.28,2.28,0,0,0,2.09.31l1.11,2a2.69,2.69,0,0,0,2.51-1l-.09-2.13a1.17,1.17,0,0,0,.52-.87l1.09-13.92C942.52,37.18,942.61,36.24,942.42,36.07Z"/><path class="cls-22" d="M931.81,46.83s1.14-1.27,3.29-.24A9.59,9.59,0,0,1,938.56,50"/><path class="cls-22" d="M932.93,46.23l.2-4.12-2.3-1.9s-1.7-1.5-.76-2.59a1.75,1.75,0,0,1,1.3-.45A1.17,1.17,0,0,1,932.69,36a1,1,0,0,1,.52.19l1.23,1s-.37-1.45.95-1.71a1.17,1.17,0,0,1,.89.25l3.64,3.55"/><path class="cls-22" d="M931.37,37.17s-.19.78,1.21,1.71L935.07,41l.14,3.86"/><polyline class="cls-22" points="934.44 37.17 937.43 40.15 937.56 44.01"/><line class="cls-22" x1="939.54" y1="43.82" x2="939.92" y2="39.26"/><ellipse class="cls-17" cx="903.04" cy="76.12" rx="0.63" ry="0.6" transform="translate(3.26 184.13) rotate(-11.66)"/><ellipse class="cls-17" cx="905.93" cy="75.89" rx="0.63" ry="0.6" transform="matrix(0.98, -0.2, 0.2, 0.98, 3.36, 184.71)"/><ellipse class="cls-17" cx="904.05" cy="78.61" rx="0.63" ry="0.6" transform="matrix(0.98, -0.2, 0.2, 0.98, 2.78, 184.38)"/><ellipse class="cls-17" cx="926.93" cy="71.19" rx="0.63" ry="0.6" transform="translate(4.75 188.86) rotate(-11.66)"/><ellipse class="cls-17" cx="924.18" cy="72.12" rx="0.63" ry="0.6" transform="translate(4.5 188.32) rotate(-11.66)"/><ellipse class="cls-17" cx="926.99" cy="73.87" rx="0.63" ry="0.6" transform="translate(4.21 188.92) rotate(-11.66)"/><path class="cls-20" d="M906.91,79.3c5.65,2.76,13.3,1.3,17.77-3.09"/><rect class="cls-22" x="905.21" y="55.79" width="5.87" height="17.98" rx="2.94" transform="matrix(0.98, -0.2, 0.2, 0.98, 5.65, 184.93)"/><path class="cls-23" d="M906.93,59.14a3.34,3.34,0,0,1,3.29,1.17l-.43-2.05A2.93,2.93,0,0,0,906.32,56h0A2.94,2.94,0,0,0,904,59.45l.39,1.9A3.34,3.34,0,0,1,906.93,59.14Z"/><rect class="cls-22" x="915.06" y="53.76" width="5.87" height="17.98" rx="2.94" transform="translate(6.27 186.88) rotate(-11.66)"/><path class="cls-23" d="M916.66,56.48A3.36,3.36,0,0,1,920,57.66l-.3-1.44a2.94,2.94,0,0,0-3.47-2.28h0a2.93,2.93,0,0,0-2.28,3.47l.26,1.28A3.35,3.35,0,0,1,916.66,56.48Z"/><rect class="cls-22" x="905.21" y="55.79" width="5.87" height="17.98" rx="2.94" transform="matrix(0.98, -0.2, 0.2, 0.98, 5.65, 184.93)"/><path class="cls-19" d="M906.93,59.14a3.34,3.34,0,0,1,3.29,1.17l-.43-2.05A2.93,2.93,0,0,0,906.32,56h0A2.94,2.94,0,0,0,904,59.45l.39,1.9A3.34,3.34,0,0,1,906.93,59.14Z"/><rect class="cls-22" x="915.06" y="53.76" width="5.87" height="17.98" rx="2.94" transform="translate(6.27 186.88) rotate(-11.66)"/><path class="cls-19" d="M916.66,56.48A3.36,3.36,0,0,1,920,57.66l-.3-1.44a2.94,2.94,0,0,0-3.47-2.28h0a2.93,2.93,0,0,0-2.28,3.47l.26,1.28A3.35,3.35,0,0,1,916.66,56.48Z"/><path class="cls-17" d="M908.9,66.53a.82.82,0,0,1-.23-1.12.84.84,0,0,1,.62-.36l-.41-2a1.17,1.17,0,1,0-2.3.47l1.36,6.57a1.16,1.16,0,0,0,1.38.91,1.17,1.17,0,0,0,.92-1.38l-.63-3A.82.82,0,0,1,908.9,66.53Z"/><path class="cls-17" d="M918.71,64.25a.81.81,0,0,1-.23-1.12.79.79,0,0,1,.61-.36l-.4-2a1.18,1.18,0,0,0-1.39-.91,1.17,1.17,0,0,0-.91,1.39l1.35,6.57a1.17,1.17,0,0,0,2.3-.47l-.62-3A.82.82,0,0,1,918.71,64.25Z"/></svg>