<svg id="Layer_1" data-name="Layer 1" xmlns="http://www.w3.org/2000/svg" viewBox="0 0 1002 273"><defs><style>.cls-1{fill:#29b8d4;}.cls-2{fill:#51bb53;}.cls-3{fill:#fff;opacity:0.2;}.cls-4{fill:#118397;}.cls-5{fill:#5dae5a;}.cls-6,.cls-7{fill:#29993a;}.cls-6{opacity:0.5;}</style></defs><path class="cls-1" d="M.53,0V272.91H1002V0Z"/><rect class="cls-2" x="0.75" y="234.23" width="1000.35" height="38.77"/><path class="cls-3" d="M1001.93,127.83c-84.18,15-173.16,4.78-250.85-30.34-39.78-18-79.19-42.72-123-41.41-45.35,1.35-84.5,30.38-128.15,42.47-84.06,23.29-170.85-18-256.87-33C156.51,50.32,79.2,62.84,0,99.93V271.87H1001.93Z"/><path class="cls-4" d="M267.79,169.23c-8.05-2.19-17.49-.77-24.86,3.15A26.11,26.11,0,0,0,224,161.9a27.4,27.4,0,0,0-20.77,7.8,33.83,33.83,0,0,0-21.47-7.13c-7.68.18-16,2.88-21.82,7.9a21.38,21.38,0,0,0-23-4.35,35.93,35.93,0,0,0-23.73-11.39c-9-.61-18.64,2-25.57,7.72a26.34,26.34,0,0,0-22.85-9.29,36.39,36.39,0,0,0-14.9,5.32,45.55,45.55,0,0,0-26.55-17.2,45.53,45.53,0,0,0-22.3.8v60.28a64.94,64.94,0,0,0,11.55,7.54c11.47,5.86,24.28,8.6,37,10.39,40,5.59,80.77,2.36,120.41-5.24s78.82-19.27,117.39-31.16A33.59,33.59,0,0,0,267.79,169.23Z"/><polygon class="cls-4" points="839.88 166.13 839.88 159.71 844.33 159.71 844.33 142.28 847.25 142.28 847.25 132.95 849.34 132.95 849.34 126 850.78 126 850.78 117.17 851.52 117.17 851.52 95.85 852.05 95.85 852.05 117.17 852.79 117.17 852.79 126 854.23 126 854.23 132.95 856.32 132.95 856.32 142.28 859.24 142.28 859.24 154.36 860.49 154.36 860.49 129.88 869.54 129.88 869.54 154.36 883.07 154.36 883.07 166.13 892.06 166.13 892.06 148.81 903.34 148.81 903.34 142.33 904.82 142.33 904.82 137.42 905.83 137.42 905.83 131.19 906.36 131.19 906.36 116.14 906.73 116.14 906.73 131.19 907.25 131.19 907.25 137.42 908.27 137.42 908.27 142.33 909.34 142.33 909.34 141.26 920.37 141.26 920.37 166.13 923.24 166.13 923.24 128.74 925.27 128.74 925.27 124.11 926.33 124.11 926.33 120.67 929.5 120.67 929.5 124.11 930.56 124.11 930.56 128.74 932.23 128.74 932.23 152.41 941.8 152.41 941.8 169.22 952.67 169.22 952.67 133.79 959.27 133.79 959.27 131.19 959.8 131.19 959.8 116.14 960.17 116.14 960.17 131.19 960.69 131.19 960.69 133.79 964.51 133.79 964.51 114.48 966.56 114.48 966.56 110.16 967.63 110.16 967.63 106.96 970.84 106.96 970.84 110.16 971.91 110.16 971.91 114.48 973.6 114.48 973.6 154.36 982.68 154.36 982.68 166.13 991.68 166.13 991.68 148.81 1001.57 148.81 1001.57 194.03 941.8 194.03 940.65 194.03 834.32 194.03 834.32 166.13 839.88 166.13"/><path class="cls-5" d="M1001.93,271.87H0V176.56H1001.93Z"/><path class="cls-6" d="M1001.93,204.42c-.47-.07-.93-.15-1.4-.21-119.34-15.78-236.94,51.47-356.9,41.51-58.26-4.83-113.38-27.65-170.54-39.93-91.39-19.64-186.54-12-278.65,3.92-51.2,8.85-102.32,20.26-154.28,21-18,.25-22.29-.93-40.16-3.88v45.08H1001.93Z"/><path class="cls-7" d="M529.33,261.31C472.91,242.36,418.88,212.89,359.58,208,292.93,202.58,228.41,228.81,164,247c-53,15-112.22,23.72-163,6.37v18.54H565.44Q547.18,267.29,529.33,261.31Z"/><path class="cls-7" d="M923.57,234.27c-45.15,9.26-88.33,26.33-133,37.6H1002.3V229C976.23,226.49,949.28,229,923.57,234.27Z"/></svg>