<?xml version="1.0" encoding="utf-8"?>
<!-- Generator: Adobe Illustrator 24.1.2, SVG Export Plug-In . SVG Version: 6.00 Build 0)  -->
<svg version="1.1" id="Tastaturbo_turid_" xmlns="http://www.w3.org/2000/svg" xmlns:xlink="http://www.w3.org/1999/xlink" x="0px"
	 y="0px" viewBox="0 0 196.39 120.71" style="enable-background:new 0 0 196.39 120.71;" xml:space="preserve">
<style type="text/css">
	.st0{fill:none;stroke:#1B3F4B;stroke-width:1.17;stroke-linecap:round;stroke-linejoin:round;}
	.st1{fill:#FFFFFF;}
	.st2{fill:#E1B0D1;stroke:#1B3F4B;stroke-width:1.45;stroke-linecap:round;stroke-linejoin:round;}
	.st3{fill:#F5A84C;stroke:#1B3F4B;stroke-width:1.45;stroke-linecap:round;stroke-linejoin:round;}
	.st4{fill:#FFFFFF;stroke:#1B3F4B;stroke-width:1.45;stroke-linecap:round;stroke-linejoin:round;}
	.st5{fill:none;stroke:#1B3F4B;stroke-width:1.45;stroke-linecap:round;stroke-linejoin:round;}
	.st6{fill:#1B3F4B;}
	.st7{fill:#1B3F4B;stroke:#1B3F4B;stroke-width:1.45;stroke-linecap:round;stroke-linejoin:round;}
	.st8{fill:#1B3F4B;stroke:#1B3F4B;stroke-width:1.4525;stroke-linecap:round;stroke-linejoin:round;stroke-miterlimit:4.0068;}
</style>
<path class="st0" d="M25.58,100.18c0,0-7.81-4.68-15.12,1.55c0,0-6.36,5-5.54,18.39"/>
<path class="st0" d="M0.66,120.12c-0.89-14.76,6-20.78,7.08-21.69c3.09-2.69,7.04-4.19,11.13-4.21c3.11,0,6.16,0.79,8.89,2.28"/>
<path class="st0" d="M23.41,103.85c-1.38-0.73-2.91-1.11-4.47-1.13c-2.12,0.02-4.15,0.82-5.71,2.25l-0.09,0.07
	c-0.13,0.12-4.62,4.41-4,15.08"/>
<path class="st1" d="M132.07,118.98l2-19l9.84-10c3.3,3.8,8.29,7.59,13.71,7.59c5.81,0,11.26-2.81,14.62-7.54
	c5,5.48,10.81,6.82,15,5.82c3.64-0.86,7.38-5.05,8.6-8.58c2.77-8-6-12.94-6-12.94L154.08,52.1l0.2-16.32c0,0-9.06,3.31-9.26,19.63
	L113.37,86.2l-10.55,2L55.1,87.5c-2.63-0.92-5.49-1-8.42-1.35c-8.53-1.15-27.8,0.19-22.61,32.93"/>
<path class="st2" d="M92.24,118.81c1.25-1.57,18.81-17.36,19.12-18.93l-7.83-11L76.87,89.5l4.39,1.56
	c1.26,0.32,18.81,10.35,18.81,10.35l-15,17.67"/>
<path class="st2" d="M52.46,56.08c-2.9,1.45-33.53,19.94-33.53,19.94l23.94,20.84l6-6.7l-16.85-13l20.3-8.89L52.46,56.08z"/>
<path class="st3" d="M120.27,61.32c-0.53-1.86-1.87-3.38-3.66-4.12V27.67H54.75v25.35c-2.51,2.28-4.01,5.47-4.17,8.86
	c0,3.43,0.92,7,4.17,9.28v18.4h61.86V68.94C119.56,67.67,121.12,64.42,120.27,61.32z"/>
<path class="st3" d="M112.21,56.93c3.41-0.96,6.95,1.02,7.91,4.43c0.96,3.41-1.02,6.95-4.43,7.91"/>
<path class="st3" d="M59.75,50.89c-4.9,0-9.17,6.1-9.17,11c0,4,1.25,8.25,6,10.27L56.52,72"/>
<path class="st4" d="M109.52,64.63c-5.12,3.05-10.88,4.86-16.82,5.27c-7,0.44-14.61-2.31-25.78-11.23c0,0-6.65-3.9-9.47,1.07
	c0,0-3.51,7.18,9.62,13.9c0,0,19.55,11.29,43.37-6.88c0,0,4.12-0.45,3.81-4.27C112.6,63.02,111.01,63.74,109.52,64.63z"/>
<line class="st5" x1="83.18" y1="69.01" x2="83.51" y2="76.73"/>
<line class="st5" x1="73.49" y1="63.86" x2="74.25" y2="75.93"/>
<line class="st5" x1="65.09" y1="58.06" x2="65.85" y2="72.87"/>
<line class="st5" x1="92.57" y1="75.77" x2="92.7" y2="69.9"/>
<line class="st5" x1="101.43" y1="72.57" x2="101.28" y2="68.6"/>
<path class="st3" d="M66.77,78.22c7.48,3.7,16.15,4.19,24,1.37"/>
<path class="st4" d="M85.59,16.2L85.59,16.2c3.29,0,5.95,2.66,5.95,5.95V53.1c0,3.29-2.66,5.95-5.95,5.95h0
	c-3.29,0-5.95-2.66-5.95-5.95V22.15C79.64,18.87,82.31,16.2,85.59,16.2z"/>
<path class="st6" d="M87.24,41.74c-0.64-0.64-0.64-1.67,0-2.31c0.36-0.36,0.87-0.53,1.37-0.46V34.9c0-1.31-1.07-2.38-2.38-2.38
	c-1.31,0-2.38,1.07-2.38,2.38v13.6c0,1.31,1.07,2.38,2.38,2.38c1.31,0,2.38-1.07,2.38-2.38l0,0v-6.29
	C88.11,42.28,87.6,42.11,87.24,41.74z"/>
<path class="st3" d="M85.51,19.9c2.54,0,4.85,1.43,6,3.69V20.1c-0.03-3.29-2.71-5.95-6-5.95l0,0c-3.29,0-5.97,2.66-6,5.95v3.17
	C80.75,21.14,83.05,19.85,85.51,19.9z"/>
<path class="st4" d="M104.21,16.2L104.21,16.2c3.29,0,5.95,2.66,5.95,5.95V53.1c0,3.29-2.66,5.95-5.95,5.95h0
	c-3.29,0-5.95-2.66-5.95-5.95V22.15C98.26,18.87,100.93,16.2,104.21,16.2z"/>
<path class="st6" d="M105.87,41.23c-0.64-0.64-0.64-1.67,0-2.31c0.36-0.36,0.86-0.53,1.36-0.46v-4.07c0-1.31-1.07-2.38-2.38-2.38
	c-1.31,0-2.38,1.07-2.38,2.38v13.6c0,1.31,1.07,2.38,2.38,2.38c1.31,0,2.38-1.07,2.38-2.38l0,0v-6.3
	C106.73,41.77,106.23,41.6,105.87,41.23z"/>
<path class="st3" d="M104.12,21.69c2.53,0.01,4.85,1.43,6,3.69v-3.23c0-3.31-2.69-6-6-6l0,0c-3.31,0-6,2.69-6,6v2.91
	C99.36,22.93,101.66,21.63,104.12,21.69z"/>
<path class="st6" d="M103.51,13.32c-0.85-0.07-1.48-0.81-1.41-1.66c0.06-0.75,0.66-1.35,1.41-1.41c4.3-0.16,8.42-1.79,11.66-4.63
	c0.57-0.62,1.54-0.67,2.16-0.1c0.62,0.57,0.67,1.54,0.1,2.16c-0.08,0.09-0.17,0.16-0.26,0.23c-3.78,3.32-8.59,5.23-13.61,5.41
	L103.51,13.32z"/>
<path class="st3" d="M94.12,62.3c1.48,0.96,3.24,1.39,5,1.22c2.51-0.21,5.8-1.86,5.58-4.83s-3.31-4.92-6.28-4.33
	c-1.45,0.1-2.82,0.67-3.92,1.62"/>
<path class="st4" d="M48.87,90.16l-6.52,8l4.71,3.63c0,0-1.45,8.52,4.71,14.86l3.27-0.36l1.73,1.21c1.05,0.72,2.38,0.88,3.57,0.43
	l3.36-1.28h1.11c0.69,0,1.36-0.23,1.91-0.65l3.15-2.5l0.28-0.13c2.37-1.06,4.19-3.08,5-5.55l1.46-4.47l0.18-6.16
	c0,0-3.81-1.45-5.26,3.08l-1.27,4.89l-4.93-0.66l-3.63-5.44l10.34-0.91c0,0,5.25-0.9,5.44-4.53c-2.36-3.08-6.89,0.36-11.61-1.63
	s-9.94-1.13-11.42,0l-4.71-2.36L48.87,90.16z"/>
<line class="st5" x1="51.73" y1="109.55" x2="55" y2="116.26"/>
<line class="st5" x1="58.08" y1="112.09" x2="63.7" y2="116.62"/>
<line class="st5" x1="63.7" y1="111" x2="71.86" y2="112.64"/>
<path class="st3" d="M120.27,61.32c-0.53-1.86-1.87-3.38-3.66-4.12V27.67H54.75v25.35c-2.51,2.28-4.01,5.47-4.17,8.86
	c0,3.43,0.92,7,4.17,9.28v18.4h61.86V68.94C119.56,67.67,121.12,64.42,120.27,61.32z"/>
<path class="st3" d="M112.21,56.93c3.41-0.96,6.95,1.02,7.91,4.43c0.96,3.41-1.02,6.95-4.43,7.91"/>
<path class="st3" d="M59.75,50.89c-4.9,0-9.17,6.1-9.17,11c0,4,1.25,8.25,6,10.27L56.52,72"/>
<path class="st4" d="M109.52,64.63c-5.12,3.05-10.88,4.86-16.82,5.27c-7,0.44-14.61-2.31-25.78-11.23c0,0-6.65-3.9-9.47,1.07
	c0,0-3.51,7.18,9.62,13.9c0,0,19.55,11.29,43.37-6.88c0,0,4.12-0.45,3.81-4.27C112.6,63.02,111.01,63.74,109.52,64.63z"/>
<line class="st5" x1="83.18" y1="69.01" x2="83.51" y2="76.73"/>
<line class="st5" x1="73.49" y1="63.86" x2="74.25" y2="75.93"/>
<line class="st5" x1="65.09" y1="58.06" x2="65.85" y2="72.87"/>
<line class="st5" x1="92.57" y1="75.77" x2="92.7" y2="69.9"/>
<line class="st5" x1="101.43" y1="72.57" x2="101.28" y2="68.6"/>
<path class="st3" d="M66.77,78.22c7.48,3.7,16.15,4.19,24,1.37"/>
<path class="st4" d="M85.59,16.2L85.59,16.2c3.29,0,5.95,2.66,5.95,5.95V53.1c0,3.29-2.66,5.95-5.95,5.95h0
	c-3.29,0-5.95-2.66-5.95-5.95V22.15C79.64,18.87,82.31,16.2,85.59,16.2z"/>
<path class="st6" d="M87.24,41.74c-0.64-0.64-0.64-1.67,0-2.31c0.36-0.36,0.87-0.53,1.37-0.46V34.9c0-1.31-1.07-2.38-2.38-2.38
	c-1.31,0-2.38,1.07-2.38,2.38v13.6c0,1.31,1.07,2.38,2.38,2.38c1.31,0,2.38-1.07,2.38-2.38l0,0v-6.29
	C88.11,42.28,87.6,42.11,87.24,41.74z"/>
<path class="st3" d="M85.51,19.9c2.54,0,4.85,1.43,6,3.69V20.1c-0.03-3.29-2.71-5.95-6-5.95l0,0c-3.29,0-5.97,2.66-6,5.95v3.17
	C80.75,21.14,83.05,19.85,85.51,19.9z"/>
<path class="st4" d="M104.21,16.2L104.21,16.2c3.29,0,5.95,2.66,5.95,5.95V53.1c0,3.29-2.66,5.95-5.95,5.95h0
	c-3.29,0-5.95-2.66-5.95-5.95V22.15C98.26,18.87,100.93,16.2,104.21,16.2z"/>
<path class="st6" d="M105.87,41.23c-0.64-0.64-0.64-1.67,0-2.31c0.36-0.36,0.86-0.53,1.36-0.46v-4.07c0-1.31-1.07-2.38-2.38-2.38
	c-1.31,0-2.38,1.07-2.38,2.38v13.6c0,1.31,1.07,2.38,2.38,2.38c1.31,0,2.38-1.07,2.38-2.38l0,0v-6.3
	C106.73,41.77,106.23,41.6,105.87,41.23z"/>
<path class="st3" d="M104.12,21.69c2.53,0.01,4.85,1.43,6,3.69v-3.23c0-3.31-2.69-6-6-6l0,0c-3.31,0-6,2.69-6,6v2.91
	C99.36,22.93,101.66,21.63,104.12,21.69z"/>
<path class="st6" d="M103.51,13.32c-0.85-0.07-1.48-0.81-1.41-1.66c0.06-0.75,0.66-1.35,1.41-1.41c4.3-0.16,8.42-1.79,11.66-4.63
	c0.57-0.62,1.54-0.67,2.16-0.1c0.62,0.57,0.67,1.54,0.1,2.16c-0.08,0.09-0.17,0.16-0.26,0.23c-3.78,3.32-8.59,5.23-13.61,5.41
	L103.51,13.32z"/>
<path class="st3" d="M94.12,62.3c1.48,0.96,3.24,1.39,5,1.22c2.51-0.21,5.8-1.86,5.58-4.83s-3.31-4.92-6.28-4.33
	c-1.45,0.1-2.82,0.67-3.92,1.62"/>
<path class="st7" d="M99.51,5.28c0,0-13.23,14.87-19.34,18.12L49.01,44.78c0,0-19.75-23.21,3.06-40.92c0,0,16.69-10,31,5.7
	c0,0,1,1.42,2,1.22S97.07,1.41,99.51,5.28z"/>
<ellipse transform="matrix(0.8486 -0.5291 0.5291 0.8486 5.5748 27.6249)" class="st8" cx="51.04" cy="4.07" rx="2.55" ry="1.12"/>
<path class="st7" d="M99.51,5.28c0,0-13.23,14.87-19.34,18.12L49.01,44.78c0,0-19.75-23.21,3.06-40.92c0,0,16.69-10,31,5.7
	c0,0,1,1.42,2,1.22S97.07,1.41,99.51,5.28z"/>
<ellipse transform="matrix(0.8486 -0.5291 0.5291 0.8486 5.5748 27.6249)" class="st8" cx="51.04" cy="4.07" rx="2.55" ry="1.12"/>
<circle class="st4" cx="158.91" cy="70.72" r="8.16"/>
<circle class="st7" cx="160.45" cy="70.72" r="2.82"/>
<circle class="st1" cx="162.54" cy="70.23" r="1.65"/>
<circle class="st5" cx="180.59" cy="86.36" r="3.57"/>
<path class="st5" d="M180.33,87.87c-2.52,6.49-5.24,13.28-10.62,17.7c-7.63,6.26-18.51,6.16-28.35,5.41
	c-24.12-1.84-45.89-6.82-69.32-12.85c-1.84,0.31-3.54,1.17-4.88,2.47c-1.06,1.05-1.83,2.78-1,4"/>
<line class="st5" x1="139.53" y1="60.86" x2="139.53" y2="72.59"/>
<line class="st5" x1="135.7" y1="64.17" x2="135.7" y2="74.37"/>
<line class="st5" x1="131.88" y1="67.99" x2="131.88" y2="84.08"/>
<line class="st5" x1="128.05" y1="71.82" x2="128.05" y2="82.02"/>
<line class="st5" x1="124.22" y1="75.64" x2="124.22" y2="94.79"/>
</svg>
