<?xml version="1.0" encoding="utf-8"?>
<!-- Generator: Adobe Illustrator 24.1.2, SVG Export Plug-In . SVG Version: 6.00 Build 0)  -->
<svg version="1.1" id="Tastaturbo_turid_" xmlns="http://www.w3.org/2000/svg" xmlns:xlink="http://www.w3.org/1999/xlink" x="0px"
	 y="0px" viewBox="0 0 829.83 174.57" style="enable-background:new 0 0 829.83 174.57;" xml:space="preserve">
<style type="text/css">
	.st0{fill:#E1B0D1;stroke:#1B3F4B;stroke-width:1.5;stroke-linecap:round;stroke-linejoin:round;}
	.st1{fill:#F7A841;}
	.st2{fill:#183F4C;}
	.st3{fill:#FFFFFF;stroke:#183F4C;stroke-width:1.88;stroke-linecap:round;stroke-linejoin:round;}
	.st4{fill:#F5A84C;stroke:#1B3F4B;stroke-width:1.5;stroke-linecap:round;stroke-linejoin:round;}
	.st5{fill:#FFFFFF;stroke:#1B3F4B;stroke-width:1.5;stroke-miterlimit:10;}
	.st6{fill:#1B3F4B;stroke:#1B3F4B;stroke-width:1.5;stroke-linecap:round;stroke-linejoin:round;}
	.st7{fill:#E1B0D1;stroke:#1B3F4B;stroke-width:1.5;stroke-miterlimit:10;}
	.st8{fill:#FFFFFF;stroke:#1B3F4B;stroke-width:1.5;stroke-linecap:round;stroke-linejoin:round;}
	.st9{fill:none;stroke:#1B3F4B;stroke-width:1.5;stroke-linecap:round;stroke-linejoin:round;}
	.st10{fill:#1B3F4B;}
	.st11{fill:none;stroke:#000000;stroke-width:1.5;stroke-linecap:round;stroke-linejoin:round;}
	.st12{fill:#3A5C6A;}
</style>
<path class="st0" d="M730.88,93.34l-0.53,1.63c-1.54,5.14,1.37,10.55,6.51,12.1l40.32,13.15l6.42,2.09
	c4.52,1.56,9.5-0.35,11.81-4.54l7.85-23.67l7.28-22.33c1.54-5.14-1.38-10.56-6.52-12.1l-46.74-15.24
	c-5.06-1.78-10.61,0.87-12.4,5.94c0,0,0,0,0,0l-7.86,24.25L730.88,93.34z"/>
<path class="st1" d="M807.3,13.25c0.82-2.86,1.65-5.72,2.47-8.59c-4.89,1.95-9.54,4.43-13.89,7.39c-0.19-2.83-0.8-5.61-1.8-8.26
	c-4.38,6.1-7.84,13.09-8.5,20.57s1.83,15.49,7.63,20.26l4.2-0.87c-1.2-3.14-1.08-6.64,0.35-9.68c1.31-2.45,3.1-4.61,5.27-6.34
	c7.46-6.5,16.38-11.11,26-13.42C823.05,9.77,814.59,11.41,807.3,13.25z"/>
<path class="st2" d="M808.06,13.46l2.46-8.59c0.15-0.52-0.39-1.19-1-1c-4.94,1.98-9.65,4.48-14.06,7.46l1.18,0.68
	c-0.2-2.86-0.79-5.69-1.76-8.39c-0.13-0.42-0.59-0.65-1.01-0.52c-0.18,0.06-0.33,0.18-0.43,0.34c-4.59,6.43-8.25,13.88-8.67,21.9
	c-0.37,6.93,1.91,14.32,7.08,19.13c0.52,0.48,0.93,1,1.66,0.93c0.41-0.05,0.82-0.14,1.22-0.25l2.93-0.6
	c0.42-0.12,0.67-0.55,0.55-0.97c0-0.01-0.01-0.02-0.01-0.03c-1.41-3.76-0.82-7.97,1.55-11.2c2.25-3.13,5.57-5.64,8.69-7.84
	c6.29-4.42,13.36-7.63,20.83-9.44c0.42-0.12,0.66-0.56,0.53-0.98c-0.06-0.19-0.18-0.35-0.34-0.45c-6.49-4.76-15.14-3-22.35-1.13
	c-0.42,0.12-0.66,0.55-0.54,0.96c0.12,0.42,0.55,0.66,0.96,0.55l0,0c6.82-1.72,15-3.53,21.14,1l0.19-1.44
	c-8.16,1.97-15.84,5.57-22.58,10.58c-3.16,2.37-6.51,5-8.57,8.45c-2.03,3.45-2.4,7.63-1,11.38l0.55-1l-4.19,0.87l0.76,0.2
	c-5.4-4.53-7.8-11.66-7.48-18.58c0.35-7.8,4-15,8.47-21.29L793.39,4c0.95,2.59,1.55,5.3,1.76,8.05c0,0.44,0.36,0.79,0.8,0.78
	c0.13,0,0.27-0.04,0.38-0.1c4.28-2.91,8.85-5.36,13.65-7.31l-1-1L806.52,13c-0.13,0.43,0.11,0.87,0.54,1
	C807.48,14.13,807.93,13.89,808.06,13.46z"/>
<path class="st3" d="M791.04,39.62l1.91,1.09c0.97,0.54,2.17,0.41,3-0.33l1.63-1.49c1.07-0.97,2.72-0.89,3.69,0.18
	c0.56,0.62,0.79,1.46,0.62,2.28l-0.45,2.16c-0.23,1.1,0.28,2.23,1.26,2.79l1.92,1.09c1.25,0.71,1.69,2.31,0.97,3.56
	c-0.41,0.72-1.15,1.21-1.97,1.3l-2.19,0.24c-1.12,0.13-2.04,0.96-2.26,2.07l-0.45,2.16c-0.3,1.41-1.68,2.31-3.09,2.01
	c-0.81-0.17-1.49-0.72-1.84-1.47l-0.91-2c-0.46-1.03-1.54-1.64-2.66-1.52l-2.19,0.25c-1.43,0.16-2.72-0.87-2.88-2.31
	c-0.09-0.83,0.22-1.65,0.83-2.21l1.64-1.49c0.83-0.76,1.08-1.97,0.62-3l-0.91-2c-0.62-1.3-0.08-2.86,1.22-3.48
	C789.35,39.11,790.28,39.16,791.04,39.62z"/>
<path class="st4" d="M733.49,85.31c-1.6,0.19-55.08-0.8-53.94-0.77l-0.72,5.69l60.05,6.84L733.49,85.31z"/>
<path class="st4" d="M755.88,102.7l-37.6,36.81l-0.15,0.2c-0.49,0.61-1.06,1.17-1.68,1.65c-1.1,0.84-2.68,0.63-3.52-0.48
	c-0.52-0.69-0.66-1.59-0.35-2.4l28.68-35.65"/>
<path class="st4" d="M775.47,120.62l-47.72,22.19l-0.21,0.15c-0.67,0.41-1.38,0.75-2.13,1c-1.32,0.42-2.73-0.31-3.15-1.63
	c-0.26-0.82-0.09-1.71,0.46-2.37l38.91-24.07"/>
<path class="st5" d="M781.38,96.46c-2.9-0.8-13.58-0.16-13.58-0.16"/>
<path class="st6" d="M740.1,95.36c1,0.74,1.54,0.83,2.53,1.65c1.31,1.09,2.29,2.52,2.83,4.14c0,0,3.55,6.05,12.2,5.64
	c1.92-0.11,3.78-0.66,5.46-1.59c1.72-0.94,3.72-1.27,5.65-0.92c1.9,0.33,3.75,0.93,5.48,1.78c2.41,0.7,4.86,1.21,7.35,1.53
	c4.09,0.59,7.89-2.26,8.48-6.35c0.05-0.32,0.07-0.65,0.07-0.98c0-1.06-0.25-2.11-0.74-3.06c-5.11,0.66-21.07,2.74-22.14,2.8
	l-0.42,1.81l-5.32,1.3c-11.66,2.91-15.43-5.62-15.43-5.62l1.12-3.14l-0.77-6.91l-2.79-6.82c-0.85-0.37-2.57-1.21-3.73-1l-3.16,9.92
	C736.77,89.54,736.3,92.62,740.1,95.36z"/>
<path class="st7" d="M712.06,149.76c-0.2-0.08-0.39-0.19-0.56-0.32c-6.79-5-15.45-15.69-16.66-17.12c-4.24-5-5-9.44-5.09-11.6
	c-0.03-0.83,0.34-1.62,1-2.12l0.22-0.15c0.54-0.39,1.2-0.55,1.86-0.45l0.87,0.14c1.98,0.31,3.76,1.35,5,2.92
	c0.71,0.89,1.46,1.88,2.2,2.8c0.2,0.26,0.46,0.48,0.75,0.64l13.61,7.5c0.67,0.38,1.12,1.04,1.23,1.8c0.15,1,0.81,2.38,3.15,3.14
	c1.29,0.42,2.01,1.8,1.62,3.1c-1.46,3.63-3.78,6.85-6.77,9.38c-0.7,0.54-1.64,0.67-2.46,0.34H712.06z"/>
<path class="st4" d="M210.31,104.48c0,0-5.88-0.38-16.12,8.72l-3,1.58h-11.14c0,0,3.92,4.65-4.78,4.59c0,0-1.31,2.1,1.36,5.64l6.4,7
	l1.84,2c0,0,0.13-0.06,0.37-0.2c2.59-1.4,18.13-10.23,27.81-24.77c0.21-0.31,0.41-0.62,0.61-0.94L210.31,104.48z"/>
<path class="st8" d="M212.98,108.76c-2.31-0.17-4.62,0.43-6.56,1.7c-1.07,0.8-2.03,1.73-2.88,2.76l-18.29,20.58
	c2.59-1.4,18.13-10.23,27.81-24.77L212.98,108.76z"/>
<line class="st9" x1="196.56" y1="111.62" x2="195.45" y2="114.43"/>
<path class="st7" d="M156.41,76.46l9.91,16l17.66,25.61c0,0,1.1,3.11-5.18,2l-18.16-22.45l-14.21-15.41"/>
<path class="st7" d="M128.15,95.88l15.78,13.68c1.01,0.88,1.82,1.96,2.38,3.18l6.57,14.45c0,0,1.1,3.12-5.18,2l-6.82-11.42
	c-0.71-1.2-1.67-2.22-2.83-3l-19.88-13.15"/>
<path class="st7" d="M165.14,71.31c1.56,0.43,54.62,7.15,53.49,7l-0.1,5.73l-60.43-1.89L165.14,71.31z"/>
<path class="st4" d="M166.88,38.37c-4-4.51-11.58-4.46-17.66-0.14l-10.34-21L78.41,46.76l13.62,27.86l4.85,9.8
	c-0.33,1.61-0.24,3.28,0.25,4.85c0.85,2.52,2.64,4.61,5,5.84l0.05,0.11l5.88,12l60.47-29.53l-6.52-13.34l-1.93-3.94
	c2.91-2.18,3.34-3,3.34-3C170.54,50.78,171.2,43.3,166.88,38.37z"/>
<path class="st8" d="M103.95,60.18L91.11,33.89c-1.57-3.21-2-5.48,1.24-7l0,0c3.21-1.57,10.67,1.93,12.24,5.14l11.56,23.69"/>
<path class="st10" d="M107.26,48.14c-0.93-0.31-1.43-1.31-1.12-2.24c0.18-0.53,0.59-0.95,1.12-1.12l-2-4
	c-0.57-1.31-2.09-1.92-3.41-1.35c-1.31,0.57-1.92,2.09-1.35,3.41c0.03,0.07,0.07,0.14,0.1,0.21l6.49,13.3
	c0.63,1.29,2.18,1.82,3.46,1.2c1.29-0.63,1.82-2.18,1.2-3.47l0,0l-3-6.16C108.32,48.22,107.77,48.3,107.26,48.14z"/>
<path class="st4" d="M100.07,41.27c5.18-1.45,8.24,1.17,10.36,2.78l-5.84-12.07c-1.57-3.21-9-6.71-12.24-5.14l0,0
	c-3.22,1.57-2.81,3.84-1.24,7l5.89,12C98.06,41.74,100.07,41.27,100.07,41.27z"/>
<path class="st8" d="M125.22,53.16l-11.88-24.33c-1.57-3.21-0.74-10.75,2.48-12.32l0,0c3.21-1.57,5.3-1.25,6.87,2l12,24.63"/>
<path class="st10" d="M126.97,37.9c-0.93-0.31-1.43-1.31-1.12-2.24c0.18-0.53,0.59-0.95,1.12-1.12l-1.95-4
	c-0.57-1.31-2.09-1.92-3.41-1.35c-1.31,0.57-1.92,2.09-1.35,3.41c0.03,0.07,0.07,0.14,0.1,0.21l6.5,13.3
	c0.69,1.26,2.26,1.72,3.51,1.03c1.17-0.64,1.67-2.07,1.14-3.3l-3-6.16C128.07,37.99,127.49,38.07,126.97,37.9z"/>
<path class="st4" d="M122.21,30.62c1.48-2.4,2.83-4.63,4.95-3l-4.47-9.16c-1.57-3.21-3.66-3.53-6.87-2l0,0
	c-3.22,1.57-4.05,9.11-2.48,12.32l6.28,12.84C119.8,39.15,120.77,32.98,122.21,30.62z"/>
<path class="st4" d="M126.18,65.38c1.91,0.23,3.84-0.19,5.48-1.2c2.36-1.4,4.79-4.59,3.15-7.38s-5.58-3.24-8.21-1.24
	c-1.36,0.79-2.43,2-3.05,3.45"/>
<path class="st10" d="M100.76,21.17c0.84,0.37,1.23,1.35,0.86,2.2c-0.34,0.78-1.22,1.18-2.04,0.92c-4.41-1.57-9.24-1.57-13.65,0
	c-0.87,0.31-1.83-0.13-2.14-1s0.13-1.83,1-2.14c5.15-1.83,10.77-1.83,15.92,0L100.76,21.17z"/>
<path class="st10" d="M116.59,5.29c0.74-0.55,1.79-0.4,2.34,0.34c0.55,0.74,0.4,1.79-0.34,2.34c-3.71,2.87-6.31,6.93-7.36,11.49
	c-0.2,0.9-1.09,1.47-1.99,1.26c-0.9-0.2-1.47-1.09-1.26-1.99c1.24-5.32,4.27-10.06,8.59-13.41L116.59,5.29z"/>
<path class="st8" d="M163.5,47.24c-0.8,2.9-2.38,5.52-4.58,7.57c-0.81,0.74-1.72,1.37-2.7,1.88c-3.34,1.81-5.32,5.41-5.06,9.2
	c-0.04,2.01-0.35,4-0.92,5.92c-1.4,5.13-5.36,9.17-10.46,10.68c-3.1,0.99-6.4,1.2-9.61,0.62c-2.78-0.49-7.58-0.75-11.55,2
	c-0.55,0.4-1.05,0.88-1.47,1.42c-1.3,1.6-5,5.61-8.85,3.88c-1.56-0.74-2.64-2.22-2.87-3.93c-0.56-3.32,0.96-6.65,3.85-8.39
	c2.33-1.53,5.1-2.23,7.87-2l3.77,0.26c0,0,11.73,2.25,18.49-7c0,0,4.59-5.56,5.62-16.36c0,0,1.87-13.87,12.28-14.3
	C157.31,38.62,165.05,38.85,163.5,47.24z"/>
<path class="st4" d="M98.41,64.75c0.33-0.17,11.14-10.28,20.31-8.79"/>
<path class="st4" d="M125.26,53.14c0,0,1.36-7.77,15.38-11.94"/>
<path class="st4" d="M111.27,60.94c0,0-4.84,3.8-6.73,6.88"/>
<path class="st4" d="M97.01,57.17c0,0-1.34,0.63-3.23,3.71"/>
<path class="st4" d="M147.56,0.75c0,0-1.33,0.63-3.22,3.72"/>
<path class="st4" d="M135.42,47.62c2.63-1.55,5.49-2.66,8.47-3.31"/>
<line class="st9" x1="132.06" y1="75.48" x2="136.17" y2="83.26"/>
<line class="st9" x1="152.41" y1="40.84" x2="158.36" y2="54.92"/>
<line class="st9" x1="140.95" y1="67.33" x2="146.43" y2="78.35"/>
<line class="st9" x1="145.65" y1="51.24" x2="151.17" y2="64.77"/>
<line class="st9" x1="123.76" y1="82.52" x2="120.1" y2="76.28"/>
<line class="st9" x1="114.32" y1="88.47" x2="108.7" y2="78.86"/>
<path class="st9" d="M147.52,39.53c6.29-5.57,14.94-6.09,19.31-1.16s3.71,12.41-3.47,19c0,0-0.77,1.58-7.35,5.79"/>
<path class="st9" d="M107.99,73.28c-8,2.55-12.88,9.7-10.89,16s10.11,9.31,18.12,6.76"/>
<path class="st7" d="M102.22,97.82c1.62,0.08,87.9-17.49,86.76-17.38l1.12,5.63l-74.7,22.78c-3.91,1.19-8.1-0.63-9.89-4.3
	L102.22,97.82z"/>
<path class="st7" d="M145.23,20.46c0,0,3.85-10.5,9.92-11.51c1.03-0.17,2.09,0.01,3,0.51c1.13,0.63,2.26,1.89,0.63,4.18
	c0,0-1.69,2.45-5.91,2.18c-0.72-0.04-1.43,0.08-2.1,0.34C149.07,16.85,146.07,18.32,145.23,20.46z"/>
<path class="st7" d="M87.2,75.28c0,0-10.63,3.5-11.83,9.53c-0.21,1.02-0.06,2.08,0.41,3c0.59,1.15,1.81,2.32,4.16,0.77
	c0,0,2.5-1.61,2.37-5.84c-0.02-0.72,0.12-1.43,0.41-2.09C83.46,78.99,85.03,76.04,87.2,75.28z"/>
<path class="st8" d="M188.48,81.29l-0.95,3.64c-0.56,2.11,0.1,4.36,1.71,5.83l1.49,1.36l9.29,6.79c0,0-4.82,1.94,0.1,6.54l4.42,2.32
	c1.04,0.55,2.3,0.55,3.34,0l0.77-0.41c1.26-0.67,2.19-1.83,2.57-3.2l0,0l3.83-2.28l2.69-1.89c1.25-0.89,1.9-2.42,1.66-3.94l0,0
	l2-6.1v-0.53c-0.14-1.85-1.39-3.43-3.16-4l-21.71-6.8c-0.8-0.25-1.68-0.08-2.33,0.45l-1.46,1.19l-1.93-0.54
	c-0.98-0.27-2,0.31-2.28,1.29C188.51,81.1,188.49,81.2,188.48,81.29z"/>
<line class="st9" x1="208.99" y1="94.94" x2="211.22" y2="104.14"/>
<line class="st9" x1="213.15" y1="92.08" x2="215.38" y2="101.29"/>
<line class="st9" x1="217.8" y1="90.22" x2="219.48" y2="97.02"/>
<line class="st9" x1="204.87" y1="102.1" x2="198.53" y2="97.99"/>
<path class="st9" d="M191.62,85.1c0,0-2.87,6.34,1.41,8.78"/>
<path class="st8" d="M248.38,84.55c0,0,0.56,2.41-4.33,3.77c0,0-5.39,1.19-2.12-4.32l-23.82-0.31c0.34-1,0.13-5.21,0.13-5.21
	l5.3-0.12c0,0,13.54-8,22.29-4.48c2.71,1.1,4.2,4.03,3.5,6.87L248.38,84.55z"/>
<line class="st9" x1="242.88" y1="80.03" x2="241.93" y2="84"/>
<path class="st8" d="M238.17,89.99c-4-2.12-3.92,1.69-3.92,1.69v0.08c-3.18-2.73-4,0.81-4,0.81c-1.47-0.92-2.32-1-2.82-0.64l0,0
	l-5.38-0.47l3.76,4.75l0.79,6.35c-0.02,1.27,0.99,2.32,2.26,2.34c0.02,0,0.03,0,0.05,0h2.8c0.55,0.01,1.01-0.43,1.02-0.98
	c0-0.07-0.01-0.15-0.02-0.22c4.09,2.24,5.65-0.41,5.65-0.41c4.53,1.11,6.06-1.93,6.06-1.93v-0.41c4.53,1.11,8.91-6.21,8.91-6.21
	l-1.45-4.28c-2-0.02-4.01,0.07-6,0.27c-0.5,0.25-3.45-2.84-3.45-2.84c-4-2.13-4.47,0.95-4.47,0.95L238.17,89.99z"/>
<path class="st8" d="M237.88,88.84c0,0,0.43-3.08,4.47-0.95c0,0,2.95,3.09,3.45,2.84c1.99-0.2,4-0.29,6-0.27l1.45,4.23
	c0,0-4.38,7.32-8.91,6.21"/>
<line class="st9" x1="230.27" y1="92.57" x2="232.71" y2="103.65"/>
<line class="st9" x1="234.5" y1="91.95" x2="238.36" y2="103.24"/>
<line class="st9" x1="238.17" y1="89.99" x2="244.42" y2="101.31"/>
<line class="st9" x1="248.29" y1="94.89" x2="245.84" y2="90.73"/>
<line class="st9" x1="225.85" y1="96.17" x2="227.47" y2="91.89"/>
<path class="st8" d="M649.21,86.4c0,0-0.89,2.3,3.75,4.36c0,0,5.16,2,2.71-4l23.62,3.14c0.05-1.74,0.26-3.48,0.62-5.18l-5.22-0.88
	c0,0-12.24-9.85-21.41-7.64c-2.85,0.69-4.75,3.38-4.45,6.29L649.21,86.4z"/>
<line class="st9" x1="655.31" y1="82.73" x2="655.67" y2="86.78"/>
<line class="st9" x1="647.82" y1="96.65" x2="650.83" y2="92.89"/>
<path class="st4" d="M184.61,112.72c0,0-6.29-0.4-17.29,10.17l-3.21,1.84h-11.93c0,0,4.18,5.36-5.13,5.33c0,0-1.42,2.43,1.43,6.51
	l6.82,8.09l2,2.32l0.4-0.23c2.77-1.64,19.46-11.92,29.88-28.78l0.66-1.09L184.61,112.72z"/>
<path class="st8" d="M187.45,117.62c-2.49-0.16-4.97,0.55-7,2c-1.16,0.94-2.2,2.02-3.1,3.21c-6.55,7.96-13.11,15.92-19.66,23.89
	c2.77-1.64,19.46-11.92,29.88-28.78L187.45,117.62z"/>
<line class="st9" x1="164.11" y1="124.73" x2="161.5" y2="130.07"/>
<line class="st9" x1="169.86" y1="121.05" x2="168.67" y2="124.31"/>
<path class="st9" d="M753.17,45.21c0.77,2.55,2.81,4.52,5.38,5.2"/>
<path class="st8" d="M752.93,68.85l6.77-20.79l12.63,4.12l-6.78,20.78c-1.08,3.33-4.78,0.4-8.26-0.73L752.93,68.85z"/>
<path class="st10" d="M760.88,63.91c-0.45-0.81-0.16-1.83,0.65-2.28c0.04-0.02,0.07-0.04,0.11-0.06c0.51-0.24,1.09-0.24,1.6,0
	l1.34-4.12c0.26-1.45-0.71-2.83-2.16-3.08c-1.16-0.21-2.32,0.38-2.84,1.43l-4.56,13.82c-0.37,1.42,0.49,2.87,1.91,3.24
	c1.3,0.33,2.64-0.35,3.14-1.6l2.07-6.37C761.59,64.77,761.13,64.41,760.88,63.91z"/>
<path class="st8" d="M790.25,59.38l-5.89,19.72c-1.08,3.32-4.28,2.22-7.77,1.08l0,0c-3.49-1.13-5.94-1.87-4.85-5.2l6.78-20.78
	L790.25,59.38z"/>
<path class="st10" d="M779.02,71.69c-0.45-0.81-0.16-1.83,0.65-2.28c0.04-0.02,0.07-0.04,0.11-0.06c0.51-0.24,1.09-0.24,1.6,0
	l1.34-4.12c0.3-1.43-0.62-2.84-2.06-3.13c-1.21-0.25-2.42,0.36-2.94,1.48l-4.49,13.77c-0.37,1.42,0.49,2.87,1.91,3.24
	c1.3,0.33,2.64-0.35,3.14-1.6l2.07-6.37C779.79,72.53,779.29,72.19,779.02,71.69z"/>
<line class="st11" x1="784.29" y1="55.74" x2="785.2" y2="52.39"/>
<line class="st11" x1="770.33" y1="49.94" x2="771.86" y2="48.98"/>
<line class="st9" x1="786.23" y1="55.83" x2="787.14" y2="52.49"/>
<ellipse transform="matrix(0.31 -0.9507 0.9507 0.31 444.4733 757.0186)" class="st10" cx="743.78" cy="72.29" rx="1.32" ry="1.38"/>
<ellipse transform="matrix(0.31 -0.9507 0.9507 0.31 443.7225 763.4711)" class="st10" cx="747.85" cy="76.03" rx="1.32" ry="1.38"/>
<ellipse transform="matrix(0.31 -0.9507 0.9507 0.31 461.5294 820.6724)" class="st10" cx="796.17" cy="92.37" rx="1.32" ry="1.38"/>
<ellipse transform="matrix(0.31 -0.9507 0.9507 0.31 458.338 813.8588)" class="st10" cx="789.88" cy="91.16" rx="1.32" ry="1.38"/>
<ellipse transform="matrix(0.31 -0.9507 0.9507 0.31 454.6279 821.5682)" class="st10" cx="793.33" cy="97.57" rx="1.32" ry="1.38"/>
<path class="st7" d="M715.93,151.77c-0.16-0.14-0.31-0.31-0.43-0.49c-4.72-7-9.35-19.94-10-21.69c-2.32-6.16-1.58-10.57-0.94-12.63
	c0.25-0.8,0.89-1.42,1.69-1.65l0.25-0.08c0.64-0.18,1.32-0.11,1.9,0.2l0.78,0.42c1.75,0.96,3.08,2.53,3.73,4.42
	c0.37,1.07,0.76,2.26,1.14,3.37c0.11,0.31,0.28,0.6,0.5,0.85l10.33,11.61c0.5,0.57,0.71,1.35,0.55,2.1c-0.18,1,0,2.51,1.93,4
	c1.08,0.82,1.31,2.36,0.5,3.46c-2.59,2.94-5.85,5.21-9.51,6.6C717.51,152.53,716.59,152.34,715.93,151.77L715.93,151.77z"/>
<ellipse transform="matrix(0.9044 -0.4267 0.4267 0.9044 13.5437 319.3858)" class="st4" cx="719.44" cy="129.47" rx="5.36" ry="5.62"/>
<path class="st0" d="M764.67,50.92c2.7,1,4.25,7.21,4.57,9.86l3.09-8.6c1.22-3.36-0.19-7.9-3.55-9.12l0,0
	c-3.36-1.23-7.39,1.32-8.62,4.68l-1.39,3.88C760.7,49.99,762.1,49.99,764.67,50.92z"/>
<path class="st0" d="M782.56,58.14c2.7,1,5.52,6.08,5.84,8.73l1.55-6.56c1.22-3.36-0.44-8.46-3.8-9.69l0,0
	c-3.36-1.22-7.14,1.9-8.37,5.26l-1.16,3.74C778.55,58.03,779.99,57.2,782.56,58.14z"/>
<path class="st9" d="M795.69,62.88c-2.13,1.6-4.93,1.97-7.41,1"/>
<path class="st9" d="M796.5,66.17c-2,1.54-6,3-8.3-1"/>
<path class="st9" d="M751.4,48.97c0.8,2.22,3.25,3.36,5.47,2.56c0.64-0.23,1.22-0.62,1.68-1.12"/>
<path class="st0" d="M743.13,68.68c7.76-1.1,15.56,1.72,20.81,7.54"/>
<path class="st0" d="M751.32,73.05c3.91,0.09,7.66,1.59,10.56,4.22"/>
<path class="st0" d="M770.19,81.01c3.9,0.11,7.64,1.6,10.54,4.22"/>
<path class="st0" d="M769.49,78.86c0,0,8.62-3.16,17.59,6.73"/>
<path class="st5" d="M766.88,101.81c7.66-0.77,15.21-2.32,22.56-4.61c-1.28-2.44-4.06-3.86-7.13-4.38s-13.52,1.2-13.52,1.2
	c-16.69-0.17-19.54-6.68-19.54-6.68c-1.38-2.26-2.58-4.58-4.29-5.92c-0.39-0.31-0.81-0.57-1.27-0.76l-0.64,6.5l4.2,7.19l-1.27,5.27
	c0,0,5.65,7,18.22,7L766.88,101.81z"/>
<line class="st9" x1="749.22" y1="87.34" x2="747.22" y2="94.35"/>
<line class="st9" x1="758.19" y1="93.02" x2="754.36" y2="103.48"/>
<line class="st9" x1="769.93" y1="93.75" x2="766.85" y2="101.81"/>
<line class="st9" x1="780.37" y1="92.88" x2="777.77" y2="100.29"/>
<path class="st0" d="M739.26,106.33c0.72,8.36,7.24,15.09,15.49,15.5c5.84,0.24,11.36-2.68,14.45-7.64"/>
<path class="st0" d="M764,83.27c-2.73,0-4.96-2.2-5-4.93c0.12-2.58,2.58-4.55,5.48-4.41c2.73,0,4.96,2.2,5,4.93"/>
<path class="st8" d="M717.54,94.95l-0.42-3.75c0.04-1.02-0.75-1.88-1.78-1.92c-0.1,0-0.2,0-0.29,0.01l-2,0.25l-1.27-1.39
	c-0.57-0.62-1.42-0.92-2.25-0.78l-22.39,3.66c-1.82,0.3-3.28,1.66-3.69,3.46l-0.12,0.52l1.06,6.32c-0.09,0.28-0.14,0.56-0.17,0.85
	l2.59-6.37l-2.59,6.37c-0.11,1.23,0.35,2.44,1.25,3.28l2.39,2.27l3.46,2.81l3.53-8.79l-3.53,8.79c0.18,1.41,0.93,2.68,2.07,3.53
	l0.71,0.52c0.95,0.71,2.19,0.89,3.31,0.5l4.7-1.66c5.27-3.65,1.46-6.2,1.08-6.44l-5.31,2.44l5.29-2.44l0,0l8.89-4.7
	c2.93-2.42,1.4-7.75,1.4-7.75s1.53,5.33-1.4,7.75l1.27-0.67l1.68-1.14C716.81,99.25,717.79,97.12,717.54,94.95z M687.62,107.11
	l3.53-8.79L687.62,107.11z"/>
<path class="st4" d="M733.49,85.31c-1.6,0.19-55.08-0.8-53.94-0.77l-0.72,5.69l60.05,6.84L733.49,85.31z"/>
<path class="st4" d="M755.88,102.7l-37.6,36.81l-0.15,0.2c-0.49,0.61-1.06,1.17-1.68,1.65c-1.1,0.84-2.68,0.63-3.52-0.48
	c-0.52-0.69-0.66-1.59-0.35-2.4l28.68-35.65"/>
<path class="st4" d="M775.47,120.62l-47.72,22.19l-0.21,0.15c-0.67,0.41-1.38,0.75-2.13,1c-1.32,0.42-2.73-0.31-3.15-1.63
	c-0.26-0.82-0.09-1.71,0.46-2.37l38.91-24.07"/>
<path class="st5" d="M781.38,96.46c-2.9-0.8-13.58-0.16-13.58-0.16"/>
<path class="st6" d="M740.1,95.36c1,0.74,1.54,0.83,2.53,1.65c1.31,1.09,2.29,2.52,2.83,4.14c0,0,3.55,6.05,12.2,5.64
	c1.92-0.11,3.78-0.66,5.46-1.59c1.72-0.94,3.72-1.27,5.65-0.92c1.9,0.33,3.75,0.93,5.48,1.78c2.41,0.7,4.86,1.21,7.35,1.53
	c4.09,0.59,7.89-2.26,8.48-6.35c0.05-0.32,0.07-0.65,0.07-0.98c0-1.06-0.25-2.11-0.74-3.06c-5.11,0.66-21.07,2.74-22.14,2.8
	l-0.42,1.81l-5.32,1.3c-11.66,2.91-15.43-5.62-15.43-5.62l1.12-3.14l-0.77-6.91l-2.79-6.82c-0.85-0.37-2.57-1.21-3.73-1l-3.16,9.92
	C736.77,89.54,736.3,92.62,740.1,95.36z"/>
<path class="st7" d="M712.06,149.76c-0.2-0.08-0.39-0.19-0.56-0.32c-6.79-5-15.45-15.69-16.66-17.12c-4.24-5-5-9.44-5.09-11.6
	c-0.03-0.83,0.34-1.62,1-2.12l0.22-0.15c0.54-0.39,1.2-0.55,1.86-0.45l0.87,0.14c1.98,0.31,3.76,1.35,5,2.92
	c0.71,0.89,1.46,1.88,2.2,2.8c0.2,0.26,0.46,0.48,0.75,0.64l13.61,7.5c0.67,0.38,1.12,1.04,1.23,1.8c0.15,1,0.81,2.38,3.15,3.14
	c1.29,0.42,2.01,1.8,1.62,3.1c-1.46,3.63-3.78,6.85-6.77,9.38c-0.7,0.54-1.64,0.67-2.46,0.34H712.06z"/>
<path class="st4" d="M210.31,104.48c0,0-5.88-0.38-16.12,8.72l-3,1.58h-11.14c0,0,3.92,4.65-4.78,4.59c0,0-1.31,2.1,1.36,5.64l6.4,7
	l1.84,2c0,0,0.13-0.06,0.37-0.2c2.59-1.4,18.13-10.23,27.81-24.77c0.21-0.31,0.41-0.62,0.61-0.94L210.31,104.48z"/>
<path class="st8" d="M212.98,108.76c-2.31-0.17-4.62,0.43-6.56,1.7c-1.07,0.8-2.03,1.73-2.88,2.76l-18.29,20.58
	c2.59-1.4,18.13-10.23,27.81-24.77L212.98,108.76z"/>
<line class="st9" x1="196.56" y1="111.62" x2="195.45" y2="114.43"/>
<path class="st7" d="M156.41,76.46l9.91,16l17.66,25.61c0,0,1.1,3.11-5.18,2l-18.16-22.45l-14.21-15.41"/>
<path class="st7" d="M128.15,95.88l15.78,13.68c1.01,0.88,1.82,1.96,2.38,3.18l6.57,14.45c0,0,1.1,3.12-5.18,2l-6.82-11.42
	c-0.71-1.2-1.67-2.22-2.83-3l-19.88-13.15"/>
<path class="st7" d="M165.14,71.31c1.56,0.43,54.62,7.15,53.49,7l-0.1,5.73l-60.43-1.89L165.14,71.31z"/>
<path class="st4" d="M166.88,38.37c-4-4.51-11.58-4.46-17.66-0.14l-10.34-21L78.41,46.76l13.62,27.86l4.85,9.8
	c-0.33,1.61-0.24,3.28,0.25,4.85c0.85,2.52,2.64,4.61,5,5.84l0.05,0.11l5.88,12l60.47-29.53l-6.52-13.34l-1.93-3.94
	c2.91-2.18,3.34-3,3.34-3C170.54,50.78,171.2,43.3,166.88,38.37z"/>
<path class="st8" d="M103.95,60.18L91.11,33.89c-1.57-3.21-2-5.48,1.24-7l0,0c3.21-1.57,10.67,1.93,12.24,5.14l11.56,23.69"/>
<path class="st10" d="M107.26,48.14c-0.93-0.31-1.43-1.31-1.12-2.24c0.18-0.53,0.59-0.95,1.12-1.12l-2-4
	c-0.57-1.31-2.09-1.92-3.41-1.35c-1.31,0.57-1.92,2.09-1.35,3.41c0.03,0.07,0.07,0.14,0.1,0.21l6.49,13.3
	c0.63,1.29,2.18,1.82,3.46,1.2c1.29-0.63,1.82-2.18,1.2-3.47l0,0l-3-6.16C108.32,48.22,107.77,48.3,107.26,48.14z"/>
<path class="st4" d="M100.07,41.27c5.18-1.45,8.24,1.17,10.36,2.78l-5.84-12.07c-1.57-3.21-9-6.71-12.24-5.14l0,0
	c-3.22,1.57-2.81,3.84-1.24,7l5.89,12C98.06,41.74,100.07,41.27,100.07,41.27z"/>
<path class="st8" d="M125.22,53.16l-11.88-24.33c-1.57-3.21-0.74-10.75,2.48-12.32l0,0c3.21-1.57,5.3-1.25,6.87,2l12,24.63"/>
<path class="st10" d="M126.97,37.9c-0.93-0.31-1.43-1.31-1.12-2.24c0.18-0.53,0.59-0.95,1.12-1.12l-1.95-4
	c-0.57-1.31-2.09-1.92-3.41-1.35c-1.31,0.57-1.92,2.09-1.35,3.41c0.03,0.07,0.07,0.14,0.1,0.21l6.5,13.3
	c0.69,1.26,2.26,1.72,3.51,1.03c1.17-0.64,1.67-2.07,1.14-3.3l-3-6.16C128.07,37.99,127.49,38.07,126.97,37.9z"/>
<path class="st4" d="M122.21,30.62c1.48-2.4,2.83-4.63,4.95-3l-4.47-9.16c-1.57-3.21-3.66-3.53-6.87-2l0,0
	c-3.22,1.57-4.05,9.11-2.48,12.32l6.28,12.84C119.8,39.15,120.77,32.98,122.21,30.62z"/>
<path class="st4" d="M126.18,65.38c1.91,0.23,3.84-0.19,5.48-1.2c2.36-1.4,4.79-4.59,3.15-7.38s-5.58-3.24-8.21-1.24
	c-1.36,0.79-2.43,2-3.05,3.45"/>
<path class="st10" d="M100.76,21.17c0.84,0.37,1.23,1.35,0.86,2.2c-0.34,0.78-1.22,1.18-2.04,0.92c-4.41-1.57-9.24-1.57-13.65,0
	c-0.87,0.31-1.83-0.13-2.14-1s0.13-1.83,1-2.14c5.15-1.83,10.77-1.83,15.92,0L100.76,21.17z"/>
<path class="st10" d="M116.59,5.29c0.74-0.55,1.79-0.4,2.34,0.34c0.55,0.74,0.4,1.79-0.34,2.34c-3.71,2.87-6.31,6.93-7.36,11.49
	c-0.2,0.9-1.09,1.47-1.99,1.26c-0.9-0.2-1.47-1.09-1.26-1.99c1.24-5.32,4.27-10.06,8.59-13.41L116.59,5.29z"/>
<path class="st8" d="M163.5,47.24c-0.8,2.9-2.38,5.52-4.58,7.57c-0.81,0.74-1.72,1.37-2.7,1.88c-3.34,1.81-5.32,5.41-5.06,9.2
	c-0.04,2.01-0.35,4-0.92,5.92c-1.4,5.13-5.36,9.17-10.46,10.68c-3.1,0.99-6.4,1.2-9.61,0.62c-2.78-0.49-7.58-0.75-11.55,2
	c-0.55,0.4-1.05,0.88-1.47,1.42c-1.3,1.6-5,5.61-8.85,3.88c-1.56-0.74-2.64-2.22-2.87-3.93c-0.56-3.32,0.96-6.65,3.85-8.39
	c2.33-1.53,5.1-2.23,7.87-2l3.77,0.26c0,0,11.73,2.25,18.49-7c0,0,4.59-5.56,5.62-16.36c0,0,1.87-13.87,12.28-14.3
	C157.31,38.62,165.05,38.85,163.5,47.24z"/>
<path class="st4" d="M98.41,64.75c0.33-0.17,11.14-10.28,20.31-8.79"/>
<path class="st4" d="M125.26,53.14c0,0,1.36-7.77,15.38-11.94"/>
<path class="st4" d="M111.27,60.94c0,0-4.84,3.8-6.73,6.88"/>
<path class="st4" d="M97.01,57.17c0,0-1.34,0.63-3.23,3.71"/>
<path class="st4" d="M147.56,0.75c0,0-1.33,0.63-3.22,3.72"/>
<path class="st4" d="M135.42,47.62c2.63-1.55,5.49-2.66,8.47-3.31"/>
<line class="st9" x1="132.06" y1="75.48" x2="136.17" y2="83.26"/>
<line class="st9" x1="152.41" y1="40.84" x2="158.36" y2="54.92"/>
<line class="st9" x1="140.95" y1="67.33" x2="146.43" y2="78.35"/>
<line class="st9" x1="145.65" y1="51.24" x2="151.17" y2="64.77"/>
<line class="st9" x1="123.76" y1="82.52" x2="120.1" y2="76.28"/>
<line class="st9" x1="114.32" y1="88.47" x2="108.7" y2="78.86"/>
<path class="st9" d="M147.52,39.53c6.29-5.57,14.94-6.09,19.31-1.16s3.71,12.41-3.47,19c0,0-0.77,1.58-7.35,5.79"/>
<path class="st9" d="M107.99,73.28c-8,2.55-12.88,9.7-10.89,16s10.11,9.31,18.12,6.76"/>
<path class="st7" d="M102.22,97.82c1.62,0.08,87.9-17.49,86.76-17.38l1.12,5.63l-74.7,22.78c-3.91,1.19-8.1-0.63-9.89-4.3
	L102.22,97.82z"/>
<path class="st8" d="M145.23,20.46c0,0,3.85-10.5,9.92-11.51c1.03-0.17,2.09,0.01,3,0.51c1.13,0.63,2.26,1.89,0.63,4.18
	c0,0-1.69,2.45-5.91,2.18c-0.72-0.04-1.43,0.08-2.1,0.34C149.07,16.85,146.07,18.32,145.23,20.46z"/>
<path class="st8" d="M87.2,75.28c0,0-10.63,3.5-11.83,9.53c-0.21,1.02-0.06,2.08,0.41,3c0.59,1.15,1.81,2.32,4.16,0.77
	c0,0,2.5-1.61,2.37-5.84c-0.02-0.72,0.12-1.43,0.41-2.09C83.46,78.99,85.03,76.04,87.2,75.28z"/>
<path class="st8" d="M248.38,84.55c0,0,0.56,2.41-4.33,3.77c0,0-5.39,1.19-2.12-4.32l-23.82-0.31c0.34-1,0.13-5.21,0.13-5.21
	l5.3-0.12c0,0,13.54-8,22.29-4.48c2.71,1.1,4.2,4.03,3.5,6.87L248.38,84.55z"/>
<line class="st9" x1="242.88" y1="80.03" x2="241.93" y2="84"/>
<path class="st8" d="M237.88,88.84c0,0,0.43-3.08,4.47-0.95c0,0,2.95,3.09,3.45,2.84c1.99-0.2,4-0.29,6-0.27l1.45,4.23
	c0,0-4.38,7.32-8.91,6.21"/>
<path class="st8" d="M649.21,86.4c0,0-0.89,2.3,3.75,4.36c0,0,5.16,2,2.71-4l23.62,3.14c0.05-1.74,0.26-3.48,0.62-5.18l-5.22-0.88
	c0,0-12.24-9.85-21.41-7.64c-2.85,0.69-4.75,3.38-4.45,6.29L649.21,86.4z"/>
<line class="st9" x1="655.31" y1="82.73" x2="655.67" y2="86.78"/>
<line class="st9" x1="647.82" y1="96.65" x2="650.83" y2="92.89"/>
<path class="st4" d="M184.61,112.72c0,0-6.29-0.4-17.29,10.17l-3.21,1.84h-11.93c0,0,4.18,5.36-5.13,5.33c0,0-1.42,2.43,1.43,6.51
	l6.82,8.09l2,2.32l0.4-0.23c2.77-1.64,19.46-11.92,29.88-28.78l0.66-1.09L184.61,112.72z"/>
<path class="st8" d="M187.45,117.62c-2.49-0.16-4.97,0.55-7,2c-1.16,0.94-2.2,2.02-3.1,3.21c-6.55,7.96-13.11,15.92-19.66,23.89
	c2.77-1.64,19.46-11.92,29.88-28.78L187.45,117.62z"/>
<line class="st9" x1="164.11" y1="124.73" x2="161.5" y2="130.07"/>
<line class="st9" x1="169.86" y1="121.05" x2="168.67" y2="124.31"/>
<path class="st9" d="M753.17,45.21c0.77,2.55,2.81,4.52,5.38,5.2"/>
<path class="st8" d="M752.93,68.85l6.77-20.79l12.63,4.12l-6.78,20.78c-1.08,3.33-4.78,0.4-8.26-0.73L752.93,68.85z"/>
<path class="st10" d="M760.88,63.91c-0.45-0.81-0.16-1.83,0.65-2.28c0.04-0.02,0.07-0.04,0.11-0.06c0.51-0.24,1.09-0.24,1.6,0
	l1.34-4.12c0.26-1.45-0.71-2.83-2.16-3.08c-1.16-0.21-2.32,0.38-2.84,1.43l-4.56,13.82c-0.37,1.42,0.49,2.87,1.91,3.24
	c1.3,0.33,2.64-0.35,3.14-1.6l2.07-6.37C761.59,64.77,761.13,64.41,760.88,63.91z"/>
<path class="st8" d="M790.25,59.38l-5.89,19.72c-1.08,3.32-4.28,2.22-7.77,1.08l0,0c-3.49-1.13-5.94-1.87-4.85-5.2l6.78-20.78
	L790.25,59.38z"/>
<path class="st10" d="M779.02,71.69c-0.45-0.81-0.16-1.83,0.65-2.28c0.04-0.02,0.07-0.04,0.11-0.06c0.51-0.24,1.09-0.24,1.6,0
	l1.34-4.12c0.3-1.43-0.62-2.84-2.06-3.13c-1.21-0.25-2.42,0.36-2.94,1.48l-4.49,13.77c-0.37,1.42,0.49,2.87,1.91,3.24
	c1.3,0.33,2.64-0.35,3.14-1.6l2.07-6.37C779.79,72.53,779.29,72.19,779.02,71.69z"/>
<line class="st11" x1="784.29" y1="55.74" x2="785.2" y2="52.39"/>
<line class="st11" x1="770.33" y1="49.94" x2="771.86" y2="48.98"/>
<line class="st9" x1="786.23" y1="55.83" x2="787.14" y2="52.49"/>
<ellipse transform="matrix(0.31 -0.9507 0.9507 0.31 444.4733 757.0186)" class="st10" cx="743.78" cy="72.29" rx="1.32" ry="1.38"/>
<ellipse transform="matrix(0.31 -0.9507 0.9507 0.31 443.7225 763.4711)" class="st10" cx="747.85" cy="76.03" rx="1.32" ry="1.38"/>
<ellipse transform="matrix(0.31 -0.9507 0.9507 0.31 461.5294 820.6724)" class="st10" cx="796.17" cy="92.37" rx="1.32" ry="1.38"/>
<ellipse transform="matrix(0.31 -0.9507 0.9507 0.31 458.338 813.8588)" class="st10" cx="789.88" cy="91.16" rx="1.32" ry="1.38"/>
<ellipse transform="matrix(0.31 -0.9507 0.9507 0.31 454.6279 821.5682)" class="st10" cx="793.33" cy="97.57" rx="1.32" ry="1.38"/>
<path class="st7" d="M715.93,151.77c-0.16-0.14-0.31-0.31-0.43-0.49c-4.72-7-9.35-19.94-10-21.69c-2.32-6.16-1.58-10.57-0.94-12.63
	c0.25-0.8,0.89-1.42,1.69-1.65l0.25-0.08c0.64-0.18,1.32-0.11,1.9,0.2l0.78,0.42c1.75,0.96,3.08,2.53,3.73,4.42
	c0.37,1.07,0.76,2.26,1.14,3.37c0.11,0.31,0.28,0.6,0.5,0.85l10.33,11.61c0.5,0.57,0.71,1.35,0.55,2.1c-0.18,1,0,2.51,1.93,4
	c1.08,0.82,1.31,2.36,0.5,3.46c-2.59,2.94-5.85,5.21-9.51,6.6C717.51,152.53,716.59,152.34,715.93,151.77L715.93,151.77z"/>
<ellipse transform="matrix(0.9044 -0.4267 0.4267 0.9044 13.5437 319.3858)" class="st4" cx="719.44" cy="129.47" rx="5.36" ry="5.62"/>
<path class="st0" d="M764.67,50.92c2.7,1,4.25,7.21,4.57,9.86l3.09-8.6c1.22-3.36-0.19-7.9-3.55-9.12l0,0
	c-3.36-1.23-7.39,1.32-8.62,4.68l-1.39,3.88C760.7,49.99,762.1,49.99,764.67,50.92z"/>
<path class="st0" d="M782.56,58.14c2.7,1,5.52,6.08,5.84,8.73l1.55-6.56c1.22-3.36-0.44-8.46-3.8-9.69l0,0
	c-3.36-1.22-7.14,1.9-8.37,5.26l-1.16,3.74C778.55,58.03,779.99,57.2,782.56,58.14z"/>
<path class="st9" d="M795.69,62.88c-2.13,1.6-4.93,1.97-7.41,1"/>
<path class="st9" d="M796.5,66.17c-2,1.54-6,3-8.3-1"/>
<path class="st9" d="M751.4,48.97c0.8,2.22,3.25,3.36,5.47,2.56c0.64-0.23,1.22-0.62,1.68-1.12"/>
<path class="st0" d="M743.13,68.68c7.76-1.1,15.56,1.72,20.81,7.54"/>
<path class="st0" d="M751.32,73.05c3.91,0.09,7.66,1.59,10.56,4.22"/>
<path class="st0" d="M770.19,81.01c3.9,0.11,7.64,1.6,10.54,4.22"/>
<path class="st0" d="M769.49,78.86c0,0,8.62-3.16,17.59,6.73"/>
<path class="st5" d="M766.88,101.81c7.66-0.77,15.21-2.32,22.56-4.61c-1.28-2.44-4.06-3.86-7.13-4.38s-13.52,1.2-13.52,1.2
	c-16.69-0.17-19.54-6.68-19.54-6.68c-1.38-2.26-2.58-4.58-4.29-5.92c-0.39-0.31-0.81-0.57-1.27-0.76l-0.64,6.5l4.2,7.19l-1.27,5.27
	c0,0,5.65,7,18.22,7L766.88,101.81z"/>
<line class="st9" x1="749.22" y1="87.34" x2="747.22" y2="94.35"/>
<line class="st9" x1="758.19" y1="93.02" x2="754.36" y2="103.48"/>
<line class="st9" x1="769.93" y1="93.75" x2="766.85" y2="101.81"/>
<line class="st9" x1="780.37" y1="92.88" x2="777.77" y2="100.29"/>
<path class="st0" d="M739.26,106.33c0.72,8.36,7.24,15.09,15.49,15.5c5.84,0.24,11.36-2.68,14.45-7.64"/>
<path class="st0" d="M764,83.27c-2.73,0-4.96-2.2-5-4.93c0.12-2.58,2.58-4.55,5.48-4.41c2.73,0,4.96,2.2,5,4.93"/>
<path class="st4" d="M798.31,116.8c-1.61-0.15-82.62-27.34-81.51-27.06l-1.92,5.4l63.87,30.13c6.35,2.99,13.88,1.8,19-3
	c1.54-1.43,1.79-3.77,0.6-5.49L798.31,116.8z"/>
<path class="st12" d="M197.57,89.55c-36.51,1.15-63,28.19-90.48,48.77c-13.86,10.4-29.16,20.09-46.53,23.05
	c-18.32,3.11-36.95-1.68-53.5-9.44c-5.59-2.62-10.09,5.86-4.49,8.49c16.53,7.75,34.81,12.82,53.21,11.2
	c17.67-1.57,33.81-9.4,48.28-19.29c29.23-20,55.94-52,93.93-53.18c6.17-0.2,5.77-9.79-0.42-9.59L197.57,89.55z"/>
<path class="st12" d="M703.52,109.19c6.41,3.39,14.57,7.41,17.2,14.71c2.85,7.92-1.26,16.67,1.84,24.76
	c5.32,13.96,23.32,17.96,36.32,20.96c17.97,4.22,36.47,5.75,54.89,4.55c6.17-0.45,14-2.28,15.21-9.49c1-6.17-4.54-12.85-11-10.58
	c-5.79,2-3.3,11.32,2.55,9.26c-0.89-0.82-1.25-0.9-1.07-0.24l-1.38,0.75c-1.42,0.37-2.86,0.6-4.32,0.7
	c-3.7,0.3-7.45,0.33-11.16,0.33c-6.83,0-13.65-0.35-20.44-1.06c-13.36-1.41-28.32-3.72-40.57-9.51c-4.8-2.26-9.52-5.54-10.65-11.07
	c-1.32-6.46,1-13.13-0.39-19.68c-2.3-11.21-12.79-17.67-22.16-22.63c-5.46-2.89-10.32,5.4-4.85,8.29L703.52,109.19z"/>
<polygon class="st12" points="682.64,98.67 652.03,92.7 216.9,92.1 216.91,83.6 652.86,84.2 653.26,84.28 684.27,90.32 "/>
<path class="st8" d="M188.48,81.29l-0.95,3.64c-0.56,2.11,0.1,4.36,1.71,5.83l1.49,1.36l9.29,6.79c0,0-4.82,1.94,0.1,6.54l4.42,2.32
	c1.04,0.55,2.3,0.55,3.34,0l0.77-0.41c1.26-0.67,2.19-1.83,2.57-3.2l0,0l3.83-2.28l2.69-1.89c1.25-0.89,1.9-2.42,1.66-3.94l0,0
	l2-6.1v-0.53c-0.14-1.85-1.39-3.43-3.16-4l-21.71-6.8c-0.8-0.25-1.68-0.08-2.33,0.45l-1.46,1.19l-1.93-0.54
	c-0.98-0.27-2,0.31-2.28,1.29C188.51,81.1,188.49,81.2,188.48,81.29z"/>
<line class="st9" x1="208.99" y1="94.94" x2="211.22" y2="104.14"/>
<line class="st9" x1="213.15" y1="92.08" x2="215.38" y2="101.29"/>
<line class="st9" x1="217.8" y1="90.22" x2="219.48" y2="97.02"/>
<line class="st9" x1="204.87" y1="102.1" x2="198.53" y2="97.99"/>
<path class="st9" d="M191.62,85.1c0,0-2.87,6.34,1.41,8.78"/>
<path class="st8" d="M238.17,89.99c-4-2.12-3.92,1.69-3.92,1.69v0.08c-3.18-2.73-4,0.81-4,0.81c-1.47-0.92-2.32-1-2.82-0.64l0,0
	l-5.38-0.47l3.76,4.75l0.79,6.35c-0.02,1.27,0.99,2.32,2.26,2.34c0.02,0,0.03,0,0.05,0h2.8c0.55,0.01,1.01-0.43,1.02-0.98
	c0-0.07-0.01-0.15-0.02-0.22c4.09,2.24,5.65-0.41,5.65-0.41c4.53,1.11,6.06-1.93,6.06-1.93v-0.41c4.53,1.11,8.91-6.21,8.91-6.21
	l-1.45-4.28c-2-0.02-4.01,0.07-6,0.27c-0.5,0.25-3.45-2.84-3.45-2.84c-4-2.13-4.47,0.95-4.47,0.95L238.17,89.99z"/>
<line class="st9" x1="230.27" y1="92.57" x2="232.71" y2="103.65"/>
<line class="st9" x1="234.5" y1="91.95" x2="238.36" y2="103.24"/>
<line class="st9" x1="238.17" y1="89.99" x2="244.42" y2="101.31"/>
<line class="st9" x1="248.29" y1="94.89" x2="245.84" y2="90.73"/>
<line class="st9" x1="225.85" y1="96.17" x2="227.47" y2="91.89"/>
<path class="st8" d="M248.38,83.55c0,0,0.56,2.41-4.33,3.77c0,0-5.39,1.19-2.12-4.32"/>
<path class="st8" d="M658.53,93.26c4.31-1.52,3.64,2.24,3.64,2.24v0.07c3.54-2.24,3.85,1.38,3.85,1.38c1.59-0.7,2.44-0.61,2.88-0.23
	l0,0l5.39,0.31l-4.41,4.12l-1.69,6.17c-0.15,1.26-1.3,2.16-2.56,2.01c-0.02,0-0.04-0.01-0.06-0.01l-2.77-0.41
	c-0.55-0.09-0.92-0.6-0.83-1.15c0.01-0.06,0.03-0.12,0.05-0.18c-4.37,1.63-5.54-1.22-5.54-1.22c-4.64,0.45-5.71-2.78-5.71-2.78
	v-0.41c-4.64,0.45-7.92-7.43-7.92-7.43l2-4c2,0.28,3.98,0.66,5.93,1.15c0.46,0.31,3.83-2.32,3.83-2.32
	c4.31-1.52,4.29,1.59,4.29,1.59L658.53,93.26z"/>
<path class="st8" d="M658.95,92.16c0,0,0-3.11-4.29-1.59c0,0-3.37,2.63-3.83,2.32c-1.95-0.49-3.93-0.87-5.93-1.15l-2,4
	c0,0,3.28,7.88,7.92,7.43"/>
<line class="st9" x1="665.98" y1="96.95" x2="661.97" y2="107.56"/>
<line class="st9" x1="661.89" y1="95.73" x2="656.43" y2="106.34"/>
<line class="st9" x1="658.53" y1="93.26" x2="650.72" y2="103.56"/>
<line class="st9" x1="669.83" y1="101.15" x2="668.85" y2="96.68"/>
<path class="st8" d="M658.53,93.26c4.31-1.52,3.64,2.24,3.64,2.24v0.07c3.54-2.24,3.85,1.38,3.85,1.38c1.59-0.7,2.44-0.61,2.88-0.23
	l0,0l5.39,0.31l-4.41,4.12l-1.69,6.17c-0.15,1.26-1.3,2.16-2.56,2.01c-0.02,0-0.04-0.01-0.06-0.01l-2.77-0.41
	c-0.55-0.09-0.92-0.6-0.83-1.15c0.01-0.06,0.03-0.12,0.05-0.18c-4.37,1.63-5.54-1.22-5.54-1.22c-4.64,0.45-5.71-2.78-5.71-2.78
	v-0.41c-4.64,0.45-7.92-7.43-7.92-7.43l2-4c2,0.28,3.98,0.66,5.93,1.15c0.46,0.31,3.83-2.32,3.83-2.32
	c4.31-1.52,4.29,1.59,4.29,1.59L658.53,93.26z"/>
<path class="st8" d="M658.95,92.16c0,0,0-3.11-4.29-1.59c0,0-3.37,2.63-3.83,2.32c-1.95-0.49-3.93-0.87-5.93-1.15l-2,4
	c0,0,3.28,7.88,7.92,7.43"/>
<line class="st9" x1="665.98" y1="96.95" x2="661.97" y2="107.56"/>
<line class="st9" x1="661.89" y1="95.73" x2="656.43" y2="106.34"/>
<line class="st9" x1="658.53" y1="93.26" x2="650.72" y2="103.56"/>
<line class="st9" x1="669.83" y1="101.15" x2="668.85" y2="96.68"/>
<path class="st8" d="M649.21,83.4c0,0-0.89,2.3,3.75,4.36c0,0,5.16,2,2.71-4"/>
<path class="st8" d="M717.54,94.95l-0.42-3.75c0.04-1.02-0.75-1.88-1.78-1.92c-0.1,0-0.2,0-0.29,0.01l-2,0.25l-1.27-1.39
	c-0.57-0.62-1.42-0.92-2.25-0.78l-22.39,3.66c-1.82,0.3-3.28,1.66-3.69,3.46l-0.12,0.52l1.06,6.32c-0.09,0.28-0.14,0.56-0.17,0.85
	l2.59-6.37l-2.59,6.37c-0.11,1.23,0.35,2.44,1.25,3.28l2.39,2.27l3.46,2.81l3.53-8.79l-3.53,8.79c0.18,1.41,0.93,2.68,2.07,3.53
	l0.71,0.52c0.95,0.71,2.19,0.89,3.31,0.5l4.7-1.66c5.27-3.65,1.46-6.2,1.08-6.44l-5.31,2.44l5.29-2.44l0,0l8.89-4.7
	c2.93-2.42,1.4-7.75,1.4-7.75s1.53,5.33-1.4,7.75l1.27-0.67l1.68-1.14C716.81,99.25,717.79,97.12,717.54,94.95z M687.62,107.11
	l3.53-8.79L687.62,107.11z"/>
</svg>
