<?xml version="1.0" encoding="utf-8"?>
<!-- Generator: Adobe Illustrator 24.1.2, SVG Export Plug-In . SVG Version: 6.00 Build 0)  -->
<svg version="1.1" id="Tastaturbo_turid_" xmlns="http://www.w3.org/2000/svg" xmlns:xlink="http://www.w3.org/1999/xlink" x="0px"
	 y="0px" viewBox="0 0 108.94 171.54" style="enable-background:new 0 0 108.94 171.54;" xml:space="preserve">
<style type="text/css">
	.st0{fill:#E1B0D1;stroke:#1B3F4B;stroke-width:1.21;stroke-miterlimit:10;}
	.st1{fill:#FFFFFF;}
	.st2{fill:#FFFFFF;stroke:#1B3F4B;stroke-width:1.27;stroke-linecap:round;stroke-linejoin:round;}
	.st3{fill:#183F4C;}
	.st4{fill:none;stroke:#1B3F4B;stroke-width:1.21;stroke-linecap:round;stroke-linejoin:round;}
	.st5{fill:#F5A84C;stroke:#1B3F4B;stroke-width:1.21;stroke-linecap:round;stroke-linejoin:round;}
	.st6{fill:#1B3F4B;}
	.st7{fill:#FFFFFF;stroke:#1B3F4B;stroke-width:1.21;stroke-linecap:round;stroke-linejoin:round;}
</style>
<path class="st0" d="M57.47,71.82l2.2,12.6l-8.39-1.1l-3.08-2.87c0,0,1-25.85,1-25.89L40.5,32.1c-0.05-0.33,0.13-0.65,0.45-0.77
	l3.62-1.32c0.36-0.13,0.76,0.06,0.89,0.43c0.01,0.03,0.02,0.06,0.03,0.09l10,22.71C55.49,53.24,57.45,71.77,57.47,71.82z"/>
<path class="st1" d="M35.21,14.83l0.3,8.75c-0.16,0.94,0.1,1.9,0.71,2.63l0.68,0.82c0.06,0.07,0.1,0.16,0.13,0.25l1.16,4.08
	c-0.13,0.45,0.01,0.93,0.36,1.23c4.38,3.77,6.26,1,8.14,0.77c0.53-0.06,0.93-0.53,0.89-1.06l0.32-1.45
	c1.46,0.17,2.58-2.87,2.72-3.28v-0.09l1.37-6.78c0-0.04,0-0.08,0-0.12l3.52-8.91c0.05-0.14,0.05-0.28,0-0.42l-1.82-7.4
	c-0.19-0.8-0.98-1.29-1.78-1.12c-3,0.78-1.85,4.83-1.11,6.72c0.27,0.65,0.21,1.39-0.15,2l-1.56,2.83c-0.18,0.33-0.59,0.45-0.92,0.27
	c-0.03-0.01-0.05-0.03-0.08-0.05l-0.4-0.29c-0.17-0.12-0.28-0.31-0.29-0.52l-0.38-6.11c-0.05-0.51-0.22-1-0.49-1.44
	c-0.75-1.2-2.6-4.41-3-4.83c-0.77-1.13-1.64-0.51-1.64-0.51c-3.18,1.49,0.68,6.87,0.81,7.19c-0.08,1.26-0.25,2.51-0.51,3.75l-1.87-4
	c-0.33-0.68-1.78-0.93-1.78-0.93l-4.1-0.7c-0.86,0-1.89,0.47-1.75,1.55c0.05,0.45,0.16,0.9,0.34,1.32c0.19,0.34,0.07,0.76-0.27,0.95
	c-0.03,0.02-0.07,0.03-0.1,0.05l-2.24,0.87c-0.32,0.08-0.91,0.33-1,0.64c-0.28,0.67-0.16,1.44,0.31,2c0.52,0.6,1.31,0.91,2.1,0.84
	c0.66-0.04,1.31-0.2,1.92-0.46c0.31-0.16,0.7-0.06,0.89,0.23l0.56,0.84"/>
<path class="st2" d="M52.03,20.64l3.55-9c0.05-0.14,0.05-0.28,0-0.42l-1.82-7.4c-0.19-0.8-0.98-1.29-1.78-1.12
	c-3,0.78-1.85,4.83-1.11,6.72c0.27,0.65,0.21,1.39-0.15,2l-1.63,2.86c-0.18,0.33-0.59,0.45-0.92,0.27
	c-0.03-0.01-0.05-0.03-0.08-0.05l-0.4-0.29c-0.17-0.12-0.28-0.31-0.29-0.52l-0.38-6.11c-0.05-0.51-0.22-1-0.49-1.44
	c-0.75-1.2-2.6-4.41-3-4.83c-0.77-1.13-1.64-0.51-1.64-0.51c-3.18,1.49,0.68,6.87,0.81,7.19c-0.08,1.26-0.25,2.51-0.51,3.75l-1.87-4
	c-0.33-0.68-1.78-0.93-1.78-0.93l-4.1-0.7c-0.86,0-1.89,0.47-1.75,1.55c0.28,2.31,2.82,2.94,3.87,3.1c0.28,0.04,0.5,0.25,0.57,0.52
	l0.65,2.64"/>
<path class="st2" d="M33.59,9.5l-3.13,1.21c-0.32,0.08-0.91,0.33-1,0.64c-0.28,0.67-0.16,1.44,0.31,2c0.52,0.6,1.31,0.91,2.1,0.84
	c0.66-0.04,1.31-0.2,1.92-0.46c0.31-0.16,0.7-0.06,0.89,0.23l0.45,0.67c0.08,0.11,0.12,0.24,0.12,0.37l0.29,8.55
	c-0.16,0.94,0.1,1.9,0.71,2.63L36.93,27c0.06,0.07,0.1,0.16,0.13,0.25l1.16,4.08c-0.13,0.45,0.01,0.93,0.36,1.23
	c4.38,3.77,6.26,1,8.14,0.77c0.53-0.06,0.93-0.53,0.89-1.06l0.32-1.45"/>
<path class="st2" d="M49.65,18.94c0,0-6-0.15-6.86,4.67"/>
<path class="st2" d="M36.99,27.14c0.54,0.66,4.18,3,6.38,3.14"/>
<path class="st2" d="M47.9,30.85c1.48-0.54,2.8-5.11,2.8-5.11c1.08-3.5,5.08-5.21,5.72-5.47h0.19l0,0c1.18-0.11,2.04-1.16,1.93-2.33
	c-0.09-0.91-0.74-1.66-1.63-1.88c-0.68-0.12-1.37-0.15-2.06-0.09h-0.17c-2.18,0.79-4.17,2.05-5.83,3.67"/>
<path class="st0" d="M7.63,65.79L4.36,76.62l10.62,19.86l-2-19.54c0,0,0.31-2.84,0.32-2.88l3-23.08c0.07-0.33-0.11-0.66-0.42-0.78
	l-3.52-1.43c-0.35-0.14-0.76,0.03-0.9,0.38c-0.01,0.03-0.02,0.07-0.03,0.11L7.65,65.64C7.65,65.7,7.64,65.75,7.63,65.79z"/>
<path class="st3" d="M33.87,60.22c0.6,0.51,0.67,1.4,0.17,2c-0.24,0.29-0.59,0.47-0.97,0.5c-0.22,0.04-0.45-0.03-0.63-0.17
	c-3.2-2.47-7.18-3.68-11.21-3.43c-0.23,0.02-0.45-0.06-0.61-0.22c-0.61-0.48-0.73-1.36-0.25-1.98c0.25-0.32,0.62-0.51,1.02-0.54
	c4.46-0.2,8.86,1.15,12.45,3.81L33.87,60.22z"/>
<line class="st4" x1="34.28" y1="160.49" x2="30.8" y2="160.41"/>
<line class="st4" x1="36.49" y1="155.65" x2="33.6" y2="155.39"/>
<path class="st0" d="M24.43,118.69l-1.63,16.42l12.56,12.58c1.84,4.58,3.18,1,4-0.75l-11.08-13.85l3.66-13.91"/>
<path class="st5" d="M39.36,146.56l7.66,5.31c0,0,2,7.43-17.64,19.06l-1.62-2.9c0,0-1.89-2.53,3.82-8.82l2-3.82v-8.23L39.36,146.56z
	"/>
<line class="st4" x1="34.28" y1="160.49" x2="30.8" y2="160.41"/>
<line class="st4" x1="36.49" y1="155.65" x2="33.6" y2="155.39"/>
<line class="st4" x1="96.65" y1="135.94" x2="98.64" y2="133.08"/>
<line class="st4" x1="91.44" y1="134.88" x2="92.93" y2="132.38"/>
<path class="st0" d="M61.82,108.5l15.69,5.11l6.5,16.11c3.26,3.7-0.52,3.29-2.47,3.22l-8.08-15.11l-14.22-2.25"/>
<path class="st5" d="M81.2,132.78l4,9c0,0,12.34,4.43,23.13-4.3l-1.39-3c0,0-1.27-2.37-9.72-1.47l-4.27-0.63l-8.59-4.51L81.2,132.78
	z"/>
<line class="st4" x1="96.65" y1="135.94" x2="98.64" y2="133.08"/>
<line class="st4" x1="91.44" y1="134.88" x2="92.93" y2="132.38"/>
<polygon class="st5" points="62.27,83.89 59.4,66.5 11.39,74.4 15.02,96.48 17.72,112.88 19.3,122.45 67.31,114.55 65.57,103.95 "/>
<path class="st6" d="M31.23,82.36c-0.57-0.42-0.7-1.23-0.28-1.8c0.23-0.32,0.6-0.51,0.99-0.53l-0.52-3.16
	c-0.17-1.02-1.13-1.71-2.15-1.54s-1.71,1.13-1.54,2.15l0,0l1.74,10.56c0.17,1.02,1.13,1.71,2.15,1.54c1.02-0.17,1.71-1.13,1.54-2.15
	l-0.81-4.89C31.97,82.66,31.56,82.59,31.23,82.36z"/>
<path class="st5" d="M28.27,72.77c1.98-0.33,3.97,0.48,5.16,2.09l-1.36-8.26c-0.42-2.55-2.83-4.28-5.38-3.86c0,0,0,0,0,0l0,0
	c-2.55,0.42-4.28,2.83-3.86,5.38c0,0,0,0,0,0l1.32,8C24.83,74.35,26.4,73.08,28.27,72.77z"/>
<path class="st7" d="M42.62,89.53l-3.95-24c-0.42-2.55,1.31-4.96,3.86-5.38c0,0,0,0,0,0l0,0c2.55-0.42,4.96,1.31,5.38,3.86
	c0,0,0,0,0,0l3.95,24L42.62,89.53z"/>
<path class="st7" d="M26.78,92.14l-4-24c-0.42-2.55,1.31-4.96,3.86-5.38c0,0,0,0,0,0l0,0c2.55-0.42,4.96,1.31,5.38,3.86c0,0,0,0,0,0
	l4,24L26.78,92.14z"/>
<path class="st6" d="M30.17,72.8c-0.57-0.4-0.71-1.2-0.3-1.77c0-0.01,0.01-0.01,0.01-0.02c0.23-0.33,0.6-0.52,1-0.54l-0.52-3.19
	c-0.17-1.02-1.13-1.71-2.15-1.54s-1.71,1.13-1.54,2.15l1.7,10.59c0.17,1.02,1.13,1.71,2.15,1.54s1.71-1.13,1.54-2.15l-0.81-4.89
	C30.88,73.09,30.49,73.03,30.17,72.8z"/>
<path class="st6" d="M45.95,69.8c-0.58-0.4-0.72-1.2-0.32-1.78c0.23-0.33,0.61-0.54,1.02-0.55l-0.52-3.16
	c-0.17-1.02-1.13-1.71-2.15-1.54c-1.02,0.17-1.71,1.13-1.54,2.15l1.73,10.56c0.17,1.02,1.13,1.71,2.15,1.54s1.71-1.13,1.54-2.15
	l-0.8-4.89C46.69,70.1,46.28,70.04,45.95,69.8z"/>
<circle class="st6" cx="48.45" cy="101.63" r="2.55"/>
<path class="st4" d="M48.45,96.84c2.73,0,4.95,2.21,4.96,4.94s-2.21,4.95-4.94,4.96c0,0-0.01,0-0.01,0"/>
<path class="st5" d="M40.05,95.28c1.28,0.55,2.7,0.66,4.05,0.3c1.92-0.48,4.26-2.18,3.71-4.45c-0.65-2.14-2.91-3.35-5.05-2.7
	c-0.13,0.04-0.25,0.08-0.38,0.14c-1.11,0.26-2.1,0.88-2.83,1.75"/>
<path class="st1" d="M24.21,33.37l-1.18,8.67c0.05,0.95-0.32,1.88-1,2.55l-0.76,0.74c-0.07,0.07-0.12,0.15-0.16,0.24l-1.57,3.94
	c0.09,0.45-0.1,0.92-0.48,1.18c-4.74,3.3-6.34,0.41-8.18-0.06c-0.52-0.12-0.86-0.62-0.77-1.15l-0.17-1.47
	c-1.47,0-2.28-3.12-2.38-3.54c0,0,0-0.06,0-0.1l-0.67-6.88c0-0.04,0-0.08,0-0.12l-2.6-9.23c-0.05-0.14-0.05-0.28,0-0.42l2.57-7.17
	c0.26-0.77,1.1-1.19,1.87-0.93c0,0,0,0,0.01,0c3,1.08,1.35,5,0.41,6.8c-0.31,0.63-0.31,1.37,0,2l1.35,3
	c0.15,0.35,0.56,0.51,0.91,0.36c0.03-0.01,0.06-0.03,0.09-0.05l0.43-0.25c0.18-0.1,0.31-0.28,0.34-0.48l1-6
	c0.11-0.5,0.32-0.97,0.64-1.38c0.86-1.12,3-4.12,3.44-4.51c0.88-1,1.68-0.33,1.68-0.33c3,1.81-1.38,6.76-1.54,7.07
	c-0.05,1.26-0.01,2.52,0.12,3.78l2.27-3.84c0.41-0.64,1.87-0.74,1.87-0.74l4.16-0.28c0.84,0.09,1.82,0.66,1.58,1.72
	c-0.1,0.45-0.26,0.88-0.48,1.28c-0.21,0.33-0.11,0.76,0.21,0.97c0.02,0.01,0.04,0.02,0.06,0.03l2.14,1.1c0.31,0.11,0.87,0.42,1,0.74
	c0.23,0.71,0.03,1.49-0.51,2c-0.58,0.55-1.39,0.78-2.18,0.63c-0.65-0.1-1.28-0.32-1.86-0.65c-0.3-0.19-0.69-0.14-0.92,0.13
	l-0.64,0.78"/>
<path class="st2" d="M6.89,37.43l-2.62-9.29c-0.05-0.14-0.05-0.28,0-0.42l2.57-7.17c0.26-0.77,1.1-1.19,1.87-0.93c0,0,0,0,0.01,0
	c3,1.08,1.35,5,0.41,6.8c-0.31,0.63-0.31,1.37,0,2l1.35,3c0.15,0.35,0.56,0.51,0.91,0.36c0.03-0.01,0.06-0.03,0.09-0.05l0.43-0.25
	c0.18-0.1,0.31-0.28,0.34-0.48l1-6c0.11-0.5,0.32-0.97,0.64-1.38c0.86-1.12,3-4.12,3.44-4.51c0.88-1,1.68-0.33,1.68-0.33
	c3,1.81-1.38,6.76-1.54,7.07c-0.05,1.26-0.01,2.52,0.12,3.78l2.27-3.84c0.41-0.64,1.87-0.74,1.87-0.74l4.16-0.28
	c0.84,0.09,1.82,0.66,1.58,1.72c-0.52,2.27-3.11,2.64-4.17,2.69c-0.28,0.01-0.53,0.19-0.62,0.46l-0.92,2.56"/>
<path class="st2" d="M26.36,28.28l3,1.53c0.31,0.11,0.87,0.42,1,0.74c0.23,0.71,0.03,1.49-0.51,2c-0.58,0.55-1.39,0.78-2.18,0.63
	c-0.65-0.1-1.28-0.32-1.86-0.65c-0.3-0.19-0.69-0.14-0.92,0.13l-0.51,0.63c-0.08,0.1-0.14,0.21-0.16,0.34l-1.15,8.48
	c0.05,0.95-0.32,1.88-1,2.55l-0.76,0.74c-0.07,0.07-0.12,0.15-0.16,0.24l-1.57,3.94c0.09,0.45-0.1,0.92-0.48,1.18
	c-4.74,3.3-6.34,0.41-8.18-0.06c-0.52-0.12-0.86-0.62-0.77-1.15l-0.17-1.47"/>
<path class="st2" d="M9.43,35.98c0,0,6,0.46,6.34,5.35"/>
<path class="st2" d="M21.19,45.44c-0.6,0.59-4.47,2.52-6.67,2.47"/>
<path class="st2" d="M9.96,48.01c-1.42-0.69-2.27-5.37-2.27-5.37c-0.72-3.59-4.51-5.7-5.13-6c-0.06-0.02-0.12-0.04-0.18-0.06l0,0
	c-1.16-0.21-1.92-1.32-1.71-2.48c0.17-0.92,0.91-1.62,1.84-1.73c0.69-0.06,1.38-0.02,2.06,0.12h0.17c2.08,1.02,3.93,2.47,5.41,4.25"
	/>
</svg>
