<svg id="Layer_1" data-name="Layer 1" xmlns="http://www.w3.org/2000/svg" viewBox="0 0 1002 273"><defs><style>.cls-1{fill:#71d1e5;}.cls-2{fill:#43c5e6;}.cls-3{fill:#28aabc;}.cls-4{fill:#8dd3f5;}.cls-5{fill:#16bce0;}.cls-6{fill:#fff;opacity:0.7;}.cls-7{fill:#aedfec;}.cls-8{fill:#00384b;}</style></defs><path class="cls-1" d="M0,0V273H1002V0"/><polyline class="cls-2" points="455.59 273 455.59 236.61 393.19 236.61 393.19 174.4 382.26 174.4 382.26 160.07 375.35 160.07 375.35 149.46 354.63 149.46 354.63 160.07 347.73 160.07 347.73 174.4 334.49 174.4 334.49 273 315.75 273 315.75 213.13 243.81 213.13 243.81 216.43 236.78 216.43 236.78 201.24 230.15 201.24 230.15 181.98 226.73 181.98 226.73 173.96 224.32 173.96 224.32 181.98 220.91 181.98 220.91 201.24 214.28 201.24 214.28 216.43 204.63 216.43 204.63 236.47 131.02 236.47 131.02 273"/><polyline class="cls-2" points="722.41 273 722.41 253.63 663.15 253.63 663.15 130.29 652.09 130.29 652.09 116.93 645.11 116.93 645.11 107.04 624.16 107.04 624.16 116.93 617.18 116.93 617.18 130.29 603.8 130.29 603.8 190.01 578.89 190.01 578.89 181.98 575.47 181.98 575.47 135.43 573.06 135.43 573.06 181.98 569.64 181.98 569.64 190.01 526.57 190.01 526.57 273"/><polygon class="cls-3" points="276.92 273 427.46 273 427.46 249.45 356.48 249.45 356.48 130.17 313.4 130.17 313.4 121.42 309.99 121.42 309.99 70.75 307.57 70.75 307.57 121.42 304.16 121.42 304.16 130.17 276.92 130.17 276.92 273"/><rect class="cls-4" x="294.94" y="233.75" width="5.84" height="12.75"/><rect class="cls-4" x="294.94" y="201.75" width="5.84" height="12.75"/><rect class="cls-4" x="313.81" y="201.75" width="5.84" height="12.75"/><rect class="cls-4" x="294.94" y="169.76" width="5.84" height="12.75"/><rect class="cls-4" x="313.81" y="169.76" width="5.84" height="12.75"/><rect class="cls-4" x="333.35" y="169.76" width="5.84" height="12.75"/><polygon class="cls-5" points="976.94 273 976.94 233.81 940.65 233.81 940.65 212.19 911.64 212.19 911.64 153.51 892.58 153.51 892.58 122.1 878.92 122.1 878.92 98.69 869.53 98.69 856.44 98.69 847.05 98.69 847.05 122.1 833.39 122.1 833.39 153.51 814.32 153.51 814.32 194.15 806.17 194.15 806.17 111.77 747.09 111.77 747.09 273 976.94 273"/><rect class="cls-4" x="862.13" y="209.53" width="5.84" height="12.75"/><rect class="cls-4" x="832.05" y="181.34" width="5.84" height="12.75"/><rect class="cls-4" x="841.88" y="225.16" width="5.84" height="12.75"/><rect class="cls-4" x="880.93" y="178.41" width="5.84" height="12.75"/><rect class="cls-4" x="883.02" y="232.1" width="5.84" height="12.75"/><rect class="cls-4" x="873.6" y="140.85" width="5.84" height="12.75"/><rect class="cls-4" x="846.82" y="149.06" width="5.84" height="12.75"/><polygon class="cls-5" points="257.14 273 257.14 53.45 246.05 53.45 246.05 41.42 240.27 41.42 240.27 32.5 222.92 32.5 222.92 41.42 217.14 41.42 217.14 53.45 207.98 53.45 207.98 164.65 158.89 164.65 158.89 273 257.14 273"/><rect class="cls-4" x="229.17" y="125.79" width="4.83" height="8.8"/><rect class="cls-4" x="187.71" y="206.66" width="4.83" height="10.56"/><rect class="cls-4" x="229.17" y="103.69" width="4.83" height="8.8"/><rect class="cls-4" x="187.71" y="180.16" width="4.83" height="10.56"/><rect class="cls-4" x="229.17" y="81.59" width="4.83" height="8.8"/><rect class="cls-3" x="722.94" y="196.65" width="53.92" height="76.35"/><rect class="cls-4" x="739.34" y="212.35" width="4.25" height="9.29"/><rect class="cls-4" x="752.92" y="212.35" width="4.25" height="9.29"/><rect class="cls-4" x="752.92" y="236.13" width="4.25" height="9.29"/><rect class="cls-3" x="501.23" y="196.65" width="53.92" height="76.35"/><rect class="cls-4" x="517.63" y="212.35" width="4.25" height="9.29"/><rect class="cls-4" x="531.21" y="212.35" width="4.25" height="9.29"/><rect class="cls-4" x="531.21" y="236.13" width="4.25" height="9.29"/><rect class="cls-3" x="922.26" y="253.63" width="79.74" height="19.37"/><rect class="cls-3" y="253.63" width="103.51" height="19.37"/><path class="cls-6" d="M720.78,65.59a7.29,7.29,0,0,0-7.37-7.22,7.47,7.47,0,0,0-4.13,1.24,8.92,8.92,0,0,0-9-8.2,9.07,9.07,0,0,0-5.68,2,14.22,14.22,0,0,0-13.35-9.14,14.07,14.07,0,0,0-14.21,13.93,14.27,14.27,0,0,0,.14,2,8.17,8.17,0,0,0-2.23-.31,8.18,8.18,0,1,0,0,16.36,8.53,8.53,0,0,0,2.16-.29,7.17,7.17,0,0,0,14,3,11.48,11.48,0,0,0,18.73.23,7.71,7.71,0,0,0,6.62,3.71,7.61,7.61,0,0,0,7.69-7.54,7.38,7.38,0,0,0-.44-2.5A7.28,7.28,0,0,0,720.78,65.59Z"/><path class="cls-7" d="M261,1.25c0,13.54,13.88,33.52,27.3,33.52A23.94,23.94,0,0,0,302,30.55a29.8,29.8,0,0,0,29.61,27.87,29.45,29.45,0,0,0,18.77-6.74,46.92,46.92,0,0,0,90.47-22.93,27.14,27.14,0,0,0,7.36,1A27.65,27.65,0,0,0,475.7,2"/><rect class="cls-4" x="172.08" y="233.17" width="4.83" height="10.56"/><rect class="cls-4" x="172.08" y="180.16" width="4.83" height="10.56"/><path class="cls-8" d="M980.76,217C471.37,217-4.72,193.28-9.58,193v-5c4.86.24,481.12,24,990.34,24,10.21,0,20.59,0,30.82,0v5C1001.37,217,990.94,217,980.76,217Z"/></svg>