<?xml version="1.0" encoding="utf-8"?>
<!-- Generator: Adobe Illustrator 24.1.2, SVG Export Plug-In . SVG Version: 6.00 Build 0)  -->
<svg version="1.1" xmlns="http://www.w3.org/2000/svg" xmlns:xlink="http://www.w3.org/1999/xlink" x="0px" y="0px"
	 viewBox="0 0 1002 273" style="enable-background:new 0 0 1002 273;" xml:space="preserve">
<style type="text/css">
	.st0{display:none;}
	.st1{display:inline;fill:#39DEDB;}
	.st2{display:inline;}
	.st3{fill:#298E71;}
	.st4{display:inline;fill:#29993A;}
	.st5{display:inline;opacity:0.57;fill:#298E71;}
	.st6{fill:#00A0A8;}
	.st7{fill:#16A1A2;}
	.st8{fill:#43C5E6;}
	.st9{display:inline;fill:#169CAC;}
	.st10{display:inline;opacity:0.5;fill:#43C5E6;}
	.st11{display:inline;fill:#118397;}
	.st12{display:inline;fill:#1FAEDC;}
	.st13{display:inline;opacity:0.7;fill:#FFFFFF;}
	.st14{display:inline;fill:#AEDFEC;}
	.st15{display:inline;fill:#137594;}
	.st16{display:inline;fill:#71D1E5;}
	.st17{display:inline;fill:#B1E7F4;}
	.st18{fill:#FFFFFF;}
	.st19{fill:none;}
	.st20{fill:#29B8D4;}
	.st21{fill:#51C2DF;}
	.st22{fill:#7ACDE9;}
	.st23{fill:#FFD80E;}
	.st24{fill:#AEDFEC;}
	.st25{opacity:0.19;fill:#FFFFFF;}
	.st26{fill:#71D1E5;}
	.st27{display:inline;fill:#43C5E6;}
	.st28{display:inline;fill:#28AABC;}
	.st29{display:inline;fill:#8DD3F5;}
	.st30{display:inline;fill:#16BCE0;}
	.st31{opacity:0.7;fill:#FFFFFF;}
	.st32{fill:#007C76;}
	.st33{display:inline;fill:#005967;}
	.st34{display:inline;opacity:0.8;fill:#04A5BF;}
	.st35{display:inline;fill:#74C400;}
	.st36{display:inline;opacity:0.5;fill:#16BCE0;}
	.st37{display:inline;fill:#3AB354;}
	.st38{fill:#74C400;}
	.st39{fill:#056C77;}
	.st40{opacity:0.6;fill:none;stroke:#74C400;stroke-miterlimit:10;}
	.st41{display:inline;opacity:0.3;fill:none;stroke:#16BCE0;stroke-width:0.8422;stroke-miterlimit:10;}
	.st42{display:inline;opacity:0.5;fill:none;stroke:#16BCE0;stroke-width:1.4221;stroke-miterlimit:10;}
	.st43{display:inline;opacity:0.5;fill:none;stroke:#16BCE0;stroke-width:0.711;stroke-miterlimit:10;}
	.st44{display:inline;opacity:0.3;fill:none;stroke:#16BCE0;stroke-width:0.711;stroke-miterlimit:10;}
	.st45{display:inline;opacity:0.7;fill:none;stroke:#16BCE0;stroke-width:0.8422;stroke-miterlimit:10;}
	.st46{display:inline;opacity:0.3;fill:none;stroke:#16BCE0;stroke-width:1.4221;stroke-miterlimit:10;}
	.st47{display:inline;opacity:0.7;fill:none;stroke:#16BCE0;stroke-width:0.711;stroke-miterlimit:10;}
	.st48{display:inline;fill:none;stroke:#16BCE0;stroke-width:0.8422;stroke-miterlimit:10;}
	.st49{fill:#1C536A;}
	.st50{fill:#00384B;}
	.st51{fill:#006F8C;}
	.st52{fill:#04A5BF;}
	.st53{display:inline;fill:#51BB53;}
	.st54{display:inline;opacity:0.2;fill:#FFFFFF;}
	.st55{fill:#118397;}
	.st56{display:inline;fill:#5DAE5A;}
	.st57{display:inline;opacity:0.5;fill:#29993A;}
	.st58{fill:#F58500;stroke:#00384B;stroke-width:1.4983;stroke-linecap:round;stroke-linejoin:round;stroke-miterlimit:10;}
	.st59{display:inline;fill:#62B75E;}
	.st60{opacity:0.5;fill:#78E1EF;}
	.st61{fill:#E0DB2B;}
	.st62{fill:#5DAE5A;}
	.st63{fill:#29993A;}
	.st64{display:inline;fill:#1C536A;}
	.st65{display:inline;fill:#FFFFFF;}
	.st66{fill:#56B944;}
	.st67{fill:#28AC21;}
	.st68{fill:none;stroke:#FDBA00;stroke-width:1.4987;stroke-linecap:round;stroke-linejoin:round;}
	
		.st69{fill:none;stroke:#FDBA00;stroke-width:1.4987;stroke-linecap:round;stroke-linejoin:round;stroke-dasharray:8.8411,8.8411,8.8411,8.8411;}
	
		.st70{fill:none;stroke:#FDBA00;stroke-width:1.4987;stroke-linecap:round;stroke-linejoin:round;stroke-dasharray:8.8411,8.8411,8.8411,8.8411,8.8411,8.8411;}
	.st71{display:inline;fill:#4DB9D3;}
	.st72{display:inline;fill:#2EACC1;}
	.st73{display:inline;fill:#298E71;}
	.st74{display:inline;fill:#3A5C6A;}
	.st75{fill:#C6BE30;}
	.st76{display:inline;fill:none;stroke:#FFFFFF;stroke-width:0.9987;stroke-miterlimit:10;}
	.st77{display:inline;fill:#56B944;}
	.st78{display:inline;fill:#28AC21;}
	.st79{fill:#4DB9D3;}
	.st80{fill:#5FC9E5;}
	.st81{display:inline;fill:#E0DB2B;}
	.st82{display:inline;fill:#006F8C;}
	.st83{display:inline;opacity:0.47;}
	.st84{fill:url(#SVGID_1_);}
	.st85{fill:url(#SVGID_2_);}
	.st86{fill:url(#SVGID_3_);}
	.st87{fill:url(#SVGID_4_);}
	.st88{fill:#33913E;}
	.st89{fill:#3A5C6A;}
	.st90{display:inline;fill:#606060;}
	.st91{fill:#F7A841;}
	.st92{fill:#183F4C;}
	.st93{fill:#FFFFFF;stroke:#183F4C;stroke-width:0.826;stroke-linecap:round;stroke-linejoin:round;stroke-miterlimit:10;}
	.st94{fill:#E2AED1;stroke:#183F4C;stroke-width:0.7567;stroke-miterlimit:10;}
	.st95{fill:none;stroke:#183F4C;stroke-width:0.7567;stroke-linecap:round;stroke-linejoin:round;stroke-miterlimit:10;}
	.st96{fill:#FFFFFF;stroke:#183F4C;stroke-width:0.7567;stroke-linecap:round;stroke-linejoin:round;stroke-miterlimit:10;}
	.st97{fill:#F7A841;stroke:#183F4C;stroke-width:0.7567;stroke-linecap:round;stroke-linejoin:round;stroke-miterlimit:10;}
	.st98{fill:#FFFFFF;stroke:#000000;stroke-width:0.1261;stroke-linecap:round;stroke-linejoin:round;stroke-miterlimit:10;}
	.st99{fill:#F2C341;}
	.st100{display:inline;fill:#F9E8BD;}
	.st101{display:inline;fill:#2EC6DB;}
	.st102{display:inline;opacity:0.7;fill:#F0F7FC;}
	.st103{display:inline;opacity:0.8;fill:#1194A5;}
	.st104{display:inline;fill:#E2D7B6;}
	.st105{fill:#D4C5A2;}
	.st106{display:inline;fill:#F6F1ED;}
	.st107{display:inline;fill:#87CDD6;}
	.st108{display:inline;opacity:0.7;fill:#F6F1ED;}
	.st109{display:inline;fill:#4C7576;}
	.st110{display:inline;fill:#F4A051;}
	.st111{display:inline;fill:#1D1D1B;}
	
		.st112{display:inline;opacity:0.5;fill:none;stroke:#FFFFFF;stroke-width:0.1337;stroke-linecap:round;stroke-linejoin:round;stroke-miterlimit:10;}
	.st113{display:inline;fill:#FFFFFF;stroke:#1D1D1B;stroke-width:0.1337;stroke-miterlimit:10;}
	.st114{fill:#B0B0B0;}
	.st115{fill:#D8D8D8;}
	.st116{display:inline;fill:#F5A84C;}
	.st117{display:inline;fill:#1B3F4B;}
	.st118{display:inline;fill:#447584;}
	.st119{fill-rule:evenodd;clip-rule:evenodd;fill:#D2E200;stroke:#6D6721;stroke-miterlimit:10;}
	.st120{fill-rule:evenodd;clip-rule:evenodd;fill:#00AD00;}
	.st121{fill-rule:evenodd;clip-rule:evenodd;fill:#00DB00;}
	.st122{fill-rule:evenodd;clip-rule:evenodd;fill:#168900;}
	.st123{fill-rule:evenodd;clip-rule:evenodd;fill:#B7FC00;}
	.st124{fill-rule:evenodd;clip-rule:evenodd;fill:#A5E300;stroke:#6D6721;stroke-miterlimit:10;}
	.st125{fill-rule:evenodd;clip-rule:evenodd;fill:#A5E300;stroke:#5B5722;stroke-miterlimit:10;}
	.st126{fill-rule:evenodd;clip-rule:evenodd;fill:#D2E200;stroke:#5B5722;stroke-miterlimit:10;}
	
		.st127{display:inline;fill:#E1B0D1;stroke:#1B3F4B;stroke-width:1.5;stroke-linecap:round;stroke-linejoin:round;stroke-miterlimit:10;}
	
		.st128{display:inline;fill:#FFFFFF;stroke:#183F4C;stroke-width:1.8838;stroke-linecap:round;stroke-linejoin:round;stroke-miterlimit:10;}
	.st129{fill:#F2A059;}
	.st130{fill:none;stroke:#1B3F4B;stroke-width:1.1363;stroke-linecap:round;stroke-linejoin:round;stroke-miterlimit:10;}
	.st131{fill:#F5A84C;stroke:#1B3F4B;stroke-width:1.1363;stroke-linecap:round;stroke-linejoin:round;stroke-miterlimit:10;}
	.st132{fill:#E1B0D1;stroke:#1B3F4B;stroke-width:1.1363;stroke-miterlimit:10;}
	.st133{fill:#FFFFFF;stroke:#1B3F4B;stroke-width:1.1363;stroke-linecap:round;stroke-linejoin:round;stroke-miterlimit:10;}
	.st134{fill:none;stroke:#000000;stroke-width:1.1363;stroke-linecap:round;stroke-linejoin:round;stroke-miterlimit:10;}
	.st135{fill:#1B3F4B;}
	.st136{fill:#FDCC45;stroke:#1B3F4B;stroke-width:1.0603;stroke-linecap:round;stroke-linejoin:round;stroke-miterlimit:10;}
	.st137{fill:#F5C445;stroke:#1B3F4B;stroke-linecap:round;stroke-linejoin:round;stroke-miterlimit:10;}
	
		.st138{display:inline;fill:#F5C445;stroke:#1B3F4B;stroke-width:1.0603;stroke-linecap:round;stroke-linejoin:round;stroke-miterlimit:10;}
	.st139{display:inline;fill:#22494F;stroke:#22494F;stroke-width:0.9258;stroke-miterlimit:10;}
	
		.st140{display:inline;fill:none;stroke:#1B3F4B;stroke-width:1.0603;stroke-linecap:round;stroke-linejoin:round;stroke-miterlimit:10;}
	.st141{clip-path:url(#SVGID_6_);}
	.st142{fill:#FFFFFF;stroke:#1B3F4B;stroke-width:1.0603;stroke-linecap:round;stroke-linejoin:round;stroke-miterlimit:10;}
	.st143{fill:#F5A84C;stroke:#1B3F4B;stroke-width:1.0603;stroke-linecap:round;stroke-linejoin:round;stroke-miterlimit:10;}
	.st144{fill:#F5A84C;stroke:#1B3F4B;stroke-width:1.2;stroke-linecap:round;stroke-linejoin:round;stroke-miterlimit:10;}
	.st145{fill:#E1B0D1;stroke:#1B3F4B;stroke-width:1.2;stroke-linecap:round;stroke-linejoin:round;stroke-miterlimit:10;}
	.st146{fill:#FFFFFF;stroke:#1B3F4B;stroke-width:1.2;stroke-linecap:round;stroke-linejoin:round;stroke-miterlimit:10;}
	.st147{fill:none;stroke:#1B3F4B;stroke-width:1.2;stroke-linecap:round;stroke-linejoin:round;stroke-miterlimit:10;}
	.st148{fill:#417C47;}
	.st149{fill:#54995F;}
	.st150{fill:#68B171;stroke:#68B171;stroke-width:1.1;stroke-miterlimit:10;}
	.st151{fill:none;stroke:#1B3F4B;stroke-width:1.1;stroke-linecap:round;stroke-linejoin:round;stroke-miterlimit:10;}
	.st152{fill:#E1B0D1;stroke:#1B3F4B;stroke-width:1.1;stroke-miterlimit:10;}
	.st153{fill:#FFFFFF;stroke:#1B3F4B;stroke-width:1.1;stroke-linecap:round;stroke-linejoin:round;stroke-miterlimit:10;}
	.st154{fill:#F5A84C;stroke:#1B3F4B;stroke-width:1.1;stroke-linecap:round;stroke-linejoin:round;stroke-miterlimit:10;}
	.st155{fill:none;stroke:#000000;stroke-width:1.1;stroke-linecap:round;stroke-linejoin:round;stroke-miterlimit:10;}
	.st156{fill:none;stroke:#1B3F4B;stroke-width:1.166;stroke-linecap:round;stroke-linejoin:round;stroke-miterlimit:10;}
	.st157{fill:#E1B0D1;stroke:#1B3F4B;stroke-width:1.4472;stroke-linecap:round;stroke-linejoin:round;stroke-miterlimit:10;}
	.st158{fill:#F5A84C;stroke:#1B3F4B;stroke-width:1.4472;stroke-linecap:round;stroke-linejoin:round;stroke-miterlimit:10;}
	.st159{fill:#FFFFFF;stroke:#1B3F4B;stroke-width:1.4472;stroke-linecap:round;stroke-linejoin:round;stroke-miterlimit:10;}
	.st160{fill:none;stroke:#1B3F4B;stroke-width:1.4472;stroke-linecap:round;stroke-linejoin:round;stroke-miterlimit:10;}
	.st161{fill:#1B3F4B;stroke:#1B3F4B;stroke-width:1.4472;stroke-linecap:round;stroke-linejoin:round;stroke-miterlimit:10;}
	.st162{fill:#F5A84C;stroke:#1B3F4B;stroke-width:1.5;stroke-linecap:round;stroke-linejoin:round;stroke-miterlimit:10;}
	.st163{fill:#FFFFFF;stroke:#1B3F4B;stroke-width:1.5;stroke-miterlimit:10;}
	.st164{fill:#1B3F4B;stroke:#1B3F4B;stroke-width:1.5;stroke-linecap:round;stroke-linejoin:round;stroke-miterlimit:10;}
	.st165{fill:#E1B0D1;stroke:#1B3F4B;stroke-width:1.5;stroke-miterlimit:10;}
	.st166{fill:none;stroke:#000000;stroke-width:1.5;stroke-linecap:round;stroke-linejoin:round;stroke-miterlimit:10;}
	.st167{fill:#FFFFFF;stroke:#1B3F4B;stroke-width:1.5;stroke-linecap:round;stroke-linejoin:round;stroke-miterlimit:10;}
	.st168{fill:none;stroke:#1B3F4B;stroke-width:1.5;stroke-linecap:round;stroke-linejoin:round;stroke-miterlimit:10;}
	.st169{fill:#FFFFFF;stroke:#000000;stroke-width:1.5;stroke-linecap:round;stroke-linejoin:round;stroke-miterlimit:10;}
	.st170{fill:#E1B0D1;stroke:#1B3F4B;stroke-width:1.5;stroke-linecap:round;stroke-linejoin:round;stroke-miterlimit:10;}
	.st171{fill:#183F4C;stroke:#183F4C;stroke-width:1.1;stroke-miterlimit:10;}
	.st172{fill:#F7A841;stroke:#183F4C;stroke-width:1.1;stroke-linecap:round;stroke-linejoin:round;stroke-miterlimit:10;}
	.st173{fill:#FFFFFF;stroke:#183F4C;stroke-width:1.1;stroke-linecap:round;stroke-linejoin:round;stroke-miterlimit:10;}
	.st174{fill:#EEEDEC;stroke:#183F4C;stroke-width:1.1;stroke-linecap:round;stroke-linejoin:round;stroke-miterlimit:10;}
	.st175{fill:#E8D310;stroke:#183F4C;stroke-width:1.1;stroke-linecap:round;stroke-linejoin:round;stroke-miterlimit:10;}
	.st176{fill:#F5A84C;stroke:#1B3F4B;stroke-width:1.2445;stroke-linecap:round;stroke-linejoin:round;stroke-miterlimit:10;}
	.st177{fill:#E1B0D1;stroke:#1B3F4B;stroke-width:1.2445;stroke-miterlimit:10;}
	.st178{fill:#E1B0D1;stroke:#1B3F4B;stroke-width:1.2679;stroke-miterlimit:10;}
	.st179{display:inline;fill:none;stroke:#000000;stroke-width:0.2669;stroke-miterlimit:10;}
	.st180{fill:#E1B0D1;stroke:#1B3F4B;stroke-width:1.2069;stroke-miterlimit:10;}
	.st181{fill:none;stroke:#000000;stroke-width:0.2835;stroke-miterlimit:10;}
	.st182{fill:#FFFFFF;stroke:#1B3F4B;stroke-width:1.2746;stroke-linecap:round;stroke-linejoin:round;stroke-miterlimit:10;}
	.st183{fill:#F5A84C;stroke:#1B3F4B;stroke-width:1.2069;stroke-linecap:round;stroke-linejoin:round;stroke-miterlimit:10;}
	.st184{fill:#FFFFFF;stroke:#1B3F4B;stroke-width:1.2069;stroke-linecap:round;stroke-linejoin:round;stroke-miterlimit:10;}
	.st185{fill:none;stroke:#1B3F4B;stroke-width:1.2069;stroke-linecap:round;stroke-linejoin:round;stroke-miterlimit:10;}
	.st186{fill:#063A52;}
	.st187{fill:#E1B0D1;stroke:#1B3F4B;stroke-width:1.045;stroke-miterlimit:10;}
	.st188{fill:none;stroke:#000000;stroke-width:1.045;stroke-linecap:round;stroke-linejoin:round;stroke-miterlimit:10;}
	.st189{fill:#F5A84C;stroke:#1B3F4B;stroke-width:1.045;stroke-linecap:round;stroke-linejoin:round;stroke-miterlimit:10;}
	.st190{fill:none;stroke:#1B3F4B;stroke-width:1.045;stroke-linecap:round;stroke-linejoin:round;stroke-miterlimit:10;}
	.st191{fill:#FFFFFF;stroke:#1B3F4B;stroke-width:1.045;stroke-linecap:round;stroke-linejoin:round;stroke-miterlimit:10;}
</style>
<g id="Layer_1" class="st0">
	<path class="st1" d="M0.48,0.23v272.91h1001.99V0.23L0.48,0.23z"/>
	<g class="st2">
		<polygon class="st3" points="1002.47,262.42 862.07,273.13 1002.47,273.13 		"/>
		<path class="st3" d="M1002.47,110.53c-66.51-6.32-133.2-3.33-204.41,10.11c-102.4,19.32-204.22,58.55-306.5,48.6
			c-53.1-5.17-101.8-23.59-156.32-20.46c-52.7,3.03-98.58,25.4-145.31,42.68c-58.66,21.69-123.52,35.99-189.45,42.48v39.21h861.59
			l140.4-10.71V110.53z"/>
	</g>
	<path class="st4" d="M209.1,65.53c-0.32,0-0.62,0.03-0.94,0.04c0.42-1.47,0.73-2.99,0.82-4.57c0.75-13.51-11.51-24.98-27.38-25.61
		c-12.86-0.52-24.15,6.23-28.37,15.99c-2.75-2.22-6.4-3.65-10.48-3.81c-9.05-0.37-16.73,5.58-17.15,13.28
		c-0.13,2.37,0.44,4.63,1.56,6.64c-0.52-0.05-1.04-0.11-1.58-0.13c-15.38-0.62-28.43,9.49-29.16,22.57
		c-0.73,13.08,11.15,24.2,26.53,24.81c1.61,0.06,3.2-0.01,4.74-0.17c6.87,13.58,22.38,23.38,40.91,24.13
		c15.1,0.61,28.86-4.93,37.96-14.02c0.85,0.06,1.69,0.11,2.56,0.11c19.24,0,34.83-13.27,34.83-29.64
		C243.93,78.8,228.34,65.53,209.1,65.53z"/>
	<path class="st4" d="M41.04-3.07C40.52-3.12,40-2.21,39.47-2.23C24.09-2.85,11.03,7.26,10.3,20.34
		c-0.73,13.08,11.15,24.2,26.53,24.81c1.61,0.06,3.2-0.01,4.74-0.17c6.87,13.58,22.38,23.38,40.91,24.13
		c15.1,0.61,28.86-4.93,37.96-14.02c0.85,0.06,1.69,0.11,2.56,0.11c19.24,0,34.83-13.27,34.83-29.64
		c0-16.36-15.59-28.65-34.83-28.65c-0.32,0-0.62-0.95-0.94-0.94"/>
	<ellipse class="st5" cx="899.27" cy="249.91" rx="59.32" ry="11.67"/>
	<path class="st4" d="M60.64-0.25c4.13,22.92,8.32,45.33,45.86,59.19c11.74,23.7,38.09,37.83,65.42,32.91
		c11.68-2.11,21.96-7.42,30.14-14.85c11.45,11.81,27.48,19.15,45.22,19.15c0.38,0,0.75-0.02,1.13-0.03
		c11.81,23.53,38.05,37.53,65.28,32.62c11.68-2.11,21.96-7.42,30.14-14.85c11.45,11.81,27.48,19.15,45.22,19.15
		c15.36,0,29.43-5.5,40.37-14.63c29.53-24.03,28.05-21.57,52.71-19.74c32.34,2.4,98.82,20.06,141.16-21.98
		c-0.3,0.93-0.56,1.89-0.71,2.88c-2.12,13.36,8.9,26.02,24.63,28.27c12.74,1.82,24.65-3.74,29.85-13.02c2.51,2.49,6,4.29,10.04,4.86
		c8.96,1.29,17.21-3.84,18.42-11.46c0.32-1.98,0.12-3.92-0.5-5.75c0.49-0.22,0.97-0.45,1.45-0.68c7.59,1.02,14.87-0.65,20.49-4.21
		c10.75,8.53,24.33,13.64,39.11,13.64c31.17,0,57.04-22.63,62.11-52.36c8.34,0.45,16.78-1.02,24.58-4.46
		c22.82,13.38,52.6,10.74,72.75-8.37c8.61-8.17,14.29-15.58,17.06-26.28H60.64z"/>
	<g class="st2">
		<path class="st89" d="M509.58,79.82c11.74-4.1,25.91-11.73,40.01-25.83l-2.32-2.32c-18.78,18.78-37.78,25.91-51.81,28.4
			c7.63-17.83,16.24-25.91,16.36-26.02h0h0c0,0,0,0,0,0l-1.1-1.2l-1.12-1.22c-0.4,0.37-9.83,9.14-17.95,29.03
			c-3.61,0.46-6.79,0.62-9.46,0.63l-6.44-26.98c27.72-2.13,29.3-25.12,29.32-25.36l-3.28-0.18c-0.05,0.88-1.52,20.66-26.81,22.31
			l-6.98-29.27l-24.95,5.41l6.55,40.63c-13.91-0.7-24.15-8.48-30.44-23.21c-5.03-11.76-5.54-23.73-5.54-23.85l-3.28,0.12
			c0.02,0.5,2.26,48.97,39.8,50.26l4.2,26.03c-24.86-2.39-43.86-13.75-56.57-33.88c-10.8-17.1-12.76-34.46-12.78-34.64l-3.27,0.35
			c0.07,0.7,1.86,16.5,11.61,33.29c-24.72-1.85-42.98-25.96-43.17-26.21l-2.64,1.96c0.21,0.28,5.24,7,13.76,13.8
			c11.04,8.83,22.82,13.59,34.12,13.84c9.56,14.83,27.4,31.93,59.47,34.82L474.9,224.6h41.51L483,84.61
			c3.82-0.04,8.54-0.38,13.96-1.4c2.79-0.52,5.88-1.26,9.21-2.27c2.27,2.52,9.56,9.39,21.78,9.39c6.16,0,13.58-1.75,22.23-6.67
			l-1.63-2.86C526.5,93.35,513.76,84.01,509.58,79.82z"/>
		<path class="st89" d="M744.91,73.7c9.7-0.94,21.89-4.11,35.24-12.24l-1.34-2.2c-17.77,10.82-33.54,12.72-44.68,12.01
			c9.11-12.16,17.16-16.71,17.26-16.77l0,0l0,0c0,0,0,0,0,0l-0.62-1.12l-0.62-1.14c-0.38,0.21-9.17,5.15-19.03,18.77
			c-2.38-0.26-4.49-0.64-6.31-1.04l0-21.81c20.73,2.89,26.03-13.85,26.09-14.03l-2.46-0.74c-0.2,0.65-4.83,14.99-23.62,12.17l0-22.8
			l-23.08-1.98l-2.07,32.09c-9.38-3.45-15.12-11.06-17.06-22.69c-1.65-9.88,0.18-19.09,0.2-19.18l-2.52-0.51
			c-0.08,0.37-7.03,36.09,19.21,45.06l-1.33,20.59c-17.65-6.55-29.52-18.52-35.3-35.71c-5.05-15.01-3.34-28.6-3.32-28.73L657,11.37
			c-0.07,0.55-1.64,12.91,2.67,27.49c-18.48-5.98-27.91-27.72-28-27.94l-2.37,1c0.11,0.25,2.7,6.3,7.91,13.05
			c6.77,8.77,14.85,14.57,23.41,16.85c2.67,7.68,7.37,16.49,15.65,24.1c-2.21,0.67-8.83,2.27-18.19,0.86
			c-19.36-2.93-35.38-16.28-45.41-26.96l-1.88,1.76c16.1,17.16,31.06,24.12,42.02,26.78c1.8,0.44,3.49,0.76,5.06,0.99
			c12.18,1.8,19.83-1.18,20.15-1.31l-0.35-0.87c5.29,4.55,11.95,8.61,20.31,11.65l-7.42,115.15h34.24l-0.01-121.31
			c2.73,0.58,6.04,1.09,9.86,1.29c2.22,0.12,4.71,0.12,7.42-0.03c1.25,2.33,5.52,8.92,14.84,11.19c4.69,1.14,10.66,1.18,18.15-0.96
			l-0.71-2.47C755.27,87.15,747.3,77.65,744.91,73.7z"/>
		<path class="st89" d="M275.23,85.91c9.11-12.16,17.16-16.71,17.26-16.77l-1.24-2.26c-0.38,0.21-9.17,5.15-19.03,18.77
			c-3-0.33-5.58-0.84-7.68-1.36l0.39-21.65c21.54,3.56,27.01-13.69,27.07-13.87l-2.46-0.74c-0.2,0.66-4.99,15.46-24.56,12.01
			l0.27-15.05l-22.42-9.57l-2.52,31.93c-9.11-3.52-14.7-11.08-16.61-22.53c-1.65-9.88,0.18-19.09,0.2-19.18l-2.52-0.51
			c-0.08,0.37-6.93,35.63,18.72,44.88l-1.61,20.48c-17.22-6.61-28.83-18.47-34.53-35.41c-5.05-15.01-3.34-28.6-3.32-28.73L198.09,26
			c-0.07,0.55-1.64,12.91,2.67,27.49c-18.48-5.98-27.91-27.72-28-27.94l-2.37,1c0.11,0.25,2.7,6.3,7.91,13.05
			c6.77,8.77,14.85,14.57,23.41,16.85c2.67,7.68,7.37,16.49,15.65,24.1c-2.21,0.67-8.83,2.27-18.19,0.86
			c-19.36-2.93-35.38-16.28-45.41-26.96l-1.88,1.76c16.1,17.16,31.06,24.12,42.02,26.78c1.8,0.44,3.49,0.76,5.06,0.99
			c12.18,1.8,19.83-1.18,20.15-1.31l-0.35-0.87c5.12,4.41,11.51,8.35,19.5,11.35l2.51,106.12l33.21-12.6l-9.51-99.71
			c2.97,0.72,6.78,1.37,11.28,1.61c10.47,0.56,26.86-1.16,45.47-12.49l-1.34-2.2C302.13,84.71,286.37,86.61,275.23,85.91z"/>
		<polygon class="st89" points="291.87,68.01 292.49,69.14 292.49,69.13 		"/>
	</g>
	<g class="st2">
		<g>
			<g>
				<path class="st99" d="M965.25,181.72c-0.94-1.11-2.33-1.75-3.78-1.75H832.89c-1.46,0-2.84,0.64-3.78,1.75
					c-0.95,1.11-1.35,2.57-1.12,4.01c5.54,34.06,34.64,58.77,69.19,58.77c34.55,0,63.64-24.72,69.18-58.77
					C966.6,184.3,966.19,182.83,965.25,181.72z"/>
			</g>
		</g>
	</g>
	<ellipse class="st100" cx="881.49" cy="194.95" rx="11.9" ry="2.45"/>
	<ellipse class="st100" cx="907.4" cy="194.95" rx="11.9" ry="2.45"/>
	<ellipse class="st100" cx="933.3" cy="194.95" rx="11.9" ry="2.45"/>
	<ellipse class="st100" cx="870.29" cy="202.65" rx="11.9" ry="2.45"/>
	<ellipse class="st100" cx="896.2" cy="202.65" rx="11.9" ry="2.45"/>
	<ellipse class="st100" cx="922.1" cy="202.65" rx="11.9" ry="2.45"/>
	<ellipse class="st100" cx="881.49" cy="210.35" rx="11.9" ry="2.45"/>
	<ellipse class="st100" cx="907.4" cy="210.35" rx="11.9" ry="2.45"/>
	<ellipse class="st100" cx="933.3" cy="210.35" rx="11.9" ry="2.45"/>
	<ellipse class="st100" cx="896.2" cy="218.05" rx="11.9" ry="2.45"/>
	<ellipse class="st100" cx="922.1" cy="218.05" rx="11.9" ry="2.45"/>
	<ellipse class="st100" cx="907.4" cy="226.11" rx="11.9" ry="2.45"/>
</g>
<g id="Layer_4">
	<g>
		<path class="st119" d="M113.6,69.03c-0.79,0.03-1.98,0.73-4.31,0.49c-3.47-0.36-8.15-4.11-10.71-8.9
			c-7.93-14.82-2.49-24.18,2.7-26.31c5.18-2.12,9.29,0.29,12.57,0.29c3.28,0,7.38-2.41,12.57-0.29c5.18,2.12,10.63,11.48,2.7,26.31
			c-2.69,5.03-6.52,7.96-11.38,8.85C115.95,69.79,114.5,69,113.6,69.03z"/>
		<path class="st120" d="M113.63,35.51c0.1,0.18,0.61-1.1,0.61-1.18"/>
		<path class="st121" d="M114.53,38.09c-0.29-0.66-1.38-3.72-2.88-5.95c-1.49-2.24-5.21-4.91-9.56-4.3
			c-4.35,0.6-5.23,1.71-8.23,0.27c0.33,0.32,0.62,0.65,0.88,1.01c3.58,4.71,8.86,7.82,14.74,8.45L114.53,38.09z"/>
		<path class="st122" d="M114.25,39.03c0.87-0.18,0.11-1.37,0.67-3.15c0.68-2.16,2.19-3.29,1.36-3.79
			c-1.02-0.61-2.11,1.06-2.65,3.47C113.3,37.01,112.99,39.28,114.25,39.03z"/>
		<path class="st123" d="M121.84,46.23c1.78,0,3.23-1.45,3.23-3.24c0-1.78-1.45-3.23-3.23-3.23c-1.78,0-3.23,1.45-3.23,3.23
			C118.6,44.78,120.06,46.23,121.84,46.23z"/>
	</g>
	<g>
		<path class="st119" d="M331.68,96.65c-0.73,0.02-1.83,0.68-4,0.46c-3.21-0.33-7.55-3.81-9.93-8.25
			c-7.35-13.74-2.3-22.41,2.5-24.38c4.8-1.97,8.61,0.27,11.65,0.27s6.84-2.24,11.65-0.27c4.8,1.97,9.85,10.64,2.5,24.38
			c-2.5,4.66-6.04,7.38-10.55,8.2C333.86,97.35,332.52,96.62,331.68,96.65z"/>
		<path class="st120" d="M331.71,65.59c0.1,0.17,0.56-1.02,0.57-1.09"/>
		<path class="st121" d="M332.55,67.97c-0.27-0.61-1.28-3.44-2.66-5.52c-1.38-2.07-4.83-4.55-8.86-3.99
			c-4.03,0.56-4.85,1.59-7.63,0.25c0.3,0.29,0.57,0.6,0.82,0.93c3.32,4.36,8.21,7.25,13.66,7.83L332.55,67.97z"/>
		<path class="st122" d="M331.71,65.63c-0.31,1.35-0.59,3.45,0.58,3.21c0.81-0.16,0.1-1.27,0.62-2.91"/>
		<path class="st123" d="M339.32,75.52c1.65,0,3-1.35,3-3c0-1.65-1.35-3-3-3c-1.65,0-3,1.35-3,3
			C336.32,74.17,337.67,75.52,339.32,75.52z"/>
	</g>
	<g>
		<path class="st124" d="M779.81,36.64c-0.55,0.02-1.38,0.51-3,0.34c-2.41-0.25-5.67-2.86-7.46-6.2
			c-5.52-10.32-1.73-16.84,1.88-18.32c3.61-1.48,6.47,0.2,8.75,0.2s5.14-1.68,8.75-0.2c3.61,1.48,7.4,8,1.88,18.32
			c-1.88,3.51-4.54,5.54-7.93,6.16C781.45,37.17,780.44,36.62,779.81,36.64z"/>
		<path class="st120" d="M779.83,13.29c0.07,0.13,0.42-0.76,0.42-0.82"/>
		<path class="st121" d="M780.46,15.09c-0.2-0.46-0.96-2.59-2-4.15c-1.04-1.56-3.63-3.42-6.66-3c-3.03,0.42-3.64,1.19-5.73,0.19
			c0.23,0.22,0.43,0.45,0.62,0.7c2.49,3.28,6.17,5.45,10.27,5.88L780.46,15.09z"/>
		<path class="st122" d="M780.26,15.74c0.61-0.12,0.08-0.95,0.47-2.19c0.48-1.51,1.53-2.29,0.95-2.64
			c-0.71-0.42-1.47,0.74-1.85,2.42C779.6,14.34,779.39,15.92,780.26,15.74z"/>
		<path class="st123" d="M785.55,20.76c1.24,0,2.25-1.01,2.25-2.25c0-1.24-1.01-2.25-2.25-2.25c-1.24,0-2.25,1.01-2.25,2.25
			C783.29,19.75,784.31,20.76,785.55,20.76z"/>
	</g>
	<g>
		<path class="st124" d="M558.32,63.17c-0.76,0.03-1.91,0.71-4.16,0.47c-3.35-0.35-7.87-3.97-10.34-8.6
			c-7.66-14.31-2.4-23.35,2.6-25.4c5.01-2.05,8.97,0.28,12.13,0.28c3.17,0,7.13-2.33,12.13-0.28c5.01,2.05,10.26,11.09,2.6,25.4
			c-2.6,4.86-6.29,7.69-10.99,8.54C560.59,63.9,559.19,63.14,558.32,63.17z"/>
		<path class="st120" d="M558.35,30.81c0.1,0.17,0.59-1.06,0.59-1.13"/>
		<path class="st121" d="M559.22,33.29c-0.28-0.64-1.34-3.59-2.78-5.75c-1.44-2.16-5.03-4.74-9.23-4.16
			c-4.2,0.58-5.05,1.65-7.95,0.26c0.32,0.3,0.59,0.63,0.85,0.97c3.45,4.55,8.55,7.55,14.23,8.16L559.22,33.29z"/>
		<path class="st122" d="M558.95,34.2c0.84-0.17,0.1-1.32,0.65-3.04c0.66-2.09,2.12-3.18,1.31-3.66c-0.98-0.59-2.04,1.03-2.56,3.35
			C558.03,32.26,557.74,34.44,558.95,34.2z"/>
		<path class="st123" d="M566.28,41.16c1.72,0,3.12-1.4,3.12-3.12c0-1.72-1.4-3.12-3.12-3.12c-1.72,0-3.12,1.4-3.12,3.12
			C563.15,39.75,564.55,41.16,566.28,41.16z"/>
	</g>
	<g>
		<path class="st124" d="M201.64,94.74c-0.54-0.39-1.71-0.53-3.15-1.89c-2.14-2.03-3.35-6.96-2.6-11.49
			c2.32-14.03,10.79-17.51,15.37-16.26c4.57,1.25,6.08,4.98,8.28,6.67c2.2,1.69,6.2,2.18,8.58,6.28
			c2.38,4.09,1.21,13.18-11.75,19.04c-4.4,1.99-8.48,1.98-12.2,0.07C202.83,96.46,202.27,95.18,201.64,94.74z"/>
		<path class="st120" d="M218.94,72.27c-0.02,0.17,0.97-0.42,1.01-0.47"/>
		<path class="st121" d="M218.22,74.46c0.15-0.59,0.99-3.21,1.14-5.48c0.15-2.27-0.97-5.98-4.2-7.81c-3.23-1.84-4.39-1.55-5.66-4.06
			c0.06,0.38,0.08,0.75,0.08,1.13c-0.03,5,1.91,9.81,5.54,13.26L218.22,74.46z"/>
		<path class="st122" d="M217.54,74.94c0.68,0.33,0.78-0.86,2.07-1.76c1.57-1.1,3.17-1.08,2.86-1.84c-0.37-0.93-1.96-0.37-3.57,0.96
			C217.94,73.1,216.57,74.47,217.54,74.94z"/>
		<path class="st123" d="M218.92,83.69c1.2,0.92,2.92,0.69,3.84-0.5c0.92-1.2,0.69-2.92-0.5-3.84c-1.2-0.92-2.92-0.69-3.84,0.5
			C217.5,81.05,217.72,82.77,218.92,83.69z"/>
	</g>
	<g>
		<path class="st119" d="M718.62,91.82c-0.54-0.39-1.71-0.53-3.15-1.89c-2.14-2.03-3.35-6.96-2.6-11.49
			c2.32-14.03,10.79-17.51,15.37-16.26c4.57,1.25,6.08,4.98,8.28,6.67c2.2,1.69,6.2,2.18,8.58,6.28
			c2.38,4.09,1.21,13.18-11.75,19.04c-4.4,1.99-8.48,1.98-12.2,0.07C719.81,93.55,719.24,92.27,718.62,91.82z"/>
		<path class="st120" d="M735.91,69.36c-0.02,0.17,0.97-0.42,1.01-0.47"/>
		<path class="st121" d="M735.19,71.55c0.15-0.59,0.99-3.21,1.14-5.48c0.15-2.27-0.97-5.98-4.2-7.81c-3.23-1.84-4.39-1.55-5.66-4.06
			c0.06,0.38,0.08,0.75,0.08,1.13c-0.03,5,1.91,9.81,5.54,13.26L735.19,71.55z"/>
		<path class="st122" d="M734.52,72.03c0.68,0.33,0.78-0.86,2.07-1.76c1.57-1.1,3.17-1.08,2.86-1.84c-0.37-0.93-1.96-0.37-3.57,0.96
			C734.92,70.19,733.54,71.55,734.52,72.03z"/>
		<path class="st123" d="M735.89,80.78c1.2,0.92,2.92,0.69,3.84-0.5c0.92-1.2,0.69-2.92-0.5-3.84c-1.2-0.92-2.92-0.69-3.84,0.5
			C734.47,78.13,734.7,79.86,735.89,80.78z"/>
	</g>
	<g>
		<path class="st119" d="M851.7,48.56c-0.54-0.39-1.71-0.53-3.15-1.89c-2.14-2.03-3.35-6.96-2.6-11.49
			c2.32-14.03,10.79-17.51,15.37-16.26c4.57,1.25,6.08,4.98,8.28,6.67c2.2,1.69,6.2,2.18,8.58,6.28
			c2.38,4.09,1.21,13.18-11.75,19.04c-4.4,1.99-8.48,1.98-12.2,0.07C852.89,50.29,852.32,49.01,851.7,48.56z"/>
		<path class="st120" d="M868.99,26.1c-0.02,0.17,0.97-0.42,1.01-0.47"/>
		<path class="st121" d="M868.28,28.29c0.15-0.59,0.99-3.21,1.14-5.48c0.15-2.27-0.97-5.98-4.2-7.81c-3.23-1.84-4.39-1.55-5.66-4.06
			c0.06,0.38,0.08,0.75,0.08,1.13c-0.03,5,1.91,9.81,5.54,13.26L868.28,28.29z"/>
		<path class="st122" d="M867.6,28.77c0.68,0.33,0.78-0.86,2.07-1.76c1.57-1.1,3.17-1.08,2.86-1.84c-0.37-0.93-1.96-0.37-3.57,0.96
			C868,26.93,866.63,28.29,867.6,28.77z"/>
		<path class="st123" d="M868.98,37.52c1.2,0.92,2.92,0.69,3.84-0.5c0.92-1.2,0.69-2.92-0.5-3.84c-1.2-0.92-2.92-0.69-3.84,0.5
			C867.56,34.88,867.78,36.6,868.98,37.52z"/>
	</g>
	<g>
		<path class="st124" d="M395.59,67.44c-0.6,0.29-1.28,1.25-3.16,1.86c-2.8,0.91-7.71-0.38-11.34-3.2
			c-11.22-8.73-10.23-17.84-6.96-21.26c3.28-3.42,7.28-2.97,9.81-4.09c2.54-1.13,4.88-4.4,9.61-4.55
			c4.74-0.14,12.16,5.22,11.13,19.41c-0.35,4.82-2.3,8.39-5.76,10.75C397.67,67.22,396.28,67.1,395.59,67.44z"/>
		<path class="st120" d="M384.1,41.52c0.14,0.1,0.09-1.06,0.07-1.12"/>
		<path class="st121" d="M385.68,43.2c-0.45-0.41-2.35-2.4-4.27-3.61c-1.92-1.22-5.71-2-8.87-0.04s-3.45,3.12-6.27,3.04
			c0.36,0.13,0.7,0.29,1.03,0.47c4.38,2.41,9.54,3,14.3,1.46L385.68,43.2z"/>
		<path class="st122" d="M385.78,44.02c0.61-0.44-0.39-1.09-0.56-2.66c-0.22-1.91,0.56-3.3-0.25-3.4c-1-0.12-1.26,1.55-0.86,3.59
			C384.35,42.79,384.9,44.65,385.78,44.02z"/>
		<path class="st123" d="M394.12,46.99c1.38-0.61,2-2.23,1.39-3.61c-0.61-1.38-2.23-2-3.61-1.39c-1.38,0.61-2,2.24-1.39,3.61
			C391.12,46.97,392.75,47.6,394.12,46.99z"/>
	</g>
	<g>
		<path class="st119" d="M634.73,63.76c-0.6,0.29-1.28,1.25-3.16,1.86c-2.8,0.91-7.71-0.38-11.34-3.2
			c-11.22-8.73-10.23-17.84-6.96-21.26c3.28-3.42,7.28-2.97,9.81-4.09c2.54-1.13,4.88-4.4,9.61-4.55
			c4.74-0.14,12.16,5.22,11.13,19.41c-0.35,4.82-2.3,8.39-5.76,10.75C636.82,63.54,635.42,63.43,634.73,63.76z"/>
		<path class="st120" d="M623.24,37.84c0.14,0.1,0.09-1.06,0.07-1.12"/>
		<path class="st121" d="M624.82,39.52c-0.45-0.41-2.35-2.4-4.27-3.61c-1.92-1.22-5.71-2-8.87-0.04c-3.16,1.96-3.45,3.12-6.27,3.04
			c0.36,0.13,0.7,0.29,1.03,0.47c4.38,2.41,9.54,3,14.3,1.46L624.82,39.52z"/>
		<path class="st122" d="M624.93,40.34c0.61-0.44-0.39-1.09-0.56-2.66c-0.22-1.91,0.56-3.3-0.25-3.4c-1-0.12-1.26,1.55-0.86,3.59
			C623.5,39.12,624.04,40.97,624.93,40.34z"/>
		<path class="st123" d="M633.27,43.31c1.38-0.61,2-2.23,1.39-3.61c-0.61-1.38-2.23-2-3.61-1.39c-1.38,0.61-2,2.24-1.39,3.61
			C630.27,43.3,631.89,43.92,633.27,43.31z"/>
	</g>
</g>
<g id="Epler_i_kurv" class="st0">
	<g class="st2">
		<path class="st125" d="M923.4,180.8c-0.55,0.02-1.38,0.51-3,0.34c-2.41-0.25-5.67-2.86-7.46-6.2
			c-5.52-10.32-1.73-16.84,1.88-18.32c3.61-1.48,6.47,0.2,8.75,0.2s5.14-1.68,8.75-0.2c3.61,1.48,7.4,8,1.88,18.32
			c-1.88,3.51-4.54,5.54-7.93,6.16C925.03,181.33,924.03,180.78,923.4,180.8z"/>
		<path class="st120" d="M923.42,157.46c0.07,0.13,0.42-0.76,0.42-0.82"/>
		<path class="st121" d="M924.05,159.25c-0.2-0.46-0.96-2.59-2-4.15c-1.04-1.56-3.63-3.42-6.66-3c-3.03,0.42-3.64,1.19-5.73,0.19
			c0.23,0.22,0.43,0.45,0.62,0.7c2.49,3.28,6.17,5.45,10.27,5.88L924.05,159.25z"/>
		<path class="st122" d="M923.85,159.9c0.61-0.12,0.08-0.95,0.47-2.19c0.48-1.51,1.53-2.29,0.95-2.64
			c-0.71-0.42-1.47,0.74-1.85,2.42C923.19,158.5,922.97,160.08,923.85,159.9z"/>
		<path class="st123" d="M929.14,164.92c1.24,0,2.25-1.01,2.25-2.25c0-1.24-1.01-2.25-2.25-2.25c-1.24,0-2.25,1.01-2.25,2.25
			C926.88,163.91,927.89,164.92,929.14,164.92z"/>
	</g>
	<g class="st2">
		<path class="st126" d="M897.99,189.67c-0.73,0.02-1.83,0.68-4,0.46c-3.21-0.33-7.55-3.81-9.93-8.25
			c-7.35-13.74-2.3-22.41,2.5-24.38c4.8-1.97,8.61,0.27,11.65,0.27s6.84-2.24,11.65-0.27c4.8,1.97,9.85,10.64,2.5,24.38
			c-2.5,4.66-6.04,7.38-10.55,8.2C900.17,190.37,898.83,189.64,897.99,189.67z"/>
		<path class="st120" d="M898.02,158.6c0.1,0.17,0.56-1.02,0.57-1.09"/>
		<path class="st121" d="M898.85,160.99c-0.27-0.61-1.28-3.44-2.66-5.52c-1.38-2.07-4.83-4.55-8.86-3.99
			c-4.03,0.56-4.85,1.59-7.63,0.25c0.3,0.29,0.57,0.6,0.82,0.93c3.32,4.36,8.21,7.25,13.66,7.83L898.85,160.99z"/>
		<path class="st122" d="M898.01,158.65c-0.31,1.35-0.59,3.45,0.58,3.21c0.81-0.16,0.1-1.27,0.62-2.91"/>
		<path class="st123" d="M905.62,168.54c1.65,0,3-1.35,3-3c0-1.65-1.35-3-3-3c-1.65,0-3,1.35-3,3
			C902.63,167.19,903.97,168.54,905.62,168.54z"/>
	</g>
	<g class="st2">
		<path class="st125" d="M882.55,171.73c-0.76,0.03-1.91,0.71-4.16,0.47c-3.35-0.35-7.87-3.97-10.34-8.6
			c-7.66-14.31-2.4-23.35,2.6-25.4c5.01-2.05,8.97,0.28,12.13,0.28s7.13-2.33,12.13-0.28c5.01,2.05,10.26,11.09,2.6,25.4
			c-2.6,4.86-6.29,7.69-10.99,8.54C884.82,172.46,883.42,171.7,882.55,171.73z"/>
		<path class="st120" d="M882.58,139.37c0.1,0.17,0.59-1.06,0.59-1.13"/>
		<path class="st121" d="M883.45,141.85c-0.28-0.64-1.34-3.59-2.78-5.75c-1.44-2.16-5.03-4.74-9.23-4.16
			c-4.2,0.58-5.05,1.65-7.95,0.26c0.32,0.3,0.59,0.63,0.85,0.97c3.45,4.55,8.55,7.55,14.23,8.16L883.45,141.85z"/>
		<path class="st122" d="M883.18,142.76c0.84-0.17,0.1-1.32,0.65-3.04c0.66-2.09,2.12-3.18,1.31-3.66
			c-0.98-0.59-2.04,1.03-2.56,3.35C882.26,140.82,881.97,143.01,883.18,142.76z"/>
		<path class="st123" d="M890.51,149.72c1.72,0,3.12-1.4,3.12-3.12c0-1.72-1.4-3.12-3.12-3.12c-1.72,0-3.12,1.4-3.12,3.12
			C887.38,148.32,888.79,149.72,890.51,149.72z"/>
	</g>
	<g class="st2">
		<path class="st126" d="M848.46,176.88c-0.6,0.29-1.28,1.25-3.16,1.86c-2.8,0.91-7.71-0.38-11.34-3.2
			c-11.22-8.73-10.23-17.84-6.96-21.26c3.28-3.42,7.28-2.97,9.81-4.09s4.88-4.4,9.61-4.55c4.74-0.14,12.16,5.22,11.13,19.41
			c-0.35,4.82-2.3,8.39-5.76,10.75C850.54,176.66,849.15,176.55,848.46,176.88z"/>
		<path class="st120" d="M836.97,150.97c0.14,0.1,0.09-1.06,0.07-1.12"/>
		<path class="st121" d="M838.55,152.64c-0.45-0.41-2.35-2.4-4.27-3.61c-1.92-1.22-5.71-2-8.87-0.04c-3.16,1.96-3.45,3.12-6.27,3.04
			c0.36,0.13,0.7,0.29,1.03,0.47c4.38,2.41,9.54,3,14.3,1.46L838.55,152.64z"/>
		<path class="st122" d="M838.65,153.47c0.61-0.44-0.39-1.09-0.56-2.66c-0.22-1.91,0.56-3.3-0.25-3.4c-1-0.12-1.26,1.55-0.86,3.59
			C837.23,152.24,837.77,154.1,838.65,153.47z"/>
		<path class="st123" d="M847,156.43c1.38-0.61,2-2.23,1.39-3.61c-0.61-1.38-2.23-2-3.61-1.39c-1.38,0.61-2,2.24-1.39,3.61
			C844,156.42,845.62,157.04,847,156.43z"/>
	</g>
	<g class="st2">
		<path class="st125" d="M870.01,183.8c-0.6,0.29-1.28,1.25-3.16,1.86c-2.8,0.91-7.71-0.38-11.34-3.2
			c-11.22-8.73-10.23-17.84-6.96-21.26c3.28-3.42,7.28-2.97,9.81-4.09c2.54-1.13,4.88-4.4,9.61-4.55
			c4.74-0.14,12.16,5.22,11.13,19.41c-0.35,4.82-2.3,8.39-5.76,10.75C872.09,183.58,870.7,183.47,870.01,183.8z"/>
		<path class="st120" d="M858.52,157.88c0.14,0.1,0.09-1.06,0.07-1.12"/>
		<path class="st121" d="M860.1,159.56c-0.45-0.41-2.35-2.4-4.27-3.61c-1.92-1.22-5.71-2-8.87-0.04c-3.16,1.96-3.45,3.12-6.27,3.04
			c0.36,0.13,0.7,0.29,1.03,0.47c4.38,2.41,9.54,3,14.3,1.46L860.1,159.56z"/>
		<path class="st122" d="M860.2,160.39c0.61-0.44-0.39-1.09-0.56-2.66c-0.22-1.91,0.56-3.3-0.25-3.4c-1-0.12-1.26,1.55-0.86,3.59
			C858.77,159.16,859.32,161.02,860.2,160.39z"/>
		<path class="st123" d="M868.54,163.35c1.38-0.61,2-2.23,1.39-3.61c-0.61-1.38-2.23-2-3.61-1.39c-1.38,0.61-2,2.24-1.39,3.61
			C865.54,163.34,867.17,163.96,868.54,163.35z"/>
	</g>
	<g class="st2">
		<path class="st126" d="M905.73,163.87c-0.54-0.39-1.71-0.53-3.15-1.89c-2.14-2.03-3.35-6.96-2.6-11.49
			c2.32-14.03,10.79-17.51,15.37-16.26c4.57,1.25,6.08,4.98,8.28,6.67s6.2,2.18,8.58,6.28c2.38,4.09,1.21,13.18-11.75,19.04
			c-4.4,1.99-8.48,1.98-12.2,0.07C906.92,165.59,906.35,164.31,905.73,163.87z"/>
		<path class="st120" d="M923.02,141.4c-0.02,0.17,0.97-0.42,1.01-0.47"/>
		<path class="st121" d="M922.3,143.59c0.15-0.59,0.99-3.21,1.14-5.48c0.15-2.27-0.97-5.98-4.2-7.81c-3.23-1.84-4.39-1.55-5.66-4.06
			c0.06,0.38,0.08,0.75,0.08,1.13c-0.03,5,1.91,9.81,5.54,13.26L922.3,143.59z"/>
		<path class="st122" d="M921.63,144.07c0.68,0.33,0.78-0.86,2.07-1.76c1.57-1.1,3.17-1.08,2.86-1.84
			c-0.37-0.93-1.96-0.37-3.57,0.96C922.03,142.23,920.66,143.6,921.63,144.07z"/>
		<path class="st123" d="M923.01,152.82c1.2,0.92,2.92,0.69,3.84-0.5c0.92-1.2,0.69-2.92-0.5-3.84c-1.2-0.92-2.92-0.69-3.84,0.5
			C921.58,150.18,921.81,151.9,923.01,152.82z"/>
	</g>
	<g class="st2">
		<path class="st125" d="M938.04,162.17c-0.55,0.02-1.38,0.51-3,0.34c-2.41-0.25-5.67-2.86-7.46-6.2
			c-5.52-10.32-1.73-16.84,1.88-18.32c3.61-1.48,6.47,0.2,8.75,0.2s5.14-1.68,8.75-0.2c3.61,1.48,7.4,8,1.88,18.32
			c-1.88,3.51-4.54,5.54-7.93,6.16C939.67,162.7,938.67,162.15,938.04,162.17z"/>
		<path class="st120" d="M938.06,138.83c0.07,0.13,0.42-0.76,0.42-0.82"/>
		<path class="st121" d="M938.69,140.62c-0.2-0.46-0.96-2.59-2-4.15c-1.04-1.56-3.63-3.42-6.66-3c-3.03,0.42-3.64,1.19-5.73,0.19
			c0.23,0.22,0.43,0.45,0.62,0.7c2.49,3.28,6.17,5.45,10.27,5.88L938.69,140.62z"/>
		<path class="st122" d="M938.49,141.28c0.61-0.12,0.08-0.95,0.47-2.19c0.48-1.51,1.53-2.29,0.95-2.64
			c-0.71-0.42-1.47,0.74-1.85,2.42C937.83,139.88,937.61,141.45,938.49,141.28z"/>
		<path class="st123" d="M943.77,146.3c1.24,0,2.25-1.01,2.25-2.25c0-1.24-1.01-2.25-2.25-2.25c-1.24,0-2.25,1.01-2.25,2.25
			C941.52,145.29,942.53,146.3,943.77,146.3z"/>
	</g>
	<g class="st2">
		<path class="st126" d="M891.3,143.92c-0.54-0.39-1.71-0.53-3.15-1.89c-2.14-2.03-3.35-6.96-2.6-11.49
			c2.32-14.03,10.79-17.51,15.37-16.26c4.57,1.25,6.08,4.98,8.28,6.67c2.2,1.69,6.2,2.18,8.58,6.28
			c2.38,4.09,1.21,13.18-11.75,19.04c-4.4,1.99-8.48,1.98-12.2,0.07C892.48,145.65,891.92,144.37,891.3,143.92z"/>
		<path class="st120" d="M908.59,121.45c-0.02,0.17,0.97-0.42,1.01-0.47"/>
		<path class="st121" d="M907.87,123.65c0.15-0.59,0.99-3.21,1.14-5.48c0.15-2.27-0.97-5.98-4.2-7.81
			c-3.23-1.84-4.39-1.55-5.66-4.06c0.06,0.38,0.08,0.75,0.08,1.13c-0.03,5,1.91,9.81,5.54,13.26L907.87,123.65z"/>
		<path class="st122" d="M907.2,124.13c0.68,0.33,0.78-0.86,2.07-1.76c1.57-1.1,3.17-1.08,2.86-1.84c-0.37-0.93-1.96-0.37-3.57,0.96
			C907.59,122.29,906.22,123.65,907.2,124.13z"/>
		<path class="st123" d="M908.57,132.88c1.2,0.92,2.92,0.69,3.84-0.5c0.92-1.2,0.69-2.92-0.5-3.84c-1.2-0.92-2.92-0.69-3.84,0.5
			C907.15,130.23,907.38,131.96,908.57,132.88z"/>
	</g>
	<g class="st2">
		<path class="st126" d="M935.92,183.93c-0.54-0.39-1.71-0.53-3.15-1.89c-2.14-2.03-3.35-6.96-2.6-11.49
			c2.32-14.03,10.79-17.51,15.37-16.26c4.57,1.25,6.08,4.98,8.28,6.67c2.2,1.69,6.2,2.18,8.58,6.28
			c2.38,4.09,1.21,13.18-11.75,19.04c-4.4,1.99-8.48,1.98-12.2,0.07C937.11,185.65,936.54,184.37,935.92,183.93z"/>
		<path class="st120" d="M953.21,161.46c-0.02,0.17,0.97-0.42,1.01-0.47"/>
		<path class="st121" d="M952.49,163.65c0.15-0.59,0.99-3.21,1.14-5.48c0.15-2.27-0.97-5.98-4.2-7.81
			c-3.23-1.84-4.39-1.55-5.66-4.06c0.06,0.38,0.08,0.75,0.08,1.13c-0.03,5,1.91,9.81,5.54,13.26L952.49,163.65z"/>
		<path class="st122" d="M951.82,164.13c0.68,0.33,0.78-0.86,2.07-1.76c1.57-1.1,3.17-1.08,2.86-1.84
			c-0.37-0.93-1.96-0.37-3.57,0.96C952.22,162.29,950.85,163.66,951.82,164.13z"/>
		<path class="st123" d="M953.2,172.88c1.2,0.92,2.92,0.69,3.84-0.5c0.92-1.2,0.69-2.92-0.5-3.84c-1.2-0.92-2.92-0.69-3.84,0.5
			C951.77,170.24,952,171.96,953.2,172.88z"/>
	</g>
</g>
<g id="Tastaturbo__x28_turid_x29_" class="st0">
	<g class="st2">
		<g>
			<g>
				<path class="st180" d="M148.11,154.54l2.2,12.6l-8.39-1.11l-3.08-2.86c-0.02-0.04,0.97-25.85,0.96-25.9l-8.7-22.45
					c-0.05-0.33,0.13-0.65,0.45-0.77l3.62-1.32c0.4-0.15,0.84,0.1,0.92,0.52l10.03,22.71C146.12,136.01,148.09,154.49,148.11,154.54
					z"/>
			</g>
			<path class="st18" d="M125.85,97.55l0.29,8.75c-0.15,0.94,0.11,1.9,0.72,2.64l0.68,0.82c0.06,0.07,0.11,0.16,0.13,0.25l1.16,4.08
				c-0.14,0.44,0,0.92,0.35,1.23c4.38,3.77,6.27,1.06,8.14,0.78c0.52-0.08,0.9-0.53,0.89-1.06l0.32-1.45
				c1.46,0.17,2.58-2.87,2.73-3.28c0.01-0.03,0.02-0.06,0.03-0.09l1.37-6.78c0.01-0.04,0.02-0.08,0.03-0.12l3.53-8.91
				c0.05-0.13,0.06-0.28,0.03-0.42l-1.82-7.4c-0.19-0.79-0.99-1.32-1.77-1.12c-3.04,0.78-1.85,4.83-1.11,6.72
				c0.25,0.64,0.2,1.37-0.15,1.97l-1.66,2.82c-0.21,0.35-0.67,0.45-1.01,0.21l-0.4-0.29c-0.17-0.12-0.27-0.31-0.29-0.52l-0.38-6.11
				c-0.06-0.51-0.23-1.01-0.5-1.44c-0.74-1.2-2.6-4.41-2.96-4.83c-0.77-1.12-1.64-0.51-1.64-0.51c-3.18,1.49,0.68,6.87,0.81,7.19
				s-0.51,3.75-0.51,3.75L131,90.37c-0.33-0.68-1.78-0.93-1.78-0.93l-4.1-0.7c-0.85,0-1.88,0.47-1.75,1.55
				c0.06,0.51,0.19,0.95,0.35,1.32c0.16,0.37,0,0.81-0.37,0.95l-2.24,0.87c-0.32,0.08-0.91,0.34-1.03,0.64
				c-0.19,0.49-0.32,1.27,0.31,2.03c0.51,0.61,1.31,0.91,2.1,0.84c0.58-0.05,1.32-0.17,1.91-0.46c0.32-0.16,0.7-0.07,0.9,0.23
				L125.85,97.55"/>
			<g>
				<path class="st182" d="M142.67,103.36l3.55-8.97c0.05-0.13,0.06-0.28,0.03-0.42l-1.82-7.4c-0.19-0.79-0.99-1.32-1.77-1.12
					c-3.04,0.78-1.85,4.83-1.11,6.72c0.25,0.64,0.2,1.37-0.15,1.97l-1.66,2.82c-0.21,0.35-0.67,0.45-1.01,0.21l-0.4-0.29
					c-0.17-0.12-0.27-0.31-0.29-0.52l-0.38-6.11c-0.06-0.51-0.23-1.01-0.5-1.44c-0.74-1.2-2.6-4.41-2.96-4.83
					c-0.77-1.12-1.64-0.51-1.64-0.51c-3.18,1.49,0.68,6.87,0.81,7.19s-0.51,3.75-0.51,3.75L131,90.37
					c-0.33-0.68-1.78-0.93-1.78-0.93l-4.1-0.7c-0.85,0-1.88,0.47-1.75,1.55c0.29,2.31,2.82,2.94,3.87,3.1
					c0.28,0.04,0.5,0.25,0.57,0.52l0.65,2.64"/>
				<path class="st182" d="M124.23,92.22l-3.13,1.21c-0.32,0.08-0.91,0.34-1.03,0.64c-0.19,0.49-0.32,1.27,0.31,2.03
					c0.51,0.61,1.31,0.91,2.1,0.84c0.58-0.05,1.32-0.17,1.91-0.46c0.32-0.16,0.7-0.07,0.9,0.23l0.45,0.68
					c0.07,0.11,0.11,0.23,0.12,0.36l0.28,8.55c-0.15,0.94,0.11,1.9,0.72,2.64l0.68,0.82c0.06,0.07,0.11,0.16,0.13,0.25l1.16,4.08
					c-0.14,0.44,0,0.92,0.35,1.23c4.38,3.77,6.27,1.06,8.14,0.78c0.52-0.08,0.9-0.53,0.89-1.06l0.32-1.45"/>
			</g>
			<path class="st182" d="M140.29,101.66c0,0-5.98-0.15-6.86,4.67"/>
			<path class="st182" d="M127.63,109.86c0.54,0.66,4.18,2.96,6.38,3.14"/>
			<path class="st182" d="M138.54,113.57c1.48-0.54,2.8-5.11,2.8-5.11c1.08-3.5,5.08-5.21,5.72-5.47c0.06-0.02,0.12-0.04,0.19-0.04
				l0,0c2.41-0.22,2.67-3.72,0.3-4.21c-0.55-0.11-1.23-0.15-2.06-0.09c-0.06,0-0.12,0.01-0.17,0.03c-0.49,0.16-3.13,1.11-5.82,3.67"
				/>
		</g>
		<g>
			<g>
				<path class="st180" d="M98.27,148.51l-3.23,10.83l10.62,19.87l-1.99-19.55c0.02-0.04,0.31-2.83,0.32-2.88l3.04-23.08
					c0.07-0.33-0.11-0.66-0.42-0.78l-3.58-1.43c-0.4-0.16-0.84,0.07-0.94,0.49l-3.78,16.38C98.31,148.41,98.29,148.46,98.27,148.51z
					"/>
			</g>
		</g>
		<g>
			<g>
				<g>
					<path class="st92" d="M124.51,142.94c0.85,0.68,0.68,2.19-0.8,2.5c-0.22,0.05-0.45-0.02-0.63-0.16
						c-3.12-2.45-7.25-3.71-11.21-3.43c-0.23,0.02-0.45-0.06-0.61-0.22c-1.07-1.1-0.33-2.47,0.78-2.52
						c4.39-0.22,8.93,1.17,12.44,3.81C124.49,142.92,124.5,142.93,124.51,142.94z"/>
				</g>
			</g>
		</g>
		<g>
			<g>
				<line class="st183" x1="124.92" y1="243.21" x2="121.44" y2="243.13"/>
				<line class="st183" x1="127.13" y1="238.37" x2="124.24" y2="238.11"/>
				<path class="st180" d="M115.07,201.41l-1.63,16.42l12.57,12.57c1.84,4.58,3.18,1.02,3.99-0.75l-11.07-13.84l3.66-13.91"/>
				<path class="st183" d="M130.01,229.28l7.66,5.31c0,0,2.02,7.43-17.64,19.06l-1.62-2.9c0,0-1.89-2.53,3.81-8.82l2.01-3.83
					l-0.02-8.22L130.01,229.28z"/>
				<line class="st183" x1="124.92" y1="243.21" x2="121.44" y2="243.13"/>
				<line class="st183" x1="127.13" y1="238.37" x2="124.24" y2="238.11"/>
				<line class="st183" x1="187.29" y1="218.66" x2="189.28" y2="215.8"/>
				<line class="st183" x1="182.08" y1="217.6" x2="183.57" y2="215.1"/>
				<path class="st180" d="M152.46,191.22l15.69,5.12l6.5,16.1c3.26,3.71-0.52,3.29-2.47,3.23l-8.08-15.12l-14.21-2.25"/>
				<path class="st183" d="M171.84,215.5l3.98,9.01c0,0,12.34,4.42,23.13-4.3l-1.39-3.01c0,0-1.27-2.37-9.72-1.47l-4.28-0.63
					l-8.57-4.51L171.84,215.5z"/>
				<line class="st183" x1="187.29" y1="218.66" x2="189.28" y2="215.8"/>
				<line class="st183" x1="182.08" y1="217.6" x2="183.57" y2="215.1"/>
				<g>
					<polygon class="st183" points="152.91,166.61 150.05,149.22 102.03,157.12 105.66,179.2 108.36,195.6 109.94,205.17 
						157.95,197.27 156.21,186.67 					"/>
					<g>
						<path class="st135" d="M121.87,165.08c-0.58-0.41-0.71-1.22-0.29-1.79c0.24-0.34,0.62-0.52,1-0.53l-0.52-3.16
							c-0.17-1.02-1.13-1.71-2.15-1.54c-1.02,0.17-1.71,1.13-1.54,2.15l1.74,10.56c0.17,1.02,1.13,1.71,2.15,1.54
							c1.02-0.17,1.71-1.13,1.54-2.15l-0.8-4.89C122.62,165.37,122.21,165.32,121.87,165.08z"/>
					</g>
					<path class="st183" d="M118.91,155.49c2.05-0.34,4.02,0.53,5.16,2.09l-1.36-8.26c-0.42-2.55-2.83-4.28-5.38-3.86h0
						c-2.55,0.42-4.28,2.83-3.86,5.38l1.32,8.02C115.43,157.15,116.96,155.81,118.91,155.49z"/>
					<path class="st184" d="M133.26,172.25l-3.95-24.03c-0.42-2.55,1.31-4.96,3.86-5.38h0c2.55-0.42,4.96,1.31,5.38,3.86l3.95,24.03
						L133.26,172.25z"/>
					<path class="st184" d="M117.42,174.86l-3.95-24.03c-0.42-2.55,1.31-4.96,3.86-5.38h0c2.55-0.42,4.96,1.31,5.38,3.86l3.95,24.03
						L117.42,174.86z"/>
					<g>
						<path class="st135" d="M120.81,155.52c-0.58-0.41-0.71-1.22-0.29-1.79c0.24-0.34,0.62-0.52,1-0.53l-0.52-3.16
							c-0.17-1.02-1.13-1.71-2.15-1.54s-1.71,1.13-1.54,2.15l1.74,10.56c0.17,1.02,1.13,1.71,2.15,1.54
							c1.02-0.17,1.71-1.13,1.54-2.15l-0.8-4.89C121.56,155.82,121.15,155.76,120.81,155.52z"/>
					</g>
					<g>
						<path class="st135" d="M136.59,152.52c-0.58-0.41-0.71-1.22-0.29-1.79c0.24-0.34,0.62-0.52,1-0.53l-0.52-3.16
							c-0.17-1.02-1.13-1.71-2.15-1.54c-1.02,0.17-1.71,1.13-1.54,2.15l1.74,10.56c0.17,1.02,1.13,1.71,2.15,1.54
							s1.71-1.13,1.54-2.15l-0.8-4.89C137.34,152.81,136.92,152.76,136.59,152.52z"/>
					</g>
				</g>
			</g>
		</g>
		<circle class="st135" cx="139.09" cy="184.35" r="2.55"/>
		<path class="st185" d="M139.09,179.56c2.73,0,4.95,2.21,4.95,4.95s-2.21,4.95-4.95,4.95"/>
		<path class="st183" d="M130.69,177.97c1.25,0.58,2.72,0.63,4.04,0.3c1.92-0.48,4.27-2.18,3.71-4.46c-0.55-2.28-3.2-3.4-5.43-2.56
			c0,0-1.52,0.25-2.83,1.75"/>
		<path class="st18" d="M114.85,116.09l-1.18,8.67c0.06,0.95-0.3,1.88-0.98,2.55l-0.76,0.74c-0.07,0.07-0.12,0.15-0.16,0.24
			l-1.58,3.94c0.09,0.45-0.1,0.92-0.48,1.18c-4.74,3.3-6.34,0.41-8.18-0.06c-0.51-0.13-0.85-0.62-0.77-1.15l-0.17-1.47
			c-1.47,0.02-2.27-3.12-2.38-3.54c-0.01-0.03-0.01-0.06-0.02-0.09l-0.67-6.88c0-0.04-0.01-0.08-0.02-0.12l-2.6-9.23
			c-0.04-0.14-0.03-0.29,0.01-0.42l2.57-7.17c0.27-0.76,1.12-1.21,1.88-0.93c2.95,1.09,1.35,4.99,0.42,6.8
			c-0.32,0.62-0.33,1.34-0.05,1.97l1.36,2.98c0.17,0.37,0.62,0.52,0.98,0.31l0.43-0.25c0.18-0.1,0.3-0.28,0.34-0.49l1-6.03
			c0.11-0.5,0.33-0.98,0.64-1.39c0.86-1.12,3.03-4.12,3.43-4.5c0.88-1.04,1.69-0.34,1.69-0.34c3.01,1.81-1.38,6.76-1.55,7.07
			c-0.16,0.31,0.13,3.78,0.13,3.78l2.27-3.83c0.4-0.64,1.87-0.74,1.87-0.74l4.15-0.28c0.85,0.09,1.82,0.66,1.58,1.72
			c-0.11,0.5-0.28,0.92-0.48,1.28c-0.2,0.36-0.09,0.8,0.28,0.99l2.14,1.09c0.31,0.11,0.87,0.43,0.96,0.74
			c0.14,0.51,0.19,1.3-0.51,1.99c-0.57,0.56-1.39,0.77-2.18,0.62c-0.57-0.11-1.3-0.3-1.85-0.65c-0.3-0.19-0.69-0.14-0.92,0.13
			L114.85,116.09"/>
		<g>
			<path class="st182" d="M97.53,120.15l-2.61-9.29c-0.04-0.14-0.03-0.29,0.01-0.42l2.57-7.17c0.27-0.76,1.12-1.21,1.88-0.93
				c2.95,1.09,1.35,4.99,0.42,6.8c-0.32,0.62-0.33,1.34-0.05,1.97l1.36,2.98c0.17,0.37,0.62,0.52,0.98,0.31l0.43-0.25
				c0.18-0.1,0.3-0.28,0.34-0.49l1-6.03c0.11-0.5,0.33-0.98,0.64-1.39c0.86-1.12,3.03-4.12,3.43-4.5c0.88-1.04,1.69-0.34,1.69-0.34
				c3.01,1.81-1.38,6.76-1.55,7.07c-0.16,0.31,0.13,3.78,0.13,3.78l2.27-3.83c0.4-0.64,1.87-0.74,1.87-0.74l4.15-0.28
				c0.85,0.09,1.82,0.66,1.58,1.72c-0.52,2.27-3.11,2.64-4.17,2.69c-0.28,0.01-0.53,0.19-0.62,0.46l-0.92,2.56"/>
			<path class="st182" d="M117.01,110.95l2.99,1.52c0.31,0.11,0.87,0.43,0.96,0.74c0.14,0.51,0.19,1.3-0.51,1.99
				c-0.57,0.56-1.39,0.77-2.18,0.62c-0.57-0.11-1.3-0.3-1.85-0.65c-0.3-0.19-0.69-0.14-0.92,0.13l-0.52,0.63
				c-0.08,0.1-0.14,0.22-0.15,0.35l-1.16,8.47c0.06,0.95-0.3,1.88-0.98,2.55l-0.76,0.74c-0.07,0.07-0.12,0.15-0.16,0.24l-1.58,3.94
				c0.09,0.45-0.1,0.92-0.48,1.18c-4.74,3.3-6.34,0.41-8.18-0.06c-0.51-0.13-0.85-0.62-0.77-1.15l-0.17-1.47"/>
		</g>
		<path class="st182" d="M100.07,118.7c0,0,5.97,0.46,6.34,5.35"/>
		<path class="st182" d="M111.83,128.16c-0.6,0.6-4.46,2.52-6.67,2.47"/>
		<path class="st182" d="M100.6,130.73c-1.42-0.68-2.26-5.37-2.26-5.37c-0.72-3.59-4.52-5.71-5.13-6.03
			c-0.06-0.03-0.12-0.05-0.18-0.06l0,0c-2.37-0.47-2.28-3.97,0.13-4.22c0.56-0.06,1.24-0.03,2.06,0.12
			c0.06,0.01,0.11,0.03,0.17,0.05c0.47,0.21,3,1.42,5.42,4.25"/>
	</g>
</g>
</svg>
