<svg id="Layer_1" data-name="Layer 1" xmlns="http://www.w3.org/2000/svg" viewBox="0 0 437.27 70.89"><defs><style>.cls-1{fill:none;}.cls-1,.cls-2,.cls-3{stroke:#385b6b;stroke-miterlimit:10;stroke-width:0.78px;}.cls-10,.cls-11,.cls-12,.cls-2,.cls-4,.cls-5,.cls-6,.cls-7,.cls-8,.cls-9{fill:#385b6b;}.cls-3{fill:#fff;}.cls-4{font-size:17.91px;}.cls-10,.cls-11,.cls-12,.cls-4,.cls-5,.cls-6,.cls-7,.cls-8,.cls-9{font-family:AlwynNewRounded-Medium, Alwyn New Rounded;font-weight:500;}.cls-5{font-size:17.91px;}.cls-6{font-size:17.91px;}.cls-7{font-size:17.91px;}.cls-8{font-size:17.91px;}.cls-9{font-size:17.91px;}.cls-10{font-size:17.91px;}.cls-11{font-size:17.91px;}.cls-12{font-size:17.91px;}</style></defs><path class="cls-1" d="M28.16,45.2,26,29.13a5.26,5.26,0,0,1,4.5-5.92l14.7-2c.2,0,.4,0,.59,0l-2.53-2.39L25,21.26a5.26,5.26,0,0,0-4.51,5.92l3.37,24.71L28.33,46A5.16,5.16,0,0,1,28.16,45.2Z"/><path class="cls-2" d="M49.94,17.86l-6.71.91,2.53,2.39a5.26,5.26,0,0,1,5.34,4.55l2.19,16.07a5.27,5.27,0,0,1-4.51,5.93l-14.7,2A5.28,5.28,0,0,1,28.33,46l-4.48,5.89,0,.24a5.28,5.28,0,0,0,5.93,4.51l25-3.4a5.26,5.26,0,0,0,4.5-5.93l-3.4-25A5.26,5.26,0,0,0,49.94,17.86Z"/><path class="cls-3" d="M45.76,21.16c-.19,0-.39,0-.59,0l-14.7,2A5.26,5.26,0,0,0,26,29.13L28.16,45.2a5.16,5.16,0,0,0,.17.8,5.28,5.28,0,0,0,5.75,3.71l14.7-2a5.27,5.27,0,0,0,4.51-5.93L51.1,25.71A5.26,5.26,0,0,0,45.76,21.16Z"/><text class="cls-4" transform="translate(36.45 45.44) rotate(-7.76)">T</text><path class="cls-1" d="M67.59,46.3V30.09a5.26,5.26,0,0,1,5.26-5.27H87.69a5.85,5.85,0,0,1,.59,0l-2.19-2.71H67.68a5.26,5.26,0,0,0-5.26,5.27V52.35l5.23-5.24A5.32,5.32,0,0,1,67.59,46.3Z"/><path class="cls-2" d="M92.86,22.15H86.09l2.19,2.71A5.26,5.26,0,0,1,93,30.09V46.3a5.26,5.26,0,0,1-5.26,5.27H72.85a5.27,5.27,0,0,1-5.2-4.46l-5.23,5.24v.24a5.26,5.26,0,0,0,5.26,5.27H92.86a5.26,5.26,0,0,0,5.26-5.27V27.42A5.26,5.26,0,0,0,92.86,22.15Z"/><path class="cls-3" d="M88.28,24.86a5.85,5.85,0,0,0-.59,0H72.85a5.26,5.26,0,0,0-5.26,5.27V46.3a5.25,5.25,0,0,0,5.26,5.27H87.69A5.26,5.26,0,0,0,93,46.3V30.09A5.26,5.26,0,0,0,88.28,24.86Z"/><text class="cls-5" transform="translate(74.52 47.39)">A</text><path class="cls-1" d="M106.75,39.56l1.54-16.14A5.26,5.26,0,0,1,114,18.68l14.77,1.4a5.4,5.4,0,0,1,.58.09l-1.92-2.9-18.33-1.74a5.27,5.27,0,0,0-5.74,4.74L101,45.1l5.72-4.72A5.61,5.61,0,0,1,106.75,39.56Z"/><path class="cls-2" d="M134.2,17.91l-6.74-.64,1.92,2.9a5.26,5.26,0,0,1,4.16,5.65L132,42a5.28,5.28,0,0,1-5.74,4.75L111.5,45.3a5.26,5.26,0,0,1-4.75-4.92L101,45.1l0,.23a5.26,5.26,0,0,0,4.75,5.74l25.06,2.39a5.28,5.28,0,0,0,5.74-4.75l2.38-25.06A5.26,5.26,0,0,0,134.2,17.91Z"/><path class="cls-3" d="M129.38,20.17a5.4,5.4,0,0,0-.58-.09L114,18.68a5.26,5.26,0,0,0-5.74,4.74l-1.54,16.14a5.61,5.61,0,0,0,0,.82,5.26,5.26,0,0,0,4.75,4.92l14.77,1.41A5.28,5.28,0,0,0,132,42l1.53-16.14A5.26,5.26,0,0,0,129.38,20.17Z"/><text class="cls-6" transform="matrix(1, 0.09, -0.09, 1, 114.62, 41.28)">S</text><path class="cls-1" d="M147.55,42.49l-1.31-16.16a5.27,5.27,0,0,1,4.82-5.68l14.79-1.2a3.88,3.88,0,0,1,.59,0L164,16.91l-18.34,1.5a5.25,5.25,0,0,0-4.82,5.67l2,24.86,4.8-5.65A5.35,5.35,0,0,1,147.55,42.49Z"/><path class="cls-2" d="M170.78,16.37l-6.75.54,2.41,2.53a5.26,5.26,0,0,1,5.08,4.83l1.32,16.16A5.28,5.28,0,0,1,168,46.11l-14.78,1.2a5.26,5.26,0,0,1-5.54-4l-4.8,5.65,0,.23A5.27,5.27,0,0,0,148.58,54l25.1-2a5.27,5.27,0,0,0,4.82-5.68l-2-25.09A5.27,5.27,0,0,0,170.78,16.37Z"/><path class="cls-3" d="M166.44,19.44a3.88,3.88,0,0,0-.59,0l-14.79,1.2a5.27,5.27,0,0,0-4.82,5.68l1.31,16.16a5.35,5.35,0,0,0,.14.8,5.26,5.26,0,0,0,5.54,4L168,46.11a5.28,5.28,0,0,0,4.83-5.68l-1.32-16.16A5.26,5.26,0,0,0,166.44,19.44Z"/><text class="cls-7" transform="matrix(1, -0.08, 0.08, 1, 155.64, 43.01)">T</text><path class="cls-1" d="M185,49.13l3.27-15.89a5.27,5.27,0,0,1,6.22-4.09l14.53,3a4.74,4.74,0,0,1,.57.16L208,29.2l-18-3.71a5.27,5.27,0,0,0-6.22,4.09l-5,24.43,6.19-4.08A5.64,5.64,0,0,1,185,49.13Z"/><path class="cls-2" d="M214.63,30.57,208,29.2l1.6,3.1a5.25,5.25,0,0,1,3.52,6.06l-3.27,15.89a5.26,5.26,0,0,1-6.22,4.09l-14.53-3a5.28,5.28,0,0,1-4.19-5.42L178.72,54l0,.23a5.25,5.25,0,0,0,4.09,6.22l24.66,5.08a5.26,5.26,0,0,0,6.22-4.09l5.08-24.66A5.27,5.27,0,0,0,214.63,30.57Z"/><path class="cls-3" d="M209.6,32.3a4.74,4.74,0,0,0-.57-.16l-14.53-3a5.27,5.27,0,0,0-6.22,4.09L185,49.13a5.64,5.64,0,0,0-.1.8,5.28,5.28,0,0,0,4.19,5.42l14.53,3a5.26,5.26,0,0,0,6.22-4.09l3.27-15.89A5.25,5.25,0,0,0,209.6,32.3Z"/><text class="cls-8" transform="matrix(0.98, 0.2, -0.2, 0.98, 191.6, 51.45)">A</text><path class="cls-1" d="M226.42,43.31l2-16.09a5.27,5.27,0,0,1,5.88-4.57L249,24.47l.58.11-1.84-2.95-18.27-2.27a5.26,5.26,0,0,0-5.87,4.57l-3.07,24.75,5.84-4.55A5.67,5.67,0,0,1,226.42,43.31Z"/><path class="cls-2" d="M254.48,22.46l-6.72-.83,1.84,2.95a5.26,5.26,0,0,1,4,5.77l-2,16.09A5.27,5.27,0,0,1,245.72,51L231,49.19a5.27,5.27,0,0,1-4.61-5.06l-5.84,4.55,0,.24a5.26,5.26,0,0,0,4.57,5.87l25,3.1A5.26,5.26,0,0,0,256,53.32l3.11-25A5.28,5.28,0,0,0,254.48,22.46Z"/><path class="cls-3" d="M249.6,24.58l-.58-.11L234.3,22.65a5.27,5.27,0,0,0-5.88,4.57l-2,16.09a5.67,5.67,0,0,0,0,.82A5.27,5.27,0,0,0,231,49.19L245.72,51a5.27,5.27,0,0,0,5.88-4.58l2-16.09A5.26,5.26,0,0,0,249.6,24.58Z"/><text class="cls-9" transform="translate(234.56 45.53) rotate(7.08)">T</text><path class="cls-1" d="M265.43,44.93V28.71a5.27,5.27,0,0,1,5.27-5.27h14.83a5.65,5.65,0,0,1,.59,0l-2.19-2.71h-18.4A5.27,5.27,0,0,0,260.26,26V51l5.24-5.23A5.54,5.54,0,0,1,265.43,44.93Z"/><path class="cls-2" d="M290.7,20.77h-6.77l2.19,2.71a5.26,5.26,0,0,1,4.68,5.23V44.93a5.27,5.27,0,0,1-5.27,5.26H270.7a5.26,5.26,0,0,1-5.2-4.45L260.26,51v.24a5.27,5.27,0,0,0,5.27,5.27H290.7A5.27,5.27,0,0,0,296,51.21V26A5.27,5.27,0,0,0,290.7,20.77Z"/><path class="cls-3" d="M286.12,23.48a5.65,5.65,0,0,0-.59,0H270.7a5.27,5.27,0,0,0-5.27,5.27V44.93a5.54,5.54,0,0,0,.07.81,5.26,5.26,0,0,0,5.2,4.45h14.83a5.27,5.27,0,0,0,5.27-5.26V28.71A5.26,5.26,0,0,0,286.12,23.48Z"/><text class="cls-5" transform="translate(272.37 46.01)">U</text><path class="cls-1" d="M305.81,38.55l-1.57-16.14A5.26,5.26,0,0,1,309,16.66l14.77-1.44.59,0-2.44-2.48L303.56,14.5a5.26,5.26,0,0,0-4.73,5.75l2.42,24.82L306,39.35A5.37,5.37,0,0,1,305.81,38.55Z"/><path class="cls-2" d="M328.62,12.05l-6.74.66,2.44,2.48a5.26,5.26,0,0,1,5.16,4.75l1.58,16.14a5.28,5.28,0,0,1-4.73,5.76l-14.77,1.44a5.26,5.26,0,0,1-5.6-3.93l-4.71,5.72,0,.24A5.26,5.26,0,0,0,307,50l25.06-2.45a5.26,5.26,0,0,0,4.72-5.75l-2.44-25.06A5.27,5.27,0,0,0,328.62,12.05Z"/><path class="cls-3" d="M324.32,15.19l-.59,0L309,16.66a5.26,5.26,0,0,0-4.72,5.75l1.57,16.14a5.37,5.37,0,0,0,.15.8,5.26,5.26,0,0,0,5.6,3.93l14.77-1.44a5.28,5.28,0,0,0,4.73-5.76l-1.58-16.14A5.26,5.26,0,0,0,324.32,15.19Z"/><text class="cls-10" transform="translate(313.58 38.94) rotate(-5.58)">R</text><path class="cls-1" d="M343.84,43l1-16.19a5.25,5.25,0,0,1,5.56-4.94l14.81.87a5.6,5.6,0,0,1,.59.07l-2-2.83-18.37-1.09a5.28,5.28,0,0,0-5.57,4.95l-1.47,24.89,5.54-4.92A7.18,7.18,0,0,1,343.84,43Z"/><path class="cls-2" d="M370.49,20.42l-6.76-.4,2,2.83a5.26,5.26,0,0,1,4.36,5.49l-1,16.19a5.26,5.26,0,0,1-5.56,4.95l-14.81-.87a5.27,5.27,0,0,1-4.93-4.76l-5.54,4.92V49a5.26,5.26,0,0,0,4.95,5.57l25.13,1.48A5.26,5.26,0,0,0,374,51.12L375.44,26A5.27,5.27,0,0,0,370.49,20.42Z"/><path class="cls-3" d="M365.76,22.85a5.6,5.6,0,0,0-.59-.07l-14.81-.87a5.25,5.25,0,0,0-5.56,4.94l-1,16.19a7.18,7.18,0,0,0,0,.81,5.27,5.27,0,0,0,4.93,4.76l14.81.87a5.26,5.26,0,0,0,5.56-4.95l1-16.19A5.26,5.26,0,0,0,365.76,22.85Z"/><text class="cls-11" transform="translate(351.01 44.49) rotate(3.38)">B</text><path class="cls-1" d="M385.8,47.12,384.4,31a5.27,5.27,0,0,1,4.8-5.7L404,24a3.88,3.88,0,0,1,.59,0l-2.42-2.51-18.33,1.58a5.27,5.27,0,0,0-4.8,5.7l2.15,24.84,4.77-5.67A4.18,4.18,0,0,1,385.8,47.12Z"/><path class="cls-2" d="M408.9,20.88l-6.75.59L404.57,24a5.27,5.27,0,0,1,5.11,4.8l1.39,16.16a5.27,5.27,0,0,1-4.79,5.7L391.5,51.91a5.25,5.25,0,0,1-5.56-4l-4.77,5.67,0,.24a5.26,5.26,0,0,0,5.7,4.79L412,56.46a5.26,5.26,0,0,0,4.79-5.7L414.6,25.68A5.27,5.27,0,0,0,408.9,20.88Z"/><path class="cls-3" d="M404.57,24a3.88,3.88,0,0,0-.59,0L389.2,25.27a5.27,5.27,0,0,0-4.8,5.7l1.4,16.15a4.18,4.18,0,0,0,.14.8,5.25,5.25,0,0,0,5.56,4l14.78-1.27a5.27,5.27,0,0,0,4.79-5.7l-1.39-16.16A5.27,5.27,0,0,0,404.57,24Z"/><text class="cls-12" transform="translate(392.8 47.78) rotate(-4.93)">O</text></svg>