<svg id="Layer_1" data-name="Layer 1" xmlns="http://www.w3.org/2000/svg" viewBox="0 0 1002 273"><defs><style>.cls-1{fill:#43c5e6;}.cls-2{fill:#29993a;}.cls-3{fill:#62b75e;}.cls-4{fill:#78e1ef;opacity:0.5;}.cls-5{fill:#e0db2b;}.cls-6{fill:#00384b;}.cls-7{fill:#1c536a;}.cls-8{fill:#51c2df;}.cls-9{fill:#5dae5a;}.cls-10,.cls-13,.cls-16{fill:#fff;}.cls-11,.cls-17{fill:#f7a841;}.cls-12{fill:#183f4c;}.cls-13,.cls-14,.cls-15,.cls-16,.cls-17{stroke:#183f4c;}.cls-13,.cls-15,.cls-16,.cls-17{stroke-linecap:round;stroke-linejoin:round;}.cls-13{stroke-width:0.83px;}.cls-14{fill:#e2aed1;stroke-miterlimit:10;}.cls-14,.cls-15,.cls-16,.cls-17{stroke-width:0.76px;}.cls-15{fill:none;}</style></defs><path class="cls-1" d="M0,0V272.91H1002.68V0Z"/><path class="cls-2" d="M1002.68,180.7c-1.95-4.51-12.37-7.51-19.89-7a22.58,22.58,0,0,0-7.37,1.76c-2.68-9.27-15.49-15.63-30.36-14.55-16.26,1.17-28.81,10.8-28,21.5a15.44,15.44,0,0,0,.26,1.79c-2.85-3.21-8.36-5.15-14.54-4.71a19.81,19.81,0,0,0-12.09,4.82,11,11,0,0,0-4.46-.55,10,10,0,0,0-5.86,2.24c-3-2.71-8.09-4.3-13.73-3.89a21.31,21.31,0,0,0-9.82,3.06c-3.89-5.05-12.19-8.17-21.53-7.49-9.12.66-16.73,4.75-20,10.1a22.68,22.68,0,0,0-18.47,1.39c-4-4.85-12.14-7.83-21.28-7.17-12.46.91-22.1,8.22-21.7,16.4l-11.92.86c-2-4.51-8.49-7.5-16-7a19.75,19.75,0,0,0-12.09,4.82,11,11,0,0,0-4.45-.55,10,10,0,0,0-5.86,2.24c-3-2.71-8.1-4.3-13.74-3.89a21.31,21.31,0,0,0-9.81,3.06c-3.9-5.05-12.19-8.17-21.54-7.49-.8.05-1.59.14-2.37.26s-1.31,0-2,.08c-7,.51-13.09,3-17,6.59-4-6-13.49-9.84-24.27-9.06-13.8,1-24.46,9.15-23.85,18.22q-.46,0-.93,0a10.51,10.51,0,0,0-5.22,1.74c-2.88-3.14-8.35-5-14.47-4.6a21.42,21.42,0,0,0-9.81,3.05c-3.89-5-12.19-8.16-21.54-7.49a30.75,30.75,0,0,0-14.39,4.57c-4.42-3.12-11-4.85-18.18-4.33-10.3.75-18.67,5.88-21,12.25-3.07-2.22-7.68-3.46-12.75-3.1a22.54,22.54,0,0,0-7.81,2,22.39,22.39,0,0,0-8-.83,19.73,19.73,0,0,0-12.09,4.82,11,11,0,0,0-4.46-.55,10,10,0,0,0-5.86,2.24L0,219.89V256.6H1002.68Z"/><rect class="cls-3" y="234.23" width="1002.68" height="38.77"/><path class="cls-4" d="M0,166.14s102.92,20,302.42-2.66C439.3,148,591.71,117.89,706.88,117.89c182.93,0,295.8,16.44,295.8,16.44V65.74S832.52,89.06,690.15,89.06c-137.76,0-332.24-45-446.25-61.24C57.7,1.22,0,37.13,0,37.13Z"/><rect class="cls-5" x="895.36" y="201.94" width="63.75" height="37.02"/><polygon class="cls-6" points="900.2 186.55 954.27 186.55 964.29 208.68 890.18 208.68 900.2 186.55"/><rect class="cls-6" x="932.39" y="218.99" width="12.55" height="19.42"/><rect class="cls-7" x="890.18" y="208.68" width="74.11" height="2.41"/><rect class="cls-6" x="907.98" y="218.3" width="12.69" height="12.69"/><rect class="cls-8" x="910.09" y="220.41" width="8.48" height="8.48"/><path class="cls-9" d="M769.77,164.66c0-.12,0-.24,0-.37a19.61,19.61,0,0,0-39-2.76A22.37,22.37,0,0,0,734.42,205a27.15,27.15,0,1,0,35.35-40.34Z"/><path class="cls-2" d="M739.13,169.06a19.62,19.62,0,0,1,27.78-15,19.61,19.61,0,0,0-36.16,7.45,22.36,22.36,0,0,0-3.51,41.18,22.36,22.36,0,0,1,11.89-33.65Z"/><ellipse class="cls-9" cx="355.99" cy="186.88" rx="8.85" ry="22.98"/><path class="cls-2" d="M364.84,186.88c0-12.69-4-23-8.85-23v46C360.88,209.86,364.84,199.57,364.84,186.88Z"/><ellipse class="cls-9" cx="319.29" cy="188.19" rx="24.37" ry="24.36" transform="translate(-39.52 281) rotate(-45.02)"/><path class="cls-2" d="M323.15,164.13a24.36,24.36,0,0,1-19,39.56,24.62,24.62,0,0,1-3.86-.31,24.37,24.37,0,1,0,22.91-39.25Z"/><path class="cls-7" d="M355.71,226.43a1.41,1.41,0,0,1-1.08-1.39V179.25a1.4,1.4,0,0,1,1.08-1.39,1.37,1.37,0,0,1,1.65,1.34v45.89A1.37,1.37,0,0,1,355.71,226.43Z"/><path class="cls-7" d="M328.25,194a1.23,1.23,0,0,0-1.86-.71l-6.8,4.52V183.69a1.26,1.26,0,0,0-1-1.26,1.22,1.22,0,0,0-1.45,1.2V189l-5-3a1.22,1.22,0,1,0-1.29,2.06l6.27,3.85v8.2h0v25.07a1.26,1.26,0,0,0,1,1.26,1.22,1.22,0,0,0,1.44-1.2V200.76l8.13-5.4A1.22,1.22,0,0,0,328.25,194Z"/><path class="cls-7" d="M748.55,243.31a2,2,0,0,1-1.72-2V174.36a2,2,0,0,1,1.72-2,2,2,0,0,1,2.22,1.95v67.08A2,2,0,0,1,748.55,243.31Z"/><path class="cls-7" d="M748.8,202.81a2,2,0,0,1-1.8-1.16,2,2,0,0,1,.77-2.48l14-9.28a2,2,0,0,1,2.85.77,2,2,0,0,1-.73,2.55l-14,9.27A1.91,1.91,0,0,1,748.8,202.81Z"/><path class="cls-7" d="M748.8,188.48a1.94,1.94,0,0,1-1-.29l-11-6.74a2,2,0,0,1-.83-2.52,2,2,0,0,1,2.82-.87l11,6.74a2,2,0,0,1,.85,2.48A2,2,0,0,1,748.8,188.48Z"/><path class="cls-10" d="M659.45,63.07a10.58,10.58,0,0,0-17.71-11.45,9.46,9.46,0,0,0-5.83-2,9.35,9.35,0,0,0-2.55.35,13.55,13.55,0,0,0-26,3.2,7,7,0,0,0-.8,0,7.76,7.76,0,0,0-7.45,9.93Z"/><path class="cls-10" d="M748.36,48.54a8.13,8.13,0,0,0-13.61-8.79,7.28,7.28,0,0,0-4.48-1.53,7.08,7.08,0,0,0-2,.27A10.41,10.41,0,0,0,708.38,41a6.08,6.08,0,0,0-.61,0,6,6,0,0,0-6,6,5.7,5.7,0,0,0,.24,1.66Z"/><path class="cls-1" d="M0,70.38s92.28-53.2,483.29,33.25c0,0-278.47,65.17-483.29,21.28Z"/><path class="cls-11" d="M913.21,175.6l-.4-3.9a31.47,31.47,0,0,0-4.44,5.27,12.72,12.72,0,0,0-2.08-3.06,18.65,18.65,0,0,0-.1,9.75,10.36,10.36,0,0,0,6.42,7l1.57-1a5.42,5.42,0,0,1-1.44-4,9,9,0,0,1,1.11-3.44,26.87,26.87,0,0,1,8.38-9.71C919.05,171.61,915.87,173.65,913.21,175.6Z"/><path class="cls-12" d="M913.55,175.6l-.4-3.9a.35.35,0,0,0-.59-.24,33.2,33.2,0,0,0-4.48,5.34h.59a14,14,0,0,0-2.13-3.14.35.35,0,0,0-.58.15c-1.05,4.37-1.19,9.26,1.4,13.14a10.16,10.16,0,0,0,4.19,3.66c.53.25.94.51,1.45.2s.9-.6,1.35-.89a.35.35,0,0,0,.07-.54c-2.66-3-.67-6.72,1.19-9.56a26.94,26.94,0,0,1,6.79-7,.35.35,0,0,0-.08-.63c-3.46-.84-6.6,1.22-9.28,3.16-.36.26,0,.86.34.59,2.51-1.82,5.5-3.87,8.76-3.09l-.09-.62a27.49,27.49,0,0,0-7.52,8.08c-1.84,3-3.25,6.6-.6,9.6l.07-.54-1,.68c-.11.07-.36.32-.5.33a8,8,0,0,1-1-.49,9.73,9.73,0,0,1-3.87-3.71c-2.19-3.66-2-8.12-1-12.13l-.57.15a13.31,13.31,0,0,1,2,3,.35.35,0,0,0,.59,0,33,33,0,0,1,4.38-5.21l-.59-.24.41,3.9C912.91,176,913.6,176,913.55,175.6Z"/><path class="cls-13" d="M910.91,189l1,.13a1.16,1.16,0,0,0,1.19-.63l.42-.87a1.14,1.14,0,0,1,2.15.29l.17,1a1.16,1.16,0,0,0,1,.94l1,.13a1.14,1.14,0,0,1,.39,2.14l-.85.45a1.15,1.15,0,0,0-.59,1.21l.17,1a1.14,1.14,0,0,1-1.91,1l-.7-.67a1.15,1.15,0,0,0-1.33-.18l-.86.46a1.15,1.15,0,0,1-1.57-1.51l.42-.87a1.14,1.14,0,0,0-.23-1.32L910,191A1.14,1.14,0,0,1,910.91,189Z"/><path class="cls-14" d="M916.14,195.42l-21.84,4.5a4.42,4.42,0,0,0-3.54,5.13l4.3,20.83a4.4,4.4,0,0,0,5.28,3.3l3.6-.74a9.08,9.08,0,0,0,15.24-3.14l3-.62a4.42,4.42,0,0,0,3.54-5.13l-4.3-20.83A4.4,4.4,0,0,0,916.14,195.42Z"/><path class="cls-12" d="M903.7,218.11l1.2,5.26A5.82,5.82,0,1,0,916.29,221l-.95-5.57a16.86,16.86,0,0,1-5.94,2.42A17.06,17.06,0,0,1,903.7,218.11Z"/><path class="cls-15" d="M897.88,218.6a7.79,7.79,0,0,0,3.14-3.68"/><path class="cls-15" d="M920.54,213.92a7.72,7.72,0,0,1-4.34-2.14"/><path class="cls-15" d="M919.52,220.35A9.11,9.11,0,1,1,901.67,224"/><path class="cls-10" d="M906.54,223.66a8.43,8.43,0,0,0,4.24,0,9.69,9.69,0,0,0,4.23-1.85l-.29-6.25a12.43,12.43,0,0,1-5.32,2.29,11.24,11.24,0,0,1-4.95.09Z"/><line class="cls-15" x1="909.65" y1="217.82" x2="910.93" y2="224.04"/><path class="cls-15" d="M915.89,197.31a3.18,3.18,0,0,1-2,2.58"/><path class="cls-15" d="M916.7,199.83A3.43,3.43,0,0,1,914,201.9"/><path class="cls-15" d="M896,201.41a3.2,3.2,0,0,0,2.85,1.58"/><path class="cls-15" d="M896.15,204.08a3.48,3.48,0,0,0,3.28.84"/><path class="cls-16" d="M904,197.84l2,9.71a3,3,0,0,1-2.37,3.42h0a2.94,2.94,0,0,1-3.52-2.21l-2-9.71Z"/><path class="cls-12" d="M902.93,202.59a.75.75,0,0,1-.22-1.09.84.84,0,0,1,.63-.36l-.4-1.92a1.21,1.21,0,0,0-2.36.49l1.33,6.43a1.21,1.21,0,0,0,2.36-.49l-.62-3A.84.84,0,0,1,902.93,202.59Z"/><path class="cls-16" d="M912.83,196l2,9.71a2.94,2.94,0,0,1-2.37,3.42h0a2.94,2.94,0,0,1-3.53-2.2l-2-9.71Z"/><path class="cls-12" d="M911.72,200.78a.76.76,0,0,1-.23-1.09.85.85,0,0,1,.64-.36l-.4-1.92a1.21,1.21,0,0,0-2.36.48l1.33,6.43a1.21,1.21,0,0,0,2.36-.48l-.62-3A.84.84,0,0,1,911.72,200.78Z"/><path class="cls-17" d="M881.16,224.53s.53-3,2.83-1.34l-3-9.47,11.8,2.07-1.06-5.1-16.38-1.83Z"/><polygon class="cls-17" points="922.58 203.61 934.27 200.19 931 191.97 934.11 191.47 939.67 201.92 923.55 208.34 922.58 203.61"/><path class="cls-15" d="M910.33,211.72c.19-.31.35-.31.27-.65a1.9,1.9,0,0,0-2.38-1.15c-1.13.24-1.91,1.13-1.73,2,.09.4.29.37.67.58"/><path class="cls-16" d="M879.56,224.07c1.16-.54,1.08-3.19,3.63-2.67l1.24,2.86h0a1.27,1.27,0,0,1,1.26,1.08c.29,2.1,1,6.36,1.14,9.17a1.71,1.71,0,0,1-1.4,1.62l-2.93.78-.67.39a1.83,1.83,0,0,1-1.66-.31l-.76-.61h0a1.24,1.24,0,0,1-1.3.08l-1.61-.71h0a1.35,1.35,0,0,1-1.3-.27l-1.16-.73a1.46,1.46,0,0,1-.35-1.68l1.52-3.53a2.16,2.16,0,0,1,2.42-.84l1-3.72A1.81,1.81,0,0,1,879.56,224.07Z"/><line class="cls-16" x1="876.32" y1="232.55" x2="877.63" y2="228.7"/><path class="cls-16" d="M880.34,232.36c-.13.14-3.84,3.39-3.84,3.39"/><path class="cls-16" d="M882.65,233.66c-.13.14-3.32,2.76-3.32,2.76"/><path class="cls-16" d="M885,235c-.13.15-2.49,1.92-2.49,1.92"/><path class="cls-16" d="M935.51,173.43a1.11,1.11,0,0,0-1.34-.28,1.4,1.4,0,0,0-.7.83,9.5,9.5,0,0,0-.46,2.64l-3.65-3.55a1.15,1.15,0,0,0-.89-.25c-1.32.27-1,1.71-1,1.71l-1.23-1a.94.94,0,0,0-.51-.19,1.16,1.16,0,0,0-1.32,1.15,1.75,1.75,0,0,0-1.31.46c-.94,1.08.77,2.58.77,2.58l2.29,1.9-.22,4.14a2.24,2.24,0,0,0-1.09.58s-1.36-1.13-1.64-1.33c-2.56-2.44-4.06-1.79-4.06-1.79-1.24.55-.61,1.35-.61,1.35l9.77,8a2.26,2.26,0,0,0,2.08.31l1.12,2a2.69,2.69,0,0,0,2.51-1l-.1-2.13a1.11,1.11,0,0,0,.52-.87l1.09-13.92C935.61,174.54,935.69,173.61,935.51,173.43Z"/><path class="cls-16" d="M924.9,184.19s1.13-1.27,3.29-.23a9.52,9.52,0,0,1,3.45,3.36"/><path class="cls-16" d="M926,183.59l.19-4.12-2.29-1.9s-1.71-1.5-.77-2.58a1.75,1.75,0,0,1,1.31-.46,1.16,1.16,0,0,1,1.32-1.15.94.94,0,0,1,.51.19l1.23,1s-.37-1.44,1-1.71a1.15,1.15,0,0,1,.89.25l3.65,3.55"/><path class="cls-16" d="M924.46,174.53s-.19.78,1.21,1.72l2.48,2.08.14,3.86"/><polyline class="cls-16" points="927.52 174.53 930.51 177.51 930.65 181.37"/><line class="cls-16" x1="932.63" y1="181.19" x2="933.01" y2="176.62"/><ellipse class="cls-12" cx="896.12" cy="213.48" rx="0.63" ry="0.6" transform="translate(-24.65 185.57) rotate(-11.66)"/><ellipse class="cls-12" cx="899.02" cy="213.25" rx="0.63" ry="0.6" transform="translate(-24.55 186.15) rotate(-11.66)"/><ellipse class="cls-12" cx="897.13" cy="215.97" rx="0.63" ry="0.6" transform="translate(-25.14 185.82) rotate(-11.66)"/><ellipse class="cls-12" cx="920.02" cy="208.55" rx="0.63" ry="0.6" transform="translate(-23.16 190.29) rotate(-11.66)"/><ellipse class="cls-12" cx="917.27" cy="209.48" rx="0.63" ry="0.6" transform="matrix(0.98, -0.2, 0.2, 0.98, -23.41, 189.76)"/><ellipse class="cls-12" cx="920.07" cy="211.23" rx="0.63" ry="0.6" transform="translate(-23.71 190.36) rotate(-11.66)"/><path class="cls-15" d="M900,216.67c5.66,2.75,13.3,1.29,17.78-3.1"/><path class="cls-14" d="M916.14,195.42l-21.84,4.5a4.42,4.42,0,0,0-3.54,5.13l4.3,20.83a4.4,4.4,0,0,0,5.28,3.3l3.6-.74a9.08,9.08,0,0,0,15.24-3.14l3-.62a4.42,4.42,0,0,0,3.54-5.13l-4.3-20.83A4.4,4.4,0,0,0,916.14,195.42Z"/><path class="cls-12" d="M903.7,218.11l1.2,5.26A5.82,5.82,0,1,0,916.29,221l-.95-5.57a16.86,16.86,0,0,1-5.94,2.42A17.06,17.06,0,0,1,903.7,218.11Z"/><path class="cls-15" d="M897.88,218.6a7.79,7.79,0,0,0,3.14-3.68"/><path class="cls-15" d="M920.54,213.92a7.72,7.72,0,0,1-4.34-2.14"/><path class="cls-15" d="M919.52,220.35A9.11,9.11,0,1,1,901.67,224"/><path class="cls-10" d="M906.54,223.66a8.43,8.43,0,0,0,4.24,0,9.69,9.69,0,0,0,4.23-1.85l-.29-6.25a12.43,12.43,0,0,1-5.32,2.29,11.24,11.24,0,0,1-4.95.09Z"/><line class="cls-15" x1="909.65" y1="217.82" x2="910.93" y2="224.04"/><path class="cls-15" d="M915.89,197.31a3.18,3.18,0,0,1-2,2.58"/><path class="cls-15" d="M916.7,199.83A3.43,3.43,0,0,1,914,201.9"/><path class="cls-15" d="M896,201.41a3.2,3.2,0,0,0,2.85,1.58"/><path class="cls-15" d="M896.15,204.08a3.48,3.48,0,0,0,3.28.84"/><path class="cls-17" d="M881.16,224.53s.53-3,2.83-1.34l-3-9.47,11.8,2.07-1.06-5.1-16.38-1.83Z"/><polygon class="cls-17" points="922.58 203.61 934.27 200.19 931 191.97 934.11 191.47 939.67 201.92 923.55 208.34 922.58 203.61"/><path class="cls-15" d="M910.33,211.72c.19-.31.35-.31.27-.65a1.9,1.9,0,0,0-2.38-1.15c-1.13.24-1.91,1.13-1.73,2,.09.4.29.37.67.58"/><path class="cls-16" d="M879.56,224.07c1.16-.54,1.08-3.19,3.63-2.67l1.24,2.86h0a1.27,1.27,0,0,1,1.26,1.08c.29,2.1,1,6.36,1.14,9.17a1.71,1.71,0,0,1-1.4,1.62l-2.93.78-.67.39a1.83,1.83,0,0,1-1.66-.31l-.76-.61h0a1.24,1.24,0,0,1-1.3.08l-1.61-.71h0a1.35,1.35,0,0,1-1.3-.27l-1.16-.73a1.46,1.46,0,0,1-.35-1.68l1.52-3.53a2.16,2.16,0,0,1,2.42-.84l1-3.72A1.81,1.81,0,0,1,879.56,224.07Z"/><line class="cls-16" x1="876.32" y1="232.55" x2="877.63" y2="228.7"/><path class="cls-16" d="M880.34,232.36c-.13.14-3.84,3.39-3.84,3.39"/><path class="cls-16" d="M882.65,233.66c-.13.14-3.32,2.76-3.32,2.76"/><path class="cls-16" d="M885,235c-.13.15-2.49,1.92-2.49,1.92"/><path class="cls-16" d="M935.51,173.43a1.11,1.11,0,0,0-1.34-.28,1.4,1.4,0,0,0-.7.83,9.5,9.5,0,0,0-.46,2.64l-3.65-3.55a1.15,1.15,0,0,0-.89-.25c-1.32.27-1,1.71-1,1.71l-1.23-1a.94.94,0,0,0-.51-.19,1.16,1.16,0,0,0-1.32,1.15,1.75,1.75,0,0,0-1.31.46c-.94,1.08.77,2.58.77,2.58l2.29,1.9-.22,4.14a2.24,2.24,0,0,0-1.09.58s-1.36-1.13-1.64-1.33c-2.56-2.44-4.06-1.79-4.06-1.79-1.24.55-.61,1.35-.61,1.35l9.77,8a2.26,2.26,0,0,0,2.08.31l1.12,2a2.69,2.69,0,0,0,2.51-1l-.1-2.13a1.11,1.11,0,0,0,.52-.87l1.09-13.92C935.61,174.54,935.69,173.61,935.51,173.43Z"/><path class="cls-16" d="M924.9,184.19s1.13-1.27,3.29-.23a9.52,9.52,0,0,1,3.45,3.36"/><path class="cls-16" d="M926,183.59l.19-4.12-2.29-1.9s-1.71-1.5-.77-2.58a1.75,1.75,0,0,1,1.31-.46,1.16,1.16,0,0,1,1.32-1.15.94.94,0,0,1,.51.19l1.23,1s-.37-1.44,1-1.71a1.15,1.15,0,0,1,.89.25l3.65,3.55"/><path class="cls-16" d="M924.46,174.53s-.19.78,1.21,1.72l2.48,2.08.14,3.86"/><polyline class="cls-16" points="927.52 174.53 930.51 177.51 930.65 181.37"/><line class="cls-16" x1="932.63" y1="181.19" x2="933.01" y2="176.62"/><ellipse class="cls-12" cx="896.12" cy="213.48" rx="0.63" ry="0.6" transform="translate(-24.65 185.57) rotate(-11.66)"/><ellipse class="cls-12" cx="899.02" cy="213.25" rx="0.63" ry="0.6" transform="translate(-24.55 186.15) rotate(-11.66)"/><ellipse class="cls-12" cx="897.13" cy="215.97" rx="0.63" ry="0.6" transform="translate(-25.14 185.82) rotate(-11.66)"/><ellipse class="cls-12" cx="920.02" cy="208.55" rx="0.63" ry="0.6" transform="translate(-23.16 190.29) rotate(-11.66)"/><ellipse class="cls-12" cx="917.27" cy="209.48" rx="0.63" ry="0.6" transform="matrix(0.98, -0.2, 0.2, 0.98, -23.41, 189.76)"/><ellipse class="cls-12" cx="920.07" cy="211.23" rx="0.63" ry="0.6" transform="translate(-23.71 190.36) rotate(-11.66)"/><path class="cls-15" d="M900,216.67c5.66,2.75,13.3,1.29,17.78-3.1"/><rect class="cls-16" x="898.29" y="193.15" width="5.87" height="17.98" rx="2.94" transform="translate(-22.26 186.36) rotate(-11.66)"/><path class="cls-17" d="M900,196.5a3.32,3.32,0,0,1,3.28,1.17l-.42-2a2.94,2.94,0,0,0-3.47-2.28h0a2.93,2.93,0,0,0-2.28,3.47l.39,1.9A3.32,3.32,0,0,1,900,196.5Z"/><rect class="cls-16" x="908.15" y="191.12" width="5.87" height="17.98" rx="2.94" transform="translate(-21.64 188.32) rotate(-11.66)"/><path class="cls-17" d="M909.75,193.84A3.35,3.35,0,0,1,913,195l-.3-1.43a2.94,2.94,0,0,0-3.47-2.29h0a3,3,0,0,0-2.28,3.47l.27,1.29A3.35,3.35,0,0,1,909.75,193.84Z"/><rect class="cls-16" x="898.29" y="193.15" width="5.87" height="17.98" rx="2.94" transform="translate(-22.26 186.36) rotate(-11.66)"/><path class="cls-14" d="M900,196.5a3.32,3.32,0,0,1,3.28,1.17l-.42-2a2.94,2.94,0,0,0-3.47-2.28h0a2.93,2.93,0,0,0-2.28,3.47l.39,1.9A3.32,3.32,0,0,1,900,196.5Z"/><rect class="cls-16" x="908.15" y="191.12" width="5.87" height="17.98" rx="2.94" transform="translate(-21.64 188.32) rotate(-11.66)"/><path class="cls-14" d="M909.75,193.84A3.35,3.35,0,0,1,913,195l-.3-1.43a2.94,2.94,0,0,0-3.47-2.29h0a3,3,0,0,0-2.28,3.47l.27,1.29A3.35,3.35,0,0,1,909.75,193.84Z"/><path class="cls-12" d="M902,203.89a.8.8,0,0,1-.23-1.12.82.82,0,0,1,.61-.36l-.41-2a1.17,1.17,0,1,0-2.3.47l1.36,6.57a1.17,1.17,0,1,0,2.3-.47l-.63-3A.79.79,0,0,1,902,203.89Z"/><path class="cls-12" d="M911.79,201.61a.82.82,0,0,1-.23-1.12.83.83,0,0,1,.62-.36l-.41-2a1.17,1.17,0,1,0-2.3.48l1.36,6.57a1.16,1.16,0,0,0,1.38.91,1.17,1.17,0,0,0,.92-1.38l-.63-3.05A.82.82,0,0,1,911.79,201.61Z"/></svg>