<?xml version="1.0" encoding="utf-8"?>
<!-- Generator: Adobe Illustrator 24.1.2, SVG Export Plug-In . SVG Version: 6.00 Build 0)  -->
<svg version="1.1" id="Tastaturbo_turid_" xmlns="http://www.w3.org/2000/svg" xmlns:xlink="http://www.w3.org/1999/xlink" x="0px"
	 y="0px" viewBox="0 0 150.73 129.44" style="enable-background:new 0 0 150.73 129.44;" xml:space="preserve">
<style type="text/css">
	.st0{fill:#417C47;}
	.st1{fill:#54995F;}
	.st2{fill:none;stroke:#68B171;stroke-width:1.1;stroke-miterlimit:10;}
	.st3{fill:none;stroke:#1B3F4B;stroke-width:1.1;stroke-linecap:round;stroke-linejoin:round;}
	.st4{fill:#E1B0D1;stroke:#1B3F4B;stroke-width:1.1;stroke-miterlimit:10;}
	.st5{fill:#FFFFFF;stroke:#1B3F4B;stroke-width:1.1;stroke-linecap:round;stroke-linejoin:round;}
	.st6{fill:#F5A84C;stroke:#1B3F4B;stroke-width:1.1;stroke-linecap:round;stroke-linejoin:round;}
	.st7{fill:none;stroke:#000000;stroke-width:1.1;stroke-linecap:round;stroke-linejoin:round;}
	.st8{fill:#1B3F4B;}
</style>
<path class="st0" d="M28.6,77.11c-9.79,0.17-14.41,3.7-23.22,13.84c-2.39,2.75-3.16,3.65-2.4,6.6c0.75,3.01,3.14,5.34,6.17,6l96,21
	c9.81,1.56,20.25,5.35,30.25,4c7.09-1,14.88-10.53,14.38-24.73c-0.6-16.71-20.26-15.9-27.3-17.18L28.6,77.11z"/>
<path class="st1" d="M28.97,72.44c-9.79,0.18-14.41,3.7-23.22,13.85c-2.39,2.75-3.16,3.64-2.39,6.59c0.74,3.01,3.13,5.34,6.16,6
	l96,21c9.8,1.55,20.24,5.35,30.24,4c7.09-1,14.88-10.54,14.38-24.74c-0.59-16.7-20.26-15.9-27.3-17.18L28.97,72.44z"/>
<line class="st2" x1="3.45" y1="89.57" x2="145.83" y2="116.5"/>
<line class="st2" x1="8.01" y1="83.4" x2="149.65" y2="105.48"/>
<line class="st2" x1="16.2" y1="76.62" x2="149.67" y2="94.36"/>
<path class="st3" d="M150.16,99.13c-0.59-16.7-20.26-15.9-27.3-17.18l-93.89-9.51c-9.79,0.18-14.41,3.7-23.22,13.85
	c-2.39,2.75-3.16,3.64-2.39,6.59c0,0.16,0.08,0.31,0.13,0.46c-0.86,1.25-1.05,2.84-0.51,4.26c0.75,3.01,3.14,5.34,6.17,6l96,21
	c9.81,1.56,20.25,5.35,30.25,4c6.81-0.95,14.25-9.78,14.4-23C150.12,103.46,150.24,101.3,150.16,99.13z"/>
<path class="st4" d="M30.93,62.56C28.42,62.49,0.78,63.9,0.78,63.9l8.64,23.22l6.53-2.41L9.27,69.44l17.08,1.38L30.93,62.56z"/>
<path class="st5" d="M26.12,105.11l-4.18-4.43l-0.47-5.09l7.37,3.19c0,0,3.91,1.32,5.36-1.11c-0.47-3-4.82-2.3-7.3-5.41
	s-6.36-4.46-7.78-4.22l-2.34-3.37h-0.82l-7.37,3.08l1.88,4.24c-2.46,3.48-3.28,7.86-2.24,12l2.35,1l0.76,1.49
	c0.45,0.88,1.3,1.48,2.28,1.61l2.8,0.35l0.76,0.41c0.47,0.25,1.01,0.34,1.54,0.25l3-0.51h0.24c2.01,0.13,3.98-0.6,5.42-2
	L26.12,105.11z"/>
<line class="st3" x1="10.82" y1="99.15" x2="10.58" y2="104.98"/>
<line class="st3" x1="14.21" y1="103.24" x2="16.37" y2="108.45"/>
<line class="st3" x1="18.43" y1="104.57" x2="23.39" y2="108.71"/>
<path class="st6" d="M105.63,83.82c0,0-0.23,1.78,2.42,3.48l7.66,4c0,0,8.77-11.36,10.71-25.41l-3.11-1.58c0,0-3.77,1.32-7.61,10.26
	l-1.41,1.87l-7,3C107.29,79.44,111.07,81.54,105.63,83.82z"/>
<line class="st3" x1="114.29" y1="76.45" x2="115.38" y2="79.76"/>
<line class="st3" x1="116.51" y1="72.63" x2="118.45" y2="73.73"/>
<path class="st4" d="M61.86,78.08l23.35-6.64L109,80.15c0,0,0.27,1.89-3.37,3.66l-25.56-5.5l-18.26,7.64L61.86,78.08z"/>
<path class="st6" d="M105.63,83.82c0,0-0.23,1.78,2.42,3.48l7.66,4c0,0,8.77-11.36,10.71-25.41l-3.11-1.58c0,0-3.77,1.32-7.61,10.26
	l-1.41,1.87l-7,3C107.29,79.44,111.07,81.54,105.63,83.82z"/>
<line class="st3" x1="114.29" y1="76.45" x2="115.38" y2="79.76"/>
<line class="st3" x1="116.51" y1="72.63" x2="118.45" y2="73.73"/>
<path class="st7" d="M82.66,54.29c0,0,7.17-6.72,11.1,1.75c0,0,3.88,7.73-3,15.76c0,0-4.8,4.93-7.35,6.29"/>
<path class="st6" d="M93.76,56.04c-2-4.4-5-4.69-7.33-4l-1.29-19.39l-53,3.69L33.78,61c-1.61-0.12-3.2,0.46-4.36,1.59
	c0,0-9.38,8.39,5.5,16.73L35.63,90l53-3.69l-0.71-11.87c1.53-1.41,2.79-2.67,2.79-2.67C97.64,63.77,93.76,56.04,93.76,56.04z"/>
<path class="st3" d="M82.66,54.29c0,0,7.17-6.72,11.1,1.75c0,0,3.88,7.73-3,15.76c0,0-4.8,4.93-7.35,6.29"/>
<path class="st5" d="M52.42,62.25L52.42,62.25c-2.82,0.19-5.25-1.94-5.44-4.76c0-0.02,0-0.03,0-0.05L45.2,30.62
	c-0.2-2.84,1.93-5.3,4.76-5.52l0,0c2.82-0.19,5.26,1.94,5.46,4.76c0,0.02,0,0.03,0,0.05l1.76,26.83
	C57.38,59.58,55.25,62.05,52.42,62.25z"/>
<path class="st8" d="M52.84,47.16c-0.58-0.52-0.63-1.41-0.13-2c0.29-0.33,0.71-0.51,1.15-0.48l-0.24-3.54
	c-0.08-1.13-1.05-1.98-2.18-1.9c-1.13,0.08-1.98,1.05-1.9,2.18l0.78,11.8c0.08,1.13,1.06,1.99,2.19,1.9
	c1.13-0.08,1.99-1.06,1.91-2.19l0,0l-0.38-5.49C53.62,47.54,53.17,47.44,52.84,47.16z"/>
<path class="st6" d="M50.63,36.3c2.19-0.16,4.28,0.94,5.39,2.84l-0.6-9.23c-0.17-2.82-2.59-4.98-5.41-4.81c-0.01,0-0.02,0-0.03,0
	l0,0c-2.83,0.22-4.96,2.68-4.76,5.52l0.59,9C46.7,37.73,48.54,36.47,50.63,36.3z"/>
<path class="st5" d="M69.92,61.04L69.92,61.04c-2.82,0.18-5.26-1.96-5.44-4.78c0-0.01,0-0.02,0-0.03L62.7,29.44
	c-0.22-2.84,1.88-5.32,4.72-5.56l0,0c2.83-0.18,5.26,1.97,5.44,4.8c0,0,0,0.01,0,0.01l1.78,26.83
	C74.84,58.35,72.74,60.8,69.92,61.04z"/>
<path class="st8" d="M70.31,45.49c-0.58-0.52-0.64-1.41-0.13-2c0.29-0.33,0.71-0.51,1.15-0.48l-0.24-3.57
	c-0.08-1.13-1.05-1.98-2.18-1.9s-1.98,1.05-1.9,2.18l0.78,11.8c0.08,1.13,1.06,1.98,2.19,1.9c1.13-0.08,1.98-1.06,1.89-2.19l0,0
	l-0.36-5.46C71.09,45.88,70.64,45.77,70.31,45.49z"/>
<path class="st6" d="M68.05,33.98c2.18-0.15,4.26,0.94,5.37,2.83l-0.54-8.12c-0.17-2.83-2.6-4.98-5.43-4.81c-0.01,0-0.02,0-0.03,0
	l0,0c-2.84,0.24-4.94,2.72-4.72,5.56l0.52,7.85C64.11,35.4,65.96,34.13,68.05,33.98z"/>
<path class="st6" d="M61.42,64.44c1.33,0.74,2.86,1.01,4.36,0.76c2.15-0.33,4.87-2,4.51-4.52c-0.47-2.4-2.8-3.96-5.2-3.49
	c-0.15,0.03-0.29,0.07-0.44,0.11c-1.23,0.19-2.36,0.77-3.23,1.66"/>
<path class="st5" d="M36.99,68.14c4.71,3.92,10.68,6.01,16.81,5.88c7.61,0,17.49-3.17,29-13.81c0,0,5.77-5.73,7.43-0.66
	c0,0,3.48,8.35-11.09,16.17c0,0-21.77,14.11-42.86-1.31c0,0-6.48-4.88-2.57-7.82C33.67,66.59,34.96,66.2,36.99,68.14z"/>
<path class="st7" d="M38.83,64.9c0,0-3.83-7-9.38-2.31c0,0-10.24,9.15,7.62,17.83"/>
<line class="st3" x1="64.08" y1="72.32" x2="64.28" y2="80.83"/>
<line class="st3" x1="74.36" y1="67.17" x2="74.28" y2="78.13"/>
<line class="st3" x1="83.39" y1="59.72" x2="83.25" y2="73.14"/>
<line class="st3" x1="54.28" y1="81.37" x2="53.8" y2="74.02"/>
<line class="st3" x1="44.9" y1="79.14" x2="43.93" y2="72.32"/>
<path class="st3" d="M38.83,64.9c0,0-3.83-7-9.38-2.31c0,0-10.24,9.15,7.62,17.83"/>
<path class="st7" d="M82.66,54.29c0,0,7.17-6.72,11.1,1.75c0,0,3.88,7.73-3,15.76c0,0-4.8,4.93-7.35,6.29"/>
<path class="st6" d="M93.76,56.04c-2-4.4-5-4.69-7.33-4l-1.29-19.39l-53,3.69L33.78,61c-1.61-0.12-3.2,0.46-4.36,1.59
	c0,0-9.38,8.39,5.5,16.73L35.63,90l53-3.69l-0.71-11.87c1.53-1.41,2.79-2.67,2.79-2.67C97.64,63.77,93.76,56.04,93.76,56.04z"/>
<path class="st3" d="M82.66,54.29c0,0,7.17-6.72,11.1,1.75c0,0,3.88,7.73-3,15.76c0,0-4.8,4.93-7.35,6.29"/>
<path class="st5" d="M52.42,62.25L52.42,62.25c-2.82,0.19-5.25-1.94-5.44-4.76c0-0.02,0-0.03,0-0.05L45.2,30.62
	c-0.2-2.84,1.93-5.3,4.76-5.52l0,0c2.82-0.19,5.26,1.94,5.46,4.76c0,0.02,0,0.03,0,0.05l1.76,26.83
	C57.38,59.58,55.25,62.05,52.42,62.25z"/>
<path class="st8" d="M52.53,51.14c-0.58-0.52-0.64-1.41-0.13-2c0.28-0.33,0.71-0.51,1.14-0.48l-0.23-3.53
	c-0.09-1.13-1.07-1.98-2.2-1.89c-1.13,0.09-1.98,1.07-1.89,2.2l0.79,11.8c0.04,1.1,0.97,1.97,2.07,1.93c0.04,0,0.07,0,0.11-0.01
	c1.13-0.09,1.98-1.08,1.9-2.21l-0.36-5.51C53.3,51.54,52.86,51.43,52.53,51.14z"/>
<path class="st5" d="M69.92,61.04L69.92,61.04c-2.82,0.18-5.26-1.96-5.44-4.78c0-0.01,0-0.02,0-0.03L62.7,29.44
	c-0.22-2.84,1.88-5.32,4.72-5.56l0,0c2.83-0.18,5.26,1.97,5.44,4.8c0,0,0,0.01,0,0.01l1.78,26.83
	C74.84,58.35,72.74,60.8,69.92,61.04z"/>
<path class="st8" d="M70,49.44c-0.59-0.52-0.64-1.41-0.13-2c0.28-0.33,0.7-0.51,1.14-0.48l-0.23-3.52c-0.08-1.13-1.06-1.98-2.18-1.9
	s-1.98,1.06-1.9,2.18l0.79,11.79c0.03,1.1,0.96,1.97,2.06,1.94c0.04,0,0.07,0,0.11-0.01c1.13-0.09,1.98-1.08,1.91-2.21l-0.36-5.46
	C70.77,49.86,70.32,49.74,70,49.44z"/>
<path class="st6" d="M61.42,64.44c1.33,0.74,2.86,1.01,4.36,0.76c2.15-0.33,4.87-2,4.51-4.52c-0.47-2.4-2.8-3.96-5.2-3.49
	c-0.15,0.03-0.29,0.07-0.44,0.11c-1.23,0.19-2.36,0.77-3.23,1.66"/>
<path class="st5" d="M36.99,68.14c4.71,3.92,10.68,6.01,16.81,5.88c7.61,0,17.49-3.17,29-13.81c0,0,5.77-5.73,7.43-0.66
	c0,0,3.48,8.35-11.09,16.17c0,0-21.77,14.11-42.86-1.31c0,0-6.48-4.88-2.57-7.82C33.67,66.59,34.96,66.2,36.99,68.14z"/>
<path class="st7" d="M38.83,64.9c0,0-3.83-7-9.38-2.31c0,0-10.24,9.15,7.62,17.83"/>
<line class="st3" x1="64.08" y1="72.32" x2="64.28" y2="80.83"/>
<line class="st3" x1="74.36" y1="67.17" x2="74.28" y2="78.13"/>
<line class="st3" x1="83.39" y1="59.72" x2="83.25" y2="73.14"/>
<line class="st3" x1="54.28" y1="81.37" x2="53.8" y2="74.02"/>
<line class="st3" x1="44.9" y1="79.14" x2="43.93" y2="72.32"/>
<path class="st3" d="M38.83,64.9c0,0-3.83-7-9.38-2.31c0,0-10.24,9.15,7.62,17.83"/>
<path class="st6" d="M76.84,100.2c0,0-0.59,1.7,1.67,3.91l6.69,5.46c0,0,10.87-9.29,15.61-22.65l-2.72-2.18c0,0-4,0.51-9.52,8.48
	l-1.77,1.55l-7.38,1.46C79.42,96.23,82.63,99.09,76.84,100.2z"/>
<line class="st3" x1="86.8" y1="94.77" x2="87.2" y2="98.23"/>
<line class="st3" x1="89.74" y1="91.48" x2="91.42" y2="92.96"/>
<path class="st4" d="M35.16,85.56l24.2-1.68l21.51,13.43c0,0-0.11,1.91-4,2.89L52.93,89.54l-19.41,3.72L35.16,85.56z"/>
<path class="st6" d="M76.84,100.2c0,0-0.59,1.7,1.67,3.91l6.69,5.46c0,0,10.87-9.29,15.61-22.65l-2.72-2.18c0,0-4,0.51-9.52,8.48
	l-1.77,1.55l-7.38,1.46C79.42,96.23,82.63,99.09,76.84,100.2z"/>
<line class="st3" x1="86.8" y1="94.77" x2="87.2" y2="98.23"/>
<line class="st3" x1="89.74" y1="91.48" x2="91.42" y2="92.96"/>
<path class="st4" d="M36.07,17.72c-1.35,3.73-1.28,7.83,0.19,11.52c0.51,1.29,1.18,2.5,2,3.62c0.38-0.3,0.8-0.54,1.25-0.72l27.48-11
	l0.53-0.17c-0.18-1.31-0.51-2.6-1-3.83c-3.33-8.35-12.8-12.43-21.15-9.1c-1.18,0.47-2.3,1.07-3.33,1.8c0.08-1.28-0.13-2.55-0.6-3.74
	c-1.79-4.51-6.9-6.72-11.41-4.93s-6.72,6.9-4.93,11.41c1.72,4.35,6.54,6.58,10.97,5.09V17.72z"/>
<path class="st5" d="M39.52,32.15L67.02,21.2c2.6-1.04,5.55,0.23,6.59,2.83l0,0.01c1.04,2.6-0.23,5.55-2.83,6.59L43.28,41.58
	c-2.6,1.04-5.55-0.23-6.59-2.83l0-0.01C35.65,36.13,36.92,33.19,39.52,32.15z"/>
<circle class="st5" cx="18.45" cy="11.3" r="9.12"/>
</svg>
