<?xml version="1.0" encoding="utf-8"?>
<!-- Generator: Adobe Illustrator 24.1.2, SVG Export Plug-In . SVG Version: 6.00 Build 0)  -->
<svg version="1.1" id="Tastaturbo_turid_" xmlns="http://www.w3.org/2000/svg" xmlns:xlink="http://www.w3.org/1999/xlink" x="0px"
	 y="0px" viewBox="0 0 124.87 187.18" style="enable-background:new 0 0 124.87 187.18;" xml:space="preserve">
<style type="text/css">
	.st0{fill:#FDCC45;stroke:#1B3F4B;stroke-width:1.06;stroke-linecap:round;stroke-linejoin:round;}
	.st1{fill:#F5C445;stroke:#1B3F4B;stroke-linecap:round;stroke-linejoin:round;}
	.st2{fill:#F5C445;stroke:#1B3F4B;stroke-width:1.06;stroke-linecap:round;stroke-linejoin:round;}
	.st3{fill:#22494F;stroke:#22494F;stroke-width:0.93;stroke-miterlimit:10;}
	.st4{fill:none;stroke:#1B3F4B;stroke-width:1.06;stroke-linecap:round;stroke-linejoin:round;}
	.st5{fill:#F5A84C;}
	.st6{clip-path:url(#SVGID_2_);}
	.st7{fill:#FFFFFF;stroke:#1B3F4B;stroke-width:1.06;stroke-linecap:round;stroke-linejoin:round;}
	.st8{fill:#1B3F4B;}
	.st9{fill:#F5A84C;stroke:#1B3F4B;stroke-width:1.06;stroke-linecap:round;stroke-linejoin:round;}
</style>
<path class="st0" d="M93.95,74.5c-7.43,3.12-19.84,5.17-33.91,5.17c-12.35,0-23.42-1.58-31-4.07
	C11.39,86.44,0.61,105.65,0.53,126.37c0,33.29,27.71,60.28,61.9,60.28s61.91-27,61.91-60.28C124.34,104.26,112.14,85,93.95,74.5z"/>
<path class="st1" d="M93.95,74.5c-20.18-11.6-45.1-11.17-64.87,1.1c7.54,2.49,18.61,4.07,31,4.07
	C74.12,79.67,86.53,77.61,93.95,74.5z"/>
<path class="st2" d="M59.64,49.82c-5.46,0-9.88,4.42-9.88,9.88s4.42,9.88,9.88,9.88s9.88-4.42,9.88-9.88v0
	C69.52,54.24,65.1,49.82,59.64,49.82z M59.64,65.58c-3.25,0-5.88-2.63-5.88-5.88s2.63-5.88,5.88-5.88c3.25,0,5.88,2.63,5.88,5.88v0
	C65.51,62.94,62.89,65.57,59.64,65.58z"/>
<ellipse class="st3" cx="106.39" cy="121.24" rx="10.94" ry="12.76"/>
<ellipse class="st3" cx="19.93" cy="121.24" rx="10.94" ry="12.76"/>
<path class="st4" d="M105.47,137.96c-8.21,0-14.89-7.5-14.89-16.72s6.68-16.71,14.89-16.71s14.88,7.5,14.88,16.71
	S113.67,137.96,105.47,137.96z"/>
<ellipse class="st4" cx="20.86" cy="121.24" rx="14.89" ry="16.71"/>
<circle class="st5" cx="61.59" cy="127.43" r="12.76"/>
<g>
	<defs>
		<circle id="SVGID_1_" cx="61.59" cy="127.43" r="12.76"/>
	</defs>
	<clipPath id="SVGID_2_">
		<use xlink:href="#SVGID_1_"  style="overflow:visible;"/>
	</clipPath>
	<g class="st6">
		<path class="st7" d="M65.46,109.75L65.46,109.75c2.08-0.34,4.05,1.07,4.39,3.15l3.23,19.6c0.34,2.08-1.07,4.05-3.15,4.39l0,0
			c-2.08,0.34-4.05-1.07-4.39-3.15l-3.23-19.6C61.97,112.05,63.38,110.09,65.46,109.75z"/>
		<path class="st8" d="M69.12,125.44c-0.47-0.34-0.58-1-0.24-1.47c0.18-0.27,0.49-0.43,0.81-0.43l-0.42-2.58
			c-0.05-0.84-0.77-1.49-1.61-1.44s-1.49,0.77-1.44,1.61c0.01,0.11,0.02,0.22,0.06,0.33l1.42,8.61c0.23,0.81,1.08,1.29,1.89,1.06
			c0.69-0.19,1.15-0.84,1.11-1.56l-0.66-4C69.72,125.67,69.39,125.62,69.12,125.44z"/>
		<path class="st9" d="M66.62,117.13c1.61-0.28,3.24,0.38,4.21,1.7l-1-5.93c-0.34-2.08-2.31-3.49-4.39-3.15c0,0,0,0,0,0l0,0
			c-2.08,0.34-3.49,2.31-3.15,4.39c0,0,0,0,0,0l1,5.73C63.83,118.43,65.1,117.39,66.62,117.13z"/>
		<path class="st7" d="M53.53,111.4L53.53,111.4c2.08-0.34,4.05,1.07,4.39,3.15l3.23,19.6c0.34,2.08-1.07,4.05-3.15,4.39l0,0
			c-2.08,0.34-4.05-1.07-4.39-3.15l-3.23-19.6C50.04,113.71,51.45,111.75,53.53,111.4z"/>
		<path class="st8" d="M57.18,127.09c-0.5-0.24-0.7-0.84-0.46-1.34c0.19-0.39,0.6-0.61,1.03-0.55l-0.42-2.58
			c-0.23-0.81-1.08-1.28-1.89-1.05c-0.68,0.19-1.14,0.83-1.11,1.54l1.42,8.62c0.23,0.81,1.08,1.29,1.89,1.06
			c0.69-0.19,1.15-0.84,1.11-1.56l-0.66-4C57.78,127.33,57.44,127.28,57.18,127.09z"/>
		<path class="st9" d="M54.68,118.77c1.61-0.27,3.24,0.39,4.21,1.71l-1-5.93c-0.34-2.08-2.31-3.49-4.39-3.15c0,0,0,0,0,0l0,0
			c-2.08,0.34-3.49,2.31-3.15,4.39c0,0,0,0,0,0l1,5.73C51.89,120.08,53.16,119.04,54.68,118.77z"/>
	</g>
</g>
<circle class="st4" cx="61.59" cy="127.43" r="12.76"/>
<circle class="st4" cx="61.59" cy="127.43" r="16.71"/>
<circle class="st4" cx="61.59" cy="127.43" r="12.76"/>
<path class="st8" d="M57.15,2.39v42c0,3.21,5,3.22,5,0V16.07c0-3.22-5-3.22-5,0v42c0,3.21,5,3.22,5,0v-42c0-3.22-5-3.22-5,0v28.34
	c0,3.21,5,3.22,5,0v-42c0-3.22-5-3.22-5,0V2.39z"/>
<circle class="st8" cx="39.26" cy="74.26" r="0.93"/>
<circle class="st8" cx="48.52" cy="75.03" r="0.93"/>
<circle class="st8" cx="57.78" cy="75.81" r="0.93"/>
<circle class="st8" cx="85.26" cy="74.26" r="0.93"/>
<circle class="st8" cx="75.99" cy="75.03" r="0.93"/>
<circle class="st8" cx="66.73" cy="75.81" r="0.93"/>
<path class="st2" d="M24.23,173.54c7.54,2.5,24.71,5.51,37.05,5.51c14.07,0,32.1-2.8,39.53-5.92"/>
<circle class="st8" cx="49.75" cy="181.3" r="0.93"/>
<circle class="st8" cx="59.02" cy="182.07" r="0.93"/>
<circle class="st8" cx="77.23" cy="181.3" r="0.93"/>
<circle class="st8" cx="67.97" cy="182.07" r="0.93"/>
</svg>
