<svg id="Layer_1" data-name="Layer 1" xmlns="http://www.w3.org/2000/svg" viewBox="0 0 1002 273"><defs><style>.cls-1{fill:#39dedb;}.cls-2{fill:#71d1e5;}.cls-3{fill:#62b75e;}.cls-4{fill:#4db9d3;}.cls-5{fill:#118397;}.cls-6{fill:#2eacc1;}.cls-7{fill:#298e71;}.cls-8{fill:#3a5c6a;}.cls-9{fill:#c6be30;}.cls-10{fill:#56b944;}.cls-11{fill:#28ac21;}.cls-12{fill:#fff;}.cls-13,.cls-17{fill:#1c536a;}.cls-14{fill:none;stroke:#fff;stroke-miterlimit:10;stroke-width:1px;}.cls-15{fill:#5fc9e5;}.cls-16{fill:#e0db2b;}.cls-17{font-size:16.54px;font-family:MyriadPro-Regular, Myriad Pro;}.cls-18{letter-spacing:-0.01em;}</style></defs><path class="cls-1" d="M0,0V272.16H1001.94V0"/><line class="cls-2" x1="1001.94"/><polygon class="cls-3" points="1002 64.87 886.48 48.01 819.04 65.99 771.83 53.63 557.14 91.85 1001.94 91.85 1002 64.87"/><polyline class="cls-4" points="196.32 91.45 196.32 51.98 207.25 30.08 218.19 51.98 218.19 91.45"/><polygon class="cls-5" points="248.75 91.85 267.07 91.85 267.07 54.29 248.75 50.73 248.75 91.85"/><rect class="cls-6" x="229.34" y="47.78" width="11.43" height="3.89"/><rect class="cls-6" x="226.91" y="51.16" width="16.3" height="40.68"/><rect class="cls-5" x="210.76" y="55.26" width="13.42" height="36.59"/><rect class="cls-5" x="216.98" y="60.76" width="18.9" height="31.08"/><polygon class="cls-5" points="204.6 91.85 184.35 91.85 184.35 76.53 204.6 71.25 204.6 91.85"/><polygon class="cls-4" points="274.68 91.85 259.27 91.85 259.27 67.83 274.68 63.82 274.68 91.85"/><polyline class="cls-5" points="279.83 91.45 279.83 66.23 290.77 55.51 301.71 66.23 301.71 91.45"/><polygon class="cls-5" points="332.26 91.85 350.58 91.85 350.58 50.97 332.26 44.1 332.26 91.85"/><rect class="cls-4" x="312.85" y="41.15" width="11.43" height="3.89"/><rect class="cls-4" x="310.42" y="44.53" width="16.3" height="47.31"/><rect class="cls-4" x="300.5" y="60.76" width="18.9" height="31.08"/><polygon class="cls-4" points="358.2 91.85 342.79 91.85 342.79 67.83 358.2 63.82 358.2 91.85"/><polygon class="cls-7" points="0 90.86 0 272.16 1001.94 272.16 1001.94 90.86 452.36 90.86 0 90.86"/><rect class="cls-8" y="191.47" width="1001.94" height="80.69"/><path class="cls-9" d="M267.44,88.81c-4.44,1.1-8.2,3.21-10.07,5.82l-4.2,8.61c-1.75,1.89-6.87,2.4-10.17,2.66L84.29,110.27c-23.58.62-43.48,1.61-70.27,8.08a47.12,47.12,0,0,0-14,5.92V148c24.8-27,64.91-28,86-29.74l151.45-7c9.7-.57,15.68-.12,20.21-3.66a5.27,5.27,0,0,0,1.85-3.6l.84-7.27c-.14-2.4,4.53-5.78,9.48-7.89"/><circle class="cls-10" cx="235.89" cy="91.85" r="7.31" transform="translate(4.18 193.77) rotate(-45.02)"/><path class="cls-11" d="M237,84.63a7.31,7.31,0,0,1-6.86,11.77A7.3,7.3,0,1,0,237,84.63Z"/><circle class="cls-10" cx="197.31" cy="116.42" r="7.31" transform="translate(-24.51 173.69) rotate(-45.02)"/><path class="cls-11" d="M198.47,109.21a7.3,7.3,0,0,1-5.71,11.86,7.46,7.46,0,0,1-1.16-.1,7.31,7.31,0,1,0,6.87-11.76Z"/><ellipse class="cls-10" cx="214.64" cy="111.53" rx="13.95" ry="13.94" transform="translate(-15.98 184.51) rotate(-45.02)"/><path class="cls-11" d="M216.85,97.76A13.95,13.95,0,0,1,206,120.41a14.64,14.64,0,0,1-2.21-.18,13.95,13.95,0,1,0,13.11-22.47Z"/><path class="cls-12" d="M142.76,49.13h-5.63a4.31,4.31,0,1,0,5.63,0Z"/><path class="cls-13" d="M142.72,47.2h-2V46.07a6.56,6.56,0,1,0-13.12,0V63.35H127v26.5h-1.52V102.1h6.26V89.85h-1.52V63.35h-.6V46.07a4.55,4.55,0,1,1,9.1,0V47.2h-1.56a1,1,0,1,0,0,1.93h5.55a1,1,0,1,0,0-1.93Z"/><path class="cls-13" d="M132.07,101.84h-6.89a1.83,1.83,0,0,0-1.83,1.82h10.54A1.82,1.82,0,0,0,132.07,101.84Z"/><line class="cls-14" x1="876.78" y1="191.47" x2="889.4" y2="272.16"/><line class="cls-14" x1="862.16" y1="191.47" x2="870.8" y2="272.16"/><ellipse class="cls-10" cx="663.24" cy="67.47" rx="20.47" ry="20.46" transform="translate(146.68 488.9) rotate(-45.02)"/><path class="cls-13" d="M670.77,72.36a1,1,0,0,0-1.56-.59l-5.72,3.8V63.69a1.06,1.06,0,0,0-.83-1.06,1,1,0,0,0-1.21,1v4.54l-4.19-2.56a1,1,0,1,0-1.09,1.74l5.28,3.23v6.88h0V98.53a1.06,1.06,0,0,0,.83,1.06,1,1,0,0,0,1.21-1V78l6.83-4.54A1,1,0,0,0,670.77,72.36Z"/><ellipse class="cls-10" cx="619.37" cy="93.17" rx="13.95" ry="13.94" transform="translate(115.64 465.4) rotate(-45.02)"/><path class="cls-11" d="M621.58,79.4A13.94,13.94,0,0,1,610.68,102a14.65,14.65,0,0,1-2.21-.17A13.95,13.95,0,1,0,621.58,79.4Z"/><ellipse class="cls-10" cx="663.13" cy="67.6" rx="20.47" ry="20.46" transform="translate(146.55 488.85) rotate(-45.02)"/><path class="cls-11" d="M666.37,47.39a20.46,20.46,0,0,1-19.24,33,20.46,20.46,0,1,0,19.24-33Z"/><path class="cls-4" d="M891.76,150.33c-144.46,0-261.57-8-261.57-18,0-2.54,7.71-5,21.59-7.15-81.11,3-136.11,9-136.11,15.75,0,9.91,117.11,18,261.57,18,95.77,0,179.13-3.53,224.7-8.8v-1.48C968.36,149.72,931.27,150.33,891.76,150.33Z"/><path class="cls-4" d="M1001.94,131.83V116.11c-33.58-1.08-70.67-1.68-110.18-1.68-107.43,0-199.71,4.44-240,10.8,37.25-1.4,80-2.2,125.46-2.2C873,123,956.37,126.56,1001.94,131.83Z"/><path class="cls-15" d="M630.19,132.38c0,9.91,117.11,18,261.57,18,39.51,0,76.6-.61,110.18-1.68V131.83C956.37,126.56,873,123,777.24,123c-45.46,0-88.21.8-125.46,2.2C637.9,127.42,630.19,129.84,630.19,132.38Z"/><rect class="cls-16" x="847.95" y="86.73" width="42.11" height="95.55" rx="8.48"/><text class="cls-17" transform="translate(853.28 113.22)"><tspan class="cls-18">M</tspan><tspan x="13.13" y="0">ÅL</tspan></text><path class="cls-12" d="M434,43.85H420.25a10.52,10.52,0,1,0,13.75,0Z"/><path class="cls-13" d="M433.9,39.14h-4.83V36.36a16,16,0,0,0-32,0v42.2h-1.49v64.69h-3.7v29.91h15.27V143.25h-3.71V78.56h-1.48V36.36a11.12,11.12,0,0,1,22.24,0v2.78h-3.83a2.36,2.36,0,0,0,0,4.71H433.9a2.36,2.36,0,1,0,0-4.71Z"/><path class="cls-13" d="M407.9,172.52H391.07a4.44,4.44,0,0,0-4.45,4.44h25.73A4.45,4.45,0,0,0,407.9,172.52Z"/></svg>