<svg id="Layer_1" data-name="Layer 1" xmlns="http://www.w3.org/2000/svg" xmlns:xlink="http://www.w3.org/1999/xlink" viewBox="0 0 1002 273"><defs><style>.cls-1{fill:#00a0a8;}.cls-2{fill:#16a1a2;}.cls-3{fill:#007c76;}.cls-4{fill:#005967;}.cls-29,.cls-5{fill:#04a5bf;}.cls-5{opacity:0.8;}.cls-6{fill:#74c400;}.cls-22,.cls-7{fill:#16bce0;}.cls-12,.cls-13,.cls-7{opacity:0.5;}.cls-8{fill:#3ab354;}.cls-9{fill:#056c77;}.cls-10,.cls-11,.cls-12,.cls-13,.cls-14,.cls-15,.cls-16,.cls-17,.cls-18{fill:none;stroke-miterlimit:10;}.cls-10{stroke:#74c400;opacity:0.6;}.cls-11,.cls-12,.cls-13,.cls-14,.cls-15,.cls-16,.cls-17,.cls-18{stroke:#16bce0;}.cls-11,.cls-15,.cls-18{stroke-width:0.84px;}.cls-11,.cls-14,.cls-16{opacity:0.3;}.cls-12,.cls-16{stroke-width:1.42px;}.cls-13,.cls-14,.cls-17{stroke-width:0.71px;}.cls-15,.cls-17{opacity:0.7;}.cls-19{fill:#1c536a;}.cls-20{fill:#00384b;}.cls-21{fill:#006f8c;}.cls-23{opacity:0.47;}.cls-24{fill:url(#linear-gradient);}.cls-25{fill:url(#linear-gradient-2);}.cls-26{fill:url(#linear-gradient-3);}.cls-27{opacity:0.4;}.cls-28{fill:url(#linear-gradient-4);}</style><linearGradient id="linear-gradient" x1="637.59" y1="272.45" x2="637.59" y2="0.46" gradientUnits="userSpaceOnUse"><stop offset="0" stop-color="#fff" stop-opacity="0"/><stop offset="0.11" stop-color="#fff" stop-opacity="0.13"/><stop offset="0.44" stop-color="#fff" stop-opacity="0.5"/><stop offset="0.71" stop-color="#fff" stop-opacity="0.77"/><stop offset="0.9" stop-color="#fff" stop-opacity="0.94"/><stop offset="1" stop-color="#fff"/></linearGradient><linearGradient id="linear-gradient-2" x1="536.15" y1="272.45" x2="536.15" y2="0.46" xlink:href="#linear-gradient"/><linearGradient id="linear-gradient-3" x1="446.06" y1="272.45" x2="446.06" y2="0.46" xlink:href="#linear-gradient"/><linearGradient id="linear-gradient-4" x1="614.13" y1="190.21" x2="719.38" y2="84.96" xlink:href="#linear-gradient"/></defs><path class="cls-1" d="M.49.46v272H1001.65V.46Z"/><path class="cls-2" d="M.49.46v272H1001.65V.46Z"/><path class="cls-3" d="M1001.65,110.42c-20-.65-16.81,14.35-36.83,13.7-18.66-.61-37.73-2.27-56.29.4-17.54,2.53-33.82,9.8-49.39,18-16.22,8.5-32.4,17.3-47.91,27-7.39,4.64-14.56,9.59-21.47,14.92-7.42,5.73-14.71,11.52-23.6,14.79-16.34,6-34.1,6.12-50.4,12.53-16.07,6.32-30.92,15.8-47.72,20.22-18.62,4.89-38,2.07-56.74-.46a692.6,692.6,0,0,0-117.63-5.88c-39.22,1.45-78.54,7.68-117.8,4-32.33-3.05-65.78-14-88.66-38-10.33-10.84-18.19-24.06-30-33.42a53.37,53.37,0,0,0-18.48-9.36c-7.29-2.11-15.07-3.18-21.89-6.65-7.41-3.77-10.69-10.62-15.79-16.73-4.55-5.45-10.66-8.37-17.43-10.14-18.61-4.88-37.88-7.93-56.73-11.81C88.33,95.57,44.19,87.28,5.2,82c-9.32-1.27,4.67,0-4.71-.65V272.45H1001.65Z"/><path class="cls-4" d="M945,225.5c-33.79-1-66.52-3.63-96.7-10.52-17.75-4.06-33.19-9.08-54.84-10.2-7.21-.37-14.43-.73-21.71-1-9.11-.32-17.51-.41-25.45-.25.41-.25.81-.49,1.21-.76a10.15,10.15,0,0,0,3.3-3.71,7.62,7.62,0,0,0,.63-1.28l.17-.48c.25-.65.48-1.3.77-1.92h-.05l.13-.31a4.3,4.3,0,0,1,.81-1.19,17.26,17.26,0,0,1,2.28-.57c1.53-.45,2.9-.78,3.18-3,.07-.56.11-1.1.14-1.65a9,9,0,0,0,0-1,5.14,5.14,0,0,0-.21-2.42c-.19-.48-.57-.63-1-.32a.94.94,0,0,0-.28.56h0a14.62,14.62,0,0,0-.19,2.5,4.19,4.19,0,0,1-.44,2.28,2.24,2.24,0,0,1-1.78.86,1.61,1.61,0,0,1-.78-.46,2.52,2.52,0,0,1-.38-1.25c.07-.38.19-.8.28-1.24.22-1.1.43-2.21.67-3.3a12.57,12.57,0,0,1,.71-3.22c.2-1.63,1.36-1.95,2.83-2.95,2.69-1.81,5.33-3.95,5.81-7.45a63.68,63.68,0,0,0,.57-8.05,39.28,39.28,0,0,0,.06-4.34c.06-.88.18-1.85-.54-2.47s-1.3.16-1.58,1a1.46,1.46,0,0,0-.17.24,25,25,0,0,0-.32,5.81c0,2.27,0,4.68-.21,6.92-.17,1.42-.5,3.16-1.66,4.1-1,.79-2.53,2-3.83,1.45-.1,0,0-.2.08-.21-.51-.42-.3-1.85-.28-2.38.13-2.92,0-5.84.08-8.75s.2-5.7,0-8.53c-.07-1,0-1.92-.09-2.86,0-.39-.06-.78-.08-1.17a4.5,4.5,0,0,0,0-1.1,1.8,1.8,0,0,0-.23-.9.8.8,0,0,0-1-.15,1.56,1.56,0,0,0-.68,1,13.44,13.44,0,0,0,0,3.9c.06,2.1,0,4.2,0,6.29,0,3.71.13,7.41.1,11.11,0,3.48.26,7.37-.63,10.76-.19.72-1.22,3-1.76,2a.87.87,0,0,1-.26-.47,17.51,17.51,0,0,1,0-3.32c0-.48.23-1.65-.16-2.09s-.69,0-.86.31a3.07,3.07,0,0,0,0,1.76c-.13,1.71,0,3.86,0,4.31,0,1.44,1,2.12.76,3.55a10.25,10.25,0,0,1-.33,2.15,31.36,31.36,0,0,1-1.39,5.41,8.45,8.45,0,0,1-3.46,4.05.86.86,0,0,1-1.22-.4c0-.36.11-.78.12-1,0-1,0-1.93.06-2.89.12-2.25.12-4.52.16-6.77s0-4.77.25-7.12a13,13,0,0,1,.12-3.08c.23-1.11,1.63-1.07,2.47-1.64,2.26-1.52,2.52-4.7,2.68-7.24.12-2,.15-4,.27-6a2.35,2.35,0,0,1,0-.26c.13-1.51.2-3,.21-4.57,0-.52,0-1.22-.67-1.18s-.68.58-.75,1.1a.69.69,0,0,0,0,.24v.38a.06.06,0,0,0,0,0v.05a3.67,3.67,0,0,1,0,.46c-.14,1.11-.16,2.24-.28,3.36-.19,1.71-.24,3.45-.38,5.17-.2,2.39-.23,6.07-2.84,6.89a1.23,1.23,0,0,1-.53-.69,8.08,8.08,0,0,1-.16-2.6c0-1.86,0-3.72-.06-5.57,0-.49,0-1.89-.8-1.79s-.87.83-.94,1.51l0,.25,0,.28a.11.11,0,0,0,0,.1c0,.11,0,.23,0,.36.05.85,0,1.68,0,2.54,0,1.57.07,3.15,0,4.72s.12,3.31.1,5c0,.71.17,1.53-.38,1.95-.84,1.53-3.76.37-4.7-.55s-.84-3.55-.85-4.69c0-.91-.08-1.82-.12-2.72a1.09,1.09,0,0,0,0-.18,2.26,2.26,0,0,0,0-.26c0-.61.17-1.29-.37-1.69-.35-.26-.56,0-.69.33l-.07,0c-.14.51-.22,1-.21.92,0,.62,0,1.24,0,1.86,0,.81,0,1.61,0,2.41,0,2.41-.3,5.95,2.21,7.12.89.42,2.63.49,3.33,1.23a2.34,2.34,0,0,1,.52.87,2.3,2.3,0,0,1,.13.42,24.74,24.74,0,0,1,.24,4.79c0,1.64,0,3.31-.16,4.95a16.72,16.72,0,0,1-.29,3.74,2.45,2.45,0,0,1-.48,1.14,9.27,9.27,0,0,1-1.74,1.85l-3.14.14a21.81,21.81,0,0,1,.06-2.7c0-1.86-.09-3.74,0-5.6s0-3.65,0-5.47c0-.36,0-.73,0-1.09a3.26,3.26,0,0,0-.25-1.91c-.24-.41-.57-.44-.83-.27a.33.33,0,0,0-.1,0,1.15,1.15,0,0,0-.18.31.92.92,0,0,0-.11.29v0c-.51,1.87.06,6.22.09,7.18s.45,2.59-.17,3.41c-.57,1.17-3-.17-3.71-.88-.93-1-.93-2.95-1-4.22-.09-1.11-.11-2.23-.16-3.35,0-.2.09-2.46-.7-2.54-1.28.26-.64,5.61-.6,6.34.13,2.19.06,4.57,2.18,5.68a10.35,10.35,0,0,1,2.42,1.4,1.66,1.66,0,0,1,.71.8,4.06,4.06,0,0,1,.11,1.6c0,.14,0,.29,0,.44s0,.41.06.67q-6.19.34-12.11.93V204c0-1.29-.37-3.27.32-4.48a2,2,0,0,1,.46-.38c2.06-1.29,2.55-3.13,2.72-5.43.16-2.07.07-4.14.06-6.21,0-.08,0-.26,0-.5a18.62,18.62,0,0,0,0-2.36c0-.37-.31-1.18-.8-1.12a.54.54,0,0,0-.29.11h-.06c-1.15,1.13-.64,4.76-.7,6.11s0,2.94-.14,4.4-.43,2.68-1.44,3.33a4.6,4.6,0,0,1-4.28.79c-.9-.29-1.16-1-1.25-1.92s-.09-1.68-.21-2.49c0-.15,0-.3-.07-.45.08-.49.11-1.73-.66-1.42s-.33,2.79-.28,3.44c0,.15,0,.31,0,.46s0,.59,0,.93a5.79,5.79,0,0,0,.59,3.13,1.54,1.54,0,0,0,1.31.56,4.25,4.25,0,0,0,.87-.13l.49-.06a1.43,1.43,0,0,1,1.37,1.14,4.63,4.63,0,0,1,.23,1.83l0,1.78c-3.25.35-6.45.75-9.63,1.22a4.79,4.79,0,0,0,.44-1.47,20.86,20.86,0,0,0,0-3.79c-.12-1.46-.12-2.94-.31-4.4a7.73,7.73,0,0,0-.77-3,.63.63,0,0,0-.41-.1h0a.79.79,0,0,0-.46.08c-.53.26-.47,1.24-.45,1.71a40,40,0,0,0,.34,4.09,1.62,1.62,0,0,0,0,.22c0,.58,0,1.39-.53,1.65a1.15,1.15,0,0,1-1.44-.09c-.78-.85-.87-2.17-1-3.44,0-.3,0-.56,0-.78,0-.68.19-3.64-.68-4-1.22.71-.51,4.22-.45,5.09.09,1.24.06,2.51.2,3.74.18,1.58,1.12,2.25,2.29,3a1.79,1.79,0,0,1,.83,1,3.33,3.33,0,0,1,.27.73c-2.78.44-5.55.93-8.33,1.46-.08-.9-.17-1.79-.22-2.69-.13-2.27-.38-4.58-.39-6.87-.16-2.37,0-4.2,1.63-5.91a14.7,14.7,0,0,1,4.82-2.82c2.6-1.34,5.18-2.72,7.79-4,1.51-.74,3-1.45,4.54-2.21.62-.31,1.31-.61,2-.92,0,0,0-.13,0-.15,3.1-1.86,6.28-3.56,9.25-5.64a7,7,0,0,0,3.33-5.29c0-.2,0-.41.07-.61,0-.72,0-1.44,0-2.17a7.72,7.72,0,0,1,.07-1c0-1.79,1.77-1.44,3.25-1.85s3-1.07,3.06-3c0-.68,0-1.36,0-2,.06-.87.11-1.74.14-2.6s.27-2.06-.32-2.6a.46.46,0,0,0-.47-.1h0l0,0a.84.84,0,0,0-.42.47,4,4,0,0,0-.05,1.37c-.08,1.25,0,2.68,0,3a1.74,1.74,0,0,1-1,1.69c-1.28.9-3.5,1.15-4.39.25-.64-.65-.38-3.49-.4-4.34,0-1.24,0-2.47,0-3.71l-.06-1.42a1.31,1.31,0,0,0,0-.33,1.07,1.07,0,0,0-.51-1.08c-.87-.49-1.23.82-1.26,1.47a14.85,14.85,0,0,0,.05,2.87c.07,1.76.23,3.52.26,5.28,0,1.3.77,4.23-.56,5a2.13,2.13,0,0,1-.37.22,1.23,1.23,0,0,1-1.15,0,2.3,2.3,0,0,1-.69-1.56c-.07-.47-.1-.94-.16-1.4a4.26,4.26,0,0,1-.06-.5q0-.9-.81-.6c-.58.8-.29,3,.1,4.15a3.53,3.53,0,0,0,1.43,1.17,1.52,1.52,0,0,1,.71,1.08,14.57,14.57,0,0,1,.09,4.37c-.54,2.66-5.15,3.68-7.18,4.17a.08.08,0,0,1-.11,0c-.4-.85.72-1.88.76-2.81.09-1.91-.1-3.85-.15-5.76a22.21,22.21,0,0,1,0-4.89,1.36,1.36,0,0,1,1.15-1.58c1.55-.37,2.65-.91,3-2.69l.06-.31v0a42.68,42.68,0,0,0,.08-4.8c0-.77,0-1.54-.06-2.31V152a4.29,4.29,0,0,0,0-1.24.72.72,0,0,0-.11-.4l0-.06a.61.61,0,0,0-.82-.36c-.38.12-.45.63-.48,1-.5,1.67-.27,4.37-.35,5.35a2.89,2.89,0,0,1-.07.44,2.43,2.43,0,0,1-.18.49,1.45,1.45,0,0,1-.59.56l-.15.06-.23.14-.15.08-.36.19c-.9.43-1.8.52-1.87-.65-.08-1.49-.12-3-.15-4.45,0-1,0-2-.09-3l0-.54c0-.52.19-1.63-.35-1.93a.71.71,0,0,0-.69-.07,7.49,7.49,0,0,0-.67,3.45c0,1.11.09,2.15.09,2.6,0,1.5.09,3,.08,4.53,0,1.83.19,3.65.22,5.48,0,.31,0,.63,0,.92.06,2.11-3.51-.2-4-.71-1.28-1.24-1-4.53-1-6.15,0-1.17-.16-2.32-.26-3.49,0-.46-.24-2.29-.88-1.95-.61.89-.28,3.19-.26,4,.05,1.38.11,2.75.19,4.14.19,3.22,1.08,5.93,4,7.21a4,4,0,0,1,.36.34,2.31,2.31,0,0,1,.77,1.16c0,.14.08.27.11.41a6,6,0,0,1,.18.9c0,.05,0,.1,0,.15a16.23,16.23,0,0,1,.13,2.41c.08,1.58.14,3.08-1,4.33a19.24,19.24,0,0,1-5.11,4.06c-1.18.61-2.36,1.29-3.58,1.81a9.87,9.87,0,0,1-2.84,1.11c-.47.05-.73-.29-.87-.79a5.62,5.62,0,0,1-.16-1.09c-.05-.78,0-1.59,0-2-.29-2.79-.58-5.57-.76-8.37-.2-3-.39-6.05-.54-9.08-.07-1.42-.13-2.83-.26-4.25,0-.36,0-.72,0-1.09s0-1.32-.31-1.72c-.15-.17-.59-.55-.84-.32a.94.94,0,0,0-.28.81c-.47,2.89.13,10.9.28,13.6a1.11,1.11,0,0,1-.31.83c-1,.16-2.4-1.09-3-1.65-1.6-1.41-1.66-2.6-1.91-4.69s-.32-4.33-.45-6.51c-.06-1.06-.11-2.13-.12-3.19,0-.35,0-.71,0-1.06a2.85,2.85,0,0,0-.09-1.21.78.78,0,0,0-.28-.59c-.53-.3-1,.11-1.17.62l0,0a4.86,4.86,0,0,0,0,.91c0,.34,0,.67.05,1,0,1,.12,2.11.14,3.16,0,1.71.12,3.45.31,5.14.22,2,.06,4.36,1,6.12a4.82,4.82,0,0,0,.91,1.19,9.06,9.06,0,0,0,2.13,1.46,8.53,8.53,0,0,1,2.35,1.19,5.14,5.14,0,0,1,1,3.07c.12,1.13,0,2.27.09,3.41.12,2.34,1,5.64-.52,7.64-.75,1.52-2.81,2.49-4.09,3.28-.9.55-3.34,2.75-4.56,1.93a4,4,0,0,1-1.41-1.14,29.26,29.26,0,0,1-3.41-4.44c-.59-.82-1.09-1.68-.73-2.45.29-1.18,2.68-1.5,3.66-1.94,2.47-1.11,1.92-4.18,1.9-6.52,0-.88.06-1.78,0-2.65,0-.33-.07-.75-.07-1.08.12-.85-.32-1.33-1.31-1.45a5.77,5.77,0,0,0-.27,2.19c0,.77,0,1.55,0,2.32a16.44,16.44,0,0,1-.08,3.29,2.3,2.3,0,0,1-1.24,1.55,5.6,5.6,0,0,1-.55.27,7.1,7.1,0,0,1-1.23.35l0,0a1.75,1.75,0,0,1-1.7-.68,11,11,0,0,1-.39-2.69,46.24,46.24,0,0,1,.13-6.85c-.08-3.19,0-6.38,0-9.57,0-1.81.06-3.65-.05-5.46,0-.64,0-1.27,0-1.91a2,2,0,0,0-1-1.92,2.91,2.91,0,0,0-.3.31,5.53,5.53,0,0,0-.5,2c0,.39-.08.78-.11,1.18-.11,1.07-.18,2.15-.2,3.23,0,2,.06,4,0,5.94a46.54,46.54,0,0,1,0,4.87,3,3,0,0,1-.23,1.12,1.46,1.46,0,0,1-1.8.9c-1.73-.61-3.46-1.76-3.6-3.83-.18-2.56-.19-5.1-.17-7.67,0-1.29.05-2.69,0-4,0-.53-.29-2.45-1.13-2.07-.71.53-.45,2.93-.46,3.43,0,.93,0,1.85,0,2.77,0,.66.19,1.51-.2,2-.69,1.8-3.25-.64-4.15-1.66-1.07-1.23-.77-3.29-.88-4.8-.07-1,.5-5.19-.89-5.56-.88.23-.66,2.89-.65,3.17,0,1.1,0,2.2,0,3.31,0,1.82-.22,4.3,1.16,5.71,1.74,1.78,5.55,2,5.3,5.2.16.7.21,1.43.32,2.17a3.76,3.76,0,0,0,2.85,3.48c2.26.79,4.13,1.53,4,4.07a47.72,47.72,0,0,1,.28,5.49,8.68,8.68,0,0,0,1,4.39c.84,1.19,1.85,2.25,2.72,3.4,3.63,3.65,7.37,8.5,7.82,13.76a19.82,19.82,0,0,1,.39,3.45c0,.49.06,1,.1,1.49-3.28.67-6.56,1.41-9.88,2.23-.9-3.08-1-6.56-1.22-9.69-.15-2-.31-4-.31-5.93v-.14c0-.62,0-1.24,0-1.85a5.26,5.26,0,0,0-.11-1.77,1.07,1.07,0,0,0-1.1-1c-.43,0-.58.56-.64,1.07a6.38,6.38,0,0,0,0,1.58c0,1.87.25,3.72.4,5.58,0,.16,0,.32,0,.48s0,.27,0,.43l0,.47a2.08,2.08,0,0,0,0,.41c0,.12,0,.25,0,.38a2.35,2.35,0,0,1-.54,1.53,2.4,2.4,0,0,1-.93.63c-1.58.32-4.14-.95-4.94-1.74-1.16-1.15-1.31-2.9-1.36-4.49,0-1.1-.14-2.19-.2-3.29,0-.78,0-1.57-.07-2.35,0-.44,0-1.15-.46-1.35l-.16,0a.6.6,0,0,0-.69.22c-.46.56-.21,1.38-.18,2,0,.36,0,.71,0,1.06.14,1.68.22,3.38.34,5.06a7.72,7.72,0,0,0,.82,3.45c.78,1.31,2.17,1.63,3.4,2.33,1.4.8,2.76,1.63,4.14,2.46a2.76,2.76,0,0,1,1.18,1.35.08.08,0,0,1,.08.07c.2.8.71,2.58.25,3.57l-2,.52a21.39,21.39,0,0,1-3.16-1.65c-2.34-1.17-4.46-2.75-6.76-4a12.92,12.92,0,0,1-2.65-1.74,5.13,5.13,0,0,1-2.17-2.51,24.49,24.49,0,0,1-.69-5c-.23-2-.2-4-.31-6a20.22,20.22,0,0,1-.15-3.75,1.53,1.53,0,0,1,1-1.76c1.5-.7,3.43-.9,3.94-2.87a18.72,18.72,0,0,0,.17-5.75c0-1.4,0-2.8-.08-4.2,0-.77.13-2.32-.91-2.45s-.79,1.87-.72,2.84c-.09,2.77.18,6.46,0,7.31a2.67,2.67,0,0,1-.81,1.5,10.22,10.22,0,0,1-.9.53,9.35,9.35,0,0,1-1.49.54,2,2,0,0,1-1.39-.21c-.66-.79-.44-3-.49-3.86-.14-2.12-.14-4.24-.16-6.36l0-.06c-.31-2.52-.23-5.12-.29-7.65,0-1.21,0-2.42-.08-3.63,0-.49,0-1,0-1.47a19.44,19.44,0,0,0,0-2.75.58.58,0,0,0-.82-.5.85.85,0,0,0-.47.68,24.11,24.11,0,0,0-.17,5.56c0,.35,0,.71,0,1,0,.65.19,1.78-.5,2.12-1.13.55-2.24-.11-3.26-.68a4.53,4.53,0,0,1-1.16-2.6c0-.37,0-.73,0-1.07,0-.54-.07-1.09-.11-1.64,0-.76,0-1.5,0-2.17s-.1-1.43-.92-1.35c-.53,0-.73.73-.77,1.26a1.52,1.52,0,0,0,0,.61c0,.33.06.67.07,1,0,.67.11,1.33.14,2,.08,2.07-.09,4.67,2,5.74s4.28,1.45,4.77,4.06a12.37,12.37,0,0,1,.21,2.44c.08,1.94.1,3.89.22,5.83.15,2.18.34,4.38.44,6.57a20.1,20.1,0,0,1,.1,3.2c.14,1-.39,1.78-1.55,1.63-2-.25-2.4-1.49-2.68-3.31-.45-3-.54-6-.71-9-.08-1.33-.14-2.65-.14-4v.28a12.3,12.3,0,0,0-.19-2,.33.33,0,0,0-.45-.06.87.87,0,0,0-.22.17c-.82,1.42-.12,6.41-.07,7.62.13,3.16.07,6.56,1.06,9.58a7,7,0,0,0,1.35,2.38,4.07,4.07,0,0,0,2.56,1.45,1.64,1.64,0,0,1,1.23.66c.63.8.64,2.47.65,3.78.11,1.08.58,2.91-.79,3.21-.76.16-1.74-.56-2.4-.84a23.11,23.11,0,0,1-3.2-1.66c-.76-.47-1.5-.9-2.15-1.4a8.87,8.87,0,0,1-1.86-3.62,28.1,28.1,0,0,1-.53-5.1c0-1-.06-1.91-.07-2.87,0-.77.05-1.52.05-2.23,0-1.93-.05-3.86-.09-5.79,0-.72-.06-1.44-.08-2.15s-.56-2.51-1.29-1.52a3.92,3.92,0,0,0-.22,1.14c0,.48,0,1,0,1.44,0,1-.06,1.92-.08,2.87-.07,2.34-.13,4.71,0,7a16.29,16.29,0,0,1-.06,4.88c0,.08-.07.17-.11.26-.56,1.19-1.7,1-2.5.18-1-1-.95-2.79-1.12-4.14-.08-.7-.11-1.4-.13-2.11-.08-2.5-.1-5-.09-7.52,0-.81,0-1.62.09-2.44a31.79,31.79,0,0,0,.18-3.52c0-1,0-2.09-.05-3.13s0-2.68-1-2.56-1.12,1.42-1.1,2.2,0,1.39,0,2c0,1.78,0,3.56-.05,5.34a43.54,43.54,0,0,1,0,4.57c0,.36-.07.57-.27.74-.4.52-1.41-.06-2-.42a4.81,4.81,0,0,1-2-2.28,9.85,9.85,0,0,1-.53-2.95c-.09-1.14-.12-2.27-.19-3.41s-.11-2.42-.12-3.63c0-.85,0-1.71,0-2.57a9.13,9.13,0,0,0,0-2.45.53.53,0,0,0-.66-.3,1.13,1.13,0,0,0-.49,1.17v.42c-.05.79,0,1.59,0,1.71,0,.91,0,1.82.06,2.72,0,1.88.15,3.75.22,5.63.06,1.58,0,3.81.8,5.23a7.33,7.33,0,0,0,2.14,2.43c.8.51,1.55,1.06,2.34,1.61a7.88,7.88,0,0,1,.77.6c.14.15.27.31.41.47A4.41,4.41,0,0,1,649,187c0,.34,0,.7.07,1.1.19,1.94.12,3.85,1,5.64,1.61,3.41,5.37,5.81,8.46,7.67,2.8,1.67,5.66,3.2,8.46,4.85,2.51,1.47,5.23,2.56,7.77,4,1.75.85,3.49,1.83,5.16,2.82l-.37.11c-50.07,14-115.77,13.14-175.49,13.1-31.92,0-64-.15-95.71-1.56-17.72-.78-33.67-3.39-50.79-5-32.72-3-66.59-1.36-99.87-1.08-30.28.26-60.79-.7-90.49,2-13.31,1.21-26.68,2.55-40.21,3.55-14.31,1.06-28.54,1.68-43.33,1.76-6,0-11.91,0-17.86.11H.49v46.35H1001.65V226.1C983.56,226.1,962.71,226,945,225.5Z"/><polygon class="cls-5" points="899.27 140.75 903.96 173.9 923.52 143.35 912.88 175.86 945.39 150.91 920.47 179.6 962.75 162.69 925.98 184.75 973.9 177.53 928.88 190.8 977.74 193.98 928.88 197.16 973.9 210.43 925.98 203.21 962.75 225.27 920.47 208.36 945.39 237.05 912.88 212.1 923.52 244.61 903.96 214.06 899.27 247.22 894.59 214.06 875.03 244.61 885.67 212.1 853.15 237.05 878.08 208.36 835.79 225.27 872.57 203.21 824.65 210.43 869.67 197.16 820.81 193.98 869.67 190.8 824.65 177.53 872.57 184.75 835.79 162.69 878.08 179.6 853.15 150.91 885.67 175.86 875.03 143.35 894.59 173.9 899.27 140.75"/><path class="cls-6" d="M247.25,227.35a14.31,14.31,0,0,0-5.48-1.15,11.61,11.61,0,0,0-4.46.64c-3.75,1.53.6,4.23,2.56,4.72a12.4,12.4,0,0,0,8.26-.49C250.07,230.13,248.71,228,247.25,227.35Z"/><path class="cls-7" d="M268.54,229.41a5.25,5.25,0,0,1-2.48.32c-2.08-.24-2.52-2.43-.2-2.69a5.58,5.58,0,0,1,2.95.31C269.91,228,269.61,229,268.54,229.41Z"/><path class="cls-7" d="M753.17,215.4a14,14,0,0,0-5.48-1.15,11.61,11.61,0,0,0-4.46.64c-3.75,1.53.59,4.23,2.55,4.72a12.49,12.49,0,0,0,8.27-.49C756,218.17,754.62,216,753.17,215.4Z"/><path class="cls-7" d="M774.46,217.46a5.27,5.27,0,0,1-2.49.31c-2.07-.24-2.51-2.42-.19-2.68a5.49,5.49,0,0,1,3,.31C775.82,216,775.53,217,774.46,217.46Z"/><path class="cls-8" d="M977,241.39a11.13,11.13,0,0,0-4.26-.89,9.11,9.11,0,0,0-3.48.5c-2.92,1.19.47,3.29,2,3.67a9.63,9.63,0,0,0,6.44-.38C979.21,243.56,978.15,241.89,977,241.39Z"/><path class="cls-6" d="M770,225.73a13.45,13.45,0,0,0-5.2-1.08,11,11,0,0,0-4.22.6c-3.56,1.45.56,4,2.42,4.48a11.79,11.79,0,0,0,7.84-.47C772.66,228.37,771.37,226.33,770,225.73Z"/><path class="cls-7" d="M813.3,227.69a5,5,0,0,1-2.35.3c-2-.23-2.39-2.3-.19-2.55a5.19,5.19,0,0,1,2.79.3C814.59,226.31,814.32,227.29,813.3,227.69Z"/><path class="cls-7" d="M800.72,222.69a3.28,3.28,0,0,1-1.55.19c-1.28-.15-1.56-1.5-.12-1.66a3.45,3.45,0,0,1,1.83.19C801.56,221.79,801.38,222.43,800.72,222.69Z"/><path class="cls-6" d="M930.71,79.85l-3.37,1.94a11.63,11.63,0,0,0-16.22.21h0a11.63,11.63,0,0,0,16.25.19l3.34,1.93ZM915,82.06a.67.67,0,0,1-.67-.67.67.67,0,0,1,1.34,0A.67.67,0,0,1,915,82.06Z"/><path class="cls-6" d="M933.15,98.44l-3.36,1.94a11.64,11.64,0,0,0-16.23.21h0a11.63,11.63,0,0,0,16.25.18l3.34,1.93Zm-15.74,2.21a.67.67,0,1,1,.67-.67A.67.67,0,0,1,917.41,100.65Z"/><path class="cls-6" d="M962.12,72.92l-3.36,2a11.62,11.62,0,0,0-16.22.2h0a11.61,11.61,0,0,0,16.24.19l3.34,1.93Zm-15.74,2.21a.67.67,0,1,1,.67-.66A.67.67,0,0,1,946.38,75.13Z"/><path class="cls-6" d="M977.31,59.08,974,61a11.63,11.63,0,0,0-16.22.21h0a11.62,11.62,0,0,0,16.24.19l3.34,1.93Zm-15.74,2.21a.67.67,0,0,1-.67-.67.67.67,0,0,1,1.34,0A.67.67,0,0,1,961.57,61.29Z"/><path class="cls-6" d="M901.66,61.24l-3.37,1.95a11.62,11.62,0,0,0-16.22.2h0a11.63,11.63,0,0,0,16.25.19l3.34,1.93Zm-15.74,2.21a.67.67,0,1,1,.66-.66A.66.66,0,0,1,885.92,63.45Z"/><path class="cls-6" d="M933.14,64.7l-3.36,2a11.63,11.63,0,0,0-16.23.2h0A11.63,11.63,0,0,0,929.8,67L933.14,69ZM917.4,66.91a.66.66,0,0,1-.67-.66.67.67,0,1,1,1.34,0A.66.66,0,0,1,917.4,66.91Z"/><path class="cls-6" d="M935.31,44.4,932,46.34a11.63,11.63,0,0,0-16.22.21h0a11.62,11.62,0,0,0,16.24.19l3.34,1.92Zm-15.74,2.21a.67.67,0,1,1,.67-.67A.67.67,0,0,1,919.57,46.61Z"/><path class="cls-6" d="M868,71.72l-3.37,2a11.62,11.62,0,0,0-16.22.2h0a11.63,11.63,0,0,0,16.25.19L868,76ZM852.2,73.93a.65.65,0,0,1-.66-.66.66.66,0,0,1,.66-.67.67.67,0,0,1,.67.67A.66.66,0,0,1,852.2,73.93Z"/><path class="cls-6" d="M897,79.85l-3.37,1.94a11.63,11.63,0,0,0-16.22.21h0a11.63,11.63,0,0,0,16.25.19L897,84.12Zm-15.75,2.21a.67.67,0,0,1-.67-.67.67.67,0,0,1,1.34,0A.67.67,0,0,1,881.23,82.06Z"/><path class="cls-6" d="M966.91,45.48l-3.36,1.94a11.64,11.64,0,0,0-16.23.21h0a11.63,11.63,0,0,0,16.25.19l3.34,1.92Zm-15.74,2.21a.67.67,0,1,1,.67-.67A.67.67,0,0,1,951.17,47.69Z"/><path class="cls-6" d="M973.09,94.89l-3.36,1.94a11.63,11.63,0,0,0-16.22.21h0a11.62,11.62,0,0,0,16.24.19l3.34,1.93ZM957.35,97.1a.67.67,0,1,1,.67-.67A.67.67,0,0,1,957.35,97.1Z"/><path class="cls-9" d="M309.06,217.67c1.73-2.3.71-5.66-1-8s-4.05-4.21-5.19-6.85a8.91,8.91,0,0,1,.51-8c1.64-2.77,4.79-4.62,5.66-7.72,1.85-6.57-7.73-12.22-6.11-18.85,1.31-5.36,9.27-7.51,9.53-13,.14-3-2.16-5.47-3.19-8.27a10.4,10.4,0,0,1,3.53-11.67,5.86,5.86,0,0,1,5-1.19,7.52,7.52,0,0,1,3.43,2.73A34.74,34.74,0,0,1,328.63,151c1.18,5.22.57,11-2.46,15.42-1.42,2.09-3.41,4-3.67,6.52-.45,4.32,4.19,7.19,6.52,10.85a11.31,11.31,0,0,1,.25,11.49c-1.82,3.15-5.26,5.63-5.48,9.26-.25,4.06,3.71,7.31,4,11.37.31,4.26-3.38,7.58-6.2,10.8s-6.48,8.57-3.29,11.42a13.56,13.56,0,0,0-2.47,0c-1.58-2.74-1-5.67,0-8.68.68-2.08,2.36-4.14,1.16-6-.67-1-3.05-1.64-4.1-2.25S308.33,218.64,309.06,217.67Z"/><path class="cls-10" d="M315.48,139.06c2.73,4.53,5.55,9.5,4.94,14.75-.77,6.66-6.95,12.13-6.44,18.81.38,4.9,4.35,9,4.49,13.93.18,6.91-7.23,13.32-4.57,19.69,1.09,2.6,3.63,4.31,5,6.79,2.22,4.15.57,9.21-.89,13.69s-2.54,9.88.47,13.51"/><circle class="cls-11" cx="194.68" cy="177.28" r="4.48"/><circle class="cls-12" cx="212.33" cy="200.53" r="7.57"/><circle class="cls-13" cx="178.57" cy="216.92" r="3.78"/><circle class="cls-14" cx="210.29" cy="242.63" r="3.78"/><circle class="cls-15" cx="422.23" cy="15.27" r="4.48"/><circle class="cls-16" cx="439.88" cy="38.52" r="7.57"/><circle class="cls-17" cx="406.12" cy="54.9" r="3.78"/><circle class="cls-14" cx="437.84" cy="86.62" r="3.78"/><circle class="cls-17" cx="820.87" cy="72.71" r="4.48"/><circle class="cls-18" cx="29.21" cy="57.23" r="4.48"/><circle class="cls-16" cx="799.7" cy="61.16" r="7.57"/><circle class="cls-12" cx="29.21" cy="25.78" r="7.57"/><circle class="cls-16" cx="771.59" cy="39.54" r="3.78"/><circle class="cls-17" cx="819.6" cy="39.29" r="3.78"/><rect class="cls-19" x="868.29" y="203.29" width="64.61" height="39.67"/><rect class="cls-20" x="868.29" y="237.14" width="64.61" height="9.24"/><rect class="cls-20" x="868.29" y="226.89" width="64.61" height="9.24"/><rect class="cls-20" x="868.29" y="216.63" width="64.61" height="9.24"/><rect class="cls-20" x="868.29" y="206.37" width="64.61" height="9.24"/><rect class="cls-20" x="868.29" y="185.43" width="64.61" height="18.23"/><path class="cls-19" d="M871,237.92v5.78h5.78A5.78,5.78,0,0,0,871,237.92Z"/><rect class="cls-21" x="868.29" y="235.44" width="2.68" height="10.94"/><rect class="cls-21" x="868.29" y="243.7" width="10.94" height="2.68"/><path class="cls-20" d="M874.33,241.65a1.31,1.31,0,1,1-2.61,0,1.31,1.31,0,0,1,2.61,0Z"/><path class="cls-19" d="M930.22,237.92v5.78h-5.78A5.78,5.78,0,0,1,930.22,237.92Z"/><rect class="cls-21" x="930.22" y="235.44" width="2.68" height="10.94"/><rect class="cls-21" x="921.96" y="243.7" width="10.93" height="2.68"/><circle class="cls-20" cx="928.17" cy="241.65" r="1.31"/><rect class="cls-21" x="879.23" y="243.7" width="48.1" height="2.68"/><rect class="cls-21" x="868.29" y="185.43" width="2.68" height="51.07"/><rect class="cls-21" x="930.22" y="185.43" width="2.68" height="50.01"/><rect class="cls-21" x="899.26" y="185.43" width="2.68" height="19.95"/><rect class="cls-21" x="866.23" y="201.43" width="68.73" height="7.5"/><path class="cls-6" d="M908.17,205.18a7.58,7.58,0,1,1-7.57-7.57A7.57,7.57,0,0,1,908.17,205.18Z"/><path class="cls-20" d="M903,203.19a2.38,2.38,0,1,0-3.35,2.17l-1.41,4.2H903l-1.42-4.2A2.38,2.38,0,0,0,903,203.19Z"/><path class="cls-21" d="M964.37,252.49c-62.14-.34-177.07-11.88-238.48-12.78-65.31-1-148.17,11.39-187.17,11.07s-119.41-4.14-171.89-4.19-105.25,5.22-118.17,5.29-51.91-.56-90.11-3.25-63.29-10.78-96.12-8.17C43.14,242,16,252.49,16,252.49H.49v20H1001.65v-20Z"/><path class="cls-22" d="M141.12,255.64a11,11,0,0,0-4.27-.89,8.87,8.87,0,0,0-3.47.5c-2.93,1.19.46,3.29,2,3.67a9.66,9.66,0,0,0,6.43-.38C143.31,257.8,142.25,256.13,141.12,255.64Z"/><path class="cls-22" d="M283.64,265.36a5.24,5.24,0,0,1-2.48.31c-2.08-.24-2.52-2.42-.2-2.68a5.48,5.48,0,0,1,3,.31C285,263.9,284.71,264.94,283.64,265.36Z"/><path class="cls-22" d="M270.37,260.08a3.49,3.49,0,0,1-1.63.21c-1.36-.16-1.65-1.59-.13-1.76a3.71,3.71,0,0,1,1.93.2C271.26,259.13,271.07,259.81,270.37,260.08Z"/><path class="cls-22" d="M789.56,253.41a5.28,5.28,0,0,1-2.49.31c-2.08-.24-2.52-2.43-.19-2.68a5.54,5.54,0,0,1,2.94.3C790.92,252,790.63,253,789.56,253.41Z"/><path class="cls-22" d="M776.28,248.13a3.31,3.31,0,0,1-1.62.2c-1.36-.15-1.65-1.58-.13-1.75a3.62,3.62,0,0,1,1.93.2C777.18,247.18,777,247.85,776.28,248.13Z"/><g class="cls-23"><polygon class="cls-24" points="620.9 0.46 586.44 0.46 605.79 272.45 688.74 272.45 620.9 0.46"/></g><g class="cls-23"><polygon class="cls-25" points="542.49 0.46 500.82 272.45 566.43 272.45 571.48 0.46 542.49 0.46"/></g><g class="cls-23"><polygon class="cls-26" points="482.32 0.46 367.67 272.45 455.92 272.45 524.45 0.46 482.32 0.46"/></g><g class="cls-27"><polygon class="cls-28" points="634.88 0.46 630.02 0.46 696.37 272.45 705.74 272.45 634.88 0.46"/></g><path class="cls-29" d="M152.38,167c0-.19,0-.42,0-.66a1.71,1.71,0,0,0-.77-1.79.8.8,0,0,0-1,.46c-.36,1.13,0,2.6-.06,3.78,0,1.33,0,2.64.05,4,0,1.86-.07,3.74-.18,5.6s-.16,3.5-.3,5.24a14.64,14.64,0,0,1-.83,4.55,7.34,7.34,0,0,1-3.08,3.52c-.89.56-2.46,1.45-3.08.65-.31-.26-.34-.58-.41-1.14a66.32,66.32,0,0,1,0-7c0-2.75,0-5.49-.07-8.24,0-.92.06-2,0-3.08,0-1.2-.34-3.21-1.71-3.38-1.55-.19-1.62,2.15-1.5,4-.09,1.6-.06,3.22-.06,4.81a44.68,44.68,0,0,0,.27,5.43c.08,1.26.13,2.52.14,3.77,0,3.87,0,7.73-.14,11.6,0,1.08-.08,2.17-.21,3.24-.25,2.09-.15,4.81-1.74,6.39-1.24,1.23-3,1.55-3.89-.29-.06-.13-.11-.27-.16-.4-.61-2.4-.26-5.08-.1-7.51.22-3.6.13-7.25,0-10.85,0-1.48-.09-2.95-.13-4.43,0-.74,0-1.49-.06-2.23a6.07,6.07,0,0,0-.34-1.75c-1.13-1.53-2,1.41-2,2.33,0,1.11-.11,2.21-.12,3.32-.06,3-.17,6-.14,8.94,0,1.09,0,2.25.08,3.43,0,1.48,0,3-.11,4.42a42.29,42.29,0,0,1-.82,7.87A13.69,13.69,0,0,1,127,217c-1,.78-2.18,1.44-3.35,2.17a37.11,37.11,0,0,1-5,2.55c-1,.43-2.56,1.54-3.75,1.29-2.12-.45-1.39-3.28-1.22-4.94,0-2,0-4.6,1-5.83a2.61,2.61,0,0,1,1.92-1,6.25,6.25,0,0,0,4-2.23,10.69,10.69,0,0,0,2.1-3.67c1.55-4.66,1.45-9.9,1.65-14.76.08-1.87,1.17-9.56-.11-11.76a1.46,1.46,0,0,0-.34-.26.51.51,0,0,0-.7.1,18.75,18.75,0,0,0-.3,3.13v-.44c0,2-.09,4.09-.21,6.13-.26,4.63-.41,9.31-1.11,13.89-.43,2.81-1.07,4.71-4.17,5.1-1.81.23-2.64-.92-2.41-2.51a30.31,30.31,0,0,1,.15-4.95c.16-3.37.46-6.75.68-10.13.2-3,.22-6,.35-9a20.49,20.49,0,0,1,.32-3.77c.77-4,4.14-4.6,7.43-6.26s3-5.65,3.13-8.84c0-1,.17-2.06.22-3.09,0-.51,0-1,.1-1.54a2.48,2.48,0,0,0,0-.95c-.08-.81-.38-1.85-1.21-1.93-1.27-.12-1.33,1-1.43,2.07s-.07,2.19-.07,3.36c0,.84-.11,1.68-.17,2.52,0,.52,0,1.08,0,1.65a7,7,0,0,1-1.79,4c-1.6.88-3.32,1.91-5.09,1.05-1.07-.52-.81-2.26-.77-3.26,0-.53,0-1.08,0-1.63,0-1.18.4-6-.26-8.56a1.32,1.32,0,0,0-.73-1.06.94.94,0,0,0-1.29.78,31.62,31.62,0,0,0,.07,4.24c0,.76,0,1.51,0,2.26,0,1.87-.09,3.74-.13,5.6-.1,3.9,0,7.92-.45,11.79,0,.05,0,.08,0,.09,0,3.27,0,6.54-.24,9.82-.08,1.27.25,4.73-.76,6a3,3,0,0,1-2.17.31,14.4,14.4,0,0,1-2.32-.82c-.51-.27-1-.56-1.41-.82a4.16,4.16,0,0,1-1.25-2.31c-.33-1.31.09-7,0-11.28.12-1.48.34-4.56-1.12-4.38-1.62.21-1.38,2.6-1.42,3.78q-.09,3.24-.12,6.48c-.19,2.93-.47,6.09.26,8.86.8,3,3.8,3.35,6.14,4.44,1.39.64,1.6,1.31,1.59,2.7a30,30,0,0,1-.25,5.79c-.15,3.08-.12,6.15-.47,9.22-.3,2.61-.25,5.15-1.07,7.68a8,8,0,0,1-3.38,3.87,21.48,21.48,0,0,1-4.12,2.68c-3.59,1.84-6.89,4.28-10.53,6.09-1.58.78-5.64,3.82-7.54,2.43-1.58-1.16-.51-4.74-.15-6.2a.12.12,0,0,1,.12-.11,4.31,4.31,0,0,1,1.85-2.08c2.14-1.28,4.26-2.56,6.44-3.79,1.91-1.08,4.07-1.58,5.28-3.6a11.68,11.68,0,0,0,1.29-5.3c.18-2.61.31-5.22.52-7.82.05-.54.05-1.08.07-1.62,0-1,.43-2.27-.29-3.13a.92.92,0,0,0-1.06-.35,1.36,1.36,0,0,0-.25.07c-.79.3-.69,1.4-.72,2.07,0,1.21-.08,2.42-.11,3.64-.09,1.68-.24,3.37-.31,5-.09,2.46-.31,5.15-2.13,6.94-1.24,1.22-5.21,3.17-7.68,2.68a3.39,3.39,0,0,1-2.29-3.33c0-.2,0-.4,0-.6a3.64,3.64,0,0,0,0-.63c0-.24,0-.48,0-.72s0-.46.06-.66,0-.49,0-.74c.24-2.86.57-5.72.63-8.61a10.31,10.31,0,0,0,0-2.43c-.09-.78-.33-1.6-1-1.65a1.67,1.67,0,0,0-1.7,1.52,8,8,0,0,0-.18,2.73c0,1,0,1.91,0,2.87v.2c0,3-.25,6.12-.48,9.15-.39,5-.5,10.52-2,15.35a2.29,2.29,0,0,1-.08.28c-.13.4-.27.79-.42,1.18,0,0,0,0,0,0-1.67,3.91-5,6.86-8.14,9.89-.54.52-4.06,4-6.1,4.55a1.65,1.65,0,0,1-1.76-1.41,4.9,4.9,0,0,1-.08-.76v-.18c.17-3.54.64-7.07.87-10.6.2-3.05.48-6.09.65-9.13a31,31,0,0,1,.6-5.32c.7-8.11,6.53-15.59,12.17-21.21,1.36-1.78,2.94-3.41,4.23-5.24s1.48-4.54,1.63-6.77c.18-2.8-.09-5.7.43-8.47-.18-3.91,2.73-5,6.24-6.27,2.77-1,4-2.35,4.43-5.36.18-1.14.26-2.27.51-3.34-.4-4.92,5.54-5.28,8.25-8,2.15-2.17,1.76-6,1.8-8.8,0-1.7,0-3.4,0-5.11,0-.42.35-4.52-1-4.88-2.18.57-1.28,7-1.4,8.58-.17,2.32.3,5.49-1.36,7.39-1.4,1.58-5.39,5.34-6.47,2.57-.6-.76-.31-2.07-.31-3.08,0-1.43.09-2.85,0-4.28,0-.77.39-4.47-.73-5.28-1.29-.6-1.69,2.37-1.75,3.18-.15,2-.09,4.15-.08,6.14,0,4,0,7.87-.26,11.82-.21,3.19-2.92,5-5.61,5.9a2.26,2.26,0,0,1-2.8-1.38,4.39,4.39,0,0,1-.36-1.72c-.27-2.49.08-5,.06-7.52,0-3,.15-6.11.08-9.15,0-1.67-.15-3.32-.32-5,0-.61-.11-1.22-.17-1.83a8,8,0,0,0-.79-3.06,5.07,5.07,0,0,0-.46-.47,3.06,3.06,0,0,0-1.56,2.95c0,1,0,2,0,3-.17,2.79-.08,5.62-.09,8.42,0,4.91.12,9.84,0,14.75a70.6,70.6,0,0,1,.2,10.57,16.59,16.59,0,0,1-.6,4.14,2.71,2.71,0,0,1-2.65,1l0,0a9.73,9.73,0,0,1-1.91-.53c-.3-.13-.58-.27-.86-.41a3.59,3.59,0,0,1-1.93-2.4,25.25,25.25,0,0,1-.13-5.07c0-1.19,0-2.39,0-3.58a9,9,0,0,0-.42-3.37c-1.54.18-2.23.92-2.05,2.23,0,.5-.06,1.15-.1,1.66-.08,1.35,0,2.73,0,4.09,0,3.61-.88,8.34,3,10,1.52.68,5.25,1.17,5.7,3,.55,1.19-.22,2.52-1.14,3.78-1.63,2.24-3.22,4.93-5.31,6.84a6,6,0,0,1-2.19,1.76c-1.9,1.27-5.7-2.12-7.1-3-2-1.22-5.2-2.71-6.37-5-2.31-3.09-1-8.18-.8-11.79.09-1.75,0-3.51.14-5.26.17-1.57.42-3.59,1.59-4.73,1-1,2.44-1.21,3.65-1.83a14.29,14.29,0,0,0,3.32-2.25A7.91,7.91,0,0,0,65,172.83c1.52-2.72,1.27-6.43,1.61-9.44.3-2.61.42-5.29.48-7.92,0-1.63.14-3.26.22-4.88,0-.51,0-1,.08-1.53a9,9,0,0,0,0-1.42l-.06,0c-.22-.8-1-1.43-1.81-1a1.2,1.2,0,0,0-.45.91,4.41,4.41,0,0,0-.12,1.86c0,.55,0,1.09,0,1.64,0,1.62-.1,3.28-.19,4.91-.2,3.36-.29,6.69-.69,10s-.5,5.06-3,7.22c-1,.88-3.21,2.8-4.74,2.55a1.81,1.81,0,0,1-.48-1.28c.24-4.17,1.18-16.51.44-21a1.4,1.4,0,0,0-.43-1.24c-.4-.36-1.08.23-1.31.49-.55.61-.47,1.89-.48,2.65,0,.57,0,1.13,0,1.69-.19,2.18-.28,4.36-.39,6.55-.24,4.67-.54,9.32-.85,14-.28,4.32-.72,8.61-1.18,12.91-.06.61,0,1.86,0,3.06a10.27,10.27,0,0,1-.26,1.69c-.22.76-.62,1.28-1.35,1.22-1.52-.14-3-1.13-4.42-1.71C43.66,194,41.82,193,40,192A29.86,29.86,0,0,1,32,185.77c-1.77-1.93-1.67-4.24-1.56-6.67a25.7,25.7,0,0,1,.21-3.72c0-.07,0-.15,0-.22a10.45,10.45,0,0,1,.29-1.4c.05-.21.1-.42.16-.63a3.68,3.68,0,0,1,1.2-1.79c.17-.17.36-.35.56-.52,4.52-2,5.9-6.16,6.2-11.12.13-2.13.23-4.25.29-6.38,0-1.23.56-4.78-.4-6.15-1-.52-1.31,2.3-1.37,3-.15,1.79-.33,3.58-.4,5.37-.11,2.51.4,7.58-1.6,9.49-.83.79-6.38,4.35-6.28,1.09a13.85,13.85,0,0,1,0-1.42c.05-2.82.35-5.63.34-8.45,0-2.33.09-4.66.12-7,0-.7.12-2.29.14-4-.11-2.42-.4-4.51-1-5.32a1.11,1.11,0,0,0-1.08.11c-.83.46-.58,2.18-.53,3,0,.28,0,.56-.05.83-.1,1.55-.11,3.09-.14,4.63,0,2.3-.11,4.57-.24,6.86-.11,1.81-1.51,1.67-2.91,1l-.57-.3-.23-.12-.35-.21-.23-.1a2.17,2.17,0,0,1-.93-.86,4.35,4.35,0,0,1-.28-.76,3.47,3.47,0,0,1-.1-.68c-.12-1.51.22-5.66-.54-8.24-.06-.64-.17-1.42-.75-1.61a1,1,0,0,0-1.29.56l0,.1a1,1,0,0,0-.18.62,6.78,6.78,0,0,0,0,1.91v.06c0,1.19-.05,2.38-.08,3.57a60.86,60.86,0,0,0,.13,7.4s0,0,0,.06l.09.48c.53,2.74,2.25,3.58,4.66,4.14a2.1,2.1,0,0,1,1.79,2.44c.49,2.43.09,5.09,0,7.54-.08,2.95-.37,5.93-.24,8.88.07,1.43,1.82,3,1.18,4.33a.14.14,0,0,1-.16.07c-3.16-.76-10.34-2.34-11.18-6.43a22.75,22.75,0,0,1,.14-6.74A2.32,2.32,0,0,1,16,170.8a5.35,5.35,0,0,0,2.22-1.8c.62-1.73,1-5.17.15-6.4q-1.18-.47-1.26.93c0,.26,0,.51-.08.77-.1.71-.15,1.44-.25,2.15a3.5,3.5,0,0,1-1.09,2.41,1.91,1.91,0,0,1-1.77-.06,2.48,2.48,0,0,1-.58-.35c-2.07-1.2-.91-5.72-.88-7.72.05-2.71.3-5.42.41-8.13a23.58,23.58,0,0,0,.08-4.43c-.05-1-.61-3-2-2.26a1.62,1.62,0,0,0-.8,1.65,3.28,3.28,0,0,0,0,.52c0,.73-.06,1.46-.08,2.18-.07,1.91,0,3.82,0,5.74,0,1.29.38,5.67-.62,6.68-1.38,1.39-4.83,1-6.83-.39a3.29,3.29,0,0,1-2.15-2.61c0-.44.13-2.64,0-4.57a5.76,5.76,0,0,0,0-2.11c-.09-.3.31-.59,0-.73,0,0,0-.06,0-.08h0v14a6.75,6.75,0,0,0,3.54,2c2.3.64,5.13.09,5.06,2.86a10.49,10.49,0,0,1,.1,1.54c0,1.12,0,2.23,0,3.35,0,.31.06.62.11.93A10.7,10.7,0,0,0,14.52,185c4.63,3.2,9.58,5.82,14.39,8.68A.19.19,0,0,1,29,194c1.06.48,2.12.93,3.1,1.41,2.33,1.17,4.7,2.27,7,3.41,4.08,2,8.1,4.11,12.13,6.17,2.65,1.08,5.63,2.46,7.5,4.35,2.61,2.64,2.8,5.46,2.54,9.11,0,3.53-.41,7.1-.61,10.59-.14,2.51-.48,5-.57,7.52-.06,1.65-.09,3.37-.25,5.06-.1,2.37-.23,4.73-.45,7.09A10.78,10.78,0,0,1,59,251a1.79,1.79,0,0,1-1.26.61,1.55,1.55,0,0,1-1-.1,7.82,7.82,0,0,1-1-.36c-.31-.22-.58-.44-.76-.56-2.41-1.67-5.43-3.08-7.27-5.46-1.54-2-.63-6.42-.57-8.75,0-1.78-.3-4.86.71-6.64a2.69,2.69,0,0,1,1.29-1.52c1.82-1.19,3.29-2.23,3.57-4.66.21-1.9.17-3.85.3-5.76.09-1.35,1.2-6.75-.7-7.85-1.35.47-1,5-1,6.09,0,.33,0,.74,0,1.19-.21,2-.34,4-1.55,5.31a1.82,1.82,0,0,1-2.25.14c-.76-.4-.75-1.66-.82-2.55,0-.1,0-.22,0-.33.27-2.09.45-4.2.52-6.3,0-.74.12-2.24-.71-2.64a1.25,1.25,0,0,0-.7-.13h0a1,1,0,0,0-.64.16c-.83,1.09-1.11,3.83-1.2,4.6-.29,2.24-.3,4.52-.48,6.78a32.44,32.44,0,0,0,0,5.83,8.41,8.41,0,0,0,.79,2.51,5.42,5.42,0,0,1,.8,2.92c-.21,2.14-.06,4.46-.42,6.62-.05,1.37-.36,2.64-1.65,2.73-2.39.18-5.72-1.28-7.94-2.17-1.07-.43-2.14-.77-3.07-1.26-.39-.27-.83-.55-1.22-.87l-.28-.28-.12-.09a2.78,2.78,0,0,1-.55-.77c-.65-1.43-.52-3.18-.57-4.72,0-.79-.06-1.58-.1-2.37,0-1.54,0-3.08.07-4.61a7,7,0,0,1,.36-2.81,2.24,2.24,0,0,1,2.13-1.77,7.4,7.4,0,0,1,.77.1,6.29,6.29,0,0,0,1.36.2,2.34,2.34,0,0,0,2-.87,8.8,8.8,0,0,0,.92-4.82c0-.53,0-1,0-1.43,0-.24,0-.48,0-.71.08-1,1-4.74-.44-5.3-1.21-.48-1.16,1.43-1,2.18,0,.23-.07.46-.1.7-.19,1.26-.21,2.57-.33,3.84-.14,1.43-.55,2.51-2,3a7.21,7.21,0,0,1-6.66-1.22c-1.57-1-2-2.85-2.24-5.13s-.11-4.54-.22-6.79c-.09-2.07.7-7.67-1.08-9.41h-.1a.9.9,0,0,0-.45-.16c-.76-.09-1.21,1.15-1.25,1.73a27.58,27.58,0,0,0,.06,3.63c0,.37,0,.65,0,.77,0,3.2-.14,6.38.1,9.58.27,3.54,1,6.38,4.24,8.37A3.62,3.62,0,0,1,26,220c1.07,1.87.48,4.92.49,6.92,0,2.18,0,4.39-.13,6.57-.07,1.11-.21,2.64-1.33,3.19a3.94,3.94,0,0,1-.93.32c-5.18-2.2-16-6.75-16.12-7.06-.75-.84-.28-3.14-.25-4.13,0-.23,0-.46,0-.69a6.6,6.6,0,0,1,.17-2.46A2.64,2.64,0,0,1,9,221.4a16.76,16.76,0,0,1,3.77-2.16c3.3-1.71,3.2-5.38,3.39-8.75.06-1.14,1.07-9.37-.93-9.79-1.22.13-1.08,3.62-1.09,3.93-.08,1.72-.11,3.44-.25,5.16-.17,2-.16,5-1.61,6.5-1,1.1-4.89,3.17-5.78,1.37-1-1.27-.31-3.77-.27-5.26s.94-8.19.15-11.07v-.05a1.77,1.77,0,0,0-.18-.45,2.32,2.32,0,0,0-.27-.47.49.49,0,0,0-.17,0c-.4-.26-.92-.21-1.28.43a4.86,4.86,0,0,0-.39,2.93c0,.56,0,1.13,0,1.69,0,2.81,0,5.62,0,8.43s-.15,5.76-.08,8.63a28.17,28.17,0,0,1,.09,4.42,1.4,1.4,0,0,1-.8.92,3.28,3.28,0,0,1-1.43,0,7.05,7.05,0,0,1-1.42-.78v5.11c.92.53,1.6,1.07,2.5,1.63.25.07.48.14.66.21,1.44.56,2.79,1.3,4.19,1.93,2.76,1.25,5.53,2.44,8.31,3.62,3.07,1.29,31.5,10.57,41.5,20.85l5.28,5.31c-.09-3.39,2-6,3.91-7.92a61.5,61.5,0,0,1,11.57-8.64c4.09-2.51,8.43-4.54,12.53-7,3.26-2,6.73-4,10.23-5.67,4-2.23,8.18-3.9,12.09-6.18,4.35-2.53,8.81-4.89,13.15-7.47,4.83-2.86,10.67-6.57,13.18-11.82,1.32-2.77,1.21-5.72,1.51-8.7.06-.62.08-1.18.11-1.7a6.92,6.92,0,0,1,.69-2.16c.21-.24.41-.48.63-.72a11.18,11.18,0,0,1,1.2-.92c1.23-.86,2.4-1.7,3.64-2.49a11.12,11.12,0,0,0,3.33-3.74c1.22-2.19,1.15-5.63,1.24-8.07.12-2.89.29-5.78.36-8.67,0-1.4.09-2.8.09-4.19C152.38,169.45,152.46,168.21,152.38,167Z"/><path class="cls-29" d="M1.69,197.14c3.89-1.82,3.45-7.26,3.42-11,0-1.24,0-2.48,0-3.71,0-1,0-1.92,0-2.88,0,.13-.12-.63-.33-1.42l-.12,0c-.19-.53-.53-.9-1.08-.5-.83.62-.61,1.66-.57,2.61,0,.13,0,.26,0,.39s0,.19,0,.27c-.06,1.4-.18,2.8-.19,4.2,0,1.77.08,5.91-1.31,7.24a4.15,4.15,0,0,1-1,.87v4.39A5.7,5.7,0,0,0,1.69,197.14Z"/></svg>